<svg width="316" height="120" viewBox="0 0 316 120" fill="none" xmlns="http://www.w3.org/2000/svg">
<path d="M133.089 88.8268C133.089 97.6257 128.887 102.067 120.483 102.067C116.775 102.067 111.337 100.223 104.251 96.6201C96.4238 92.5978 89.8322 90.6704 84.559 90.6704C73.1062 90.6704 62.3126 95.2793 52.2605 104.413C47.3993 108.855 43.6091 114.05 40.8901 120C40.7253 119.246 40.5605 117.989 40.5605 116.397C40.5605 110.698 42.2084 105 45.5866 99.3855C48.6352 94.1899 52.6725 89.8324 57.5337 86.3129C63.0541 82.3743 69.3161 80.4469 76.3196 80.4469C81.1809 80.4469 85.383 81.2849 89.0083 82.9609C90.9034 83.8827 94.6111 86.229 100.049 89.9162C104.746 93.1006 108.289 94.7765 110.76 94.7765C116.94 94.7765 121.801 92.1788 125.427 86.9832C126.992 84.7207 127.816 82.5419 127.816 80.4469C127.816 76.676 126.662 73.5754 124.438 70.9777C122.213 68.4637 119.247 67.2067 115.622 67.2067C112.243 67.2067 106.723 68.8827 99.0604 72.4022C91.3977 75.838 85.7949 77.514 82.4992 77.514C80.0273 77.514 77.0612 76.257 73.5182 73.743C66.2675 68.4637 62.6422 63.5196 62.6422 58.9944C62.6422 56.4804 64.0429 54.2179 66.7619 52.0391C69.2337 50.1117 71.7879 49.0224 74.4245 48.771L74.5893 48.0168L71.1288 43.0726C69.2337 40.3073 68.245 37.3743 68.245 34.1899C68.245 23.2961 76.9788 17.7654 94.5287 17.7654C95.0231 17.6816 95.435 17.2626 95.5998 16.5084V8.63128H59.3464V0H131.276V8.54749H106.393V20.5307C106.393 22.7933 107.053 24.1341 108.289 24.7207C109.03 24.7207 110.101 23.9665 111.255 22.4581L113.974 19.1899C114.715 18.4358 115.951 18.0168 117.764 17.7654C120.73 17.7654 123.531 19.4413 126.168 22.8771C127.404 24.4693 128.146 25.9777 128.557 27.5698L121.224 36.1173C121.142 33.9385 120.73 31.9274 119.906 30.1676C118.835 27.7374 117.434 26.5642 115.704 26.5642C115.045 26.5642 114.303 26.8994 113.397 27.486C112.491 28.0726 112.079 28.743 112.079 29.3296C112.079 30.0838 112.408 30.9218 112.985 31.9274C113.727 33.1006 114.056 33.8548 114.221 34.1061C114.55 35.1955 114.715 36.6201 114.715 38.2123C114.715 44.581 112.161 48.9385 107.053 51.2011C103.674 52.7095 98.3188 53.4637 90.9858 53.4637C81.6752 53.4637 75.2485 55.5587 71.8703 59.8324C70.552 61.5084 69.8929 62.8492 69.8929 63.8547C69.8929 65.2793 70.6344 66.5363 71.9527 67.6257C73.3534 68.7151 74.6717 69.2179 76.1548 69.2179C78.7914 69.2179 83.8999 67.3743 91.4801 63.6034C100.379 59.162 107.547 56.8994 112.985 56.8156C118.011 56.7318 122.213 58.9944 125.591 63.6034C128.31 67.2905 130.37 71.8994 131.524 77.514C132.595 82.4581 133.172 86.229 133.172 88.743M105.817 31.676C105.817 25.8939 102.768 23.0447 96.7533 23.0447C91.8921 23.0447 87.278 24.8045 82.9935 28.2402C78.2971 31.9274 75.99 36.2011 75.99 40.9777C75.99 43.5754 76.9788 45.838 78.9562 47.6816C80.9337 49.5251 83.2407 50.4469 85.7949 50.4469C88.4315 50.4469 91.4801 49.5251 94.7759 47.514C97.7421 45.7542 100.214 43.743 102.191 41.3966C104.581 38.5475 105.734 35.2793 105.734 31.676" fill="url(#paint0_linear_662_248114)"/>
<path d="M201.065 8.54749H154.43V20.0279C154.43 20.0279 154.842 20.1117 155.006 20.2793C155.171 20.4469 155.336 20.6145 155.501 20.6145C155.089 20.6145 154.924 20.6145 154.842 20.6145C154.842 20.3631 158.302 19.6089 165.223 18.352C167.777 17.8492 170.332 17.6816 172.886 17.6816C183.35 17.6816 190.106 20.6983 193.072 26.648C195.05 30.6704 196.121 38.7151 196.121 50.7821V78.1844C195.132 77.7654 191.425 76.257 184.998 73.5754C184.998 72.067 184.668 71.0615 184.091 70.6425C181.62 72.1508 179.56 73.2402 177.994 73.9944C172.968 76.4246 167.118 77.5978 160.444 77.5978C151.216 77.5978 144.13 74.6648 139.187 68.7989C136.797 65.9497 135.561 62.7654 135.561 59.2458C135.561 55.3073 137.456 51.3687 141.329 47.514C148.744 39.9721 157.973 36.2011 169.013 36.2011C175.687 36.2011 181.043 37.7933 185.08 40.8939V34.3575C183.02 31.676 181.043 29.9162 179.065 28.9944C177.17 28.0726 174.451 27.6536 171.156 27.8212C163.658 27.9888 156.737 29.3296 150.475 32.0112C147.673 33.1844 144.954 34.2737 142.318 35.1955V29.9162C142.894 29.4134 143.801 28.5754 144.954 27.5698C145.119 27.3184 145.284 27.1508 145.284 27.1508V8.54749H130.947V0H201.065V8.54749ZM184.998 53.6313C184.998 51.5363 182.526 49.6927 177.665 48.0168C173.627 46.676 170.249 45.9218 167.53 45.9218C157.643 45.9218 149.816 49.5251 143.883 56.7318C141.494 59.6648 140.34 62.0112 140.34 63.8547C141.329 67.2905 145.119 69.0503 151.875 69.0503C160.527 69.0503 168.519 66.8715 175.687 62.4302C181.949 58.5754 185.08 55.6425 185.08 53.6313" fill="url(#paint1_linear_662_248114)"/>
<path d="M232.045 104.749C232.045 109.441 228.996 113.464 222.899 116.816C220.015 118.408 216.966 119.162 213.671 119.162C209.881 119.162 206.008 117.821 202.053 115.14C198.098 112.458 195.462 109.358 193.979 105.838L204.855 97.2905C205.761 109.358 209.057 115.391 214.824 115.391C218.12 115.391 219.768 113.38 219.768 109.441V17.3464H232.127V104.665L232.045 104.749ZM241.602 8.54749H199.499V0H241.602V8.54749Z" fill="url(#paint2_linear_662_248114)"/>
<path d="M275.439 48.3185L266.661 53.9218L257.697 48.6034L257.604 37.6816L266.288 32.0782L275.252 37.3967L275.439 48.3185Z" fill="url(#paint3_linear_662_248114)"/>
<path d="M275.439 82.3185L266.661 87.9218L257.79 82.6034L257.604 71.7766L266.381 66.1732L275.252 71.4917L275.439 82.3185Z" fill="url(#paint4_linear_662_248114)"/>
<defs>
<linearGradient id="paint0_linear_662_248114" x1="-9.67391" y1="-25.9459" x2="202.526" y2="-35.506" gradientUnits="userSpaceOnUse">
<stop offset="0.0287087" stop-color="#856220"/>
<stop offset="0.394995" stop-color="#F9D271"/>
<stop offset="0.715077" stop-color="#BF923D"/>
</linearGradient>
<linearGradient id="paint1_linear_662_248114" x1="-81.5" y1="-57.5" x2="210.822" y2="-123.265" gradientUnits="userSpaceOnUse">
<stop offset="0.0287087" stop-color="#856220"/>
<stop offset="0.394995" stop-color="#F9D271"/>
<stop offset="0.715077" stop-color="#BF923D"/>
</linearGradient>
<linearGradient id="paint2_linear_662_248114" x1="54.999" y1="-63.5" x2="214.018" y2="-106.426" gradientUnits="userSpaceOnUse">
<stop offset="0.0287087" stop-color="#856220"/>
<stop offset="0.394995" stop-color="#F9D271"/>
<stop offset="0.715077" stop-color="#BF923D"/>
</linearGradient>
<linearGradient id="paint3_linear_662_248114" x1="247.929" y1="27.3553" x2="288.786" y2="25.4079" gradientUnits="userSpaceOnUse">
<stop offset="0.0287087" stop-color="#856220"/>
<stop offset="0.394995" stop-color="#F9D271"/>
<stop offset="0.715077" stop-color="#BF923D"/>
</linearGradient>
<linearGradient id="paint4_linear_662_248114" x1="247.929" y1="61.4708" x2="288.785" y2="59.5149" gradientUnits="userSpaceOnUse">
<stop offset="0.0287087" stop-color="#856220"/>
<stop offset="0.394995" stop-color="#F9D271"/>
<stop offset="0.715077" stop-color="#BF923D"/>
</linearGradient>
</defs>
</svg>
