<svg width="235" height="186" viewBox="0 0 235 186" fill="none" xmlns="http://www.w3.org/2000/svg">
<path d="M234.027 81.2402L225.25 86.8436L216.285 81.5251L216.192 70.6034L224.876 65L233.841 70.3184L234.027 81.2402Z" fill="url(#paint0_linear_0_5)"/>
<path d="M-1.52737e-07 33.97V32.42H99.51L106.64 41.1V42.65H84.94V134.875H83.39L73.47 128.675V42.65H42.78V91.01C42.78 96.59 40.145 99.845 34.565 99.845C27.28 99.845 18.91 89.305 18.91 82.795C18.91 78.765 21.545 76.285 25.73 76.285H31.62V42.65H7.13L-1.52737e-07 33.97ZM92.7518 33.97V32.42H208.227L215.357 41.1V42.65H193.657V134.875H192.107L182.187 128.675L182.652 77.215H154.907C160.177 84.035 163.587 91.32 163.587 98.605C163.587 111.005 154.287 119.375 141.577 119.375C126.232 119.375 114.297 110.695 103.602 101.24V92.87C113.987 101.395 124.372 107.905 136.772 107.905C153.047 107.905 156.457 94.42 149.637 77.37H131.812L123.752 68.38V66.83H182.187V42.65H99.8818L92.7518 33.97Z" fill="url(#paint1_linear_0_5)"/>
<path d="M234.027 115.24L225.25 120.843L216.378 115.525L216.192 104.698L224.969 99.0947L233.841 104.413L234.027 115.24Z" fill="url(#paint2_linear_0_5)"/>
<defs>
<linearGradient id="paint0_linear_0_5" x1="216.192" y1="65" x2="279.136" y2="61.5886" gradientUnits="userSpaceOnUse">
<stop stop-color="#856220"/>
<stop offset="0.275" stop-color="#F9D271"/>
<stop offset="0.5" stop-color="#BF923D"/>
<stop offset="0.75" stop-color="#4E341B"/>
<stop offset="1" stop-color="#BD8251"/>
</linearGradient>
<linearGradient id="paint1_linear_0_5" x1="-160.943" y1="-28.3391" x2="700.014" y2="-48.4315" gradientUnits="userSpaceOnUse">
<stop offset="0.141334" stop-color="#856220"/>
<stop offset="0.275" stop-color="#F4E683"/>
<stop offset="0.384782" stop-color="#BF923D"/>
<stop offset="0.75" stop-color="#4E341B"/>
<stop offset="1" stop-color="#F1EA82"/>
</linearGradient>
<linearGradient id="paint2_linear_0_5" x1="216.192" y1="99.0947" x2="279.134" y2="95.6686" gradientUnits="userSpaceOnUse">
<stop stop-color="#856220"/>
<stop offset="0.275" stop-color="#F9D271"/>
<stop offset="0.5" stop-color="#BF923D"/>
<stop offset="0.75" stop-color="#4E341B"/>
<stop offset="1" stop-color="#BD8251"/>
</linearGradient>
</defs>
</svg>
