<?xml version="1.0" encoding="UTF-8"?>
<svg id="Layer_1" xmlns="http://www.w3.org/2000/svg" xmlns:xlink="http://www.w3.org/1999/xlink" version="1.1" viewBox="0 0 316 120">
  <!-- Generator: Adobe Illustrator 30.2.0, SVG Export Plug-In . SVG Version: 2.1.1 Build 105)  -->
  <defs>
    <style>
      .st0 {
        fill: url(#linear-gradient2);
      }

      .st1 {
        fill: url(#linear-gradient1);
      }

      .st2 {
        fill: url(#linear-gradient);
      }
    </style>
    <linearGradient id="linear-gradient" x1="257.79" y1="78.05" x2="320.74" y2="81.46" gradientTransform="translate(0 122) scale(1 -1)" gradientUnits="userSpaceOnUse">
      <stop offset="0" stop-color="#856220"/>
      <stop offset=".28" stop-color="#f9d271"/>
      <stop offset=".5" stop-color="#bf923d"/>
      <stop offset=".75" stop-color="#4e341b"/>
      <stop offset="1" stop-color="#bd8251"/>
    </linearGradient>
    <linearGradient id="linear-gradient1" x1="-117.2" y1="64.82" x2="743.75" y2="84.91" gradientTransform="translate(0 122) scale(1 -1)" gradientUnits="userSpaceOnUse">
      <stop offset=".14" stop-color="#856220"/>
      <stop offset=".28" stop-color="#f4e683"/>
      <stop offset=".38" stop-color="#bf923d"/>
      <stop offset=".75" stop-color="#4e341b"/>
      <stop offset="1" stop-color="#f1ea82"/>
    </linearGradient>
    <linearGradient id="linear-gradient2" x1="257.8" y1="44" x2="320.74" y2="47.43" xlink:href="#linear-gradient"/>
  </defs>
  <path class="st2" d="M275.01,48.82l-8.78,5.6-8.96-5.32-.09-10.92,8.68-5.6,8.96,5.32.19,10.92Z"/>
  <path class="st1" d="M40.99,1.55V0h99.51l7.13,8.68v1.55h-21.7v92.22h-1.55l-9.92-6.2V10.23h-30.69v48.36c0,5.58-2.63,8.83-8.22,8.83-7.28,0-15.65-10.54-15.65-17.05,0-4.03,2.64-6.51,6.82-6.51h5.89V10.23h-24.49l-7.13-8.68ZM133.74,1.55V0h115.48l7.13,8.68v1.55h-21.7v92.22h-1.55l-9.92-6.2.46-51.46h-27.74c5.27,6.82,8.68,14.11,8.68,21.39,0,12.4-9.3,20.77-22.01,20.77-15.34,0-27.28-8.68-37.97-18.14v-8.37c10.39,8.52,20.77,15.03,33.17,15.03,16.27,0,19.68-13.49,12.86-30.53h-17.82l-8.06-8.99v-1.55h58.43V10.23h-82.31l-7.13-8.68Z"/>
  <path class="st0" d="M275.01,82.82l-8.78,5.6-8.87-5.32-.19-10.83,8.78-5.6,8.87,5.32.19,10.83Z"/>
</svg>