<?xml version="1.0" encoding="UTF-8"?>
<svg xmlns="http://www.w3.org/2000/svg" xmlns:xlink="http://www.w3.org/1999/xlink" version="1.1" viewBox="0 0 94.17 83.74">
  <defs>
    <style>
      .cls-1 {
        filter: url(#drop-shadow-1);
      }

      .cls-2 {
        stroke: url(#GradientFill_2-4);
      }

      .cls-2, .cls-3, .cls-4, .cls-5, .cls-6, .cls-7, .cls-8, .cls-9 {
        fill: none;
        stroke-miterlimit: 10;
        stroke-width: .75px;
      }

      .cls-3 {
        stroke: url(#GradientFill_2-2);
      }

      .cls-4 {
        stroke: url(#GradientFill_2-6);
      }

      .cls-5 {
        stroke: url(#GradientFill_2-3);
      }

      .cls-6 {
        stroke: url(#GradientFill_2-7);
      }

      .cls-7 {
        stroke: url(#GradientFill_2-8);
      }

      .cls-8 {
        stroke: url(#GradientFill_2-5);
      }

      .cls-9 {
        stroke: url(#GradientFill_2);
      }

      .cls-10 {
        fill: url(#linear-gradient);
        stroke: #000;
        stroke-width: .56px;
      }
    </style>
    <linearGradient id="linear-gradient" x1="60.31" y1="-3023.46" x2="32.81" y2="-3121.98" gradientTransform="translate(0 -3029.28) scale(1 -1)" gradientUnits="userSpaceOnUse">
      <stop offset=".1" stop-color="#232722"/>
      <stop offset=".52" stop-color="#2f4029"/>
      <stop offset="1" stop-color="#0d3b0b"/>
    </linearGradient>
    <linearGradient id="GradientFill_2" data-name="GradientFill 2" x1="23.92" y1="41.87" x2="70.4" y2="41.87" gradientUnits="userSpaceOnUse">
      <stop offset="0" stop-color="#caa43b"/>
      <stop offset=".53" stop-color="#efe565"/>
      <stop offset="1" stop-color="#caa43b"/>
    </linearGradient>
    <filter id="drop-shadow-1" x="38.66" y="32.44" width="22.8" height="22.8" filterUnits="userSpaceOnUse">
      <feOffset dx="1" dy="2"/>
      <feGaussianBlur result="blur" stdDeviation="1"/>
      <feFlood flood-color="#231f20" flood-opacity=".35"/>
      <feComposite in2="blur" operator="in"/>
      <feComposite in="SourceGraphic"/>
    </filter>
    <linearGradient id="GradientFill_2-2" data-name="GradientFill 2" x1="40.84" y1="41.87" x2="57.44" y2="41.87" xlink:href="#GradientFill_2"/>
    <linearGradient id="GradientFill_2-3" data-name="GradientFill 2" x1="25.8" y1="41.87" x2="32.83" y2="41.87" xlink:href="#GradientFill_2"/>
    <linearGradient id="GradientFill_2-4" data-name="GradientFill 2" x1="28.45" y1="34.9" x2="35.48" y2="34.9" xlink:href="#GradientFill_2"/>
    <linearGradient id="GradientFill_2-5" data-name="GradientFill 2" x1="27.12" y1="38.39" x2="34.16" y2="38.39" xlink:href="#GradientFill_2"/>
    <linearGradient id="GradientFill_2-6" data-name="GradientFill 2" x1="27.12" y1="45.35" x2="34.16" y2="45.35" xlink:href="#GradientFill_2"/>
    <linearGradient id="GradientFill_2-7" data-name="GradientFill 2" x1="28.45" y1="48.84" x2="35.48" y2="48.84" xlink:href="#GradientFill_2"/>
    <linearGradient id="GradientFill_2-8" data-name="GradientFill 2" x1="45.91" y1="41.87" x2="52.36" y2="41.87" xlink:href="#GradientFill_2"/>
  </defs>
  <!-- Generator: Adobe Illustrator 28.7.1, SVG Export Plug-In . SVG Version: 1.2.0 Build 142)  -->
  <g>
    <g id="Layer_2">
      <circle class="cls-10" cx="47" cy="41.87" r="41.87"/>
      <g>
        <path class="cls-9" d="M48.38,63.36v-10.08h-23.33c-.41,0-.75-.34-.75-.75v-21.32c0-.41.34-.75.75-.75h23.33v-10.08l21.49,21.49-21.49,21.49Z"/>
        <g class="cls-1">
          <path class="cls-3" d="M49.14,33.95c-4.38,0-7.92,3.55-7.92,7.92s3.55,7.92,7.92,7.92,7.92-3.55,7.92-7.92-3.55-7.92-7.92-7.92Z"/>
        </g>
        <g>
          <path class="cls-5" d="M31.92,42.41h-5.22c-.3,0-.54-.24-.54-.54s.24-.54.54-.54h5.22c.3,0,.54.24.54.54s-.24.54-.54.54Z"/>
          <path class="cls-2" d="M34.57,35.44h-5.22c-.3,0-.54-.24-.54-.54s.24-.54.54-.54h5.22c.3,0,.54.24.54.54s-.24.54-.54.54Z"/>
          <path class="cls-8" d="M33.25,38.92h-5.22c-.3,0-.54-.24-.54-.54s.24-.54.54-.54h5.22c.3,0,.54.24.54.54s-.24.54-.54.54Z"/>
          <path class="cls-4" d="M33.25,45.89h-5.22c-.3,0-.54-.24-.54-.54s.24-.54.54-.54h5.22c.3,0,.54.24.54.54s-.24.54-.54.54Z"/>
          <path class="cls-6" d="M34.57,49.37h-5.22c-.3,0-.54-.24-.54-.54s.24-.54.54-.54h5.22c.3,0,.54.24.54.54s-.24.54-.54.54Z"/>
        </g>
        <path class="cls-7" d="M51.99,38.08s-.02.05-.05.05h-2.11v.05c.3.16.53.49.7.99l.02.17h1.39s.05.02.05.05v.53s-.02.05-.05.05h-1.33c0,.6-.37,1.18-1.1,1.74-.65.37-1.11.56-1.38.56,0,.02-.02.02-.05.02l3.01,3.9v.05h-1.14s-1.17-1.51-3.49-4.52v-.02h.36c1.28,0,2.05-.46,2.3-1.38.02-.11.02-.2.02-.27v-.07h-2.81s-.05-.02-.05-.05v-.53s.02-.05.05-.05h2.79c-.09-.36-.3-.65-.6-.88-.43-.22-.81-.34-1.17-.34h-1.02s-.05-.02-.05-.05v-.53s.02-.05.05-.05h5.6s.05.02.05.05v.53Z"/>
      </g>
    </g>
  </g>
</svg>