<?xml version="1.0" encoding="UTF-8"?>
<svg xmlns="http://www.w3.org/2000/svg" xmlns:xlink="http://www.w3.org/1999/xlink" version="1.1" viewBox="0 0 94.17 83.74">
  <defs>
    <style>
      .cls-1 {
        fill: url(#linear-gradient-8);
      }

      .cls-2 {
        fill: url(#linear-gradient-7);
      }

      .cls-3 {
        fill: url(#linear-gradient-5);
      }

      .cls-4 {
        fill: url(#linear-gradient-6);
      }

      .cls-5 {
        fill: url(#linear-gradient-9);
      }

      .cls-6 {
        fill: url(#linear-gradient-4);
      }

      .cls-7 {
        fill: url(#linear-gradient-3);
      }

      .cls-8 {
        fill: url(#linear-gradient-2);
      }

      .cls-9 {
        fill: none;
        stroke: url(#GradientFill_2);
        stroke-miterlimit: 10;
        stroke-width: .75px;
      }

      .cls-10 {
        fill: url(#linear-gradient);
        stroke: #000;
        stroke-width: .56px;
      }
    </style>
    <linearGradient id="linear-gradient" x1="60.31" y1="-3023.46" x2="32.81" y2="-3121.98" gradientTransform="translate(0 -3029.28) scale(1 -1)" gradientUnits="userSpaceOnUse">
      <stop offset=".1" stop-color="#232722"/>
      <stop offset=".52" stop-color="#2f4029"/>
      <stop offset="1" stop-color="#0d3b0b"/>
    </linearGradient>
    <linearGradient id="linear-gradient-2" x1="23.94" y1="52.8" x2="70.22" y2="52.8" gradientUnits="userSpaceOnUse">
      <stop offset="0" stop-color="#caa43b"/>
      <stop offset=".53" stop-color="#efe565"/>
      <stop offset="1" stop-color="#caa43b"/>
    </linearGradient>
    <linearGradient id="GradientFill_2" data-name="GradientFill 2" x1="44.32" y1="31.06" x2="62.51" y2="31.06" gradientUnits="userSpaceOnUse">
      <stop offset="0" stop-color="#caa43b"/>
      <stop offset=".53" stop-color="#efe565"/>
      <stop offset="1" stop-color="#caa43b"/>
    </linearGradient>
    <linearGradient id="linear-gradient-3" x1="52.63" y1="19.21" x2="54.19" y2="19.21" xlink:href="#linear-gradient-2"/>
    <linearGradient id="linear-gradient-4" x1="62.42" y1="25.12" x2="64.86" y2="25.12" xlink:href="#linear-gradient-2"/>
    <linearGradient id="linear-gradient-5" x1="58.21" y1="20.83" x2="60.36" y2="20.83" xlink:href="#linear-gradient-2"/>
    <linearGradient id="linear-gradient-6" x1="42.01" y1="25.21" x2="44.34" y2="25.21" xlink:href="#linear-gradient-2"/>
    <linearGradient id="linear-gradient-7" x1="46.48" y1="20.81" x2="48.52" y2="20.81" xlink:href="#linear-gradient-2"/>
    <linearGradient id="linear-gradient-8" x1="63.93" y1="31.01" x2="66.52" y2="31.01" xlink:href="#linear-gradient-2"/>
    <linearGradient id="linear-gradient-9" x1="40.31" y1="31.01" x2="42.88" y2="31.01" xlink:href="#linear-gradient-2"/>
  </defs>
  <!-- Generator: Adobe Illustrator 28.7.1, SVG Export Plug-In . SVG Version: 1.2.0 Build 142)  -->
  <g>
    <g id="Layer_2">
      <circle class="cls-10" cx="47" cy="41.87" r="41.87"/>
      <g>
        <path class="cls-8" d="M68.96,40.49c-1.78-1.14-4-.93-5.65.56-1.72,1.56-3.43,3.13-5.15,4.69-.11.1-.23.19-.35.3-1.03-1.29-2.34-1.79-3.92-1.75-1.8.04-3.59.04-5.38-.01-.72-.02-1.44-.19-2.15-.34-1.2-.25-2.38-.65-3.59-.78-2.55-.28-4.92.26-6.93,1.97-1.76,1.49-3.54,2.96-5.3,4.44-.22.19-.4.27-.7.15-.93-.38-1.79-.2-2.5.49-.91.87-1.81,1.77-2.68,2.68-.97,1-.95,2.39.04,3.38,2.92,2.94,5.85,5.87,8.79,8.8,1,1,2.41,1,3.42.01.88-.86,1.77-1.72,2.6-2.62.3-.32.51-.75.64-1.17.27-.87-.08-1.61-.66-2.26,1.51-1.84,3.43-2.55,5.79-2.38,3.43.24,6.85.01,10.21-.78,1.72-.41,3.38-.99,4.67-2.29,3.08-3.08,6.15-6.15,9.22-9.23,1.27-1.27,1.09-2.9-.42-3.86ZM68.7,43.27c-3.08,3.09-6.31,6.45-9.4,9.53-1.07,1.07-2.62,1.6-4.04,1.93-3.02.72-6.19.92-9.28.86-1.1,0-2.53-.08-3.62.09l-3.32,1.63c-.21.2-.39.44-.53.6-2.43-2.38-5.11-4.98-7.49-7.32.94-.79,1.84-1.55,2.75-2.3.88-.74,1.79-1.46,2.65-2.22,1.6-1.41,3.96-1.86,6.02-1.77,1.22.05,2.29.36,3.46.69.87.25,1.8.39,2.7.42,1.89.06,3.94.02,5.83.03,1.6,0,2.99,1.54,3.04,2.99.02.74-.66,1.36-1.41,1.36-4.27.01-8.53,0-12.8.02-.15,0-.31-.02-.47.01-.4.05-.67.22-.66.61.01.4.29.5.72.53.15.02.31.01.47.01,4.19,0,8.38-.04,12.58.03,1.61.02,2.92-1.56,2.51-3.64-.05-.28.03-.42.22-.59,1.87-1.7,3.68-3.25,5.56-4.94,1.1-1,3-1.08,4.17-.3.66.43.91,1.19.35,1.75Z"/>
        <path class="cls-9" d="M57.15,39.52c-.42-.14-.86-.25-1.26-.44-.63-.3-1.25-.64-1.86-.97-.42-.23-.82-.22-1.24,0-.61.34-1.24.66-1.86.98-.97.51-1.93.49-2.82-.15-.86-.63-1.22-1.5-1.03-2.58.12-.69.23-1.38.36-2.07.09-.5,0-.91-.39-1.27-.52-.49-1.04-.99-1.54-1.5-.76-.76-1.01-1.67-.66-2.7.34-1.02,1.08-1.6,2.15-1.75.65-.09,1.29-.2,1.94-.28.59-.07,1-.34,1.25-.9.26-.6.57-1.18.86-1.76.49-.98,1.28-1.53,2.38-1.52,1.09,0,1.89.55,2.37,1.53.31.63.63,1.25.93,1.88.2.41.49.66.96.72.75.1,1.51.21,2.26.34,1.03.17,1.72.77,2.06,1.75.33.97.12,1.85-.58,2.59-.52.56-1.08,1.08-1.63,1.61-.35.34-.49.72-.39,1.22.16.74.27,1.5.39,2.25.23,1.52-1.02,2.93-2.63,3.01Z"/>
        <g>
          <path class="cls-7" d="M53.63,17.92c.42.22.58.58.55,1.04-.02.26.01.53-.01.79-.04.43-.36.75-.75.76-.39,0-.72-.29-.76-.74-.03-.37-.07-.76.02-1.12.06-.27.32-.49.48-.74.16,0,.31,0,.47,0Z"/>
          <path class="cls-6" d="M64.86,24.93c0,.53-.56.65-.96.91-.34.22-.69.45-1.12.19-.42-.26-.5-.88-.1-1.19.37-.28.78-.51,1.2-.7.46-.2.96.18.98.79Z"/>
          <path class="cls-3" d="M58.21,21.18c.33-.49.61-1.03,1.01-1.46.13-.14.6-.08.84.04.28.14.4.49.24.81-.2.4-.41.8-.67,1.16-.19.27-.49.36-.83.23-.32-.13-.48-.37-.58-.78Z"/>
          <path class="cls-4" d="M43.63,26.29c-.57-.39-1.1-.69-1.55-1.1-.13-.11-.08-.6.07-.78.14-.18.55-.34.75-.27.46.16.9.42,1.27.74.16.14.22.56.14.79-.08.22-.39.37-.68.61Z"/>
          <path class="cls-2" d="M47.35,19.59c.58.04.66.68.96,1.1.21.3.3.62.1.96-.23.39-.8.53-1.08.19-.34-.41-.62-.9-.81-1.39-.17-.44.24-.86.83-.86Z"/>
          <path class="cls-1" d="M65.22,31.76c-.2,0-.4.01-.6,0-.41-.04-.7-.35-.68-.74.02-.41.24-.69.64-.73.43-.05.87-.05,1.3,0,.4.04.62.33.64.74.02.38-.29.7-.69.73-.2.02-.4,0-.6,0Z"/>
          <path class="cls-5" d="M41.59,31.77c-.19,0-.37.01-.56,0-.42-.03-.71-.32-.72-.71-.02-.38.27-.74.66-.77.42-.03.84-.03,1.26,0,.4.03.67.38.64.78-.03.42-.26.66-.68.7-.2.02-.4,0-.61,0,0,0,0,0,0,0Z"/>
        </g>
      </g>
    </g>
  </g>
</svg>