<?xml version="1.0" encoding="UTF-8"?>
<svg xmlns="http://www.w3.org/2000/svg" xmlns:xlink="http://www.w3.org/1999/xlink" version="1.1" viewBox="0 0 94.17 83.74">
  <defs>
    <style>
      .cls-1 {
        stroke: url(#GradientFill_2-4);
      }

      .cls-1, .cls-2, .cls-3, .cls-4, .cls-5, .cls-6 {
        fill: none;
        stroke-miterlimit: 10;
        stroke-width: .75px;
      }

      .cls-2 {
        stroke: url(#GradientFill_2-2);
      }

      .cls-3 {
        stroke: url(#GradientFill_2-6);
      }

      .cls-4 {
        stroke: url(#GradientFill_2-3);
      }

      .cls-5 {
        stroke: url(#GradientFill_2-5);
      }

      .cls-6 {
        stroke: url(#GradientFill_2);
      }

      .cls-7 {
        fill: url(#linear-gradient);
        stroke: #000;
        stroke-width: .56px;
      }
    </style>
    <linearGradient id="linear-gradient" x1="60.31" y1="-3287.68" x2="32.81" y2="-3386.2" gradientTransform="translate(0 -3293.5) scale(1 -1)" gradientUnits="userSpaceOnUse">
      <stop offset=".1" stop-color="#232722"/>
      <stop offset=".52" stop-color="#2f4029"/>
      <stop offset="1" stop-color="#0d3b0b"/>
    </linearGradient>
    <linearGradient id="GradientFill_2" data-name="GradientFill 2" x1="41.68" y1="35.05" x2="52.26" y2="35.05" gradientUnits="userSpaceOnUse">
      <stop offset="0" stop-color="#caa43b"/>
      <stop offset=".53" stop-color="#efe565"/>
      <stop offset="1" stop-color="#caa43b"/>
    </linearGradient>
    <linearGradient id="GradientFill_2-2" data-name="GradientFill 2" x1="34.77" y1="43.69" x2="59.4" y2="43.69" xlink:href="#GradientFill_2"/>
    <linearGradient id="GradientFill_2-3" data-name="GradientFill 2" x1="46.98" y1="53.57" x2="47.73" y2="53.57" xlink:href="#GradientFill_2"/>
    <linearGradient id="GradientFill_2-4" data-name="GradientFill 2" x1="43.52" y1="52.85" x2="44.27" y2="52.85" xlink:href="#GradientFill_2"/>
    <linearGradient id="GradientFill_2-5" data-name="GradientFill 2" x1="40.07" y1="51.99" x2="40.82" y2="51.99" xlink:href="#GradientFill_2"/>
    <linearGradient id="GradientFill_2-6" data-name="GradientFill 2" x1="28.61" y1="41.83" x2="65.56" y2="41.83" xlink:href="#GradientFill_2"/>
  </defs>
  <!-- Generator: Adobe Illustrator 28.7.1, SVG Export Plug-In . SVG Version: 1.2.0 Build 142)  -->
  <g>
    <g id="Layer_2">
      <circle class="cls-7" cx="47" cy="41.87" r="41.87"/>
      <g>
        <g>
          <g>
            <rect class="cls-6" x="42.06" y="34.6" width="9.83" height=".91"/>
            <path class="cls-2" d="M59.02,55.18c0-4,0-7.99,0-11.99,0-.23-.02-1.45-1-2.44-.62-.62-1.47-1.01-2.4-1.01h-2.51v-6.54c0-.35-.28-.62-.61-.62s-.61.27-.61.62v6.54h-9.61v-6.54c0-.35-.28-.62-.61-.62s-.61.27-.61.62v6.54h-2.5c-1.88,0-3.4,1.55-3.4,3.45,0,3.86,0,7.71,0,11.57"/>
          </g>
          <line class="cls-4" x1="47.35" y1="44.91" x2="47.35" y2="62.22"/>
          <line class="cls-1" x1="43.9" y1="44.91" x2="43.9" y2="60.79"/>
          <line class="cls-5" x1="40.45" y1="44.91" x2="40.45" y2="59.06"/>
        </g>
        <path class="cls-3" d="M65.1,38.61c-.18-2.19,0-12.55,0-12.55,0,0-10.81.27-18.2-4.9,0,0-7.69,6.61-17.91,5.1v12.55c0,2.2,0,17.36,18.06,23.77,0,0,19.59-5.82,18.06-23.97Z"/>
      </g>
    </g>
  </g>
</svg>