<?xml version="1.0" encoding="UTF-8"?>
<svg xmlns="http://www.w3.org/2000/svg" xmlns:xlink="http://www.w3.org/1999/xlink" version="1.1" viewBox="0 0 94.17 83.74">
  <defs>
    <style>
      .cls-1 {
        filter: url(#drop-shadow-1);
      }

      .cls-2 {
        stroke: url(#GradientFill_2-4);
      }

      .cls-2, .cls-3, .cls-4, .cls-5, .cls-6, .cls-7, .cls-8, .cls-9 {
        fill: none;
        stroke-miterlimit: 10;
        stroke-width: .75px;
      }

      .cls-3 {
        stroke: url(#GradientFill_2-2);
      }

      .cls-4 {
        stroke: url(#GradientFill_2-6);
      }

      .cls-5 {
        stroke: url(#GradientFill_2-3);
      }

      .cls-6 {
        stroke: url(#GradientFill_2-7);
      }

      .cls-7 {
        stroke: url(#GradientFill_2-8);
      }

      .cls-8 {
        stroke: url(#GradientFill_2-5);
      }

      .cls-9 {
        stroke: url(#GradientFill_2);
      }

      .cls-10 {
        fill: url(#linear-gradient);
        stroke: #000;
        stroke-width: .56px;
      }
    </style>
    <linearGradient id="linear-gradient" x1="60.31" y1="-3023.46" x2="32.81" y2="-3121.98" gradientTransform="translate(0 -3029.28) scale(1 -1)" gradientUnits="userSpaceOnUse">
      <stop offset=".1" stop-color="#232722"/>
      <stop offset=".52" stop-color="#2f4029"/>
      <stop offset="1" stop-color="#0d3b0b"/>
    </linearGradient>
    <linearGradient id="GradientFill_2" data-name="GradientFill 2" x1="36.3" y1="67.85" x2="41.17" y2="67.85" gradientUnits="userSpaceOnUse">
      <stop offset="0" stop-color="#caa43b"/>
      <stop offset=".53" stop-color="#efe565"/>
      <stop offset="1" stop-color="#caa43b"/>
    </linearGradient>
    <linearGradient id="GradientFill_2-2" data-name="GradientFill 2" x1="52.87" x2="57.74" xlink:href="#GradientFill_2"/>
    <linearGradient id="GradientFill_2-3" data-name="GradientFill 2" x1="28.03" y1="45.33" x2="66.14" y2="45.33" xlink:href="#GradientFill_2"/>
    <linearGradient id="GradientFill_2-4" data-name="GradientFill 2" x1="60.19" y1="43.74" x2="60.94" y2="43.74" xlink:href="#GradientFill_2"/>
    <linearGradient id="GradientFill_2-5" data-name="GradientFill 2" x1="53.05" y1="19.35" x2="53.8" y2="19.35" xlink:href="#GradientFill_2"/>
    <linearGradient id="GradientFill_2-6" data-name="GradientFill 2" x1="40.37" y1="19.35" x2="41.12" y2="19.35" xlink:href="#GradientFill_2"/>
    <linearGradient id="GradientFill_2-7" data-name="GradientFill 2" x1="41.26" y1="17.64" x2="53.43" y2="17.64" xlink:href="#GradientFill_2"/>
    <filter id="drop-shadow-1" x="36.03" y="33.7" width="24" height="23.28" filterUnits="userSpaceOnUse">
      <feOffset dx=".9" dy="1.8"/>
      <feGaussianBlur result="blur" stdDeviation=".9"/>
      <feFlood flood-color="#231f20" flood-opacity=".35"/>
      <feComposite in2="blur" operator="in"/>
      <feComposite in="SourceGraphic"/>
    </filter>
    <linearGradient id="GradientFill_2-8" data-name="GradientFill 2" x1="37.95" y1="43.41" x2="56.21" y2="43.41" xlink:href="#GradientFill_2"/>
  </defs>
  <!-- Generator: Adobe Illustrator 28.7.1, SVG Export Plug-In . SVG Version: 1.2.0 Build 142)  -->
  <g>
    <g id="Layer_2">
      <circle class="cls-10" cx="47" cy="41.87" r="41.87"/>
      <g>
        <circle class="cls-9" cx="38.74" cy="67.85" r="2.06"/>
        <circle class="cls-3" cx="55.31" cy="67.85" r="2.06"/>
        <rect class="cls-5" x="28.4" y="24.86" width="37.36" height="40.93" rx="5.11" ry="5.11"/>
        <line class="cls-2" x1="60.56" y1="28.83" x2="60.56" y2="58.66"/>
        <g>
          <line class="cls-8" x1="53.43" y1="13.84" x2="53.43" y2="24.86"/>
          <line class="cls-4" x1="40.74" y1="13.84" x2="40.74" y2="24.86"/>
          <line class="cls-6" x1="53.43" y1="17.64" x2="41.26" y2="17.64"/>
        </g>
        <g class="cls-1">
          <path class="cls-7" d="M46.61,49.65l-3.83,2.02c-.75.39-1.62-.24-1.48-1.07l.73-4.27c.06-.33-.05-.67-.29-.9l-3.1-3.02c-.6-.59-.27-1.62.56-1.74l4.29-.62c.33-.05.62-.26.77-.56l1.92-3.88c.37-.76,1.45-.76,1.83,0l1.92,3.88c.15.3.44.51.77.56l4.29.62c.84.12,1.17,1.15.56,1.74l-3.1,3.02c-.24.23-.35.57-.29.9l.73,4.27c.14.83-.73,1.47-1.48,1.07l-3.83-2.02c-.3-.16-.65-.16-.95,0Z"/>
        </g>
      </g>
    </g>
  </g>
</svg>