<?xml version="1.0" encoding="UTF-8"?>
<svg xmlns="http://www.w3.org/2000/svg" xmlns:xlink="http://www.w3.org/1999/xlink" version="1.1" viewBox="0 0 94.17 83.74">
  <defs>
    <style>
      .cls-1 {
        stroke: url(#GradientFill_2-2);
      }

      .cls-1, .cls-2, .cls-3, .cls-4, .cls-5 {
        fill: none;
        stroke-miterlimit: 10;
        stroke-width: .75px;
      }

      .cls-2 {
        stroke: url(#GradientFill_2-5);
      }

      .cls-3 {
        stroke: url(#GradientFill_2);
      }

      .cls-4 {
        filter: url(#drop-shadow-1);
        stroke: url(#GradientFill_2-3);
      }

      .cls-5 {
        filter: url(#drop-shadow-2);
        stroke: url(#GradientFill_2-4);
      }

      .cls-6 {
        fill: url(#linear-gradient);
        stroke: #000;
        stroke-width: .56px;
      }
    </style>
    <linearGradient id="linear-gradient" x1="60.31" y1="-3023.46" x2="32.81" y2="-3121.98" gradientTransform="translate(0 -3029.28) scale(1 -1)" gradientUnits="userSpaceOnUse">
      <stop offset=".1" stop-color="#232722"/>
      <stop offset=".52" stop-color="#2f4029"/>
      <stop offset="1" stop-color="#0d3b0b"/>
    </linearGradient>
    <linearGradient id="GradientFill_2" data-name="GradientFill 2" x1="27.1" y1="45.92" x2="63.67" y2="45.92" gradientUnits="userSpaceOnUse">
      <stop offset="0" stop-color="#caa43b"/>
      <stop offset=".53" stop-color="#efe565"/>
      <stop offset="1" stop-color="#caa43b"/>
    </linearGradient>
    <linearGradient id="GradientFill_2-2" data-name="GradientFill 2" x1="18.36" y1="32.97" x2="72.04" y2="32.97" xlink:href="#GradientFill_2"/>
    <linearGradient id="GradientFill_2-3" data-name="GradientFill 2" x1="62.89" y1="50.6" x2="76.71" y2="50.6" xlink:href="#GradientFill_2"/>
    <filter id="drop-shadow-1" x="60.7" y="34.12" width="20.16" height="35.04" filterUnits="userSpaceOnUse">
      <feOffset dx="1" dy="1"/>
      <feGaussianBlur result="blur" stdDeviation="1"/>
      <feFlood flood-color="#231f20" flood-opacity=".3"/>
      <feComposite in2="blur" operator="in"/>
      <feComposite in="SourceGraphic"/>
    </filter>
    <linearGradient id="GradientFill_2-4" data-name="GradientFill 2" x1="14.14" y1="50.59" x2="27.96" y2="50.59" xlink:href="#GradientFill_2"/>
    <filter id="drop-shadow-2" x="11.98" y="34.12" width="20.16" height="35.04" filterUnits="userSpaceOnUse">
      <feOffset dx="1" dy="1"/>
      <feGaussianBlur result="blur-2" stdDeviation="1"/>
      <feFlood flood-color="#231f20" flood-opacity=".3"/>
      <feComposite in2="blur-2" operator="in"/>
      <feComposite in="SourceGraphic"/>
    </filter>
    <linearGradient id="GradientFill_2-5" data-name="GradientFill 2" x1="27.27" y1="49.65" x2="63.56" y2="49.65" xlink:href="#GradientFill_2"/>
  </defs>
  <!-- Generator: Adobe Illustrator 28.7.1, SVG Export Plug-In . SVG Version: 1.2.0 Build 142)  -->
  <g>
    <g id="Layer_2">
      <circle class="cls-6" cx="47" cy="41.87" r="41.87"/>
      <g>
        <path class="cls-3" d="M63.27,45.75c0,.95.01,1.88.01,2.83v.1s.01-.01.02-.01v-2.54c0-.13-.01-.25-.03-.38ZM27.5,45.28s.05.04.08.06v-.4c-.04.11-.06.22-.08.34Z"/>
        <path class="cls-1" d="M71.67,31.45v5.38c-3.52-1.08-7.18.95-8.13,4.51-.2.72-.24,1.5-.25,2.26-.02.71-.02,1.43-.02,2.14-.19-1.34-1.33-2.37-2.73-2.37l-30.33-.32c-1.22,0-2.26.79-2.63,1.89,0-.45,0-.9-.01-1.34-.02-.76-.06-1.54-.25-2.26-.97-3.62-4.74-5.66-8.33-4.46-.04.01-.07.03-.11.04.01-.04.01-.09.01-.14-.01-1.92-.03-3.85,0-5.79.07-4.36,1.94-7.76,5.61-10.13,1.77-1.16,3.76-1.76,5.89-1.77,3.96-.02,25.81.27,29.77.31,4.86.05,9.33,3.38,10.87,8,.44,1.32.64,2.67.64,4.05Z"/>
        <path class="cls-4" d="M73.38,48.51c-.42.29-.62.68-.58,1.19.02.15.03.29.03.44,0,4.67-.01,9.34,0,14.02.01.37-.09.5-.49.5-2.86-.02-5.72-.02-8.59,0-.4,0-.49-.12-.48-.5.01-2.64,0-5.27,0-7.91h.03v-10.12c0-.13-.01-.25-.03-.38h0c0-.72,0-1.44.02-2.15.01-.76.05-1.54.25-2.26.95-3.56,4.61-5.59,8.13-4.51.06.01.13.03.19.05,2.43.81,3.96,2.55,4.37,5.08.45,2.74-.53,4.96-2.85,6.55Z"/>
        <path class="cls-5" d="M27.59,64.16c0,.38-.09.5-.49.5-2.86-.02-5.72-.02-8.59,0-.4,0-.49-.13-.49-.5.01-4.68.01-9.35.01-14.02,0-.15.01-.29.02-.44.04-.51-.15-.9-.58-1.19-2.31-1.59-3.29-3.81-2.85-6.55.41-2.49,1.89-4.22,4.26-5.04.04-.01.07-.03.11-.04,3.59-1.2,7.36.84,8.33,4.46.19.72.23,1.5.25,2.26.01.44.01.89.01,1.34-.04.11,0,11,0,11,0,2.74,0,5.48.01,8.22Z"/>
        <path class="cls-2" d="M63.18,48.58v.1c0,1.62,0,3.22,0,4.84h0v2.73l-35.52-.31v-2.42h0v-4.94c0-1.08,0-2.16,0-3.24v-.4c.37-1.1,1.4-1.89,2.62-1.89l30.18.32c1.39,0,2.53,1.03,2.72,2.37h0c0,.96,0,1.89,0,2.84Z"/>
      </g>
    </g>
  </g>
</svg>