<?xml version="1.0" encoding="UTF-8"?>
<svg xmlns="http://www.w3.org/2000/svg" xmlns:xlink="http://www.w3.org/1999/xlink" version="1.1" viewBox="0 0 94.17 83.74">
  <defs>
    <style>
      .cls-1 {
        filter: url(#drop-shadow-1);
      }

      .cls-2 {
        stroke: url(#GradientFill_2-4);
      }

      .cls-2, .cls-3, .cls-4, .cls-5, .cls-6 {
        fill: none;
        stroke-miterlimit: 10;
        stroke-width: .75px;
      }

      .cls-3 {
        stroke: url(#GradientFill_2-2);
      }

      .cls-4 {
        stroke: url(#GradientFill_2-3);
      }

      .cls-5 {
        stroke: url(#GradientFill_2-5);
      }

      .cls-6 {
        stroke: url(#GradientFill_2);
      }

      .cls-7 {
        fill: url(#linear-gradient);
        stroke: #000;
        stroke-width: .56px;
      }
    </style>
    <linearGradient id="linear-gradient" x1="60.31" y1="-3023.46" x2="32.81" y2="-3121.98" gradientTransform="translate(0 -3029.28) scale(1 -1)" gradientUnits="userSpaceOnUse">
      <stop offset=".1" stop-color="#232722"/>
      <stop offset=".52" stop-color="#2f4029"/>
      <stop offset="1" stop-color="#0d3b0b"/>
    </linearGradient>
    <linearGradient id="GradientFill_2" data-name="GradientFill 2" x1="26.86" y1="41.87" x2="59.23" y2="41.87" gradientUnits="userSpaceOnUse">
      <stop offset="0" stop-color="#caa43b"/>
      <stop offset=".53" stop-color="#efe565"/>
      <stop offset="1" stop-color="#caa43b"/>
    </linearGradient>
    <linearGradient id="GradientFill_2-2" data-name="GradientFill 2" x1="35.72" y1="32.53" x2="47.88" y2="32.53" xlink:href="#GradientFill_2"/>
    <linearGradient id="GradientFill_2-3" data-name="GradientFill 2" x1="35.72" y1="42.89" x2="47.88" y2="42.89" xlink:href="#GradientFill_2"/>
    <linearGradient id="GradientFill_2-4" data-name="GradientFill 2" x1="35.72" y1="53.24" x2="47.88" y2="53.24" xlink:href="#GradientFill_2"/>
    <filter id="drop-shadow-1" x="47.21" y="31.78" width="24" height="23.04" filterUnits="userSpaceOnUse">
      <feOffset dx=".9" dy="1.8"/>
      <feGaussianBlur result="blur" stdDeviation=".9"/>
      <feFlood flood-color="#231f20" flood-opacity=".35"/>
      <feComposite in2="blur" operator="in"/>
      <feComposite in="SourceGraphic"/>
    </filter>
    <linearGradient id="GradientFill_2-5" data-name="GradientFill 2" x1="49.04" y1="41.45" x2="67.3" y2="41.45" xlink:href="#GradientFill_2"/>
  </defs>
  <!-- Generator: Adobe Illustrator 28.7.1, SVG Export Plug-In . SVG Version: 1.2.0 Build 142)  -->
  <g>
    <g id="Layer_2">
      <circle class="cls-7" cx="47" cy="41.87" r="41.87"/>
      <g>
        <path class="cls-6" d="M58.86,47.81v11.44c0,2.53-2.05,4.59-4.59,4.59h-22.44c-2.54,0-4.59-2.06-4.59-4.59V24.5c0-2.54,2.05-4.59,4.59-4.59h22.44c2.54,0,4.59,2.05,4.59,4.59v8.84"/>
        <line class="cls-3" x1="47.88" y1="32.53" x2="35.72" y2="32.53"/>
        <line class="cls-4" x1="47.88" y1="42.89" x2="35.72" y2="42.89"/>
        <line class="cls-2" x1="47.88" y1="53.24" x2="35.72" y2="53.24"/>
        <g class="cls-1">
          <path class="cls-5" d="M57.7,47.69l-3.83,2.02c-.75.39-1.62-.24-1.48-1.07l.73-4.27c.06-.33-.05-.67-.29-.9l-3.1-3.02c-.6-.59-.27-1.62.56-1.74l4.29-.62c.33-.05.62-.26.77-.56l1.92-3.88c.37-.76,1.45-.76,1.83,0l1.92,3.88c.15.3.44.51.77.56l4.29.62c.84.12,1.17,1.15.56,1.74l-3.1,3.02c-.24.23-.35.57-.29.9l.73,4.27c.14.83-.73,1.47-1.48,1.07l-3.83-2.02c-.3-.16-.65-.16-.95,0Z"/>
        </g>
      </g>
    </g>
  </g>
</svg>