<?xml version="1.0" encoding="UTF-8"?>
<svg xmlns="http://www.w3.org/2000/svg" xmlns:xlink="http://www.w3.org/1999/xlink" version="1.1" viewBox="0 0 94.17 83.74">
  <defs>
    <style>
      .cls-1 {
        fill: url(#linear-gradient-3);
      }

      .cls-2 {
        fill: url(#linear-gradient-2);
      }

      .cls-3 {
        stroke: url(#GradientFill_2-2);
      }

      .cls-3, .cls-4, .cls-5 {
        fill: none;
        stroke-miterlimit: 10;
        stroke-width: .75px;
      }

      .cls-4 {
        stroke: url(#GradientFill_2-3);
      }

      .cls-5 {
        stroke: url(#GradientFill_2);
      }

      .cls-6 {
        fill: url(#linear-gradient);
        stroke: #000;
        stroke-width: .56px;
      }
    </style>
    <linearGradient id="linear-gradient" x1="60.31" y1="-3023.46" x2="32.81" y2="-3121.98" gradientTransform="translate(0 -3029.28) scale(1 -1)" gradientUnits="userSpaceOnUse">
      <stop offset=".1" stop-color="#232722"/>
      <stop offset=".52" stop-color="#2f4029"/>
      <stop offset="1" stop-color="#0d3b0b"/>
    </linearGradient>
    <linearGradient id="GradientFill_2" data-name="GradientFill 2" x1="30.97" y1="41.87" x2="63.2" y2="41.87" gradientUnits="userSpaceOnUse">
      <stop offset="0" stop-color="#caa43b"/>
      <stop offset=".53" stop-color="#efe565"/>
      <stop offset="1" stop-color="#caa43b"/>
    </linearGradient>
    <linearGradient id="GradientFill_2-2" data-name="GradientFill 2" x1="38.7" y1="22.08" x2="55.47" y2="22.08" xlink:href="#GradientFill_2"/>
    <linearGradient id="GradientFill_2-3" data-name="GradientFill 2" x1="38.7" y1="61.66" x2="55.57" y2="61.66" xlink:href="#GradientFill_2"/>
    <linearGradient id="linear-gradient-2" x1="38.32" y1="41.8" x2="46.5" y2="41.8" gradientUnits="userSpaceOnUse">
      <stop offset="0" stop-color="#caa43b"/>
      <stop offset=".53" stop-color="#efe565"/>
      <stop offset="1" stop-color="#caa43b"/>
    </linearGradient>
    <linearGradient id="linear-gradient-3" x1="45.5" x2="56.13" xlink:href="#linear-gradient-2"/>
  </defs>
  <!-- Generator: Adobe Illustrator 28.7.1, SVG Export Plug-In . SVG Version: 1.2.0 Build 142)  -->
  <g>
    <g id="Layer_2">
      <circle class="cls-6" cx="47" cy="41.87" r="41.87"/>
      <g>
        <g>
          <path class="cls-5" d="M47.11,30.26c2.98,0,5.96,0,8.94,0,3.33,0,5.98,2.16,6.65,5.43.09.44.11.9.11,1.35.01,3.29.01,6.58,0,9.88,0,3.59-2.96,6.54-6.55,6.54-6.12.01-12.24.01-18.36,0-3.6,0-6.55-2.96-6.55-6.56,0-3.36,0-6.72,0-10.09,0-3.59,2.96-6.54,6.55-6.55,3.07,0,6.14,0,9.21,0Z"/>
          <path class="cls-3" d="M47.08,25.28c-2.28,0-4.55,0-6.83,0-.24,0-.52.02-.7-.1-.21-.14-.39-.41-.46-.66-.1-.35.13-.62.42-.82,1.51-1,3.02-2,4.53-3,.82-.55,1.65-1.08,2.47-1.64.4-.28.77-.27,1.16,0,2.31,1.55,4.62,3.1,6.94,4.65.38.25.58.58.44,1.02-.14.45-.51.59-.95.59-2.34,0-4.67,0-7.01,0,0,0,0-.02,0-.02Z"/>
          <path class="cls-4" d="M55.17,59.35c-.17.23-.29.52-.52.67-2.35,1.58-4.71,3.13-7.06,4.7-.35.23-.69.24-1.04,0-2.36-1.58-4.72-3.16-7.09-4.74-.32-.22-.45-.52-.37-.89.09-.4.38-.59.77-.64.1-.01.21,0,.31,0,4.61.01,9.23.03,13.84.04.7,0,1.06.27,1.15.88Z"/>
        </g>
        <g>
          <path class="cls-2" d="M46.15,39.45h-3.89l-.29,1.61h3.18l-.31,1.8h-3.18l-.58,3.25h-2.77l1.52-8.61h6.66l-.35,1.96Z"/>
          <path class="cls-1" d="M51.22,39.85l1.7-2.35h3.2l-3.63,4.22,2.21,4.39h-2.99l-1.09-2.53-1.89,2.53h-3.23l3.87-4.57-2.06-4.04h2.97l.94,2.35Z"/>
        </g>
      </g>
    </g>
  </g>
</svg>