<?xml version="1.0" encoding="UTF-8"?>
<svg xmlns="http://www.w3.org/2000/svg" xmlns:xlink="http://www.w3.org/1999/xlink" version="1.1" viewBox="0 0 94.17 83.74">
  <defs>
    <style>
      .cls-1 {
        fill: url(#linear-gradient-8);
      }

      .cls-2 {
        fill: url(#linear-gradient-7);
      }

      .cls-3 {
        fill: url(#linear-gradient-5);
      }

      .cls-4 {
        fill: url(#linear-gradient-6);
      }

      .cls-5 {
        fill: url(#linear-gradient-4);
      }

      .cls-6 {
        fill: url(#linear-gradient-3);
      }

      .cls-7 {
        fill: url(#linear-gradient-2);
      }

      .cls-8 {
        stroke: url(#GradientFill_2-2);
      }

      .cls-8, .cls-9, .cls-10 {
        fill: none;
        stroke-miterlimit: 10;
        stroke-width: .75px;
      }

      .cls-9 {
        stroke: url(#GradientFill_2-3);
      }

      .cls-10 {
        stroke: url(#GradientFill_2);
      }

      .cls-11 {
        fill: url(#linear-gradient);
        stroke: #000;
        stroke-width: .56px;
      }
    </style>
    <linearGradient id="linear-gradient" x1="60.31" y1="-3287.68" x2="32.81" y2="-3386.2" gradientTransform="translate(0 -3293.5) scale(1 -1)" gradientUnits="userSpaceOnUse">
      <stop offset=".1" stop-color="#232722"/>
      <stop offset=".52" stop-color="#2f4029"/>
      <stop offset="1" stop-color="#0d3b0b"/>
    </linearGradient>
    <linearGradient id="GradientFill_2" data-name="GradientFill 2" x1="38.94" y1="39.73" x2="57.14" y2="39.73" gradientUnits="userSpaceOnUse">
      <stop offset="0" stop-color="#caa43b"/>
      <stop offset=".53" stop-color="#efe565"/>
      <stop offset="1" stop-color="#caa43b"/>
    </linearGradient>
    <linearGradient id="GradientFill_2-2" data-name="GradientFill 2" x1="26.71" y1="52" x2="38.12" y2="52" xlink:href="#GradientFill_2"/>
    <linearGradient id="GradientFill_2-3" data-name="GradientFill 2" x1="56.05" y1="52" x2="67.45" y2="52" xlink:href="#GradientFill_2"/>
    <linearGradient id="linear-gradient-2" x1="47.25" y1="27.87" x2="48.81" y2="27.87" gradientUnits="userSpaceOnUse">
      <stop offset="0" stop-color="#caa43b"/>
      <stop offset=".53" stop-color="#efe565"/>
      <stop offset="1" stop-color="#caa43b"/>
    </linearGradient>
    <linearGradient id="linear-gradient-3" x1="57.04" y1="33.78" x2="59.48" y2="33.78" xlink:href="#linear-gradient-2"/>
    <linearGradient id="linear-gradient-4" x1="52.83" y1="29.49" x2="54.98" y2="29.49" xlink:href="#linear-gradient-2"/>
    <linearGradient id="linear-gradient-5" x1="36.63" y1="33.87" x2="38.96" y2="33.87" xlink:href="#linear-gradient-2"/>
    <linearGradient id="linear-gradient-6" x1="41.11" y1="29.47" x2="43.15" y2="29.47" xlink:href="#linear-gradient-2"/>
    <linearGradient id="linear-gradient-7" x1="58.56" y1="39.67" x2="61.14" y2="39.67" xlink:href="#linear-gradient-2"/>
    <linearGradient id="linear-gradient-8" x1="34.93" y1="39.68" x2="37.5" y2="39.68" xlink:href="#linear-gradient-2"/>
  </defs>
  <!-- Generator: Adobe Illustrator 28.7.1, SVG Export Plug-In . SVG Version: 1.2.0 Build 142)  -->
  <g>
    <g id="Layer_2">
      <circle class="cls-11" cx="47" cy="41.87" r="41.87"/>
      <g>
        <path class="cls-10" d="M51.77,48.18c-.42-.14-.86-.25-1.26-.44-.63-.3-1.25-.64-1.86-.97-.42-.23-.82-.22-1.24,0-.61.34-1.24.66-1.86.98-.97.51-1.93.49-2.82-.15-.86-.63-1.22-1.5-1.03-2.58.12-.69.23-1.38.36-2.07.09-.5,0-.91-.39-1.27-.52-.49-1.04-.99-1.54-1.5-.76-.76-1.01-1.67-.66-2.7.34-1.02,1.08-1.6,2.15-1.75.65-.09,1.29-.2,1.94-.28.59-.07,1-.34,1.25-.9.26-.6.57-1.18.86-1.76.49-.98,1.28-1.53,2.38-1.52,1.09,0,1.89.55,2.37,1.53.31.63.63,1.25.93,1.88.2.41.49.66.96.72.75.1,1.51.21,2.26.34,1.03.17,1.72.77,2.06,1.75.33.97.12,1.85-.58,2.59-.52.56-1.08,1.08-1.63,1.61-.35.34-.49.72-.39,1.22.16.74.27,1.5.39,2.25.23,1.52-1.02,2.93-2.63,3.01Z"/>
        <path class="cls-8" d="M34.7,57.16c-.26-.09-.52-.15-.77-.27-.39-.18-.76-.39-1.14-.59-.26-.14-.5-.14-.76,0-.37.21-.76.4-1.13.6-.59.31-1.18.3-1.72-.09-.53-.39-.75-.92-.63-1.57.07-.42.14-.84.22-1.26.06-.3,0-.56-.24-.78-.32-.3-.63-.61-.94-.92-.46-.47-.62-1.02-.4-1.65.21-.62.66-.98,1.31-1.07.39-.06.79-.12,1.18-.17.36-.04.61-.21.76-.55.16-.37.35-.72.52-1.07.3-.6.78-.93,1.45-.93.67,0,1.15.33,1.45.94.19.38.38.76.57,1.15.12.25.3.4.58.44.46.06.92.13,1.38.21.63.11,1.05.47,1.26,1.07.2.59.07,1.13-.35,1.58-.32.34-.66.66-1,.98-.22.21-.3.44-.24.74.1.45.16.92.24,1.38.14.93-.62,1.79-1.61,1.84Z"/>
        <path class="cls-9" d="M64.03,57.16c-.26-.09-.52-.15-.77-.27-.39-.18-.76-.39-1.14-.59-.26-.14-.5-.14-.76,0-.37.21-.76.4-1.13.6-.59.31-1.18.3-1.72-.09-.53-.39-.75-.92-.63-1.57.07-.42.14-.84.22-1.26.06-.3,0-.56-.24-.78-.32-.3-.63-.61-.94-.92-.46-.47-.62-1.02-.4-1.65.21-.62.66-.98,1.31-1.07.39-.06.79-.12,1.18-.17.36-.04.61-.21.76-.55.16-.37.35-.72.52-1.07.3-.6.78-.93,1.45-.93.67,0,1.15.33,1.45.94.19.38.38.76.57,1.15.12.25.3.4.58.44.46.06.92.13,1.38.21.63.11,1.05.47,1.26,1.07.2.59.07,1.13-.35,1.58-.32.34-.66.66-1,.98-.22.21-.3.44-.24.74.1.45.16.92.24,1.38.14.93-.62,1.79-1.61,1.84Z"/>
        <g>
          <path class="cls-7" d="M48.26,26.58c.42.22.58.58.55,1.04-.02.26.01.53-.01.79-.04.43-.36.75-.75.76-.39,0-.72-.29-.76-.74-.03-.37-.07-.76.02-1.12.06-.27.32-.49.48-.74.16,0,.31,0,.47,0Z"/>
          <path class="cls-6" d="M59.48,33.59c0,.53-.56.65-.96.91-.34.22-.69.45-1.12.19-.42-.26-.5-.88-.1-1.19.37-.28.78-.51,1.2-.7.46-.2.96.18.98.79Z"/>
          <path class="cls-5" d="M52.83,29.84c.33-.49.61-1.03,1.01-1.46.13-.14.6-.08.84.04.28.14.4.49.24.81-.2.4-.41.8-.67,1.16-.19.27-.49.36-.83.23-.32-.13-.48-.37-.58-.78Z"/>
          <path class="cls-3" d="M38.25,34.95c-.57-.39-1.1-.69-1.55-1.1-.13-.11-.08-.6.07-.78.14-.18.55-.34.75-.27.46.16.9.42,1.27.74.16.14.22.56.14.79-.08.22-.39.37-.68.61Z"/>
          <path class="cls-4" d="M41.98,28.25c.58.04.66.68.96,1.1.21.3.3.62.1.96-.23.39-.8.53-1.08.19-.34-.41-.62-.9-.81-1.39-.17-.44.24-.86.83-.86Z"/>
          <path class="cls-2" d="M59.85,40.42c-.2,0-.4.01-.6,0-.41-.04-.7-.35-.68-.74.02-.41.24-.69.64-.73.43-.05.87-.05,1.3,0,.4.04.62.33.64.74.02.38-.29.7-.69.73-.2.02-.4,0-.6,0Z"/>
          <path class="cls-1" d="M36.21,40.43c-.19,0-.37.01-.56,0-.42-.03-.71-.32-.72-.71-.02-.38.27-.74.66-.77.42-.03.84-.03,1.26,0,.4.03.67.38.64.78-.03.42-.26.66-.68.7-.2.02-.4,0-.61,0,0,0,0,0,0,0Z"/>
        </g>
      </g>
    </g>
  </g>
</svg>