<?xml version="1.0" encoding="UTF-8"?>
<svg xmlns="http://www.w3.org/2000/svg" xmlns:xlink="http://www.w3.org/1999/xlink" version="1.1" viewBox="0 0 94.17 83.74">
  <defs>
    <style>
      .cls-1 {
        stroke: url(#GradientFill_2-4);
      }

      .cls-1, .cls-2, .cls-3, .cls-4, .cls-5, .cls-6, .cls-7, .cls-8 {
        fill: none;
        stroke-miterlimit: 10;
        stroke-width: .75px;
      }

      .cls-2 {
        stroke: url(#GradientFill_2-2);
      }

      .cls-3 {
        stroke: url(#GradientFill_2-6);
      }

      .cls-4 {
        stroke: url(#GradientFill_2-3);
      }

      .cls-5 {
        stroke: url(#GradientFill_2-7);
      }

      .cls-6 {
        stroke: url(#GradientFill_2-5);
      }

      .cls-7 {
        stroke: url(#GradientFill_2);
      }

      .cls-8 {
        filter: url(#drop-shadow-1);
        stroke: url(#GradientFill_2-8);
      }

      .cls-9 {
        fill: url(#linear-gradient);
        stroke: #000;
        stroke-width: .56px;
      }
    </style>
    <linearGradient id="linear-gradient" x1="60.31" y1="-3023.46" x2="32.81" y2="-3121.98" gradientTransform="translate(0 -3029.28) scale(1 -1)" gradientUnits="userSpaceOnUse">
      <stop offset=".1" stop-color="#232722"/>
      <stop offset=".52" stop-color="#2f4029"/>
      <stop offset="1" stop-color="#0d3b0b"/>
    </linearGradient>
    <linearGradient id="GradientFill_2" data-name="GradientFill 2" x1="58.23" y1="35.19" x2="62.51" y2="35.19" gradientUnits="userSpaceOnUse">
      <stop offset="0" stop-color="#caa43b"/>
      <stop offset=".53" stop-color="#efe565"/>
      <stop offset="1" stop-color="#caa43b"/>
    </linearGradient>
    <linearGradient id="GradientFill_2-2" data-name="GradientFill 2" x1="60.16" y1="33.32" x2="60.91" y2="33.32" xlink:href="#GradientFill_2"/>
    <linearGradient id="GradientFill_2-3" data-name="GradientFill 2" x1="53.93" y1="52.37" x2="64.69" y2="52.37" xlink:href="#GradientFill_2"/>
    <linearGradient id="GradientFill_2-4" data-name="GradientFill 2" x1="53.85" y1="32.74" x2="66.45" y2="32.74" xlink:href="#GradientFill_2"/>
    <linearGradient id="GradientFill_2-5" data-name="GradientFill 2" x1="28.91" y1="38.2" x2="54.6" y2="38.2" xlink:href="#GradientFill_2"/>
    <linearGradient id="GradientFill_2-6" data-name="GradientFill 2" x1="27.72" y1="60.21" x2="55.6" y2="60.21" xlink:href="#GradientFill_2"/>
    <linearGradient id="GradientFill_2-7" data-name="GradientFill 2" x1="32.59" y1="30.94" x2="50.92" y2="30.94" xlink:href="#GradientFill_2"/>
    <linearGradient id="GradientFill_2-8" data-name="GradientFill 2" x1="37.37" y1="47.39" x2="46.14" y2="47.39" xlink:href="#GradientFill_2"/>
    <filter id="drop-shadow-1" x="35.36" y="39.64" width="14.88" height="19.44" filterUnits="userSpaceOnUse">
      <feOffset dx="1" dy="2"/>
      <feGaussianBlur result="blur" stdDeviation="1"/>
      <feFlood flood-color="#231f20" flood-opacity=".35"/>
      <feComposite in2="blur" operator="in"/>
      <feComposite in="SourceGraphic"/>
    </filter>
  </defs>
  <!-- Generator: Adobe Illustrator 28.7.1, SVG Export Plug-In . SVG Version: 1.2.0 Build 142)  -->
  <g>
    <g id="Layer_2">
      <circle class="cls-9" cx="47" cy="41.87" r="41.87"/>
      <g>
        <path class="cls-7" d="M58.6,32.02v3.76c0,1.22.99,2.22,2.22,2.22h1.69"/>
        <line class="cls-2" x1="60.53" y1="35.01" x2="60.53" y2="31.63"/>
        <path class="cls-4" d="M53.93,42.27h2.68c1.49,0,2.7,1.3,2.7,2.9v16.76c0,1.07.81,1.94,1.81,1.94h1.39c1,0,1.81-.87,1.81-1.94v-21.46"/>
        <path class="cls-1" d="M54.22,25h4.42c.42,0,.81.2,1.06.53.38.53,1,1.25,1.52,1.25.44,0,1.46,0,2.31.01.76,0,1.36.62,1.37,1.37v2.31s1.17,1.3,1.17,2.49v7.51h-3.56v-6.5c0-.47-.23-.91-.62-1.18l-1.11-.78h-3.55v-3.44s-3.01,0-3.01,0v-3.58Z"/>
        <rect class="cls-6" x="29.28" y="19.86" width="24.94" height="36.67" rx="3.1" ry="3.1"/>
        <rect class="cls-3" x="28.09" y="56.53" width="27.13" height="7.34" rx="1.56" ry="1.56"/>
        <path class="cls-5" d="M41.79,24.34c2.6,0,5.19,0,7.79,0,.76,0,.97.22.97.98,0,3.74,0,7.48,0,11.22,0,.76-.22.98-.97.98-5.22,0-10.44,0-15.66,0-.72,0-.95-.23-.95-.96,0-3.76,0-7.51,0-11.27,0-.73.22-.96.95-.96,2.63,0,5.25,0,7.88,0Z"/>
        <path class="cls-8" d="M41.76,53.62c-2.9,0-4.85-2.94-3.67-5.6.94-2.13,1.96-4.23,2.94-6.34.15-.31.38-.59.73-.5.26.07.58.26.69.49,1.02,2.13,2.06,4.25,2.99,6.42,1.13,2.64-.82,5.53-3.68,5.53Z"/>
      </g>
    </g>
  </g>
</svg>