<?xml version="1.0" encoding="UTF-8"?>
<svg xmlns="http://www.w3.org/2000/svg" xmlns:xlink="http://www.w3.org/1999/xlink" version="1.1" viewBox="0 0 94.17 83.74">
  <defs>
    <style>
      .cls-1 {
        stroke: url(#GradientFill_2-4);
      }

      .cls-1, .cls-2, .cls-3, .cls-4 {
        fill: none;
        stroke-miterlimit: 10;
        stroke-width: .75px;
      }

      .cls-2 {
        stroke: url(#GradientFill_2-2);
      }

      .cls-3 {
        stroke: url(#GradientFill_2-3);
      }

      .cls-4 {
        stroke: url(#GradientFill_2);
      }

      .cls-5 {
        fill: url(#linear-gradient);
        stroke: #000;
        stroke-width: .56px;
      }
    </style>
    <linearGradient id="linear-gradient" x1="60.31" y1="-3287.68" x2="32.81" y2="-3386.2" gradientTransform="translate(0 -3293.5) scale(1 -1)" gradientUnits="userSpaceOnUse">
      <stop offset=".1" stop-color="#232722"/>
      <stop offset=".52" stop-color="#2f4029"/>
      <stop offset="1" stop-color="#0d3b0b"/>
    </linearGradient>
    <linearGradient id="GradientFill_2" data-name="GradientFill 2" x1="27.02" y1="37.57" x2="62.38" y2="37.57" gradientUnits="userSpaceOnUse">
      <stop offset="0" stop-color="#caa43b"/>
      <stop offset=".53" stop-color="#efe565"/>
      <stop offset="1" stop-color="#caa43b"/>
    </linearGradient>
    <linearGradient id="GradientFill_2-2" data-name="GradientFill 2" x1="25.66" y1="49.83" x2="68.25" y2="49.83" xlink:href="#GradientFill_2"/>
    <linearGradient id="GradientFill_2-3" data-name="GradientFill 2" x1="37.71" y1="41.96" x2="49.55" y2="41.96" xlink:href="#GradientFill_2"/>
    <linearGradient id="GradientFill_2-4" data-name="GradientFill 2" x1="49.09" y1="58.62" x2="53.27" y2="58.62" xlink:href="#GradientFill_2"/>
  </defs>
  <!-- Generator: Adobe Illustrator 28.7.1, SVG Export Plug-In . SVG Version: 1.2.0 Build 142)  -->
  <g>
    <g id="Layer_2">
      <circle class="cls-5" cx="47" cy="41.87" r="41.87"/>
      <g>
        <path class="cls-4" d="M61.83,39.94c.06-.29.1-.57.1-.57.07-.48.07-.85.07-1.01,0-.55,0-6.1,0-13.73,0,0-10.35,1.97-17.44-2.99,0,0-7.36,4.62-17.16,3.18v13.73c0,1.59.08,2.07.13,2.57.57,5.32,3.33,9.52,6.12,12.56"/>
        <g>
          <path class="cls-2" d="M26.29,52.11c.59-.25,1.14-.49,1.69-.72.45-.19.91-.38,1.36-.59.18-.08.3-.06.45.05,1.44,1,2.89,2,4.33,3.01.54.37,1.06.39,1.63.06,4.87-2.8,9.74-5.6,14.61-8.39,2.42-1.39,4.84-2.78,7.29-4.12,1.85-1.01,3.83-1.44,5.93-1.02,1.63.32,2.93,1.19,3.89,2.54.77,1.09.44,2.56-.69,3.34-1.75,1.21-3.63,2.17-5.6,2.95-4.1,1.63-8.2,3.23-12.3,4.85-4.34,1.71-8.68,3.43-13.02,5.15-1.1.43-2.07.23-2.91-.6-2.15-2.1-4.3-4.2-6.45-6.3-.05-.05-.1-.11-.19-.21Z"/>
          <path class="cls-3" d="M48.85,43.16c-.12.09-.19.15-.27.2-1.2.69-2.41,1.38-3.61,2.07-.18.11-.29.08-.44-.07-2.01-2.01-4.03-4.01-6.05-6.01-.07-.07-.12-.14-.21-.24.27-.2.5-.41.76-.56.36-.21.75-.17,1.12.02,1.97,1.04,3.95,2.09,5.92,3.13.9.48,1.81.95,2.78,1.46Z"/>
          <path class="cls-1" d="M52.68,55.34c-.2.61-.38,1.14-.55,1.67-.29.88-.58,1.76-.87,2.64-.2.6-.4,1.2-.61,1.79-.1.29-.33.48-.61.61-.19.08-.29.06-.31-.18-.05-.7-.12-1.4-.15-2.1-.05-.87-.06-1.75-.1-2.62-.03-.55-.04-.55.47-.75.82-.33,1.64-.65,2.46-.97.07-.03.14-.05.28-.09Z"/>
        </g>
      </g>
    </g>
  </g>
</svg>