<?xml version="1.0" encoding="UTF-8"?>
<svg xmlns="http://www.w3.org/2000/svg" xmlns:xlink="http://www.w3.org/1999/xlink" version="1.1" viewBox="0 0 94.17 83.74">
  <defs>
    <style>
      .cls-1 {
        fill: url(#linear-gradient-2);
      }

      .cls-2 {
        fill: url(#linear-gradient);
        stroke: #000;
        stroke-width: .56px;
      }
    </style>
    <linearGradient id="linear-gradient" x1="60.31" y1="-3287.68" x2="32.81" y2="-3386.2" gradientTransform="translate(0 -3293.5) scale(1 -1)" gradientUnits="userSpaceOnUse">
      <stop offset=".1" stop-color="#232722"/>
      <stop offset=".52" stop-color="#2f4029"/>
      <stop offset="1" stop-color="#0d3b0b"/>
    </linearGradient>
    <linearGradient id="linear-gradient-2" x1="27.47" y1="41.87" x2="66.7" y2="41.87" gradientUnits="userSpaceOnUse">
      <stop offset="0" stop-color="#caa43b"/>
      <stop offset=".53" stop-color="#efe565"/>
      <stop offset="1" stop-color="#caa43b"/>
    </linearGradient>
  </defs>
  <!-- Generator: Adobe Illustrator 28.7.1, SVG Export Plug-In . SVG Version: 1.2.0 Build 142)  -->
  <g>
    <g id="Layer_2">
      <circle class="cls-2" cx="47" cy="41.87" r="41.87"/>
      <path class="cls-1" d="M27.47,41.85c.04-10.84,8.82-19.62,19.61-19.6,10.84.02,19.66,8.83,19.62,19.63-.04,10.85-8.78,19.59-19.61,19.6-10.8.01-19.67-8.85-19.63-19.63ZM50.28,43.42c-.12.47.02.77.33,1.08,3.19,3.16,6.36,6.34,9.53,9.52.11.11.16.26.28.45,4.57-5.41,6.14-11.4,4.01-18-2.39-7.39-7.68-11.69-15.38-12.7-5.47-.72-10.3,1.01-14.44,4.67.07.09.09.13.12.16,2.85,2.85,5.7,5.71,8.56,8.56.08.08.28.17.33.13.13-.11.29-.27.3-.43.06-.81.06-1.63.11-2.44.1-1.45.17-2.89.34-4.33.12-.99.47-1.93,1.17-2.69.96-1.05,2.12-1.05,3.08-.01.09.1.18.21.26.32.73,1.04.99,2.24,1.08,3.47.14,1.83.21,3.67.28,5.5.01.35.13.54.42.72,2.91,1.74,5.81,3.5,8.72,5.25.32.19.51.42.56.81.09.71.22,1.42.35,2.12.13.72-.28,1.08-.98.85-1.86-.61-3.71-1.24-5.57-1.85-1.15-.38-2.3-.76-3.47-1.15ZM50.21,46.03s-.03.1-.03.17c-.05,1.74-.1,3.48-.12,5.22,0,.14.14.32.26.41.83.61,1.68,1.21,2.52,1.81.41.3.47.54.26,1-.3.65-.6,1.3-.91,1.95-.29.62-.58.72-1.18.41-1.19-.61-2.38-1.21-3.57-1.84-.26-.14-.46-.13-.72,0-1.18.62-2.38,1.23-3.57,1.84-.6.31-.89.2-1.18-.41-.29-.62-.58-1.25-.87-1.87-.26-.55-.2-.77.29-1.12.82-.59,1.65-1.16,2.46-1.76.14-.1.26-.33.26-.49-.02-1.82-.08-3.65-.11-5.47-.01-.81,0-1.62,0-2.48-.19.05-.29.06-.38.09-1.19.39-2.38.79-3.57,1.18-1.71.57-3.43,1.13-5.14,1.69-.8.26-1.18-.06-1.03-.88.12-.68.25-1.36.33-2.04.05-.41.25-.64.58-.84,2.39-1.43,4.78-2.87,7.16-4.31.12-.07.24-.16.28-.19-2.89-2.89-5.75-5.76-8.61-8.63-6.46,6.8-6.85,18.41.87,25.71,7.61,7.2,18.82,6.16,24.97.14-3.09-3.09-6.17-6.19-9.27-9.29ZM35.29,44.9c.22-.07.38-.12.53-.17,2.77-.92,5.54-1.84,8.31-2.75.64-.21,1.02.04,1.04.67.09,3.01.16,6.02.26,9.03.02.45-.14.75-.51,1-.84.57-1.66,1.18-2.5,1.78.19.41.37.79.57,1.2,1.21-.63,2.41-1.23,3.58-1.86.37-.2.68-.19,1.05,0,1.18.63,2.37,1.23,3.58,1.86.19-.4.37-.78.56-1.19-.87-.62-1.72-1.24-2.58-1.83-.33-.23-.46-.5-.45-.9.07-2.24.12-4.47.19-6.71,0-.27-.06-.46-.25-.66-1.71-1.69-3.41-3.39-5.1-5.1-.21-.21-.35-.24-.62-.08-2.3,1.4-4.59,2.81-6.92,4.15-.67.38-.64.93-.74,1.57ZM44.55,38.24c1.49,1.51,2.96,3,4.42,4.48.1-.81.37-.98,1.19-.71,2.1.7,4.21,1.4,6.31,2.1.78.26,1.56.51,2.41.79-.11-.64-.08-1.18-.75-1.56-2.9-1.69-5.75-3.45-8.62-5.17-.28-.17-.51-.35-.52-.73-.07-1.81-.15-3.62-.24-5.42-.05-1.01-.15-2.01-.57-2.95-.13-.29-.29-.57-.5-.8-.42-.49-.79-.5-1.19.02-.27.35-.53.77-.63,1.19-.2.87-.36,1.76-.42,2.65-.13,1.78-.16,3.56-.27,5.34-.01.21-.21.42-.35.6-.08.1-.22.16-.27.19Z"/>
    </g>
  </g>
</svg>