<svg width="274" height="13" viewBox="0 0 274 13" fill="none" xmlns="http://www.w3.org/2000/svg">
<line x1="13.3755" y1="5.62921" x2="274.002" y2="5.62923" stroke="url(#paint0_linear_786_8508)"/>
<path d="M20.9549 5.27826C20.219 5.31096 19.5291 5.36141 18.9881 5.44091L18.957 5.44397C18.9297 5.44638 18.8896 5.44939 18.8387 5.45438C18.7369 5.46434 18.5898 5.48016 18.4052 5.50233C18.0357 5.5467 17.5145 5.61779 16.9054 5.72654C15.6935 5.94289 14.1044 6.31199 12.6579 6.92238C10.04 8.02753 7.88651 8.66653 5.11884 8.25159C5.08707 8.13487 5.06415 7.97209 5.09474 7.78301C5.1506 7.43846 5.40232 6.88658 6.46728 6.30188L6.23971 5.44189C6.23967 5.43991 6.23849 5.43972 6.2385 5.43972L6.23815 5.44063C6.23742 5.44075 6.23589 5.44052 6.23395 5.44083C6.22952 5.44155 6.22179 5.44305 6.2119 5.44458C6.19208 5.44764 6.16155 5.45165 6.12154 5.4572C6.04129 5.46832 5.92248 5.48373 5.77491 5.49872C5.47911 5.52875 5.06961 5.55788 4.61531 5.55542C3.68522 5.55036 2.65755 5.41169 1.99436 4.95413L1.9444 4.91861L1.97588 4.43685C2.64549 4.05893 3.64043 3.97439 4.57269 4.0235C5.02682 4.04744 5.43343 4.10047 5.72642 4.14806C5.87237 4.17178 5.98928 4.19411 6.06869 4.21008C6.10821 4.21803 6.1381 4.22511 6.1579 4.22942C6.16772 4.23156 6.17545 4.23246 6.17999 4.23349C6.18219 4.23398 6.18355 4.23508 6.18444 4.23528L6.1854 4.23546L6.74222 3.37551C5.71056 2.69104 5.51368 2.07612 5.50645 1.70397C5.50374 1.56352 5.5284 1.44376 5.55816 1.34978C8.31762 1.12688 10.3827 1.89401 12.8327 3.14973C14.1639 3.83206 15.6835 4.2905 16.8596 4.57727C17.4498 4.72116 17.9584 4.82284 18.3202 4.88896C18.5011 4.92201 18.6455 4.94637 18.7455 4.96236C18.7953 4.97031 18.8341 4.97665 18.8609 4.98066C18.8742 4.98265 18.8851 4.98345 18.8923 4.9845L18.9038 4.98662C19.4567 5.10342 20.1798 5.19861 20.9549 5.27826Z" fill="url(#paint1_linear_786_8508)" stroke="url(#paint2_linear_786_8508)"/>
<defs>
<linearGradient id="paint0_linear_786_8508" x1="-127.995" y1="5.91298" x2="-125.421" y2="-33.2485" gradientUnits="userSpaceOnUse">
<stop offset="0.0287087" stop-color="#856220"/>
<stop offset="0.394995" stop-color="#F9D271"/>
<stop offset="0.715077" stop-color="#BF923D"/>
</linearGradient>
<linearGradient id="paint1_linear_786_8508" x1="33.1978" y1="1.00293" x2="30.1608" y2="19.6" gradientUnits="userSpaceOnUse">
<stop offset="0.0287087" stop-color="#856220"/>
<stop offset="0.394995" stop-color="#F9D271"/>
<stop offset="0.715077" stop-color="#BF923D"/>
</linearGradient>
<linearGradient id="paint2_linear_786_8508" x1="33.1978" y1="1.00293" x2="30.1608" y2="19.6" gradientUnits="userSpaceOnUse">
<stop offset="0.0287087" stop-color="#856220"/>
<stop offset="0.394995" stop-color="#F9D271"/>
<stop offset="0.715077" stop-color="#BF923D"/>
</linearGradient>
</defs>
</svg>
