<svg width="266" height="25" viewBox="0 0 266 25" fill="none" xmlns="http://www.w3.org/2000/svg">
<line x1="25.8994" y1="11.6296" x2="252.261" y2="11.6296" stroke="url(#paint0_linear_216_5706)"/>
<path d="M32.3622 11.2741C31.7632 11.3068 31.2019 11.357 30.7534 11.4319C30.7515 11.432 30.7481 11.4327 30.7448 11.433C30.7382 11.4336 30.729 11.4349 30.7171 11.4361C30.693 11.4385 30.6578 11.4417 30.6131 11.4468C30.5239 11.4568 30.3946 11.4728 30.2333 11.4951C29.9106 11.5398 29.4563 11.6114 28.9251 11.7205C27.8677 11.9379 26.4793 12.309 25.2154 12.9231C22.9605 14.0191 21.1262 14.6433 18.7856 14.2541C18.7617 14.1401 18.7448 13.9865 18.7699 13.8077C18.8214 13.4414 19.0536 12.8826 19.9711 12.3026L19.6613 11.434C19.6608 11.4341 19.6596 11.434 19.6581 11.4343C19.6545 11.435 19.648 11.4359 19.6397 11.4373C19.623 11.4403 19.5966 11.4453 19.5624 11.4507C19.4941 11.4616 19.3931 11.4765 19.2671 11.4912C19.0134 11.5209 18.6621 11.5497 18.2733 11.5473C17.4734 11.5423 16.6116 11.4041 16.0608 10.9665L16.0336 10.9439L16.0623 10.4424C16.6261 10.0715 17.4682 9.98636 18.2707 10.035C18.6593 10.0586 19.0079 10.1112 19.2591 10.1582C19.384 10.1816 19.4841 10.2036 19.5517 10.2192C19.5853 10.227 19.611 10.2331 19.6275 10.2373C19.6358 10.2393 19.6417 10.2411 19.6454 10.242C19.6472 10.2425 19.6486 10.2427 19.6492 10.2428L20.1827 9.38738C19.3062 8.71772 19.1336 8.11408 19.1271 7.73423C19.1246 7.5853 19.1485 7.45771 19.1767 7.35813C21.5215 7.14834 23.2835 7.90074 25.3969 9.14797C26.5631 9.8362 27.8924 10.297 28.9187 10.5851C29.434 10.7298 29.8783 10.8326 30.1946 10.8991C30.3527 10.9324 30.4795 10.956 30.5672 10.9721C30.6108 10.9801 30.6448 10.9865 30.6684 10.9906C30.6802 10.9926 30.69 10.9944 30.6964 10.9955L30.7031 10.9969C31.1558 11.1067 31.7367 11.1973 32.3622 11.2741Z" fill="url(#paint1_linear_216_5706)" stroke="url(#paint2_linear_216_5706)"/>
<path d="M37.126 14.4929C37.2986 14.509 37.4754 14.5289 37.6475 14.5573C38.0847 14.6294 38.4176 14.735 38.5928 14.8571C38.6595 14.9037 38.6746 14.9333 38.6768 14.9382C38.6774 14.9482 38.675 14.9791 38.6455 15.0407C38.5986 15.1388 38.5563 15.1662 38.5381 15.1755C38.5157 15.1868 38.4691 15.2012 38.377 15.1901C38.1718 15.1655 37.8804 15.0322 37.542 14.8034C37.3999 14.7073 37.2594 14.6013 37.126 14.4929Z" fill="url(#paint3_linear_216_5706)" stroke="url(#paint4_linear_216_5706)"/>
<path d="M37.126 10.0739C37.2596 9.96539 37.3997 9.85859 37.542 9.76239C37.8803 9.53361 38.1718 9.40033 38.377 9.37567C38.469 9.36461 38.5156 9.37899 38.5381 9.39032C38.5563 9.39962 38.5986 9.42699 38.6455 9.52508C38.6748 9.58632 38.6773 9.61732 38.6768 9.62762C38.6749 9.63189 38.6603 9.66151 38.5928 9.70868C38.4176 9.83083 38.0847 9.93638 37.6475 10.0085C37.4754 10.0369 37.2986 10.0577 37.126 10.0739Z" fill="url(#paint5_linear_216_5706)" stroke="url(#paint6_linear_216_5706)"/>
<path d="M16.4004 20.7966C16.4558 20.713 16.5107 20.6286 16.5615 20.5417L16.5674 20.5309C16.7168 20.2606 16.8151 19.9665 16.8965 19.7487C16.9621 19.573 17.0227 19.4264 17.0986 19.2975L17.1807 19.1735C17.5052 18.7517 17.9386 18.5484 18.5205 18.1794L18.5215 18.1794C19.3107 17.6972 20.0174 17.24 20.7744 16.8659L21.1025 16.7116C21.3064 16.6216 21.4803 16.5138 21.6328 16.3952C21.6318 16.4024 21.6299 16.4095 21.6289 16.4167L21.6289 16.4157C21.6288 16.4168 21.6284 16.4194 21.6279 16.4225C21.627 16.4288 21.6253 16.4391 21.623 16.4528C21.6184 16.4808 21.6115 16.5239 21.6006 16.5798C21.5786 16.6917 21.5423 16.8546 21.4883 17.0524C21.3797 17.4499 21.1997 17.9794 20.9141 18.5143C20.3421 19.5854 19.3844 20.6226 17.7646 20.7682L17.5635 20.7858L17.5527 20.7975C17.3714 20.7968 17.2073 20.7716 16.9365 20.7614C16.7695 20.7552 16.5902 20.7597 16.4004 20.7966Z" fill="url(#paint7_linear_216_5706)" stroke="url(#paint8_linear_216_5706)"/>
<path d="M12.0684 21.2565C12.3081 20.7195 12.7042 20.1826 13.3799 19.5534L13.3809 19.5534C13.6851 19.2714 14.0711 19.07 14.5137 18.8952C14.7342 18.8081 14.9607 18.7301 15.1943 18.6511C15.424 18.5734 15.6645 18.4935 15.8926 18.4059C16.3552 18.2355 16.7899 18.1241 17.292 17.9665C17.6035 17.8687 17.923 17.7544 18.2451 17.6081C17.6699 18.2203 17.0487 18.7955 16.4297 19.2067L15.7578 19.653L15.7939 19.6745C15.6054 19.7938 15.4192 19.8996 15.2002 19.9987C14.7217 20.2151 14.3509 20.3645 13.6143 20.4802L13.6074 20.4811L13.3633 20.528C13.1156 20.5815 12.8618 20.6591 12.623 20.7927C12.4153 20.9089 12.2301 21.0606 12.0684 21.2565Z" fill="url(#paint9_linear_216_5706)" stroke="url(#paint10_linear_216_5706)"/>
<mask id="path-7-inside-1_216_5706" fill="white">
<path d="M22.3225 15.4238L22.9906 12.8874C22.9906 12.638 23.3697 13.1161 23.4781 13.2617C23.9114 13.9061 24.3628 14.8417 24.5073 15.6317C24.7059 16.7959 24.3628 18.3135 23.5864 19.1243C23.2614 19.4569 22.9544 19.6025 22.5933 19.7896C22.3225 19.9143 22.2322 20.2885 22.16 20.5796C21.9614 21.328 22.0697 22.2012 22.4128 22.8664C22.7378 23.5317 23.3697 24.0306 24.0559 23.9475C24.3989 23.9059 25.049 23.594 24.8684 23.0327C24.7781 22.7625 24.6337 22.7625 24.3809 22.804C23.3697 22.9288 23.1892 21.0577 24.1642 20.7875C25.7351 20.3509 26.7101 22.4714 25.4643 23.6564C24.5795 24.5088 23.2614 24.5504 22.4669 23.5109C22.0697 22.9912 21.8711 22.2843 21.8169 21.619C21.7808 21.1201 21.8169 20.6004 21.835 20.1014C21.8711 19.4569 21.6002 18.8748 21.5099 18.2719C21.3835 17.3156 21.8891 16.1722 22.3405 15.403"/>
</mask>
<path d="M22.3225 15.4238L22.9906 12.8874C22.9906 12.638 23.3697 13.1161 23.4781 13.2617C23.9114 13.9061 24.3628 14.8417 24.5073 15.6317C24.7059 16.7959 24.3628 18.3135 23.5864 19.1243C23.2614 19.4569 22.9544 19.6025 22.5933 19.7896C22.3225 19.9143 22.2322 20.2885 22.16 20.5796C21.9614 21.328 22.0697 22.2012 22.4128 22.8664C22.7378 23.5317 23.3697 24.0306 24.0559 23.9475C24.3989 23.9059 25.049 23.594 24.8684 23.0327C24.7781 22.7625 24.6337 22.7625 24.3809 22.804C23.3697 22.9288 23.1892 21.0577 24.1642 20.7875C25.7351 20.3509 26.7101 22.4714 25.4643 23.6564C24.5795 24.5088 23.2614 24.5504 22.4669 23.5109C22.0697 22.9912 21.8711 22.2843 21.8169 21.619C21.7808 21.1201 21.8169 20.6004 21.835 20.1014C21.8711 19.4569 21.6002 18.8748 21.5099 18.2719C21.3835 17.3156 21.8891 16.1722 22.3405 15.403" fill="url(#paint11_linear_216_5706)"/>
<path d="M22.9906 12.8874L23.9576 13.1422L23.9906 13.0169L23.9906 12.8874L22.9906 12.8874ZM23.4781 13.2617L24.3079 12.7037L24.2945 12.6838L24.2802 12.6645L23.4781 13.2617ZM24.5073 15.6317L25.4931 15.4635L25.491 15.4518L24.5073 15.6317ZM23.5864 19.1243L24.3017 19.8232L24.3087 19.8159L23.5864 19.1243ZM22.5933 19.7896L23.0116 20.6979L23.0327 20.6882L23.0534 20.6775L22.5933 19.7896ZM22.16 20.5796L23.1265 20.8361L23.1286 20.8283L23.1305 20.8204L22.16 20.5796ZM22.4128 22.8664L23.3113 22.4275L23.3065 22.4177L23.3015 22.4081L22.4128 22.8664ZM24.8684 23.0327L25.8204 22.7265L25.8169 22.7159L24.8684 23.0327ZM24.3809 22.804L24.5033 23.7965L24.5233 23.7941L24.5432 23.7908L24.3809 22.804ZM24.1642 20.7875L24.4313 21.7511L24.432 21.751L24.1642 20.7875ZM25.4643 23.6564L24.7751 22.9318L24.7705 22.9363L25.4643 23.6564ZM21.8169 21.619L20.8195 21.6912L20.8202 21.7002L21.8169 21.619ZM21.835 20.1014L20.8365 20.0455L20.836 20.0554L20.8356 20.0652L21.835 20.1014ZM21.5099 18.2719L20.5186 18.403L20.5197 18.4115L20.521 18.42L21.5099 18.2719ZM22.3225 15.4238L23.2895 15.6785L23.9576 13.1422L22.9906 12.8874L22.0235 12.6327L21.3555 15.1691L22.3225 15.4238ZM22.9906 12.8874L23.9906 12.8874C23.9906 12.9152 23.9989 13.2501 23.712 13.5352C23.3383 13.9066 22.8878 13.8182 22.7444 13.7719C22.6015 13.7258 22.5163 13.6579 22.5099 13.653C22.489 13.6371 22.4825 13.6296 22.4925 13.6394C22.5438 13.6899 22.6284 13.795 22.6759 13.8588L23.4781 13.2617L24.2802 12.6645C24.2194 12.5828 24.0602 12.3761 23.8949 12.2135C23.8507 12.17 23.7917 12.1154 23.7226 12.0627C23.668 12.021 23.5388 11.9267 23.3586 11.8685C23.178 11.8102 22.6969 11.7242 22.3021 12.1167C21.9941 12.4228 21.9906 12.7973 21.9906 12.8874L22.9906 12.8874ZM23.4781 13.2617L22.6482 13.8197C23.0334 14.3925 23.4117 15.1994 23.5236 15.8115L24.5073 15.6317L25.491 15.4518C25.314 14.4839 24.7894 13.4198 24.3079 12.7037L23.4781 13.2617ZM24.5073 15.6317L23.5215 15.7998C23.5947 16.2288 23.571 16.758 23.4429 17.2659C23.3132 17.7801 23.0983 18.1882 22.8642 18.4327L23.5864 19.1243L24.3087 19.8159C24.851 19.2496 25.1958 18.4935 25.3821 17.7551C25.57 17.0105 25.6185 16.1988 25.493 15.4635L24.5073 15.6317ZM23.5864 19.1243L22.8712 18.4254C22.6772 18.6239 22.5193 18.7017 22.1333 18.9017L22.5933 19.7896L23.0534 20.6775C23.3896 20.5032 23.8456 20.2899 24.3017 19.8232L23.5864 19.1243ZM22.5933 19.7896L22.175 18.8813C21.7222 19.0898 21.4989 19.4703 21.3902 19.712C21.2809 19.955 21.2204 20.2137 21.1894 20.3387L22.16 20.5796L23.1305 20.8204C23.1498 20.7428 23.1638 20.6862 23.1797 20.6322C23.1952 20.5793 23.2069 20.5485 23.2142 20.5324C23.2218 20.5154 23.2165 20.5328 23.1895 20.5652C23.1595 20.6011 23.1018 20.6563 23.0116 20.6979L22.5933 19.7896ZM22.16 20.5796L21.1934 20.3231C20.9292 21.3186 21.0708 22.446 21.524 23.3248L22.4128 22.8664L23.3015 22.4081C23.0685 21.9563 22.9935 21.3374 23.1265 20.8361L22.16 20.5796ZM22.4128 22.8664L21.5143 23.3054C21.942 24.181 22.9038 25.0944 24.1762 24.9402L24.0559 23.9475L23.9356 22.9547C23.8799 22.9615 23.7918 22.9513 23.6693 22.8662C23.5418 22.7777 23.4083 22.626 23.3113 22.4275L22.4128 22.8664ZM24.0559 23.9475L24.1762 24.9402C24.5142 24.8992 24.951 24.7448 25.3011 24.4512C25.4861 24.2961 25.685 24.0694 25.8019 23.7585C25.925 23.4312 25.9322 23.0742 25.8204 22.7265L24.8684 23.0327L23.9164 23.339C23.9077 23.3117 23.8985 23.2683 23.8996 23.2128C23.9006 23.1571 23.9117 23.1029 23.9298 23.0547C23.9649 22.9615 24.0137 22.9206 24.0159 22.9188C24.0186 22.9165 24.0043 22.928 23.9718 22.9414C23.938 22.9554 23.9207 22.9565 23.9356 22.9547L24.0559 23.9475ZM24.8684 23.0327L25.8169 22.7159C25.7229 22.4345 25.5095 22.0361 25.0259 21.8611C24.6638 21.7301 24.305 21.8031 24.2186 21.8173L24.3809 22.804L24.5432 23.7908C24.6002 23.7814 24.6022 23.7831 24.5832 23.7837C24.5613 23.7844 24.4674 23.7859 24.3453 23.7418C24.2071 23.6918 24.0922 23.605 24.0119 23.5057C23.9426 23.4199 23.9205 23.3513 23.9199 23.3496L24.8684 23.0327ZM24.3809 22.804L24.2585 21.8116C24.2898 21.8077 24.3466 21.8095 24.4113 21.8353C24.4733 21.86 24.5124 21.8946 24.5312 21.9157C24.5482 21.9349 24.5476 21.9414 24.5408 21.9244C24.5344 21.908 24.5264 21.8799 24.5226 21.8422C24.5187 21.8049 24.52 21.7675 24.5252 21.7348C24.5304 21.7018 24.5383 21.6828 24.5412 21.6768C24.5439 21.6714 24.5384 21.6848 24.5164 21.7043C24.492 21.726 24.4609 21.7429 24.4313 21.7511L24.1642 20.7875L23.8971 19.8238C22.7236 20.1491 22.4607 21.3384 22.5329 22.0455C22.5734 22.442 22.7196 22.8876 23.0355 23.2434C23.3795 23.6309 23.8976 23.8712 24.5033 23.7965L24.3809 22.804ZM24.1642 20.7875L24.432 21.751C24.5823 21.7092 24.6732 21.7345 24.7353 21.7676C24.8106 21.8077 24.898 21.8914 24.9607 22.0287C25.0872 22.3063 25.0569 22.6638 24.7751 22.9318L25.4643 23.6564L26.1534 24.381C27.1175 23.4641 27.2226 22.1688 26.7804 21.199C26.3319 20.2153 25.2432 19.4497 23.8964 19.824L24.1642 20.7875ZM25.4643 23.6564L24.7705 22.9363C24.4989 23.1979 24.1997 23.2993 23.9558 23.2934C23.729 23.2879 23.4805 23.1903 23.2614 22.9036L22.4669 23.5109L21.6724 24.1181C22.2478 24.871 23.0556 25.2723 23.9077 25.2928C24.7426 25.3129 25.5449 24.9673 26.1581 24.3766L25.4643 23.6564ZM22.4669 23.5109L23.2614 22.9036C23.0201 22.5879 22.8585 22.0892 22.8136 21.5379L21.8169 21.619L20.8202 21.7002C20.8836 22.4794 21.1193 23.3944 21.6724 24.1181L22.4669 23.5109ZM21.8169 21.619L22.8143 21.5469C22.7833 21.1189 22.8145 20.6844 22.8343 20.1376L21.835 20.1014L20.8356 20.0652C20.8193 20.5163 20.7783 21.1212 20.8195 21.6912L21.8169 21.619ZM21.835 20.1014L22.8334 20.1574C22.86 19.6828 22.7717 19.2592 22.6907 18.9312C22.5987 18.5591 22.5348 18.3637 22.4989 18.1238L21.5099 18.2719L20.521 18.42C20.5753 18.783 20.692 19.1801 20.749 19.4109C20.817 19.6859 20.846 19.8755 20.8365 20.0455L21.835 20.1014ZM21.5099 18.2719L22.5013 18.1409C22.4658 17.8719 22.515 17.5106 22.6573 17.0832C22.7962 16.6663 23.0012 16.2529 23.203 15.9091L22.3405 15.403L21.4781 14.8968C21.2284 15.3223 20.955 15.8652 20.7598 16.4513C20.5681 17.0271 20.4277 17.7156 20.5186 18.403L21.5099 18.2719Z" fill="url(#paint12_linear_216_5706)" mask="url(#path-7-inside-1_216_5706)"/>
<path d="M13.4795 16.9323C13.3294 16.4788 13.4548 15.9978 13.7783 15.5192C14.1022 15.0401 14.5849 14.6285 14.998 14.3766L15 14.3757C15.5227 14.0547 16.2787 13.6939 16.7754 13.5866L16.7803 13.5856C16.8697 13.5655 16.9586 13.549 17.0459 13.5309C16.9608 13.611 16.8833 13.6964 16.8184 13.7878L16.8184 13.7868L14.9941 16.1159L14.9922 16.1188C14.8303 16.3286 14.6857 16.5723 14.5723 16.7487C14.4481 16.9419 14.342 17.0875 14.2217 17.197L14.2158 17.2028L14.21 17.2077L14.1475 17.2624C14.0054 17.3733 13.8926 17.3715 13.8213 17.3493C13.7266 17.3198 13.5771 17.2131 13.4795 16.9323Z" fill="url(#paint13_linear_216_5706)" stroke="url(#paint14_linear_216_5706)"/>
<path d="M10.9268 14.9382C10.9288 14.3762 11.2429 13.8263 11.7588 13.3571C12.285 12.8786 12.9407 12.5622 13.4492 12.4626L13.6582 12.4333C14.3599 12.3795 15.0685 12.411 15.7813 12.4919C15.1484 12.6578 14.5356 12.8939 14.0098 13.2438L14.0078 13.2448L13.8096 13.3923C13.6111 13.552 13.4149 13.7446 13.2393 13.9235C13.1131 14.0521 12.9979 14.1728 12.8906 14.2839L12.5898 14.5856C12.3185 14.833 12.0851 15.1496 11.9629 15.2868C11.8214 15.4457 11.7033 15.5376 11.5078 15.5876L11.5039 15.5886L11.4199 15.6013C11.2211 15.6083 11.0064 15.4663 10.9707 15.2282L10.9268 14.9382Z" fill="url(#paint15_linear_216_5706)" stroke="url(#paint16_linear_216_5706)"/>
<path d="M8.15527 17.0973C8.15699 17.1051 8.16126 17.1203 8.16797 17.1413C8.18171 17.1842 8.20593 17.2472 8.24805 17.3151C8.28801 17.3795 8.34527 17.4521 8.42969 17.5192C8.43673 17.4689 8.44925 17.4245 8.46387 17.3884C8.49251 17.3177 8.53169 17.2636 8.54102 17.2507C8.56548 17.2167 8.55529 17.2322 8.56836 17.2136C8.57371 17.2059 8.57608 17.2007 8.5791 17.1931C8.60342 17.1216 8.61416 17.0317 8.61035 16.8932C8.60839 16.8222 8.60305 16.7508 8.59766 16.6628C8.59253 16.5791 8.58691 16.4822 8.58691 16.3825C8.58694 16.0155 8.62699 15.6555 8.68359 15.3073C8.89214 13.9947 9.40698 12.9413 10.207 12.1139C10.0831 12.1224 9.95416 12.1326 9.82227 12.1491C8.87159 12.268 7.86877 12.6045 7.28711 13.3942L7.00293 13.7702C5.62915 15.5271 4.4364 16.2381 3.49414 16.4538C3.58044 16.4858 3.67563 16.5164 3.78125 16.5446L3.78711 16.5456C3.93897 16.5879 4.16001 16.5681 4.44824 16.4636C4.72794 16.362 5.01272 16.2018 5.26172 16.0436L5.96289 16.7165C5.79888 16.9998 5.64715 17.3276 5.50977 17.6833L5.24902 18.362C5.16866 18.5845 5.10029 18.8044 5.06055 19.0241C4.98525 19.4405 5.03461 19.7504 5.24902 19.9948C5.42996 20.1903 5.59767 20.2218 5.78125 20.1579L5.8291 20.1286C5.85348 20.11 5.88658 20.0808 5.92676 20.0368C6.00417 19.9519 6.08968 19.8323 6.17969 19.6804C6.36006 19.3757 6.53241 18.9858 6.68359 18.5886C6.83366 18.1942 6.95755 17.8078 7.04395 17.5192C7.08695 17.3756 7.11994 17.2568 7.14258 17.1745C7.15384 17.1335 7.1623 17.1012 7.16797 17.0798C7.1708 17.0691 7.17345 17.0606 7.1748 17.0554C7.17535 17.0533 7.17549 17.0516 7.17578 17.0505L7.17676 17.0485L8.15039 17.1013L8.15527 17.1003L8.15527 17.0973ZM8.15527 17.0973C8.15474 17.095 8.15443 17.0932 8.1543 17.0925L8.1543 17.0944L8.15527 17.0973ZM10.3018 15.5456C10.3229 15.5013 10.3476 15.4789 10.3613 15.4704C10.3678 15.4665 10.3755 15.4646 10.3896 15.4645C10.4025 15.4691 10.4266 15.4806 10.457 15.5124C10.3896 15.5379 10.3297 15.5744 10.2773 15.6179C10.2824 15.5934 10.2906 15.5689 10.3018 15.5456Z" fill="url(#paint17_linear_216_5706)" stroke="url(#paint18_linear_216_5706)"/>
<path d="M31.9063 12.3688C31.9064 12.0646 32.2396 11.6638 32.8691 11.6638C33.4984 11.6639 33.8309 12.0647 33.8311 12.3688C33.8311 12.673 33.4986 13.0747 32.8691 13.0749C32.2394 13.0749 31.9063 12.6731 31.9063 12.3688Z" fill="url(#paint19_linear_216_5706)" stroke="url(#paint20_linear_216_5706)"/>
<path d="M25.2969 12.3669C25.2972 11.6717 26.0224 10.9548 27.126 10.9548C28.2296 10.9548 28.9548 11.6717 28.9551 12.3669C28.9551 13.0622 28.2299 13.78 27.126 13.78C26.0222 13.7799 25.2969 13.0622 25.2969 12.3669Z" fill="url(#paint21_linear_216_5706)" stroke="url(#paint22_linear_216_5706)"/>
<path d="M23.4893 12.3688C23.4893 12.112 23.5529 11.9027 23.6299 11.7741C23.6643 11.7166 23.6934 11.6886 23.7109 11.6745C23.7284 11.6884 23.758 11.7159 23.793 11.7741C23.87 11.9027 23.9336 12.1119 23.9336 12.3688C23.9336 12.626 23.8701 12.836 23.793 12.9645C23.7576 13.0235 23.7284 13.0515 23.7109 13.0651C23.6934 13.0512 23.6648 13.0228 23.6299 12.9645C23.5528 12.836 23.4893 12.626 23.4893 12.3688Z" fill="url(#paint23_linear_216_5706)" stroke="url(#paint24_linear_216_5706)"/>
<path d="M18.0908 12.3669C18.0909 11.9135 18.2043 11.5285 18.3594 11.2731C18.5205 11.0079 18.6728 10.9549 18.7461 10.9548C18.8192 10.9548 18.9724 11.0074 19.1338 11.2731C19.2889 11.5285 19.4023 11.9135 19.4023 12.3669C19.4023 12.8205 19.2889 13.2061 19.1338 13.4616C18.9724 13.7273 18.8192 13.78 18.7461 13.78C18.6728 13.7798 18.5205 13.7268 18.3594 13.4616C18.2042 13.2061 18.0908 12.8205 18.0908 12.3669Z" fill="url(#paint25_linear_216_5706)" stroke="url(#paint26_linear_216_5706)"/>
<path d="M265 12.5007L2.09961 12.5007C1.82347 12.5007 1.59961 12.2768 1.59961 12.0007C1.59961 11.7245 1.82347 11.5007 2.09961 11.5007L265 11.5007C265.276 11.5007 265.5 11.7245 265.5 12.0007C265.5 12.2768 265.276 12.5007 265 12.5007Z" fill="url(#paint27_linear_216_5706)" stroke="url(#paint28_linear_216_5706)"/>
<path d="M19.4883 24.3171C19.4082 24.2314 19.3712 24.1121 19.4258 23.8845C19.4907 23.6141 19.6705 23.2837 19.9209 22.9362C19.9622 22.879 20.0056 22.8231 20.0488 22.7673C20.015 22.9166 19.9793 23.0676 19.9395 23.2145C19.8053 23.7089 19.6537 24.097 19.5068 24.2966C19.5009 24.3046 19.4935 24.3105 19.4883 24.3171Z" fill="url(#paint29_linear_216_5706)" stroke="url(#paint30_linear_216_5706)"/>
<path d="M28.6357 19.0583C29.0249 18.8267 29.377 18.5592 29.707 18.2888C30.1341 17.9387 30.4864 17.619 30.8994 17.2985L30.8984 17.2985C31.0987 17.1481 31.3029 16.984 31.499 16.8268C31.7001 16.6657 31.8969 16.5099 32.0957 16.3659C32.4985 16.0742 32.8743 15.8584 33.2412 15.7673L33.2441 15.7673C34.2456 15.5132 34.8938 15.5477 35.4375 15.7507L35.4404 15.7516C35.4435 15.7528 35.4461 15.7553 35.4492 15.7565C35.0494 15.7209 34.6998 15.7951 34.3838 15.9636C34.0665 16.1328 33.8056 16.3832 33.5713 16.6413C33.0043 17.2347 32.673 17.4821 32.2305 17.7761C31.8058 18.0581 31.4568 18.1762 30.9102 18.4235L30.6162 18.5563L30.6162 18.5602C30.0027 18.7899 29.3158 18.9512 28.6357 19.0583Z" fill="url(#paint31_linear_216_5706)" stroke="url(#paint32_linear_216_5706)"/>
<mask id="path-19-inside-2_216_5706" fill="white">
<path d="M27.8665 19.0847L25.6095 19.6668C25.3928 19.6252 25.772 20.1241 25.8984 20.2489C26.4401 20.7894 27.1985 21.3923 27.8846 21.6002C28.8777 21.912 30.2139 21.621 30.9722 20.7894C31.2792 20.436 31.4236 20.1033 31.6042 19.7083C31.7306 19.4173 32.0556 19.3341 32.3264 19.2718C32.9945 19.1054 33.7348 19.2925 34.2946 19.7291C34.8363 20.1657 35.2335 20.9141 35.1071 21.7041C35.0529 22.0991 34.7279 22.8268 34.2585 22.5565C34.0237 22.4318 34.0418 22.2654 34.096 21.9744C34.2765 20.831 32.6695 20.4775 32.3806 21.5794C31.8931 23.3465 33.6445 24.6354 34.7821 23.2841C35.5946 22.3278 35.721 20.8102 34.8724 19.8331C34.4571 19.3341 33.8612 19.0431 33.2834 18.9599C32.8501 18.8767 32.3987 18.8767 31.9653 18.8767C31.4056 18.8767 30.918 18.5025 30.3944 18.3778C29.5819 18.1699 28.5527 18.6481 27.8485 19.1262"/>
</mask>
<path d="M27.8665 19.0847L25.6095 19.6668C25.3928 19.6252 25.772 20.1241 25.8984 20.2489C26.4401 20.7894 27.1985 21.3923 27.8846 21.6002C28.8777 21.912 30.2139 21.621 30.9722 20.7894C31.2792 20.436 31.4236 20.1033 31.6042 19.7083C31.7306 19.4173 32.0556 19.3341 32.3264 19.2718C32.9945 19.1054 33.7348 19.2925 34.2946 19.7291C34.8363 20.1657 35.2335 20.9141 35.1071 21.7041C35.0529 22.0991 34.7279 22.8268 34.2585 22.5565C34.0237 22.4318 34.0418 22.2654 34.096 21.9744C34.2765 20.831 32.6695 20.4775 32.3806 21.5794C31.8931 23.3465 33.6445 24.6354 34.7821 23.2841C35.5946 22.3278 35.721 20.8102 34.8724 19.8331C34.4571 19.3341 33.8612 19.0431 33.2834 18.9599C32.8501 18.8767 32.3987 18.8767 31.9653 18.8767C31.4056 18.8767 30.918 18.5025 30.3944 18.3778C29.5819 18.1699 28.5527 18.6481 27.8485 19.1262" fill="url(#paint33_linear_216_5706)"/>
<path d="M25.6095 19.6668L25.421 20.6488L25.6417 20.6912L25.8592 20.6351L25.6095 19.6668ZM25.8984 20.2489L26.6048 19.541L26.6008 19.5371L25.8984 20.2489ZM27.8846 21.6002L28.1842 20.6461L28.1746 20.6431L27.8846 21.6002ZM30.9722 20.7894L31.7111 21.4632L31.7193 21.4543L31.7272 21.4451L30.9722 20.7894ZM31.6042 19.7083L32.5137 20.1241L32.5176 20.1154L32.5214 20.1067L31.6042 19.7083ZM32.3264 19.2718L32.5508 20.2462L32.5594 20.2443L32.568 20.2421L32.3264 19.2718ZM34.2946 19.7291L34.9221 18.9505L34.9159 18.9455L34.9096 18.9406L34.2946 19.7291ZM35.1071 21.7041L34.1197 21.5461L34.1179 21.5572L34.1164 21.5683L35.1071 21.7041ZM34.2585 22.5565L34.7574 21.6899L34.7427 21.6814L34.7277 21.6734L34.2585 22.5565ZM34.096 21.9744L35.0791 22.1574L35.0816 22.1439L35.0837 22.1304L34.096 21.9744ZM32.3806 21.5794L33.3447 21.8454L33.3479 21.833L32.3806 21.5794ZM34.7821 23.2841L34.02 22.6366L34.0171 22.6401L34.7821 23.2841ZM34.8724 19.8331L34.1038 20.4728L34.1105 20.4809L34.1174 20.4888L34.8724 19.8331ZM33.2834 18.9599L33.095 19.942L33.1179 19.9464L33.141 19.9497L33.2834 18.9599ZM30.3944 18.3778L30.1465 19.3466L30.1546 19.3487L30.1627 19.3506L30.3944 18.3778ZM27.8665 19.0847L27.6168 18.1163L25.3598 18.6984L25.6095 19.6668L25.8592 20.6351L28.1163 20.053L27.8665 19.0847ZM25.6095 19.6668L25.798 18.6847C25.6823 18.6625 25.2291 18.5939 24.855 18.9601C24.4826 19.3246 24.5408 19.7758 24.5587 19.8849C24.6013 20.1439 24.7352 20.3573 24.7746 20.4211C24.8944 20.615 25.0691 20.8354 25.196 20.9606L25.8984 20.2489L26.6008 19.5371C26.6014 19.5376 26.5232 19.4462 26.476 19.3697C26.4675 19.3561 26.4696 19.358 26.4769 19.3733C26.4787 19.3771 26.5137 19.4479 26.5322 19.5603C26.5431 19.6265 26.6062 20.0446 26.254 20.3893C25.9001 20.7357 25.4825 20.6606 25.421 20.6488L25.6095 19.6668ZM25.8984 20.2489L25.1921 20.9567C25.7604 21.5239 26.6635 22.2751 27.5946 22.5572L27.8846 21.6002L28.1746 20.6431C27.7334 20.5095 27.1198 20.0549 26.6048 19.541L25.8984 20.2489ZM27.8846 21.6002L27.585 22.5543C28.9195 22.9733 30.6701 22.6047 31.7111 21.4632L30.9722 20.7894L30.2333 20.1156C29.7576 20.6373 28.8359 20.8508 28.1842 20.6461L27.8846 21.6002ZM30.9722 20.7894L31.7272 21.4451C32.1435 20.9658 32.3418 20.5 32.5137 20.1241L31.6042 19.7083L30.6947 19.2926C30.5054 19.7066 30.4148 19.9062 30.2172 20.1337L30.9722 20.7894ZM31.6042 19.7083L32.5214 20.1067C32.4956 20.1661 32.4582 20.2159 32.4199 20.2522C32.3846 20.2856 32.3576 20.2991 32.3557 20.3C32.3546 20.3006 32.3675 20.2942 32.4039 20.2833C32.441 20.2722 32.485 20.2614 32.5508 20.2462L32.3264 19.2718L32.102 18.2973C31.9746 18.3266 31.7167 18.3844 31.4666 18.5085C31.1961 18.6428 30.8717 18.8845 30.6869 19.31L31.6042 19.7083ZM32.3264 19.2718L32.568 20.2421C32.9036 20.1586 33.333 20.2473 33.6796 20.5176L34.2946 19.7291L34.9096 18.9406C34.1367 18.3378 33.0855 18.0523 32.0849 18.3014L32.3264 19.2718ZM34.2946 19.7291L33.667 20.5077C33.9935 20.7709 34.1775 21.1846 34.1197 21.5461L35.1071 21.7041L36.0945 21.8621C36.2895 20.6436 35.679 19.5606 34.9221 18.9505L34.2946 19.7291ZM35.1071 21.7041L34.1164 21.5683C34.1143 21.5834 34.1047 21.6293 34.0829 21.6868C34.0728 21.7131 34.0624 21.7362 34.0527 21.7547C34.048 21.7638 34.0439 21.7708 34.0407 21.7759C34.0392 21.7784 34.0379 21.7803 34.037 21.7816C34.0362 21.7829 34.0357 21.7835 34.0357 21.7835C34.0358 21.7834 34.0364 21.7826 34.0376 21.7811C34.0388 21.7796 34.0408 21.7773 34.0436 21.7743C34.049 21.7684 34.0584 21.7588 34.0724 21.7469C34.0994 21.724 34.1517 21.686 34.2314 21.6562C34.3153 21.6248 34.4161 21.6079 34.5234 21.6183C34.6291 21.6285 34.7087 21.6619 34.7574 21.6899L34.2585 22.5565L33.7595 23.4231C34.1175 23.6292 34.5363 23.6774 34.9316 23.5296C35.2779 23.4001 35.5061 23.158 35.6413 22.9761C35.9075 22.6176 36.0526 22.1694 36.0978 21.84L35.1071 21.7041ZM34.2585 22.5565L34.7277 21.6734C34.753 21.6869 34.8281 21.7312 34.904 21.8251C34.9864 21.9269 35.0318 22.0401 35.0507 22.1383C35.0669 22.2222 35.06 22.2759 35.0609 22.2667C35.0618 22.2567 35.0654 22.2306 35.0791 22.1574L34.096 21.9744L33.1128 21.7914C33.094 21.8927 33.0264 22.2032 33.087 22.5173C33.1739 22.9679 33.4642 23.2669 33.7892 23.4396L34.2585 22.5565ZM34.096 21.9744L35.0837 22.1304C35.2666 20.9723 34.4961 20.1535 33.6341 19.9594C33.2138 19.8647 32.7377 19.9055 32.3129 20.1398C31.8711 20.3835 31.551 20.8007 31.4133 21.3258L32.3806 21.5794L33.3479 21.833C33.3531 21.8132 33.3548 21.8199 33.3403 21.8389C33.3257 21.8581 33.3042 21.8771 33.2789 21.8911C33.231 21.9175 33.1995 21.9116 33.1946 21.9105C33.1891 21.9092 33.1646 21.9025 33.1387 21.8673C33.1249 21.8484 33.116 21.8278 33.112 21.8107C33.108 21.7936 33.1121 21.7938 33.1082 21.8184L34.096 21.9744ZM32.3806 21.5794L31.4166 21.3134C31.0721 22.5624 31.4983 23.7716 32.3872 24.4124C32.8319 24.733 33.3944 24.9059 33.9886 24.8278C34.5884 24.7491 35.1267 24.4276 35.5471 23.9281L34.7821 23.2841L34.0171 22.6401C33.8687 22.8163 33.7615 22.8405 33.7282 22.8449C33.6893 22.85 33.6311 22.8436 33.5567 22.79C33.4074 22.6823 33.2016 22.3635 33.3446 21.8453L32.3806 21.5794ZM34.7821 23.2841L35.5442 23.9316C36.6192 22.6663 36.8548 20.5906 35.6274 19.1773L34.8724 19.8331L34.1174 20.4888C34.5872 21.0297 34.57 21.9893 34.02 22.6366L34.7821 23.2841ZM34.8724 19.8331L35.641 19.1933C35.0495 18.4827 34.2192 18.0843 33.4259 17.9701L33.2834 18.9599L33.141 19.9497C33.5032 20.0018 33.8647 20.1856 34.1038 20.4728L34.8724 19.8331ZM33.2834 18.9599L33.4719 17.9778C32.9293 17.8737 32.3818 17.8767 31.9653 17.8767L31.9653 18.8767L31.9653 19.8767C32.4156 19.8767 32.7708 19.8798 33.095 19.942L33.2834 18.9599ZM31.9653 18.8767L31.9653 17.8767C31.8999 17.8767 31.7962 17.855 31.5568 17.7535C31.3755 17.6765 30.9957 17.4931 30.6261 17.405L30.3944 18.3778L30.1627 19.3506C30.3167 19.3873 30.4425 19.4533 30.7758 19.5947C31.051 19.7114 31.4709 19.8767 31.9653 19.8767L31.9653 18.8767ZM30.3944 18.3778L30.6423 17.409C29.9705 17.2371 29.2951 17.364 28.7563 17.5489C28.204 17.7384 27.6908 18.0246 27.2867 18.2989L27.8485 19.1262L28.4102 19.9535C28.7104 19.7497 29.0639 19.5578 29.4053 19.4406C29.7604 19.3188 30.0058 19.3106 30.1465 19.3466L30.3944 18.3778Z" fill="url(#paint34_linear_216_5706)" mask="url(#path-19-inside-2_216_5706)"/>
<path d="M28.6338 5.51825C29.3145 5.62538 30.0021 5.78641 30.6162 6.01629L30.6162 6.0202L30.9102 6.15301C31.4568 6.40027 31.8058 6.51741 32.2305 6.7995C32.6731 7.09348 33.0044 7.34095 33.5713 7.93426C33.8057 8.19248 34.0662 8.44367 34.3838 8.61297C34.7001 8.78158 35.05 8.85586 35.4502 8.82C35.4468 8.82134 35.4438 8.82366 35.4404 8.82489L35.4375 8.82586C34.8939 9.02882 34.2455 9.06325 33.2441 8.80926L33.2412 8.80829C32.8744 8.71716 32.4985 8.50233 32.0957 8.21063C31.8968 8.06655 31.7002 7.90998 31.499 7.74871C31.3029 7.59155 31.0986 7.42835 30.8984 7.27801L30.8994 7.27704C30.4865 6.95661 30.134 6.63776 29.707 6.28778C29.3766 6.01698 29.0235 5.75002 28.6338 5.51825Z" fill="url(#paint35_linear_216_5706)" stroke="url(#paint36_linear_216_5706)"/>
<mask id="path-22-inside-3_216_5706" fill="white">
<path d="M27.8665 5.48802L25.6095 4.90591C25.3928 4.94749 25.772 4.44853 25.8984 4.32379C26.4401 3.78326 27.1985 3.18038 27.8846 2.97249C28.8777 2.66064 30.2139 2.95169 30.9722 3.78328C31.2792 4.1367 31.4236 4.46932 31.6042 4.86432C31.7306 5.15538 32.0556 5.23853 32.3264 5.3009C32.9945 5.46722 33.7348 5.28011 34.2946 4.84353C34.8363 4.40695 35.2335 3.65853 35.1071 2.86853C35.0529 2.47353 34.7279 1.74589 34.2585 2.01615C34.0237 2.14089 34.0418 2.30722 34.096 2.59827C34.2765 3.7417 32.6695 4.09511 32.3806 2.99326C31.8931 1.22615 33.6445 -0.0627959 34.7821 1.28852C35.5946 2.24484 35.721 3.76248 34.8724 4.73959C34.4571 5.23854 33.8612 5.52959 33.2834 5.61275C32.8501 5.69591 32.3987 5.69591 31.9653 5.69591C31.4056 5.69591 30.918 6.07011 30.3944 6.19485C29.5819 6.40275 28.5527 5.92459 27.8485 5.44643"/>
</mask>
<path d="M27.8665 5.48802L25.6095 4.90591C25.3928 4.94749 25.772 4.44853 25.8984 4.32379C26.4401 3.78326 27.1985 3.18038 27.8846 2.97249C28.8777 2.66064 30.2139 2.95169 30.9722 3.78328C31.2792 4.1367 31.4236 4.46932 31.6042 4.86432C31.7306 5.15538 32.0556 5.23853 32.3264 5.3009C32.9945 5.46722 33.7348 5.28011 34.2946 4.84353C34.8363 4.40695 35.2335 3.65853 35.1071 2.86853C35.0529 2.47353 34.7279 1.74589 34.2585 2.01615C34.0237 2.14089 34.0418 2.30722 34.096 2.59827C34.2765 3.7417 32.6695 4.09511 32.3806 2.99326C31.8931 1.22615 33.6445 -0.0627959 34.7821 1.28852C35.5946 2.24484 35.721 3.76248 34.8724 4.73959C34.4571 5.23854 33.8612 5.52959 33.2834 5.61275C32.8501 5.69591 32.3987 5.69591 31.9653 5.69591C31.4056 5.69591 30.918 6.07011 30.3944 6.19485C29.5819 6.40275 28.5527 5.92459 27.8485 5.44643" fill="url(#paint37_linear_216_5706)"/>
<path d="M25.6095 4.90591L25.8592 3.9376L25.6417 3.88149L25.421 3.92383L25.6095 4.90591ZM25.8984 4.32379L26.6008 5.03556L26.6048 5.03166L25.8984 4.32379ZM27.8846 2.97249L28.1746 3.92957L28.1842 3.92655L27.8846 2.97249ZM30.9722 3.78328L31.7272 3.12754L31.7193 3.1184L31.7111 3.10945L30.9722 3.78328ZM31.6042 4.86432L32.5214 4.466L32.5176 4.45725L32.5137 4.44858L31.6042 4.86432ZM32.3264 5.3009L32.568 4.33052L32.5594 4.32839L32.5508 4.32641L32.3264 5.3009ZM34.2946 4.84353L34.9096 5.63205L34.9159 5.62714L34.9221 5.62213L34.2946 4.84353ZM35.1071 2.86853L34.1164 3.0044L34.1179 3.01547L34.1197 3.02651L35.1071 2.86853ZM34.2585 2.01615L34.7277 2.89921L34.7427 2.89126L34.7574 2.8828L34.2585 2.01615ZM34.096 2.59827L35.0837 2.44229L35.0816 2.42877L35.0791 2.4153L34.096 2.59827ZM32.3806 2.99326L33.348 2.73962L33.3446 2.72731L32.3806 2.99326ZM34.7821 1.28852L34.0171 1.93253L34.02 1.93601L34.7821 1.28852ZM34.8724 4.73959L34.1174 4.08386L34.1105 4.09179L34.1038 4.09986L34.8724 4.73959ZM33.2834 5.61275L33.141 4.62295L33.1179 4.62627L33.095 4.63067L33.2834 5.61275ZM30.3944 6.19485L30.1627 5.22207L30.1546 5.224L30.1465 5.22606L30.3944 6.19485ZM27.8665 5.48802L28.1163 4.5197L25.8592 3.9376L25.6095 4.90591L25.3598 5.87423L27.6168 6.45633L27.8665 5.48802ZM25.6095 4.90591L25.421 3.92383C25.4826 3.91203 25.9002 3.83693 26.2541 4.18335C26.6062 4.52804 26.5431 4.94612 26.5322 5.01235C26.5137 5.12473 26.4787 5.19556 26.4769 5.19931C26.4696 5.21469 26.4675 5.2166 26.476 5.20292C26.5232 5.12645 26.6014 5.03502 26.6008 5.03555L25.8984 4.32379L25.196 3.61204C25.0691 3.7373 24.8944 3.95772 24.7746 4.15153C24.7352 4.21541 24.6013 4.42873 24.5587 4.68773C24.5408 4.79683 24.4826 5.24805 24.855 5.61256C25.2291 5.9788 25.6823 5.91019 25.798 5.88799L25.6095 4.90591ZM25.8984 4.32379L26.6048 5.03166C27.1197 4.51777 27.7334 4.06319 28.1746 3.92952L27.8846 2.97249L27.5946 2.01545C26.6635 2.29757 25.7604 3.04876 25.1921 3.61593L25.8984 4.32379ZM27.8846 2.97249L28.1842 3.92655C28.8359 3.72191 29.7576 3.93541 30.2333 4.45711L30.9722 3.78328L31.7111 3.10945C30.6701 1.96798 28.9195 1.59938 27.585 2.01842L27.8846 2.97249ZM30.9722 3.78328L30.2172 4.43901C30.4148 4.66652 30.5054 4.86605 30.6947 5.28007L31.6042 4.86432L32.5137 4.44858C32.3418 4.07259 32.1435 3.60688 31.7272 3.12754L30.9722 3.78328ZM31.6042 4.86432L30.6869 5.26265C30.8717 5.68814 31.1961 5.9299 31.4666 6.06413C31.7167 6.18823 31.9746 6.24606 32.102 6.2754L32.3264 5.3009L32.5508 4.32641C32.485 4.31124 32.441 4.30043 32.4039 4.28931C32.3675 4.27842 32.3546 4.27205 32.3557 4.27261C32.3576 4.27358 32.3846 4.28706 32.4199 4.3205C32.4582 4.35676 32.4956 4.40653 32.5214 4.466L31.6042 4.86432ZM32.3264 5.3009L32.0849 6.27128C33.0855 6.52038 34.1367 6.23488 34.9096 5.63205L34.2946 4.84353L33.6796 4.05501C33.333 4.32534 32.9036 4.41405 32.568 4.33052L32.3264 5.3009ZM34.2946 4.84353L34.9221 5.62213C35.679 5.0121 36.2895 3.92906 36.0945 2.71055L35.1071 2.86853L34.1197 3.02651C34.1775 3.38801 33.9935 3.8018 33.667 4.06493L34.2946 4.84353ZM35.1071 2.86853L36.0978 2.73267C36.0526 2.40325 35.9075 1.95501 35.6413 1.59657C35.5061 1.41461 35.2779 1.17251 34.9316 1.04307C34.5363 0.895289 34.1175 0.94344 33.7595 1.1495L34.2585 2.01615L34.7574 2.8828C34.7087 2.9108 34.6291 2.94419 34.5234 2.95437C34.4161 2.96471 34.3153 2.94784 34.2314 2.91647C34.1517 2.88669 34.0994 2.84863 34.0724 2.82574C34.0584 2.81389 34.049 2.80425 34.0436 2.79837C34.0408 2.79534 34.0388 2.79302 34.0376 2.79152C34.0364 2.79002 34.0358 2.78921 34.0357 2.78917C34.0357 2.78912 34.0362 2.78972 34.037 2.79103C34.0379 2.79233 34.0392 2.79422 34.0407 2.79674C34.0439 2.80185 34.048 2.80888 34.0527 2.81792C34.0624 2.83642 34.0728 2.85951 34.0829 2.8859C34.1047 2.94331 34.1143 2.98926 34.1164 3.0044L35.1071 2.86853ZM34.2585 2.01615L33.7892 1.13309C33.4642 1.30579 33.1739 1.60483 33.087 2.05534C33.0264 2.36949 33.094 2.67997 33.1128 2.78124L34.096 2.59827L35.0791 2.4153C35.0654 2.34207 35.0618 2.316 35.0609 2.30602C35.06 2.29679 35.0669 2.35043 35.0507 2.43435C35.0318 2.53256 34.9864 2.64572 34.904 2.74757C34.8281 2.84142 34.753 2.88579 34.7277 2.89921L34.2585 2.01615ZM34.096 2.59827L33.1082 2.75425C33.1121 2.77885 33.108 2.77906 33.112 2.76198C33.116 2.74484 33.1249 2.72427 33.1387 2.70539C33.1646 2.67014 33.1891 2.66342 33.1946 2.66219C33.1995 2.66107 33.231 2.65513 33.2789 2.68154C33.3043 2.69554 33.3257 2.71455 33.3403 2.73372C33.3548 2.75277 33.3531 2.75947 33.3479 2.73964L32.3806 2.99326L31.4133 3.24689C31.551 3.77193 31.8711 4.18914 32.3129 4.43282C32.7377 4.66713 33.2138 4.70797 33.6341 4.6133C34.4961 4.41913 35.2666 3.60035 35.0837 2.44229L34.096 2.59827ZM32.3806 2.99326L33.3446 2.72731C33.2016 2.20913 33.4074 1.89035 33.5567 1.78269C33.6311 1.72908 33.6893 1.72268 33.7282 1.72778C33.7615 1.73217 33.8687 1.75631 34.0171 1.93252L34.7821 1.28852L35.5471 0.644522C35.1267 0.145076 34.5884 -0.176406 33.9886 -0.255182C33.3944 -0.333234 32.8319 -0.160325 32.3872 0.16028C31.4983 0.801042 31.0721 2.01028 31.4166 3.25921L32.3806 2.99326ZM34.7821 1.28852L34.02 1.93601C34.57 2.58333 34.5872 3.54293 34.1174 4.08386L34.8724 4.73959L35.6274 5.39532C36.8548 3.98204 36.6192 1.90636 35.5442 0.641031L34.7821 1.28852ZM34.8724 4.73959L34.1038 4.09986C33.8647 4.3871 33.5032 4.57081 33.141 4.62295L33.2834 5.61275L33.4259 6.60255C34.2192 6.48837 35.0495 6.08998 35.641 5.37932L34.8724 4.73959ZM33.2834 5.61275L33.095 4.63067C32.7708 4.69287 32.4156 4.69591 31.9653 4.69591L31.9653 5.69591L31.9653 6.69591C32.3818 6.69591 32.9293 6.69894 33.4719 6.59483L33.2834 5.61275ZM31.9653 5.69591L31.9653 4.69591C31.4709 4.69591 31.051 4.86127 30.7758 4.978C30.4425 5.11937 30.3167 5.18537 30.1627 5.22207L30.3944 6.19485L30.6261 7.16763C30.9957 7.07959 31.3755 6.89612 31.5568 6.8192C31.7962 6.71765 31.8999 6.69591 31.9653 6.69591L31.9653 5.69591ZM30.3944 6.19485L30.1465 5.22606C30.0058 5.26206 29.7604 5.25383 29.4053 5.13203C29.0639 5.01489 28.7104 4.82292 28.4102 4.61912L27.8485 5.44643L27.2867 6.27373C27.6908 6.5481 28.204 6.83429 28.7563 7.02379C29.2951 7.20863 29.9705 7.33553 30.6423 7.16364L30.3944 6.19485Z" fill="url(#paint38_linear_216_5706)" mask="url(#path-22-inside-3_216_5706)"/>
<path d="M0.50293 12.4401C0.513964 12.3303 0.545734 12.287 0.564453 12.2673C0.587178 12.2434 0.63454 12.2094 0.736328 12.1852C0.957773 12.1328 1.30085 12.1569 1.71777 12.2536C1.89434 12.2946 2.07225 12.3474 2.24414 12.403C2.05965 12.4537 1.8681 12.5019 1.67871 12.5397C1.22168 12.631 0.850821 12.6525 0.62793 12.5983C0.538963 12.5767 0.511382 12.5522 0.507813 12.5485C0.517455 12.5608 0.492307 12.5461 0.50293 12.4401Z" fill="url(#paint39_linear_216_5706)" stroke="url(#paint40_linear_216_5706)"/>
<path d="M16.4531 4.0661C16.6429 4.10295 16.8223 4.10751 16.9893 4.10125C17.2601 4.0911 17.4241 4.06589 17.6055 4.06512L17.6162 4.07586L17.8174 4.09442C19.4371 4.24012 20.3948 5.27625 20.9668 6.34735C21.2525 6.88232 21.4324 7.41174 21.541 7.80926C21.595 8.007 21.6313 8.16994 21.6533 8.28192C21.6642 8.33751 21.6711 8.38083 21.6758 8.40887C21.6781 8.42288 21.6797 8.43389 21.6807 8.44012C21.6811 8.44311 21.6815 8.44591 21.6816 8.44696C21.6825 8.45385 21.6846 8.46058 21.6855 8.46746C21.5331 8.34885 21.3591 8.24111 21.1553 8.15106C20.2731 7.75274 19.4802 7.23665 18.5811 6.68719C17.9952 6.31504 17.5594 6.11201 17.2334 5.68817C17.1158 5.53012 17.0369 5.34758 16.9492 5.11297C16.8679 4.89518 16.7695 4.602 16.6201 4.33172L16.6143 4.32098C16.5634 4.23415 16.5085 4.14957 16.4531 4.0661Z" fill="url(#paint41_linear_216_5706)" stroke="url(#paint42_linear_216_5706)"/>
<path d="M12.123 3.60321C12.2845 3.79836 12.4696 3.94919 12.6768 4.06512C12.9948 4.2431 13.3393 4.32214 13.6611 4.37664L13.668 4.37762C14.4046 4.49332 14.7754 4.64264 15.2539 4.85907C15.4731 4.95821 15.6589 5.06482 15.8477 5.18426L15.8115 5.20477L16.4834 5.65106C17.1026 6.06238 17.7234 6.63828 18.2988 7.25067C17.9766 7.10424 17.6573 6.98915 17.3457 6.89129C16.8436 6.73363 16.4089 6.62227 15.9463 6.45184C15.7182 6.36429 15.4777 6.28443 15.248 6.20672C15.0144 6.12767 14.7879 6.04967 14.5674 5.96258C14.1248 5.78779 13.7389 5.58636 13.4346 5.30438L13.4336 5.30536C12.7585 4.67672 12.363 4.13967 12.123 3.60321Z" fill="url(#paint43_linear_216_5706)" stroke="url(#paint44_linear_216_5706)"/>
<mask id="path-27-inside-4_216_5706" fill="white">
<path d="M22.3762 9.43646L23.0443 11.9728C23.0443 12.2223 23.4234 11.7441 23.5318 11.5986C23.9651 10.9541 24.4165 10.0186 24.561 9.22857C24.7596 8.06436 24.4165 6.54672 23.6401 5.73593C23.3151 5.4033 23.0082 5.25777 22.647 5.07066C22.3762 4.94593 22.2859 4.57172 22.2137 4.28067C22.0151 3.53225 22.1234 2.65909 22.4665 1.99382C22.7915 1.32856 23.4235 0.829602 24.1096 0.912759C24.4527 0.954338 25.1027 1.26619 24.9221 1.8275C24.8318 2.09777 24.6874 2.09777 24.4346 2.05619C23.4234 1.93145 23.2429 3.80251 24.2179 4.07278C25.7888 4.50936 26.7639 2.38881 25.518 1.20381C24.6332 0.351441 23.3151 0.309862 22.5206 1.34934C22.1234 1.86908 21.9248 2.57593 21.8706 3.24119C21.8345 3.74014 21.8706 4.25987 21.8887 4.75882C21.9248 5.40329 21.6539 5.98541 21.5637 6.58831C21.4373 7.54462 21.9428 8.68804 22.3942 9.45725"/>
</mask>
<path d="M22.3762 9.43646L23.0443 11.9728C23.0443 12.2223 23.4234 11.7441 23.5318 11.5986C23.9651 10.9541 24.4165 10.0186 24.561 9.22857C24.7596 8.06436 24.4165 6.54672 23.6401 5.73593C23.3151 5.4033 23.0082 5.25777 22.647 5.07066C22.3762 4.94593 22.2859 4.57172 22.2137 4.28067C22.0151 3.53225 22.1234 2.65909 22.4665 1.99382C22.7915 1.32856 23.4235 0.829602 24.1096 0.912759C24.4527 0.954338 25.1027 1.26619 24.9221 1.8275C24.8318 2.09777 24.6874 2.09777 24.4346 2.05619C23.4234 1.93145 23.2429 3.80251 24.2179 4.07278C25.7888 4.50936 26.7639 2.38881 25.518 1.20381C24.6332 0.351441 23.3151 0.309862 22.5206 1.34934C22.1234 1.86908 21.9248 2.57593 21.8706 3.24119C21.8345 3.74014 21.8706 4.25987 21.8887 4.75882C21.9248 5.40329 21.6539 5.98541 21.5637 6.58831C21.4373 7.54462 21.9428 8.68804 22.3942 9.45725" fill="url(#paint45_linear_216_5706)"/>
<path d="M23.0443 11.9728L24.0443 11.9728L24.0443 11.8433L24.0113 11.7181L23.0443 11.9728ZM23.5318 11.5986L24.3339 12.1957L24.3482 12.1765L24.3616 12.1566L23.5318 11.5986ZM24.561 9.22857L25.5448 9.40845L25.5468 9.39674L24.561 9.22857ZM23.6401 5.73593L24.3624 5.04426L24.3554 5.03706L23.6401 5.73593ZM22.647 5.07066L23.1071 4.18276L23.0864 4.17208L23.0653 4.16236L22.647 5.07066ZM22.2137 4.28067L23.1842 4.03982L23.1823 4.03198L23.1802 4.02416L22.2137 4.28067ZM22.4665 1.99382L23.3552 2.45216L23.3602 2.44252L23.365 2.43279L22.4665 1.99382ZM24.9221 1.8275L25.8707 2.14436L25.8741 2.13373L24.9221 1.8275ZM24.4346 2.05619L24.5969 1.06945L24.577 1.06618L24.557 1.06371L24.4346 2.05619ZM24.2179 4.07278L24.4857 3.10929L24.485 3.10911L24.2179 4.07278ZM25.518 1.20381L24.8242 1.92399L24.8288 1.9284L25.518 1.20381ZM21.8706 3.24119L20.8739 3.16003L20.8732 3.169L21.8706 3.24119ZM21.8887 4.75882L20.8893 4.79498L20.8897 4.80488L20.8902 4.81476L21.8887 4.75882ZM21.5637 6.58831L20.5747 6.44021L20.5734 6.44873L20.5723 6.45728L21.5637 6.58831ZM22.3762 9.43646L21.4092 9.69118L22.0773 12.2275L23.0443 11.9728L24.0113 11.7181L23.3432 9.18174L22.3762 9.43646ZM23.0443 11.9728L22.0443 11.9728C22.0443 12.0629 22.0478 12.4374 22.3558 12.7435C22.7506 13.136 23.2317 13.05 23.4123 12.9917C23.5925 12.9336 23.7217 12.8392 23.7763 12.7976C23.8455 12.7449 23.9044 12.6902 23.9486 12.6468C24.1139 12.4842 24.2731 12.2774 24.3339 12.1957L23.5318 11.5986L22.7297 11.0014C22.6821 11.0653 22.5975 11.1704 22.5462 11.2208C22.5362 11.2307 22.5427 11.2231 22.5636 11.2072C22.57 11.2023 22.6552 11.1345 22.7981 11.0884C22.9415 11.0421 23.3921 10.9536 23.7658 11.3251C24.0526 11.6102 24.0443 11.945 24.0443 11.9728L23.0443 11.9728ZM23.5318 11.5986L24.3616 12.1566C24.8431 11.4405 25.3677 10.3763 25.5447 9.40843L24.561 9.22857L23.5773 9.0487C23.4654 9.66079 23.0871 10.4677 22.7019 11.0406L23.5318 11.5986ZM24.561 9.22857L25.5468 9.39674C25.6722 8.66146 25.6237 7.84973 25.4358 7.10511C25.2495 6.3667 24.9047 5.61063 24.3624 5.0443L23.6401 5.73593L22.9179 6.42756C23.152 6.67202 23.3669 7.08016 23.4966 7.59432C23.6247 8.10227 23.6484 8.63147 23.5752 9.06039L24.561 9.22857ZM23.6401 5.73593L24.3554 5.03706C23.8993 4.5703 23.4433 4.357 23.1071 4.18276L22.647 5.07066L22.187 5.95856C22.573 6.15854 22.7309 6.23629 22.9249 6.4348L23.6401 5.73593ZM22.647 5.07066L23.0653 4.16236C23.1555 4.2039 23.2133 4.25916 23.2432 4.29505C23.2702 4.32742 23.2755 4.34483 23.2679 4.32784C23.2606 4.31172 23.2489 4.28098 23.2334 4.22806C23.2176 4.174 23.2035 4.11739 23.1842 4.03982L22.2137 4.28067L21.2431 4.52151C21.2741 4.64653 21.3346 4.90528 21.4439 5.14823C21.5526 5.3899 21.7759 5.77041 22.2287 5.97896L22.647 5.07066ZM22.2137 4.28067L23.1802 4.02416C23.0472 3.52286 23.1223 2.90397 23.3552 2.45216L22.4665 1.99382L21.5777 1.53549C21.1245 2.41421 20.9829 3.54163 21.2471 4.53717L22.2137 4.28067ZM22.4665 1.99382L23.365 2.43279C23.462 2.23421 23.5955 2.08255 23.723 1.99399C23.8455 1.9089 23.9336 1.89875 23.9893 1.9055L24.1096 0.912759L24.2299 -0.0799767C22.9575 -0.234189 21.9957 0.679304 21.568 1.55486L22.4665 1.99382ZM24.1096 0.912759L23.9893 1.9055C23.9744 1.90369 23.9917 1.90486 24.0255 1.9188C24.058 1.93221 24.0724 1.94373 24.0696 1.94144C24.0674 1.93961 24.0186 1.89877 23.9835 1.8055C23.9654 1.75729 23.9543 1.70318 23.9533 1.64741C23.9523 1.59197 23.9614 1.54857 23.9702 1.52128L24.9221 1.8275L25.8741 2.13373C25.9859 1.78598 25.9787 1.42906 25.8556 1.10173C25.7387 0.790822 25.5398 0.564171 25.3548 0.40902C25.0047 0.115434 24.5679 -0.0390078 24.2299 -0.0799767L24.1096 0.912759ZM24.9221 1.8275L23.9736 1.51066C23.9742 1.5089 23.9963 1.44033 24.0656 1.35457C24.1459 1.25523 24.2608 1.16848 24.399 1.11846C24.5211 1.07429 24.615 1.07582 24.6369 1.07652C24.6559 1.07713 24.6539 1.07883 24.5969 1.06945L24.4346 2.05619L24.2723 3.04293C24.3588 3.05715 24.7175 3.13013 25.0796 2.99912C25.5632 2.82411 25.7766 2.42576 25.8706 2.14434L24.9221 1.8275ZM24.4346 2.05619L24.557 1.06371C23.9513 0.98899 23.4332 1.2293 23.0892 1.6168C22.7733 1.97267 22.6271 2.41821 22.5866 2.81471C22.5144 3.52184 22.7773 4.71116 23.9508 5.03644L24.2179 4.07278L24.485 3.10911C24.5146 3.1173 24.5457 3.13426 24.5701 3.15593C24.5921 3.17548 24.5976 3.18889 24.5949 3.18349C24.592 3.17746 24.5842 3.15845 24.5789 3.12544C24.5737 3.09275 24.5724 3.05537 24.5763 3.01801C24.5801 2.98034 24.5881 2.95219 24.5946 2.93583C24.6013 2.91885 24.602 2.92531 24.5849 2.94451C24.5661 2.96565 24.5271 3.00025 24.465 3.02496C24.4003 3.05074 24.3435 3.05254 24.3122 3.04867L24.4346 2.05619ZM24.2179 4.07278L23.9502 5.03626C25.2969 5.41053 26.3856 4.64497 26.8341 3.66127C27.2763 2.69143 27.1712 1.39615 26.2072 0.479223L25.518 1.20381L24.8288 1.9284C25.1106 2.19648 25.1409 2.55396 25.0144 2.83151C24.9517 2.96888 24.8643 3.05253 24.789 3.09264C24.7269 3.1257 24.636 3.15106 24.4857 3.10929L24.2179 4.07278ZM25.518 1.20381L26.2118 0.483647C25.5986 -0.107076 24.7963 -0.452691 23.9614 -0.432578C23.1093 -0.412055 22.3015 -0.0107418 21.7261 0.742089L22.5206 1.34934L23.3151 1.95659C23.5342 1.66994 23.7827 1.57231 24.0095 1.56684C24.2534 1.56097 24.5526 1.66233 24.8242 1.92398L25.518 1.20381ZM22.5206 1.34934L21.7261 0.742089C21.173 1.46582 20.9374 2.38083 20.8739 3.16004L21.8706 3.24119L22.8673 3.32235C22.9122 2.77102 23.0738 2.27233 23.3151 1.95659L22.5206 1.34934ZM21.8706 3.24119L20.8732 3.169C20.832 3.73899 20.873 4.34391 20.8893 4.79498L21.8887 4.75882L22.888 4.72265C22.8682 4.17583 22.837 3.74129 22.868 3.31338L21.8706 3.24119ZM21.8887 4.75882L20.8902 4.81476C20.8998 4.98472 20.8707 5.17433 20.8028 5.44929C20.7457 5.68009 20.629 6.07722 20.5747 6.44021L21.5637 6.58831L22.5526 6.7364C22.5886 6.4965 22.6524 6.30112 22.7444 5.92902C22.8254 5.60108 22.9137 5.17739 22.8871 4.70287L21.8887 4.75882ZM21.5637 6.58831L20.5723 6.45728C20.4814 7.14462 20.6218 7.83315 20.8135 8.4089C21.0087 8.99506 21.2821 9.53797 21.5318 9.96338L22.3942 9.45725L23.2567 8.95113C23.0549 8.60732 22.8499 8.19392 22.711 7.77699C22.5687 7.34965 22.5195 6.98831 22.555 6.71933L21.5637 6.58831Z" fill="url(#paint46_linear_216_5706)" mask="url(#path-27-inside-4_216_5706)"/>
<path d="M13.832 9.36688C13.5091 8.88916 13.3835 8.40849 13.5322 7.95575C13.6299 7.67291 13.78 7.56534 13.875 7.53582C13.9565 7.51052 14.0923 7.51205 14.2637 7.67743L14.2695 7.68329L14.2754 7.68817C14.3957 7.79762 14.5018 7.94329 14.626 8.13641C14.7395 8.31294 14.8839 8.55744 15.0459 8.76727L15.0479 8.7702L16.8721 11.0983C16.937 11.1897 17.0146 11.2752 17.0996 11.3552C17.0123 11.3371 16.9235 11.3196 16.834 11.2995L16.8291 11.2985C16.3323 11.1912 15.5764 10.8304 15.0537 10.5095L15.0518 10.5085C14.6388 10.2567 14.1559 9.84578 13.832 9.36688Z" fill="url(#paint47_linear_216_5706)" stroke="url(#paint48_linear_216_5706)"/>
<path d="M11.0244 9.63836C11.0652 9.36615 11.3401 9.22022 11.5576 9.27801L11.5615 9.27996C11.7569 9.32996 11.8751 9.421 12.0166 9.57977C12.1388 9.71695 12.3721 10.0345 12.6436 10.2819C12.8334 10.4608 13.041 10.6873 13.293 10.944C13.5271 11.1825 13.798 11.4448 14.0615 11.6218L14.0635 11.6227C14.5897 11.973 15.2025 12.2107 15.8359 12.3766C15.1224 12.4576 14.4124 12.4872 13.71 12.4333L13.709 12.4343C13.1823 12.3919 12.4132 12.0557 11.8125 11.5095C11.2969 11.0405 10.9827 10.4911 10.9805 9.92938L11.0244 9.63836Z" fill="url(#paint49_linear_216_5706)" stroke="url(#paint50_linear_216_5706)"/>
<path d="M10.332 9.24774C10.3844 9.29111 10.4443 9.32769 10.5117 9.35321C10.4812 9.38489 10.4571 9.3966 10.4443 9.40106C10.43 9.401 10.4225 9.3982 10.416 9.39422C10.4023 9.38571 10.3777 9.36347 10.3564 9.31903C10.3454 9.2959 10.337 9.27201 10.332 9.24774ZM3.54688 8.41278C3.63372 8.38052 3.72947 8.34945 3.83594 8.32098L3.8418 8.31903C3.99365 8.27677 4.21477 8.29653 4.50293 8.40106C4.78259 8.50254 5.06742 8.66283 5.31641 8.82098L6.01758 8.14813C5.85356 7.86482 5.70184 7.53702 5.56445 7.18133C5.38854 6.71999 5.19474 6.28069 5.11523 5.84149C5.03989 5.42511 5.08945 5.11518 5.30371 4.87079C5.48548 4.6743 5.65338 4.64369 5.83789 4.70868C5.85473 4.71606 5.90473 4.74373 5.98145 4.82782C6.05892 4.91278 6.14427 5.03213 6.23438 5.18426C6.41488 5.48904 6.58701 5.87947 6.73828 6.27704C6.88835 6.67144 7.01224 7.05777 7.09863 7.34637C7.14166 7.49011 7.17465 7.60888 7.19727 7.6911C7.20858 7.73222 7.21699 7.76444 7.22266 7.78582C7.22544 7.79632 7.22814 7.80408 7.22949 7.80926C7.23015 7.8118 7.23016 7.81394 7.23047 7.81512L7.23145 7.8161L8.20996 7.76434L8.20996 7.76727C8.2098 7.76834 8.20911 7.76945 8.20898 7.7702C8.20874 7.7717 8.20904 7.77284 8.20898 7.77313C8.20898 7.77313 8.20927 7.77139 8.20996 7.76825C8.21166 7.76061 8.21588 7.7445 8.22266 7.72332C8.23641 7.68045 8.26082 7.61808 8.30273 7.55047C8.34267 7.4861 8.40001 7.4135 8.48438 7.34637C8.49146 7.39667 8.50393 7.44115 8.51855 7.47723C8.54719 7.54784 8.58638 7.60099 8.5957 7.61395C8.62056 7.6485 8.60968 7.63293 8.62305 7.65204C8.62865 7.66004 8.6306 7.66514 8.63379 7.67352C8.6578 7.74484 8.66884 7.83463 8.66504 7.97235C8.66307 8.04335 8.65774 8.11485 8.65234 8.20282C8.64722 8.28635 8.6416 8.38257 8.6416 8.48211C8.6416 8.75821 8.664 9.03045 8.69922 9.29657L8.73828 9.55829C8.94689 10.8713 9.46125 11.9252 10.2617 12.7526C10.1377 12.7441 10.0089 12.732 9.87695 12.7155C8.98559 12.6041 8.04892 12.3012 7.45605 11.613L7.3418 11.4704C5.84714 9.43673 4.5538 8.64273 3.54688 8.41278Z" fill="url(#paint51_linear_216_5706)" stroke="url(#paint52_linear_216_5706)"/>
<path d="M19.4805 0.97723C19.4259 0.749944 19.4641 0.63217 19.5439 0.546566C19.5489 0.552854 19.5559 0.558494 19.5615 0.566098C19.7084 0.765717 19.8599 1.15368 19.9941 1.64813C20.0341 1.7955 20.0696 1.94661 20.1035 2.09637C20.0601 2.04034 20.017 1.9839 19.9756 1.92645C19.7251 1.57887 19.5454 1.24762 19.4805 0.97723Z" fill="url(#paint53_linear_216_5706)" stroke="url(#paint54_linear_216_5706)"/>
<path d="M0.557617 12.4216C0.547022 12.3158 0.571935 12.301 0.5625 12.3132C0.566358 12.3093 0.594242 12.2849 0.682617 12.2634C0.905538 12.2092 1.27632 12.2316 1.7334 12.3229C1.92286 12.3608 2.11427 12.409 2.29883 12.4597C2.12701 12.5153 1.94895 12.5671 1.77246 12.6081C1.35551 12.7048 1.01246 12.7289 0.791016 12.6764C0.689707 12.6524 0.641991 12.6193 0.619141 12.5954C0.600426 12.5757 0.568655 12.5317 0.557617 12.4216Z" fill="url(#paint55_linear_216_5706)" stroke="url(#paint56_linear_216_5706)"/>
<defs>
<linearGradient id="paint0_linear_216_5706" x1="-96.8844" y1="11.9133" x2="-93.9249" y2="-27.1934" gradientUnits="userSpaceOnUse">
<stop offset="0.0287087" stop-color="#856220"/>
<stop offset="0.394995" stop-color="#F9D271"/>
<stop offset="0.715077" stop-color="#BF923D"/>
</linearGradient>
<linearGradient id="paint1_linear_216_5706" x1="43.1186" y1="7.00476" x2="39.6511" y2="25.4458" gradientUnits="userSpaceOnUse">
<stop offset="0.0287087" stop-color="#856220"/>
<stop offset="0.394995" stop-color="#F9D271"/>
<stop offset="0.715077" stop-color="#BF923D"/>
</linearGradient>
<linearGradient id="paint2_linear_216_5706" x1="43.1186" y1="7.00476" x2="39.6511" y2="25.4458" gradientUnits="userSpaceOnUse">
<stop offset="0.0287087" stop-color="#856220"/>
<stop offset="0.394995" stop-color="#F9D271"/>
<stop offset="0.715077" stop-color="#BF923D"/>
</linearGradient>
<linearGradient id="paint3_linear_216_5706" x1="35.1266" y1="16.6431" x2="35.0035" y2="12.6295" gradientUnits="userSpaceOnUse">
<stop offset="0.0287087" stop-color="#856220"/>
<stop offset="0.394995" stop-color="#F9D271"/>
<stop offset="0.715077" stop-color="#BF923D"/>
</linearGradient>
<linearGradient id="paint4_linear_216_5706" x1="35.1266" y1="16.6431" x2="35.0035" y2="12.6295" gradientUnits="userSpaceOnUse">
<stop offset="0.0287087" stop-color="#856220"/>
<stop offset="0.394995" stop-color="#F9D271"/>
<stop offset="0.715077" stop-color="#BF923D"/>
</linearGradient>
<linearGradient id="paint5_linear_216_5706" x1="35.1266" y1="11.5709" x2="35.0035" y2="7.55725" gradientUnits="userSpaceOnUse">
<stop offset="0.0287087" stop-color="#856220"/>
<stop offset="0.394995" stop-color="#F9D271"/>
<stop offset="0.715077" stop-color="#BF923D"/>
</linearGradient>
<linearGradient id="paint6_linear_216_5706" x1="35.1266" y1="11.5709" x2="35.0035" y2="7.55725" gradientUnits="userSpaceOnUse">
<stop offset="0.0287087" stop-color="#856220"/>
<stop offset="0.394995" stop-color="#F9D271"/>
<stop offset="0.715077" stop-color="#BF923D"/>
</linearGradient>
<linearGradient id="paint7_linear_216_5706" x1="12.6314" y1="28.1054" x2="11.2299" y2="7.06281" gradientUnits="userSpaceOnUse">
<stop offset="0.0287087" stop-color="#856220"/>
<stop offset="0.394995" stop-color="#F9D271"/>
<stop offset="0.715077" stop-color="#BF923D"/>
</linearGradient>
<linearGradient id="paint8_linear_216_5706" x1="12.6314" y1="28.1054" x2="11.2299" y2="7.06281" gradientUnits="userSpaceOnUse">
<stop offset="0.0287087" stop-color="#856220"/>
<stop offset="0.394995" stop-color="#F9D271"/>
<stop offset="0.715077" stop-color="#BF923D"/>
</linearGradient>
<linearGradient id="paint9_linear_216_5706" x1="9.2532" y1="29.7752" x2="7.90201" y2="7.1" gradientUnits="userSpaceOnUse">
<stop offset="0.0287087" stop-color="#856220"/>
<stop offset="0.394995" stop-color="#F9D271"/>
<stop offset="0.715077" stop-color="#BF923D"/>
</linearGradient>
<linearGradient id="paint10_linear_216_5706" x1="9.2532" y1="29.7752" x2="7.90201" y2="7.1" gradientUnits="userSpaceOnUse">
<stop offset="0.0287087" stop-color="#856220"/>
<stop offset="0.394995" stop-color="#F9D271"/>
<stop offset="0.715077" stop-color="#BF923D"/>
</linearGradient>
<linearGradient id="paint11_linear_216_5706" x1="20.5084" y1="30.5191" x2="16.7035" y2="4.72963" gradientUnits="userSpaceOnUse">
<stop offset="0.0287087" stop-color="#856220"/>
<stop offset="0.394995" stop-color="#F9D271"/>
<stop offset="0.715077" stop-color="#BF923D"/>
</linearGradient>
<linearGradient id="paint12_linear_216_5706" x1="20.5084" y1="30.5191" x2="16.7035" y2="4.72963" gradientUnits="userSpaceOnUse">
<stop offset="0.0287087" stop-color="#856220"/>
<stop offset="0.394995" stop-color="#F9D271"/>
<stop offset="0.715077" stop-color="#BF923D"/>
</linearGradient>
<linearGradient id="paint13_linear_216_5706" x1="11.6205" y1="20.6042" x2="11.0502" y2="9.02527" gradientUnits="userSpaceOnUse">
<stop offset="0.0287087" stop-color="#856220"/>
<stop offset="0.394995" stop-color="#F9D271"/>
<stop offset="0.715077" stop-color="#BF923D"/>
</linearGradient>
<linearGradient id="paint14_linear_216_5706" x1="11.6205" y1="20.6042" x2="11.0502" y2="9.02527" gradientUnits="userSpaceOnUse">
<stop offset="0.0287087" stop-color="#856220"/>
<stop offset="0.394995" stop-color="#F9D271"/>
<stop offset="0.715077" stop-color="#BF923D"/>
</linearGradient>
<linearGradient id="paint15_linear_216_5706" x1="8.6779" y1="18.3757" x2="8.38642" y2="8.75331" gradientUnits="userSpaceOnUse">
<stop offset="0.0287087" stop-color="#856220"/>
<stop offset="0.394995" stop-color="#F9D271"/>
<stop offset="0.715077" stop-color="#BF923D"/>
</linearGradient>
<linearGradient id="paint16_linear_216_5706" x1="8.6779" y1="18.3757" x2="8.38642" y2="8.75331" gradientUnits="userSpaceOnUse">
<stop offset="0.0287087" stop-color="#856220"/>
<stop offset="0.394995" stop-color="#F9D271"/>
<stop offset="0.715077" stop-color="#BF923D"/>
</linearGradient>
<linearGradient id="paint17_linear_216_5706" x1="-0.0840292" y1="25.6396" x2="-1.24407" y2="4.74557" gradientUnits="userSpaceOnUse">
<stop offset="0.0287087" stop-color="#856220"/>
<stop offset="0.394995" stop-color="#F9D271"/>
<stop offset="0.715077" stop-color="#BF923D"/>
</linearGradient>
<linearGradient id="paint18_linear_216_5706" x1="-0.0840292" y1="25.6396" x2="-1.24407" y2="4.74557" gradientUnits="userSpaceOnUse">
<stop offset="0.0287087" stop-color="#856220"/>
<stop offset="0.394995" stop-color="#F9D271"/>
<stop offset="0.715077" stop-color="#BF923D"/>
</linearGradient>
<linearGradient id="paint19_linear_216_5706" x1="30.7738" y1="14.883" x2="30.5079" y2="9.35888" gradientUnits="userSpaceOnUse">
<stop offset="0.0287087" stop-color="#856220"/>
<stop offset="0.394995" stop-color="#F9D271"/>
<stop offset="0.715077" stop-color="#BF923D"/>
</linearGradient>
<linearGradient id="paint20_linear_216_5706" x1="30.7738" y1="14.883" x2="30.5079" y2="9.35888" gradientUnits="userSpaceOnUse">
<stop offset="0.0287087" stop-color="#856220"/>
<stop offset="0.394995" stop-color="#F9D271"/>
<stop offset="0.715077" stop-color="#BF923D"/>
</linearGradient>
<linearGradient id="paint21_linear_216_5706" x1="23.7896" y1="16.3549" x2="23.3696" y2="7.59237" gradientUnits="userSpaceOnUse">
<stop offset="0.0287087" stop-color="#856220"/>
<stop offset="0.394995" stop-color="#F9D271"/>
<stop offset="0.715077" stop-color="#BF923D"/>
</linearGradient>
<linearGradient id="paint22_linear_216_5706" x1="23.7896" y1="16.3549" x2="23.3696" y2="7.59237" gradientUnits="userSpaceOnUse">
<stop offset="0.0287087" stop-color="#856220"/>
<stop offset="0.394995" stop-color="#F9D271"/>
<stop offset="0.715077" stop-color="#BF923D"/>
</linearGradient>
<linearGradient id="paint23_linear_216_5706" x1="22.6769" y1="14.883" x2="22.1424" y2="9.39818" gradientUnits="userSpaceOnUse">
<stop offset="0.0287087" stop-color="#856220"/>
<stop offset="0.394995" stop-color="#F9D271"/>
<stop offset="0.715077" stop-color="#BF923D"/>
</linearGradient>
<linearGradient id="paint24_linear_216_5706" x1="22.6769" y1="14.883" x2="22.1424" y2="9.39818" gradientUnits="userSpaceOnUse">
<stop offset="0.0287087" stop-color="#856220"/>
<stop offset="0.394995" stop-color="#F9D271"/>
<stop offset="0.715077" stop-color="#BF923D"/>
</linearGradient>
<linearGradient id="paint25_linear_216_5706" x1="17.0911" y1="16.3549" x2="16.2504" y2="7.65346" gradientUnits="userSpaceOnUse">
<stop offset="0.0287087" stop-color="#856220"/>
<stop offset="0.394995" stop-color="#F9D271"/>
<stop offset="0.715077" stop-color="#BF923D"/>
</linearGradient>
<linearGradient id="paint26_linear_216_5706" x1="17.0911" y1="16.3549" x2="16.2504" y2="7.65346" gradientUnits="userSpaceOnUse">
<stop offset="0.0287087" stop-color="#856220"/>
<stop offset="0.394995" stop-color="#F9D271"/>
<stop offset="0.715077" stop-color="#BF923D"/>
</linearGradient>
<linearGradient id="paint27_linear_216_5706" x1="409.689" y1="13.4331" x2="399.682" y2="90.8003" gradientUnits="userSpaceOnUse">
<stop offset="0.0287087" stop-color="#856220"/>
<stop offset="0.394995" stop-color="#F9D271"/>
<stop offset="0.715077" stop-color="#BF923D"/>
</linearGradient>
<linearGradient id="paint28_linear_216_5706" x1="409.689" y1="13.4331" x2="399.682" y2="90.8003" gradientUnits="userSpaceOnUse">
<stop offset="0.0287087" stop-color="#856220"/>
<stop offset="0.394995" stop-color="#F9D271"/>
<stop offset="0.715077" stop-color="#BF923D"/>
</linearGradient>
<linearGradient id="paint29_linear_216_5706" x1="18.4845" y1="26.835" x2="17.5737" y2="18.5843" gradientUnits="userSpaceOnUse">
<stop offset="0.0287087" stop-color="#856220"/>
<stop offset="0.394995" stop-color="#F9D271"/>
<stop offset="0.715077" stop-color="#BF923D"/>
</linearGradient>
<linearGradient id="paint30_linear_216_5706" x1="18.4845" y1="26.835" x2="17.5737" y2="18.5843" gradientUnits="userSpaceOnUse">
<stop offset="0.0287087" stop-color="#856220"/>
<stop offset="0.394995" stop-color="#F9D271"/>
<stop offset="0.715077" stop-color="#BF923D"/>
</linearGradient>
<linearGradient id="paint31_linear_216_5706" x1="22.2572" y1="22.2983" x2="22.0179" y2="11.5698" gradientUnits="userSpaceOnUse">
<stop offset="0.0287087" stop-color="#856220"/>
<stop offset="0.394995" stop-color="#F9D271"/>
<stop offset="0.715077" stop-color="#BF923D"/>
</linearGradient>
<linearGradient id="paint32_linear_216_5706" x1="22.2572" y1="22.2983" x2="22.0179" y2="11.5698" gradientUnits="userSpaceOnUse">
<stop offset="0.0287087" stop-color="#856220"/>
<stop offset="0.394995" stop-color="#F9D271"/>
<stop offset="0.715077" stop-color="#BF923D"/>
</linearGradient>
<linearGradient id="paint33_linear_216_5706" x1="23.4015" y1="26.8398" x2="22.99" y2="14.1828" gradientUnits="userSpaceOnUse">
<stop offset="0.0287087" stop-color="#856220"/>
<stop offset="0.394995" stop-color="#F9D271"/>
<stop offset="0.715077" stop-color="#BF923D"/>
</linearGradient>
<linearGradient id="paint34_linear_216_5706" x1="23.4015" y1="26.8398" x2="22.99" y2="14.1828" gradientUnits="userSpaceOnUse">
<stop offset="0.0287087" stop-color="#856220"/>
<stop offset="0.394995" stop-color="#F9D271"/>
<stop offset="0.715077" stop-color="#BF923D"/>
</linearGradient>
<linearGradient id="paint35_linear_216_5706" x1="22.2572" y1="12.0248" x2="22.0179" y2="1.29633" gradientUnits="userSpaceOnUse">
<stop offset="0.0287087" stop-color="#856220"/>
<stop offset="0.394995" stop-color="#F9D271"/>
<stop offset="0.715077" stop-color="#BF923D"/>
</linearGradient>
<linearGradient id="paint36_linear_216_5706" x1="22.2572" y1="12.0248" x2="22.0179" y2="1.29633" gradientUnits="userSpaceOnUse">
<stop offset="0.0287087" stop-color="#856220"/>
<stop offset="0.394995" stop-color="#F9D271"/>
<stop offset="0.715077" stop-color="#BF923D"/>
</linearGradient>
<linearGradient id="paint37_linear_216_5706" x1="23.4015" y1="9.23819" x2="22.99" y2="-3.41873" gradientUnits="userSpaceOnUse">
<stop offset="0.0287087" stop-color="#856220"/>
<stop offset="0.394995" stop-color="#F9D271"/>
<stop offset="0.715077" stop-color="#BF923D"/>
</linearGradient>
<linearGradient id="paint38_linear_216_5706" x1="23.4015" y1="9.23819" x2="22.99" y2="-3.41873" gradientUnits="userSpaceOnUse">
<stop offset="0.0287087" stop-color="#856220"/>
<stop offset="0.394995" stop-color="#F9D271"/>
<stop offset="0.715077" stop-color="#BF923D"/>
</linearGradient>
<linearGradient id="paint39_linear_216_5706" x1="-0.793611" y1="13.9248" x2="-0.872429" y2="10.5525" gradientUnits="userSpaceOnUse">
<stop offset="0.0287087" stop-color="#856220"/>
<stop offset="0.394995" stop-color="#F9D271"/>
<stop offset="0.715077" stop-color="#BF923D"/>
</linearGradient>
<linearGradient id="paint40_linear_216_5706" x1="-0.793611" y1="13.9248" x2="-0.872429" y2="10.5525" gradientUnits="userSpaceOnUse">
<stop offset="0.0287087" stop-color="#856220"/>
<stop offset="0.394995" stop-color="#F9D271"/>
<stop offset="0.715077" stop-color="#BF923D"/>
</linearGradient>
<linearGradient id="paint41_linear_216_5706" x1="12.6842" y1="15.9491" x2="11.2827" y2="-5.09341" gradientUnits="userSpaceOnUse">
<stop offset="0.0287087" stop-color="#856220"/>
<stop offset="0.394995" stop-color="#F9D271"/>
<stop offset="0.715077" stop-color="#BF923D"/>
</linearGradient>
<linearGradient id="paint42_linear_216_5706" x1="12.6842" y1="15.9491" x2="11.2827" y2="-5.09341" gradientUnits="userSpaceOnUse">
<stop offset="0.0287087" stop-color="#856220"/>
<stop offset="0.394995" stop-color="#F9D271"/>
<stop offset="0.715077" stop-color="#BF923D"/>
</linearGradient>
<linearGradient id="paint43_linear_216_5706" x1="9.30691" y1="15.7459" x2="7.95572" y2="-6.9293" gradientUnits="userSpaceOnUse">
<stop offset="0.0287087" stop-color="#856220"/>
<stop offset="0.394995" stop-color="#F9D271"/>
<stop offset="0.715077" stop-color="#BF923D"/>
</linearGradient>
<linearGradient id="paint44_linear_216_5706" x1="9.30691" y1="15.7459" x2="7.95572" y2="-6.9293" gradientUnits="userSpaceOnUse">
<stop offset="0.0287087" stop-color="#856220"/>
<stop offset="0.394995" stop-color="#F9D271"/>
<stop offset="0.715077" stop-color="#BF923D"/>
</linearGradient>
<linearGradient id="paint45_linear_216_5706" x1="20.5621" y1="18.2691" x2="16.7572" y2="-7.52037" gradientUnits="userSpaceOnUse">
<stop offset="0.0287087" stop-color="#856220"/>
<stop offset="0.394995" stop-color="#F9D271"/>
<stop offset="0.715077" stop-color="#BF923D"/>
</linearGradient>
<linearGradient id="paint46_linear_216_5706" x1="20.5621" y1="18.2691" x2="16.7572" y2="-7.52037" gradientUnits="userSpaceOnUse">
<stop offset="0.0287087" stop-color="#856220"/>
<stop offset="0.394995" stop-color="#F9D271"/>
<stop offset="0.715077" stop-color="#BF923D"/>
</linearGradient>
<linearGradient id="paint47_linear_216_5706" x1="11.6742" y1="14.821" x2="11.1039" y2="3.24207" gradientUnits="userSpaceOnUse">
<stop offset="0.0287087" stop-color="#856220"/>
<stop offset="0.394995" stop-color="#F9D271"/>
<stop offset="0.715077" stop-color="#BF923D"/>
</linearGradient>
<linearGradient id="paint48_linear_216_5706" x1="11.6742" y1="14.821" x2="11.1039" y2="3.24207" gradientUnits="userSpaceOnUse">
<stop offset="0.0287087" stop-color="#856220"/>
<stop offset="0.394995" stop-color="#F9D271"/>
<stop offset="0.715077" stop-color="#BF923D"/>
</linearGradient>
<linearGradient id="paint49_linear_216_5706" x1="8.73161" y1="15.237" x2="8.44013" y2="5.61464" gradientUnits="userSpaceOnUse">
<stop offset="0.0287087" stop-color="#856220"/>
<stop offset="0.394995" stop-color="#F9D271"/>
<stop offset="0.715077" stop-color="#BF923D"/>
</linearGradient>
<linearGradient id="paint50_linear_216_5706" x1="8.73161" y1="15.237" x2="8.44013" y2="5.61464" gradientUnits="userSpaceOnUse">
<stop offset="0.0287087" stop-color="#856220"/>
<stop offset="0.394995" stop-color="#F9D271"/>
<stop offset="0.715077" stop-color="#BF923D"/>
</linearGradient>
<linearGradient id="paint51_linear_216_5706" x1="-0.0293417" y1="18.2568" x2="-1.18938" y2="-2.63723" gradientUnits="userSpaceOnUse">
<stop offset="0.0287087" stop-color="#856220"/>
<stop offset="0.394995" stop-color="#F9D271"/>
<stop offset="0.715077" stop-color="#BF923D"/>
</linearGradient>
<linearGradient id="paint52_linear_216_5706" x1="-0.0293417" y1="18.2568" x2="-1.18938" y2="-2.63723" gradientUnits="userSpaceOnUse">
<stop offset="0.0287087" stop-color="#856220"/>
<stop offset="0.394995" stop-color="#F9D271"/>
<stop offset="0.715077" stop-color="#BF923D"/>
</linearGradient>
<linearGradient id="paint53_linear_216_5706" x1="18.5392" y1="5.61037" x2="17.6284" y2="-2.64026" gradientUnits="userSpaceOnUse">
<stop offset="0.0287087" stop-color="#856220"/>
<stop offset="0.394995" stop-color="#F9D271"/>
<stop offset="0.715077" stop-color="#BF923D"/>
</linearGradient>
<linearGradient id="paint54_linear_216_5706" x1="18.5392" y1="5.61037" x2="17.6284" y2="-2.64026" gradientUnits="userSpaceOnUse">
<stop offset="0.0287087" stop-color="#856220"/>
<stop offset="0.394995" stop-color="#F9D271"/>
<stop offset="0.715077" stop-color="#BF923D"/>
</linearGradient>
<linearGradient id="paint55_linear_216_5706" x1="-0.738924" y1="14.0009" x2="-0.817742" y2="10.6287" gradientUnits="userSpaceOnUse">
<stop offset="0.0287087" stop-color="#856220"/>
<stop offset="0.394995" stop-color="#F9D271"/>
<stop offset="0.715077" stop-color="#BF923D"/>
</linearGradient>
<linearGradient id="paint56_linear_216_5706" x1="-0.738924" y1="14.0009" x2="-0.817742" y2="10.6287" gradientUnits="userSpaceOnUse">
<stop offset="0.0287087" stop-color="#856220"/>
<stop offset="0.394995" stop-color="#F9D271"/>
<stop offset="0.715077" stop-color="#BF923D"/>
</linearGradient>
</defs>
</svg>
