<svg width="40" height="90" viewBox="0 0 40 90" fill="none" xmlns="http://www.w3.org/2000/svg">
<g opacity="0.8" filter="url(#filter0_n_233_79135)">
<path d="M17.1122 85.8744C17.9016 86.2077 18.904 85.0411 19.2423 84.3328C19.4428 83.9162 19.518 83.5134 19.5055 83.0551C19.5055 82.5968 19.5431 82.1246 19.5681 81.6663C19.5681 81.5968 19.4804 81.5968 19.4679 81.6524C19.3551 82.0135 19.1922 82.4023 18.9166 82.6523C18.666 82.8745 18.4028 83.0829 18.1648 83.319C17.9392 83.5412 17.7513 83.819 17.5132 84.0551C17.2877 84.2773 17.012 84.43 16.824 84.6939C16.4983 85.1245 16.6361 85.68 17.1122 85.8883V85.8744Z" fill="url(#paint0_linear_233_79135)"/>
<path d="M18.1897 87.8338C19.2673 88.0838 20.1569 86.4172 20.2196 85.4034C20.2948 84.1534 20.1194 82.8896 19.8938 81.6674C19.8938 81.6257 19.8312 81.6396 19.8186 81.6674C19.756 82.7229 19.7685 84.0006 19.1796 84.8895C18.9666 85.195 18.7786 85.5284 18.5531 85.8339C18.2774 86.2228 17.8264 86.4311 17.7261 86.945C17.6509 87.3061 17.8264 87.7644 18.1897 87.8338Z" fill="url(#paint1_linear_233_79135)"/>
<path d="M22.8016 85.8744C22.0122 86.2077 21.0098 85.0411 20.6715 84.3328C20.471 83.9162 20.3958 83.5134 20.4084 83.0551C20.4084 82.5968 20.3708 82.1246 20.3457 81.6663C20.3457 81.5968 20.4209 81.5968 20.4459 81.6524C20.5587 82.0135 20.7216 82.4023 20.9973 82.6523C21.2479 82.8745 21.511 83.0829 21.7491 83.319C21.9746 83.5412 22.1626 83.819 22.4006 84.0551C22.6262 84.2773 22.9018 84.43 23.0898 84.6939C23.4156 85.1245 23.2777 85.68 22.8016 85.8883V85.8744Z" fill="url(#paint2_linear_233_79135)"/>
<path d="M21.737 87.8338C20.6719 88.0838 19.7698 86.4172 19.7071 85.4034C19.6319 84.1534 19.8073 82.8896 20.0329 81.6674C20.0329 81.6257 20.0955 81.6396 20.1081 81.6674C20.1707 82.7229 20.1582 84.0006 20.7471 84.8895C20.9601 85.195 21.1481 85.5284 21.3736 85.8339C21.6493 86.2228 22.1004 86.4311 22.2006 86.945C22.2758 87.3061 22.1004 87.7644 21.737 87.8338Z" fill="url(#paint3_linear_233_79135)"/>
<path d="M18.9297 88.8473C18.9297 88.2084 19.3933 87.6946 19.9697 87.6946C20.5461 87.6946 21.0097 88.2084 21.0097 88.8473C21.0097 89.4862 20.5461 90 19.9697 90C19.3933 90 18.9297 89.4862 18.9297 88.8473Z" fill="url(#paint4_linear_233_79135)"/>
<path d="M19.9572 82.9592C20.3586 82.9592 20.684 82.5985 20.684 82.1537C20.684 81.7088 20.3586 81.3481 19.9572 81.3481C19.5558 81.3481 19.2305 81.7088 19.2305 82.1537C19.2305 82.5985 19.5558 82.9592 19.9572 82.9592Z" fill="url(#paint5_linear_233_79135)"/>
<path d="M19.2305 79.3058C19.2305 78.8613 19.5563 78.5002 19.9572 78.5002C20.3582 78.5002 20.684 78.8613 20.684 79.3058C20.684 79.7502 20.3582 80.1113 19.9572 80.1113C19.5563 80.1113 19.2305 79.7502 19.2305 79.3058Z" fill="url(#paint6_linear_233_79135)"/>
<path d="M18.8047 76.4725C18.8047 75.7642 19.3184 75.1948 19.9575 75.1948C20.5965 75.1948 21.1102 75.7642 21.1102 76.4725C21.1102 77.1809 20.5965 77.7503 19.9575 77.7503C19.3184 77.7503 18.8047 77.1809 18.8047 76.4725Z" fill="url(#paint7_linear_233_79135)"/>
<path d="M18.8047 74.1821C18.8047 73.8349 19.3184 73.5432 19.9575 73.5432C20.5965 73.5432 21.1102 73.821 21.1102 74.1821C21.1102 74.5432 20.5965 74.8209 19.9575 74.8209C19.3184 74.8209 18.8047 74.5432 18.8047 74.1821Z" fill="url(#paint8_linear_233_79135)"/>
<path d="M17.1142 62.3757C17.9036 62.0424 18.906 63.209 19.2443 63.9173C19.4448 64.334 19.52 64.7367 19.5074 65.195C19.5074 65.6534 19.545 66.1256 19.5701 66.5839C19.5701 66.6533 19.4824 66.6533 19.4698 66.5978C19.3571 66.2367 19.1942 65.8478 18.9185 65.5978C18.6679 65.3756 18.4048 65.1673 18.1667 64.9312C17.9412 64.709 17.7532 64.4312 17.5152 64.1951C17.2896 63.9729 17.0139 63.8201 16.826 63.5562C16.5002 63.1257 16.638 62.5702 17.1142 62.3618V62.3757Z" fill="url(#paint9_linear_233_79135)"/>
<path d="M18.1917 60.4176C19.2693 60.1676 20.1589 61.8342 20.2216 62.848C20.2967 64.098 20.1213 65.3618 19.8958 66.584C19.8958 66.6256 19.8331 66.6117 19.8206 66.584C19.7579 65.5284 19.7705 64.2507 19.1816 63.3619C18.9685 63.0563 18.7806 62.723 18.555 62.4175C18.2794 62.0286 17.8283 61.8203 17.7281 61.3064C17.6529 60.9453 17.8283 60.487 18.1917 60.4176Z" fill="url(#paint10_linear_233_79135)"/>
<path d="M22.8026 62.3757C22.0132 62.0424 21.0108 63.209 20.6725 63.9173C20.472 64.334 20.3968 64.7367 20.4093 65.195C20.4093 65.6534 20.3717 66.1256 20.3467 66.5839C20.3467 66.6533 20.4219 66.6533 20.4469 66.5978C20.5597 66.2367 20.7226 65.8478 20.9982 65.5978C21.2488 65.3756 21.512 65.1673 21.75 64.9312C21.9756 64.709 22.1635 64.4312 22.4016 64.1951C22.6271 63.9729 22.9028 63.8201 23.0908 63.5562C23.4165 63.1257 23.2787 62.5702 22.8026 62.3618V62.3757Z" fill="url(#paint11_linear_233_79135)"/>
<path d="M21.7389 60.4178C20.6739 60.1678 19.7717 61.8344 19.7091 62.8482C19.6339 64.0982 19.8093 65.362 20.0348 66.5842C20.0348 66.6259 20.0975 66.612 20.11 66.5842C20.1727 65.5287 20.1601 64.251 20.7491 63.3621C20.9621 63.0566 21.15 62.7233 21.3756 62.4177C21.6512 62.0288 22.1023 61.8205 22.2025 61.3066C22.2777 60.9456 22.1023 60.4872 21.7389 60.4178Z" fill="url(#paint12_linear_233_79135)"/>
<path d="M18.9297 59.4184C18.9297 60.0572 19.3933 60.5711 19.9697 60.5711C20.5461 60.5711 21.0097 60.0572 21.0097 59.4184C21.0097 58.7795 20.5461 58.2656 19.9697 58.2656C19.3933 58.2656 18.9297 58.7795 18.9297 59.4184Z" fill="url(#paint13_linear_233_79135)"/>
<path d="M19.9572 66.904C20.3586 66.904 20.684 66.5434 20.684 66.0985C20.684 65.6536 20.3586 65.293 19.9572 65.293C19.5558 65.293 19.2305 65.6536 19.2305 66.0985C19.2305 66.5434 19.5558 66.904 19.9572 66.904Z" fill="url(#paint14_linear_233_79135)"/>
<path d="M19.9572 69.7509C20.3586 69.7509 20.684 69.3903 20.684 68.9454C20.684 68.5005 20.3586 68.1399 19.9572 68.1399C19.5558 68.1399 19.2305 68.5005 19.2305 68.9454C19.2305 69.3903 19.5558 69.7509 19.9572 69.7509Z" fill="url(#paint15_linear_233_79135)"/>
<path d="M18.8047 71.7785C18.8047 72.4868 19.3184 73.0562 19.9575 73.0562C20.5965 73.0562 21.1102 72.4868 21.1102 71.7785C21.1102 71.0702 20.5965 70.5007 19.9575 70.5007C19.3184 70.5007 18.8047 71.0702 18.8047 71.7785Z" fill="url(#paint16_linear_233_79135)"/>
<path d="M18.8047 74.071C18.8047 74.4182 19.3184 74.7099 19.9575 74.7099C20.5965 74.7099 21.1102 74.4321 21.1102 74.071C21.1102 73.7099 20.5965 73.4321 19.9575 73.4321C19.3184 73.4321 18.8047 73.7099 18.8047 74.071Z" fill="url(#paint17_linear_233_79135)"/>
<path d="M19.0061 55.3479C19.0061 55.3479 19.0813 58.3756 18.2167 57.8478C17.3521 57.32 18.8808 55.4451 19.0061 55.3479Z" fill="url(#paint18_linear_233_79135)"/>
<path d="M21.0114 55.3479C21.0114 55.3479 20.9362 58.3756 21.8008 57.8478C22.6654 57.32 21.1367 55.4451 21.0114 55.3479Z" fill="url(#paint19_linear_233_79135)"/>
<path d="M14.5836 13.6833C14.546 13.1973 14.6964 12.8223 14.4834 12.3501C14.2578 11.8362 13.8694 11.5168 13.4935 11.1418C13.4684 11.114 13.4935 11.0446 13.5311 11.0585C14.2077 11.3084 14.6087 11.9751 15.185 12.4056C15.4607 12.6001 15.774 12.6556 16.0371 12.9056C16.3503 13.2111 16.5132 13.6417 16.7137 14.0444C17.0395 14.725 17.3653 15.3638 17.6159 16.0721C17.879 16.836 18.3927 16.9332 19.0318 17.1832C18.518 17.4054 17.9792 17.0999 17.478 17.0165C17.478 17.0165 14.7966 16.5443 14.5961 13.6972L14.5836 13.6833Z" fill="url(#paint20_linear_233_79135)"/>
<path d="M15.5712 12.8775C15.3833 12.5164 15.2204 12.2386 15.0825 11.8498C14.9447 11.4609 14.8445 11.1415 14.7693 10.5304C14.7066 10.0582 14.6064 9.68318 14.218 9.41931C14.0425 9.29431 13.817 9.22487 13.604 9.23876C13.2907 9.23876 13.0902 9.39153 13.0025 9.73874C12.9524 9.94706 13.2406 10.0721 13.2531 9.83595C13.1529 9.43319 13.7168 9.26653 13.817 9.66929C14.03 10.5026 12.8772 10.7526 12.7269 9.91928C12.5139 8.80822 13.9172 8.57212 14.5062 8.82211C14.9572 9.01654 15.3707 9.37764 15.8469 10.0304C16.2604 10.5998 16.3982 11.4192 16.5987 12.0859C16.8117 12.8219 16.8994 13.558 17.2252 14.2524C17.6011 15.0441 18.1273 15.5579 18.6787 16.169C18.6787 16.169 18.6787 16.2107 18.6661 16.1968C18.0522 15.9329 17.5384 15.3635 17.0748 14.8635C16.536 14.2802 15.9596 13.5719 15.5837 12.8497L15.5712 12.8775Z" fill="url(#paint21_linear_233_79135)"/>
<path d="M18.1145 17.1697L19.6432 17.6835C19.7935 17.6835 19.5054 17.9752 19.4176 18.0585C19.0292 18.3918 18.4654 18.739 17.9892 18.8502C17.2875 19.0029 16.3728 18.7391 15.8842 18.1419C15.6837 17.8919 15.596 17.6558 15.4832 17.378C15.408 17.1697 15.1825 17.1002 15.0071 17.0447C14.556 16.8919 14.0297 16.9752 13.6287 17.2391C13.2278 17.4891 12.9271 17.9752 12.9772 18.5029C13.0023 18.7668 13.1902 19.2668 13.5285 19.1279C13.6914 19.0585 13.6914 18.9474 13.6663 18.7529C13.5912 17.9752 14.7189 17.8363 14.8818 18.5863C15.1449 19.7946 13.8668 20.5445 13.1526 19.5862C12.6389 18.9057 12.6138 17.8919 13.2403 17.2808C13.5536 16.9752 13.9796 16.8225 14.3806 16.7808C14.6813 16.753 14.9945 16.7808 15.2952 16.7947C15.6837 16.8225 16.0345 16.6141 16.3979 16.5447C16.9743 16.4475 17.6634 16.8364 18.127 17.1836" fill="url(#paint22_linear_233_79135)"/>
<path d="M17.5132 11.8361C17.2877 11.6139 17.012 11.4611 16.824 11.1972C16.4983 10.7667 16.6361 10.2112 17.1122 10.0029C17.9016 9.66953 18.666 10.6278 19.0043 11.3361C19.2048 11.7528 19.4428 12.3777 19.518 12.8222C19.6182 13.3916 19.6809 13.9193 19.6934 14.3777C19.6934 14.4471 19.5681 14.586 19.5431 14.5304C19.4303 14.1693 19.1922 13.4749 18.9166 13.2388L17.5132 11.8361Z" fill="url(#paint23_linear_233_79135)"/>
<path d="M18.1897 8.04451C19.2673 7.79452 20.1569 9.46111 20.2196 10.475C20.2948 11.7249 20.1194 12.9887 19.8938 14.2109C19.8938 14.2526 19.8312 14.2387 19.8186 14.2109C19.756 13.1554 19.6432 11.8777 19.1796 10.9888C19.0042 10.6555 18.6283 10.2527 18.4027 9.9472C18.1271 9.55833 17.8264 9.44722 17.7261 8.94725C17.6509 8.58615 17.8264 8.12784 18.1897 8.0584V8.04451Z" fill="url(#paint24_linear_233_79135)"/>
<path d="M20.4442 8.87865C20.4442 8.87865 20.4066 8.9342 20.3941 8.90642C19.8929 7.89258 19.1661 7.2676 18.1387 7.05928C17.9382 7.01761 17.7377 6.98984 17.5372 6.98984C17.3367 6.98984 17.1362 7.04539 16.9483 6.96206C16.7979 6.89262 16.823 6.76763 16.7353 6.98984C16.6225 7.2676 16.6977 7.60092 16.848 7.83702C16.9483 7.98979 17.0736 8.1009 17.224 8.18423C17.2991 8.2259 17.5372 8.35089 17.6374 8.337C17.7502 8.337 17.8254 8.2259 17.7627 8.14257C17.5121 8.08701 17.5372 7.73981 17.7001 7.61481C17.9883 7.36482 18.4394 7.61481 18.3893 8.05924C18.3391 8.39256 17.9883 8.58699 17.7126 8.55921C17.3493 8.53144 16.9483 8.26756 16.7102 7.94813C16.4346 7.55926 16.3594 7.08706 16.4596 6.64263C16.61 5.97599 17.0611 5.89266 17.0611 5.89266C17.0611 5.89266 15.1941 5.28158 14.9811 4.58716C14.8934 4.28162 14.956 3.98997 15.1565 3.75387C15.6452 3.19833 16.3468 3.62887 16.8606 3.87886C17.0861 3.98997 17.2991 4.11496 17.4871 4.25384C17.2866 3.85108 17.0485 3.26777 17.1488 2.80946C17.3117 2.03172 17.5999 1.79562 17.8755 1.53174C17.8755 1.53174 17.0736 3.0039 19.517 5.29547C20.6697 6.37875 20.3941 8.90642 20.3941 8.90642L20.4442 8.87865Z" fill="url(#paint25_linear_233_79135)"/>
<path d="M19.2305 25.2805C19.2305 24.6555 19.5563 24.1555 19.9572 24.1555C20.3582 24.1555 20.684 24.6555 20.684 25.2805C20.684 25.9054 20.3582 26.4054 19.9572 26.4054C19.5563 26.4054 19.2305 25.9054 19.2305 25.2805Z" fill="url(#paint26_linear_233_79135)"/>
<path d="M18.8047 20.8634C18.8047 19.8773 19.3184 19.0718 19.9575 19.0718C20.5965 19.0718 21.1102 19.8773 21.1102 20.8634C21.1102 21.8494 20.5965 22.655 19.9575 22.655C19.3184 22.655 18.8047 21.8494 18.8047 20.8634Z" fill="url(#paint27_linear_233_79135)"/>
<path d="M19.2305 41.6554C19.2305 41.4332 19.5563 41.2527 19.9572 41.2527C20.3582 41.2527 20.684 41.4332 20.684 41.6554C20.684 41.8777 20.3582 42.0582 19.9572 42.0582C19.5563 42.0582 19.2305 41.8777 19.2305 41.6554Z" fill="url(#paint28_linear_233_79135)"/>
<path d="M19.2305 18.2384C19.2305 17.9329 19.5563 17.6829 19.9572 17.6829C20.3582 17.6829 20.684 17.9329 20.684 18.2384C20.684 18.5439 20.3582 18.7939 19.9572 18.7939C19.5563 18.7939 19.2305 18.5439 19.2305 18.2384Z" fill="url(#paint29_linear_233_79135)"/>
<path d="M18.8047 14.4201C18.8047 13.934 19.3184 13.5312 19.9575 13.5312C20.5965 13.5312 21.1102 13.934 21.1102 14.4201C21.1102 14.9062 20.5965 15.309 19.9575 15.309C19.3184 15.309 18.8047 14.9062 18.8047 14.4201Z" fill="url(#paint30_linear_233_79135)"/>
<path d="M18.8047 40.2519C18.8047 39.9047 19.3184 39.613 19.9575 39.613C20.5965 39.613 21.1102 39.8908 21.1102 40.2519C21.1102 40.613 20.5965 40.8908 19.9575 40.8908C19.3184 40.8908 18.8047 40.613 18.8047 40.2519Z" fill="url(#paint31_linear_233_79135)"/>
<path d="M19.543 10.6902L19.543 54.0842H20.395L20.395 10.6902H19.543Z" fill="url(#paint32_linear_233_79135)"/>
<path d="M19.5322 6.58718L19.5322 28.0535H20.3843L20.3843 6.58718H19.5322Z" fill="url(#paint33_linear_233_79135)"/>
<path d="M20.3809 84.5901L20.3809 41.196H19.5288L19.5288 84.5901H20.3809Z" fill="url(#paint34_linear_233_79135)"/>
<path d="M20.3975 88.6948L20.3975 67.2285H19.5454L19.5454 88.6948H20.3975Z" fill="url(#paint35_linear_233_79135)"/>
<path d="M14.618 16.0176C14.618 16.0176 11.9115 15.6148 12.513 14.7538C13.1144 13.8927 14.5429 15.8787 14.618 16.0176Z" fill="url(#paint36_linear_233_79135)"/>
<path d="M16.0335 51.7099C16.1713 52.0988 16.259 52.4182 16.447 52.7793C16.6349 53.1404 16.7978 53.4182 17.1737 53.8765C17.4745 54.2237 17.6624 54.5431 17.6123 55.057C17.5872 55.2931 17.4995 55.5292 17.3492 55.6958C17.1612 55.9736 16.9106 56.043 16.6224 55.8903C16.447 55.8069 16.5347 55.4736 16.7101 55.6125C16.9231 55.9597 17.3993 55.5708 17.1863 55.2236C16.7352 54.5153 15.833 55.3486 16.3217 56.0014C16.9733 56.8902 18.0133 55.8208 18.2012 55.1681C18.3516 54.6542 18.3641 54.0709 18.2012 53.2515C18.0634 52.5432 17.5747 51.9043 17.2239 51.3071C16.8354 50.6683 16.3843 50.1127 16.0962 49.4044C15.7704 48.585 15.7578 47.8073 15.6701 46.9462C15.6701 46.9323 15.6451 46.9184 15.6325 46.9462C15.4321 47.6406 15.5072 48.4461 15.5574 49.1545C15.62 49.9877 15.7578 50.9322 16.021 51.7099H16.0335Z" fill="url(#paint37_linear_233_79135)"/>
<path d="M15.909 49.2098L15.5582 47.4738C15.5832 47.3071 15.2825 47.5988 15.2073 47.696C14.8815 48.1126 14.5182 48.6959 14.3929 49.2237C14.2049 49.9875 14.3803 51.0153 14.8815 51.5986C15.0945 51.8347 15.295 51.9458 15.5331 52.0847C15.7085 52.1819 15.7586 52.4319 15.7962 52.6402C15.8965 53.1541 15.7837 53.7235 15.5206 54.154C15.2574 54.5707 14.8064 54.8762 14.3302 54.779C14.0921 54.7373 13.6536 54.4874 13.8165 54.1263C13.8917 53.9457 13.9919 53.9596 14.1673 54.0013C14.8565 54.1401 15.0695 52.9041 14.4054 52.6819C13.3403 52.3069 12.5635 53.6541 13.3779 54.529C13.9543 55.154 14.869 55.2512 15.4579 54.5985C15.7586 54.279 15.9341 53.8207 15.9842 53.3763C16.0343 53.043 16.0343 52.6958 16.0343 52.3624C16.0343 51.9319 16.2598 51.5569 16.335 51.1542C16.4603 50.5292 16.1721 49.7376 15.8839 49.1959" fill="url(#paint38_linear_233_79135)"/>
<path d="M13.3907 32.6418C11.6866 31.3224 9.55653 32.7807 9.49388 35.2667C9.46882 36.3222 9.76954 37.2388 10.1956 38.0999C11.5613 40.8914 14.7064 41.5997 16.8616 39.8776C17.0119 39.7665 17.1623 39.6693 17.3252 39.5582C17.3126 39.7665 17.25 39.8776 17.1748 39.9748C15.8466 41.4886 13.3907 41.8497 11.8245 40.7248C9.95749 39.3915 9.10545 37.2805 8.7922 34.7112C8.46641 31.9752 9.90737 29.753 11.5237 29.0308C13.1025 28.3225 14.7314 28.2114 16.3228 28.9475C16.7864 29.1697 17.2375 29.4336 17.676 29.7253C18.3025 30.128 18.8914 29.1003 18.2775 28.6697C18.2775 28.6697 18.2649 28.6697 18.2524 28.6697C16.3729 27.3781 14.4057 27.0448 12.3257 27.7253C8.93003 28.8503 7.01293 33.5862 8.35365 37.5305C9.53147 40.947 12.9647 43.2663 16.0095 41.3081C16.5358 40.9609 17.037 40.5442 17.5507 40.1693H17.5632C17.5006 40.7248 17.3878 41.2803 17.1497 41.7664C16.1849 43.7247 15.8466 44.0441 13.9671 45.7246C13.4659 46.169 12.664 46.4745 12.3006 47.0995C11.7493 48.0161 12.1252 49.7799 12.8394 50.2383H12.8519C13.2278 48.8772 13.9546 47.8356 14.744 46.8495C15.7589 45.5996 16.5859 44.7941 17.2124 43.1552C17.2625 43.0441 17.4881 42.4608 17.5507 42.3636C17.463 42.8914 17.4505 43.0858 17.3878 43.4469C17.1497 44.9607 16.423 47.0717 16.636 48.655C16.7613 49.5855 16.9242 49.9883 17.4003 50.4049C17.889 50.8493 18.6408 50.4605 18.7661 50.0716C18.1647 50.0716 17.6509 49.3216 17.5256 48.9328C17.2249 47.9467 17.5256 46.2107 17.7136 44.8774C17.9517 43.2525 18.2023 41.6275 18.3777 39.9887C18.4529 39.2526 18.3902 38.5027 18.3902 37.586C18.3902 37.586 18.3902 37.5721 18.3777 37.586C18.2023 37.8221 18.102 37.9471 18.0143 38.086C17.275 39.1554 16.3729 39.8637 15.2327 40.072C13.065 40.447 11.5238 39.1693 11.1604 36.6555C11.01 35.6556 11.4611 34.4056 12.1502 33.8917C12.8018 33.4195 13.8919 34.1973 13.704 35.0722C13.704 35.0722 14.4433 33.4751 13.3782 32.6418H13.3907Z" fill="url(#paint39_linear_233_79135)"/>
<path d="M8.92746 39.6267C8.82722 39.4461 8.28843 39.3906 7.74963 38.3906C7.37373 37.6962 7.12313 36.9323 6.82241 36.1963C6.42145 35.1824 5.76989 34.5991 4.85519 34.488C4.55447 34.4463 4.26628 34.3769 4.10339 34.3491C3.79013 34.8491 3.58965 35.4046 3.25134 35.6685C2.51207 36.2379 1.71015 35.6407 1.45955 34.4463C1.08365 32.6686 1.82292 31.1548 3.42677 30.5715C3.86532 30.4048 4.01568 30.3215 4.05327 29.5715C4.0658 29.2243 4.35399 28.6966 4.62965 28.5855C5.04314 28.4188 5.55687 28.4049 6.29615 29.0854C6.4841 29.2521 6.67205 29.6271 6.82241 30.0021C7.18578 30.9187 7.19831 31.9742 7.39879 32.9464C7.42385 33.1131 7.58675 33.7797 7.5241 33.8075C7.46145 33.6686 7.08554 32.752 7.02289 32.6131C6.6094 31.6826 6.00796 31.1409 5.10579 31.1548C4.0658 31.1687 3.11351 31.4187 2.44942 32.5297C2.11111 33.0853 1.98581 33.6964 2.19882 34.363C2.34918 34.8352 2.72508 35.0852 3.07592 34.9463C3.47688 34.7935 3.72749 34.2658 3.62725 33.7658C3.46436 32.8908 4.01568 32.0853 4.84266 32.0159C5.80747 31.9464 6.69711 32.5853 7.07301 33.9186C7.49904 35.4741 7.47397 36.0851 7.95011 37.6406C7.97517 37.724 8.75204 39.4183 8.93999 39.6267H8.92746Z" fill="url(#paint40_linear_233_79135)"/>
<path d="M14.9709 37.0579C15.3719 37.7245 15.9608 37.9745 16.9006 37.7801C18.141 37.5301 19.0181 34.8913 18.8553 33.8358C18.3039 30.3915 15.0211 28.6138 11.8008 29.9054C11.6003 29.9887 11.3999 30.0998 11.2119 30.1971V30.2109C13.3671 30.4054 14.9333 31.4192 15.3343 34.2663C15.3343 34.2663 15.3343 34.2663 15.3468 34.2663C15.9232 33.8636 15.8856 33.0719 15.1589 31.0026C15.1589 31.0026 15.1589 30.9887 15.1714 30.9887C15.9107 31.4053 16.4871 32.5858 16.462 33.6275C16.4495 34.683 15.7227 35.6413 14.8958 35.6274C14.8958 35.6274 14.4948 36.2523 14.9584 37.044L14.9709 37.0579Z" fill="url(#paint41_linear_233_79135)"/>
<path d="M7.45217 40.6968C5.69796 39.7385 5.05892 39.5996 3.7558 39.9746C3.65556 40.0024 3.55532 40.0857 3.45508 40.1413C4.34471 40.5301 4.7582 41.4607 5.32205 42.1828C5.86085 42.8773 6.46229 43.4467 7.20156 43.7106C8.35433 44.1411 9.09361 44.3494 10.4844 44.4327C11.1736 44.4744 12.7524 44.0855 13.3789 43.5856C13.3789 43.5856 13.3789 43.5578 13.3789 43.5717C11.9003 44.0994 9.94565 44.0994 8.39192 42.78C8.39192 42.78 8.39192 42.7523 8.39192 42.7662C10.309 43.6133 12.2136 43.7106 14.1056 42.9606C14.5442 42.7662 15.108 42.4328 15.108 42.3634C14.1557 42.7384 13.7423 42.6689 13.5919 42.6828C13.5919 42.6828 11.2613 42.7245 9.26902 41.6829C7.86566 40.9468 7.45217 40.7107 7.45217 40.7107V40.6968Z" fill="url(#paint42_linear_233_79135)"/>
<path d="M11.2475 49.5712H11.26C11.3728 50.2239 10.9718 51.0155 10.4957 51.1405C9.24265 51.4739 7.85181 50.585 7.86434 49.0017C7.86434 47.099 8.9294 46.0435 10.4706 45.3075C11.1973 44.9603 11.899 44.8769 12.6884 44.4603C14.38 43.5575 14.405 43.502 15.2571 42.7381C15.3698 42.6409 15.9964 42.1687 16.1091 42.0854C16.2595 41.9743 16.5477 41.6965 16.5978 41.6826C16.5101 42.0715 15.0691 43.4325 14.8812 43.5992C13.9289 44.4325 13.3275 44.9325 12.3626 45.738C11.8364 46.1685 11.2725 46.5574 10.7964 47.0435C10.4957 47.349 9.91927 47.8629 9.73132 48.3073C9.46819 48.9184 9.59349 49.5573 9.9318 49.8212C10.0947 49.9461 10.7713 50.2656 11.2349 49.5573L11.2475 49.5712Z" fill="url(#paint43_linear_233_79135)"/>
<path d="M3.95605 44.0155C2.27703 43.446 0.610529 42.2933 0.109327 40.2517C-0.279105 38.6685 0.39752 36.9047 1.66306 36.7936C2.80329 36.6963 3.11654 37.5435 3.27943 38.2379C3.0163 37.8907 2.74064 37.5991 2.42739 37.6685C2.13919 37.7241 1.4751 38.1129 1.51269 39.0851C1.55028 40.1267 1.851 40.7378 2.1392 41.1684C2.82835 42.1822 5.54737 43.9738 7.02592 44.3349C7.53965 44.4599 9.65723 44.8071 10.6346 44.9043C10.6346 44.9043 7.12616 45.0849 3.96859 44.0155H3.95605Z" fill="url(#paint44_linear_233_79135)"/>
<path d="M8.0775 46.3627C7.65147 46.7793 7.4134 46.9321 7.01244 47.3904C6.39847 48.0709 5.77196 48.7237 5.72184 49.7098C5.69678 50.2236 5.88474 50.8903 6.36088 51.1125C6.79943 51.3208 7.31316 51.1125 7.50111 50.668H7.51364C7.86448 51.3486 7.57629 52.1958 6.94979 52.418C6.42353 52.5985 5.70932 52.3485 5.33342 51.7652C4.46884 50.4042 4.81968 48.1404 6.61148 46.9182C7.12521 46.5571 8.16521 45.9321 8.97966 45.571C8.704 45.7377 8.27797 46.1544 8.06496 46.3627H8.0775Z" fill="url(#paint45_linear_233_79135)"/>
<path d="M8.85569 39.9736C8.24172 39.6264 6.53763 39.8486 5.78583 38.3765C5.57282 37.9598 5.43499 37.2376 5.2721 36.7238C5.09668 36.2238 4.87114 35.8766 4.28223 35.821C4.28223 35.821 4.28223 35.821 4.28223 35.8071C4.59548 35.446 5.19692 35.2933 5.66053 35.4183C5.98631 35.5155 6.23691 36.0571 6.23691 36.571C6.23691 37.5709 6.34968 38.557 7.55257 39.1959C7.59016 39.2098 8.86823 39.8625 8.88076 39.9875L8.85569 39.9736Z" fill="url(#paint46_linear_233_79135)"/>
<path d="M2.97949 46.0442C4.18238 44.5998 5.47298 44.9748 6.78863 45.697C6.78863 45.697 6.78863 45.697 6.78863 45.7109C6.1496 46.6692 3.88166 46.8636 2.97949 46.0581C2.97949 46.0581 2.97949 46.0581 2.97949 46.0442Z" fill="url(#paint47_linear_233_79135)"/>
<path d="M8.52937 27.0714C8.52937 27.0714 8.52937 27.0575 8.5419 27.0714C9.03057 27.7241 9.18093 28.4741 8.9178 29.2796C8.56696 30.3073 8.17853 31.3212 7.73998 32.4739C7.73998 32.4739 7.72744 32.4739 7.71491 32.4739C7.6272 31.4323 7.76503 30.5434 7.9154 29.6546C8.05323 28.7796 8.70479 28.0852 8.52937 27.0852V27.0714Z" fill="url(#paint48_linear_233_79135)"/>
<path d="M6.79805 27.5027C6.79805 27.5027 6.78552 27.5027 6.77298 27.5027C6.64768 27.5027 5.87082 27.5444 6.02118 27.9888C6.0713 28.1415 6.20913 28.2388 6.3595 28.2943C7.41202 28.6415 6.92335 29.6693 7.31178 30.3915C7.31178 30.3915 8.1137 27.6832 6.79805 27.5166V27.5027Z" fill="url(#paint49_linear_233_79135)"/>
<path d="M9.49369 27.0165C9.30574 27.6276 9.49369 28.322 9.49369 28.9747C9.49369 28.9747 9.49369 28.9886 9.50622 28.9747C9.66911 28.6692 9.89465 28.3914 10.0325 28.072C10.2204 27.6276 10.2455 27.1692 9.93224 26.7804C9.93224 26.7804 9.63152 26.5998 9.50622 27.0165H9.49369Z" fill="url(#paint50_linear_233_79135)"/>
<path d="M17.0232 38.5718C17.0232 38.5718 14.7427 40.2106 13.2391 38.8773C13.2391 38.8773 12.0488 37.8913 12.3495 36.6274C12.3495 36.6274 13.7278 39.6412 17.0232 38.5718Z" fill="url(#paint51_linear_233_79135)"/>
<path d="M23.9776 51.7099C23.8398 52.0988 23.7521 52.4182 23.5641 52.7793C23.3761 53.1404 23.2133 53.4182 22.8374 53.8765C22.5366 54.2237 22.3487 54.5431 22.3988 55.057C22.4239 55.2931 22.5116 55.5292 22.6619 55.6958C22.8499 55.9736 23.1005 56.043 23.3887 55.8903C23.5641 55.8069 23.4764 55.4736 23.301 55.6125C23.088 55.9597 22.6118 55.5708 22.8248 55.2236C23.2759 54.5153 24.1781 55.3486 23.6894 56.0014C23.0378 56.8902 21.9978 55.8208 21.8099 55.1681C21.6595 54.6542 21.647 54.0709 21.8099 53.2515C21.9477 52.5432 22.4364 51.9043 22.7872 51.3071C23.1757 50.6683 23.6268 50.1127 23.9149 49.4044C24.2407 48.585 24.2533 47.8073 24.341 46.9462C24.341 46.9323 24.366 46.9184 24.3786 46.9462C24.579 47.6406 24.5039 48.4461 24.4537 49.1545C24.3911 49.9877 24.2533 50.9322 23.9901 51.7099H23.9776Z" fill="url(#paint52_linear_233_79135)"/>
<path d="M24.1036 49.2098L24.4544 47.4738C24.4294 47.3071 24.7301 47.5988 24.8053 47.696C25.1311 48.1126 25.4944 48.6959 25.6197 49.2237C25.8077 49.9875 25.6323 51.0153 25.1311 51.5986C24.918 51.8347 24.7176 51.9458 24.4795 52.0847C24.3041 52.1819 24.254 52.4319 24.2164 52.6402C24.1161 53.1541 24.2289 53.7235 24.492 54.154C24.7552 54.5707 25.2062 54.8762 25.6824 54.779C25.9204 54.7373 26.359 54.4874 26.1961 54.1263C26.1209 53.9457 26.0207 53.9596 25.8453 54.0013C25.1561 54.1401 24.9431 52.9041 25.6072 52.6819C26.6723 52.3069 27.4491 53.6541 26.6347 54.529C26.0583 55.154 25.1436 55.2512 24.5547 54.5985C24.2539 54.279 24.0785 53.8207 24.0284 53.3763C23.9783 53.043 23.9783 52.6958 23.9783 52.3624C23.9783 51.9319 23.7528 51.5569 23.6776 51.1542C23.5523 50.5292 23.8405 49.7376 24.1287 49.1959" fill="url(#paint53_linear_233_79135)"/>
<path d="M26.6186 32.6418C28.3226 31.3224 30.4528 32.7807 30.5154 35.2667C30.5405 36.3222 30.2398 37.2388 29.8137 38.0999C28.448 40.8914 25.3029 41.5997 23.1477 39.8776C22.9974 39.7665 22.847 39.6693 22.6841 39.5582C22.6967 39.7665 22.7593 39.8776 22.8345 39.9748C24.1627 41.4886 26.6186 41.8497 28.1848 40.7248C30.0518 39.3915 30.9038 37.2805 31.2171 34.7112C31.5429 31.9752 30.1019 29.753 28.4855 29.0308C26.9067 28.3225 25.2778 28.2114 23.6865 28.9475C23.2229 29.1697 22.7718 29.4336 22.3333 29.7253C21.7068 30.128 21.1179 29.1003 21.7318 28.6697C21.7318 28.6697 21.7444 28.6697 21.7569 28.6697C23.6364 27.3781 25.6036 27.0448 27.6836 27.7253C31.0793 28.8503 32.9964 33.5862 31.6556 37.5305C30.4778 40.947 27.0446 43.2663 23.9998 41.3081C23.4735 40.9609 22.9723 40.5442 22.4586 40.1693H22.446C22.5087 40.7248 22.6215 41.2803 22.8595 41.7664C23.8244 43.7247 24.1627 44.0441 26.0422 45.7246C26.5434 46.169 27.3453 46.4745 27.7087 47.0995C28.26 48.0161 27.8841 49.7799 27.1699 50.2383H27.1574C26.7815 48.8772 26.0547 47.8356 25.2653 46.8495C24.2504 45.5996 23.4234 44.7941 22.7969 43.1552C22.7468 43.0441 22.5212 42.4608 22.4586 42.3636C22.5463 42.8914 22.5588 43.0858 22.6215 43.4469C22.8595 44.9607 23.5863 47.0717 23.3733 48.655C23.248 49.5855 23.0851 49.9883 22.6089 50.4049C22.1203 50.8493 21.3685 50.4605 21.2432 50.0716C21.8446 50.0716 22.3583 49.3216 22.4836 48.9328C22.7844 47.9467 22.4836 46.2107 22.2957 44.8774C22.0576 43.2525 21.807 41.6275 21.6316 39.9887C21.5564 39.2526 21.6191 38.5027 21.6191 37.586C21.6191 37.586 21.6191 37.5721 21.6316 37.586C21.807 37.8221 21.9073 37.9471 21.995 38.086C22.7342 39.1554 23.6364 39.8637 24.7766 40.072C26.9443 40.447 28.4855 39.1693 28.8489 36.6555C28.9993 35.6556 28.5482 34.4056 27.859 33.8917C27.2075 33.4195 26.1174 34.1973 26.3053 35.0722C26.3053 35.0722 25.566 33.4751 26.6311 32.6418H26.6186Z" fill="url(#paint54_linear_233_79135)"/>
<path d="M31.0682 39.6267C31.1684 39.4461 31.7072 39.3906 32.246 38.3906C32.6219 37.6962 32.8725 36.9323 33.1732 36.1963C33.5742 35.1824 34.2258 34.5991 35.1405 34.488C35.4412 34.4463 35.7294 34.3769 35.8923 34.3491C36.2055 34.8491 36.406 35.4046 36.7443 35.6685C37.4836 36.2379 38.2855 35.6407 38.5361 34.4463C38.912 32.6686 38.1727 31.1548 36.5689 30.5715C36.1303 30.4048 35.98 30.3215 35.9424 29.5715C35.9299 29.2243 35.6417 28.6966 35.366 28.5855C34.9525 28.4188 34.4388 28.4049 33.6995 29.0854C33.5116 29.2521 33.3236 29.6271 33.1732 30.0021C32.8099 30.9187 32.7973 31.9742 32.5969 32.9464C32.5718 33.1131 32.4089 33.7797 32.4716 33.8075C32.5342 33.6686 32.9101 32.752 32.9728 32.6131C33.3863 31.6826 33.9877 31.1409 34.8899 31.1548C35.9299 31.1687 36.8821 31.4187 37.5462 32.5297C37.8845 33.0853 38.0098 33.6964 37.7968 34.363C37.6465 34.8352 37.2706 35.0852 36.9197 34.9463C36.5188 34.7935 36.2682 34.2658 36.3684 33.7658C36.5313 32.8908 35.98 32.0853 35.153 32.0159C34.1882 31.9464 33.2985 32.5853 32.9226 33.9186C32.4966 35.4741 32.5217 36.0851 32.0455 37.6406C32.0205 37.724 31.2436 39.4183 31.0557 39.6267H31.0682Z" fill="url(#paint55_linear_233_79135)"/>
<path d="M25.0288 37.0579C24.6278 37.7245 24.0389 37.9745 23.0992 37.7801C21.8587 37.5301 20.9816 34.8913 21.1445 33.8358C21.6958 30.3915 24.9787 28.6138 28.1989 29.9054C28.3994 29.9887 28.5999 30.0998 28.7878 30.1971V30.2109C26.6326 30.4054 25.0664 31.4192 24.6654 34.2663C24.6654 34.2663 24.6654 34.2663 24.6529 34.2663C24.0765 33.8636 24.1141 33.0719 24.8408 31.0026C24.8408 31.0026 24.8408 30.9887 24.8283 30.9887C24.089 31.4053 23.5127 32.5858 23.5377 33.6275C23.5502 34.683 24.277 35.6413 25.104 35.6274C25.104 35.6274 25.5049 36.2523 25.0413 37.044L25.0288 37.0579Z" fill="url(#paint56_linear_233_79135)"/>
<path d="M32.5592 40.6968C34.3134 39.7385 34.9524 39.5996 36.2556 39.9746C36.3558 40.0024 36.456 40.0857 36.5563 40.1413C35.6666 40.5301 35.2532 41.4607 34.6893 42.1828C34.1505 42.8773 33.5491 43.4467 32.8098 43.7106C31.657 44.1411 30.9178 44.3494 29.5269 44.4327C28.8378 44.4744 27.259 44.0855 26.6325 43.5856C26.6325 43.5856 26.6325 43.5578 26.6325 43.5717C28.111 44.0994 30.0657 44.0994 31.6194 42.78C31.6194 42.78 31.6194 42.7523 31.6194 42.7662C29.7023 43.6133 27.7978 43.7106 25.9057 42.9606C25.4672 42.7662 24.9033 42.4328 24.9033 42.3634C25.8556 42.7384 26.2691 42.6689 26.4195 42.6828C26.4195 42.6828 28.7501 42.7245 30.7423 41.6829C32.1457 40.9468 32.5592 40.7107 32.5592 40.7107V40.6968Z" fill="url(#paint57_linear_233_79135)"/>
<path d="M28.7624 49.5712H28.7499C28.6371 50.2239 29.0381 51.0155 29.5142 51.1405C30.7672 51.4739 32.1581 50.585 32.1456 49.0017C32.1456 47.099 31.0805 46.0435 29.5393 45.3075C28.8126 44.9603 28.1109 44.8769 27.3215 44.4603C25.6299 43.5575 25.6049 43.502 24.7528 42.7381C24.6401 42.6409 24.0136 42.1687 23.9008 42.0854C23.7504 41.9743 23.4622 41.6965 23.4121 41.6826C23.4998 42.0715 24.9408 43.4325 25.1287 43.5992C26.081 44.4325 26.6825 44.9325 27.6473 45.738C28.1735 46.1685 28.7374 46.5574 29.2135 47.0435C29.5142 47.349 30.0906 47.8629 30.2786 48.3073C30.5417 48.9184 30.4164 49.5573 30.0781 49.8212C29.9152 49.9461 29.2386 50.2656 28.775 49.5573L28.7624 49.5712Z" fill="url(#paint58_linear_233_79135)"/>
<path d="M36.0437 44.0155C37.7228 43.446 39.3893 42.2933 39.8905 40.2517C40.2789 38.6685 39.6023 36.9047 38.3368 36.7936C37.1965 36.6963 36.8833 37.5435 36.7204 38.2379C36.9835 37.8907 37.2592 37.5991 37.5724 37.6685C37.8606 37.7241 38.5247 38.1129 38.4871 39.0851C38.4495 40.1267 38.1488 40.7378 37.8606 41.1684C37.1715 42.1822 34.4524 43.9738 32.9739 44.3349C32.4602 44.4599 30.3426 44.8071 29.3652 44.9043C29.3652 44.9043 32.8737 45.0849 36.0312 44.0155H36.0437Z" fill="url(#paint59_linear_233_79135)"/>
<path d="M31.9334 46.3627C32.3594 46.7793 32.5975 46.9321 32.9985 47.3904C33.6125 48.0709 34.239 48.7237 34.2891 49.7098C34.3141 50.2236 34.1262 50.8903 33.65 51.1125C33.2115 51.3208 32.6977 51.1125 32.5098 50.668H32.4973C32.1464 51.3486 32.4346 52.1958 33.0611 52.418C33.5874 52.5985 34.3016 52.3485 34.6775 51.7652C35.5421 50.4042 35.1912 48.1404 33.3994 46.9182C32.8857 46.5571 31.8457 45.9321 31.0312 45.571C31.3069 45.7377 31.7329 46.1544 31.9459 46.3627H31.9334Z" fill="url(#paint60_linear_233_79135)"/>
<path d="M31.1549 39.9736C31.7689 39.6264 33.473 39.8486 34.2248 38.3765C34.4378 37.9598 34.5757 37.2376 34.7385 36.7238C34.914 36.2238 35.1395 35.8766 35.7284 35.821C35.7284 35.821 35.7284 35.821 35.7284 35.8071C35.4152 35.446 34.8137 35.2933 34.3501 35.4183C34.0243 35.5155 33.7737 36.0571 33.7737 36.571C33.7737 37.5709 33.661 38.557 32.4581 39.1959C32.4205 39.2098 31.1424 39.8625 31.1299 39.9875L31.1549 39.9736Z" fill="url(#paint61_linear_233_79135)"/>
<path d="M37.0191 46.0442C35.8162 44.5998 34.5256 44.9748 33.21 45.697C33.21 45.697 33.21 45.697 33.21 45.7109C33.849 46.6692 36.1169 46.8636 37.0191 46.0581C37.0191 46.0581 37.0191 46.0581 37.0191 46.0442Z" fill="url(#paint62_linear_233_79135)"/>
<path d="M31.4804 27.0714C31.4804 27.0714 31.4804 27.0575 31.4679 27.0714C30.9792 27.7241 30.8289 28.4741 31.092 29.2796C31.4428 30.3073 31.8313 31.3212 32.2698 32.4739C32.2698 32.4739 32.2823 32.4739 32.2949 32.4739C32.3826 31.4323 32.2448 30.5434 32.0944 29.6546C31.9566 28.7796 31.305 28.0852 31.4804 27.0852V27.0714Z" fill="url(#paint63_linear_233_79135)"/>
<path d="M33.2108 27.5027C33.2108 27.5027 33.2234 27.5027 33.2359 27.5027C33.3612 27.5027 34.138 27.5444 33.9877 27.9888C33.9376 28.1415 33.7997 28.2388 33.6494 28.2943C32.5969 28.6415 33.0855 29.6693 32.6971 30.3915C32.6971 30.3915 31.8952 27.6832 33.2108 27.5166V27.5027Z" fill="url(#paint64_linear_233_79135)"/>
<path d="M30.5156 27.0162C30.7035 27.6273 30.5156 28.3217 30.5156 28.9745C30.5156 28.9745 30.5156 28.9884 30.503 28.9745C30.3402 28.6689 30.1146 28.3912 29.9768 28.0717C29.7888 27.6273 29.7638 27.169 30.077 26.7801C30.077 26.7801 30.3777 26.5996 30.503 27.0162H30.5156Z" fill="url(#paint65_linear_233_79135)"/>
<path d="M22.9863 38.5718C22.9863 38.5718 25.2668 40.2106 26.7704 38.8773C26.7704 38.8773 27.9608 37.8913 27.66 36.6274C27.66 36.6274 26.2817 39.6412 22.9863 38.5718Z" fill="url(#paint66_linear_233_79135)"/>
<path d="M19.9058 2.82319C19.9058 2.82319 18.966 -0.121125 19.9434 0.00387006C20.9207 0.128865 19.981 2.68431 19.9058 2.82319Z" fill="url(#paint67_linear_233_79135)"/>
<path d="M25.2577 13.7248C25.2953 13.2388 25.145 12.8638 25.358 12.3916C25.5835 11.8777 25.972 11.5583 26.3479 11.1833C26.3729 11.1555 26.3479 11.0861 26.3103 11.1C25.6336 11.3499 25.2327 12.0166 24.6563 12.4471C24.3806 12.6416 24.0674 12.6971 23.8043 12.9471C23.491 13.2526 23.3281 13.6832 23.1276 14.0859C22.8018 14.7665 22.4761 15.4053 22.2255 16.1136C21.9623 16.8775 21.4486 16.9747 20.8096 17.2247C21.3233 17.4469 21.8621 17.1414 22.3633 17.058C22.3633 17.058 25.0447 16.5858 25.2452 13.7387L25.2577 13.7248Z" fill="url(#paint68_linear_233_79135)"/>
<path d="M24.2686 12.9192C24.4565 12.5581 24.6194 12.2804 24.7573 11.8915C24.8951 11.5026 24.9953 11.1832 25.0705 10.5721C25.1332 10.0999 25.2334 9.72493 25.6218 9.46105C25.7973 9.33606 26.0228 9.26662 26.2358 9.2805C26.5491 9.2805 26.7495 9.43328 26.8372 9.78048C26.8874 9.98881 26.5992 10.1138 26.5867 9.8777C26.6869 9.47494 26.123 9.30828 26.0228 9.71104C25.8098 10.5443 26.9626 10.7943 27.1129 9.96103C27.3259 8.84997 25.9226 8.61387 25.3336 8.86386C24.8826 9.05829 24.4691 9.41939 23.9929 10.0721C23.5794 10.6416 23.4416 11.461 23.2411 12.1276C23.0281 12.8637 22.9404 13.5998 22.6146 14.2942C22.2387 15.0858 21.7125 15.5997 21.1611 16.2108C21.1611 16.2108 21.1611 16.2524 21.1737 16.2385C21.7876 15.9747 22.3014 15.4052 22.765 14.9053C23.3038 14.322 23.8802 13.6137 24.2561 12.8915L24.2686 12.9192Z" fill="url(#paint69_linear_233_79135)"/>
<path d="M21.7257 17.2107L20.197 17.7246C20.0466 17.7246 20.3348 18.0162 20.4225 18.0995C20.811 18.4329 21.3748 18.7801 21.851 18.8912C22.5527 19.0439 23.4673 18.7801 23.956 18.1829C24.1565 17.9329 24.2442 17.6968 24.357 17.419C24.4322 17.2107 24.6577 17.1412 24.8331 17.0857C25.2842 16.9329 25.8105 17.0163 26.2114 17.2801C26.6124 17.5301 26.9131 18.0162 26.863 18.544C26.8379 18.8078 26.65 19.3078 26.3117 19.1689C26.1488 19.0995 26.1488 18.9884 26.1738 18.794C26.249 18.0162 25.1213 17.8773 24.9584 18.6273C24.6953 19.8356 25.9734 20.5855 26.6876 19.6273C27.2013 18.9467 27.2264 17.9329 26.5999 17.3218C26.2866 17.0163 25.8606 16.8635 25.4596 16.8218C25.1589 16.794 24.8457 16.8218 24.5449 16.8357C24.1565 16.8635 23.8057 16.6552 23.4423 16.5857C22.8659 16.4885 22.1767 16.8774 21.7131 17.2246" fill="url(#paint70_linear_233_79135)"/>
<path d="M22.3101 11.8788C22.5357 11.6566 22.8113 11.5038 22.9993 11.24C23.325 10.8094 23.1872 10.2539 22.7111 10.0456C21.9217 9.71226 21.1574 10.6705 20.819 11.3789C20.6186 11.7955 20.3805 12.4205 20.3053 12.8649C20.2051 13.4343 20.1424 13.9621 20.1299 14.4204C20.1299 14.4898 20.2552 14.6287 20.2802 14.5732C20.393 14.2121 20.6311 13.5176 20.9067 13.2815L22.3101 11.8788Z" fill="url(#paint71_linear_233_79135)"/>
<path d="M21.6471 8.08674C20.5695 7.83675 19.6799 9.50335 19.6173 10.5172C19.5421 11.7671 19.7175 13.031 19.943 14.2531C19.943 14.2948 20.0057 14.2809 20.0182 14.2531C20.0809 13.1976 20.1936 11.9199 20.6573 11.0311C20.8327 10.6977 21.2086 10.295 21.4341 9.98944C21.7098 9.60057 22.0105 9.48946 22.1108 8.98948C22.1859 8.62839 22.0105 8.17007 21.6471 8.10063V8.08674Z" fill="url(#paint72_linear_233_79135)"/>
<path d="M19.3916 8.92064C19.3916 8.92064 19.4292 8.97619 19.4417 8.94841C19.9429 7.93457 20.6697 7.3096 21.6971 7.10127C21.8976 7.05961 22.0981 7.03183 22.2986 7.03183C22.4991 7.03183 22.6995 7.08738 22.8875 7.00405C23.0378 6.93461 23.0128 6.80962 23.1005 7.03183C23.2133 7.3096 23.1381 7.64291 22.9877 7.87902C22.8875 8.03179 22.7622 8.14289 22.6118 8.22622C22.5366 8.26789 22.2986 8.39288 22.1983 8.37899C22.0856 8.37899 22.0104 8.26789 22.073 8.18456C22.3236 8.129 22.2986 7.7818 22.1357 7.6568C21.8475 7.40681 21.3964 7.6568 21.4465 8.10123C21.4967 8.43455 21.8475 8.62898 22.1232 8.60121C22.4865 8.57343 22.8875 8.30955 23.1256 7.99012C23.4012 7.60125 23.4764 7.12905 23.3762 6.68462C23.2258 6.01798 22.7747 5.93465 22.7747 5.93465C22.7747 5.93465 24.6417 5.32357 24.8547 4.62915C24.9424 4.32361 24.8798 4.03196 24.6793 3.79586C24.1906 3.24033 23.4889 3.67086 22.9752 3.92085C22.7497 4.03196 22.5366 4.15695 22.3487 4.29584C22.5492 3.89308 22.7872 3.30977 22.687 2.85145C22.5241 2.07371 22.2359 1.83761 21.9603 1.57373C21.9603 1.57373 22.7622 3.04589 20.3188 5.33746C19.1661 6.42074 19.4417 8.94841 19.4417 8.94841L19.3916 8.92064Z" fill="url(#paint73_linear_233_79135)"/>
<path d="M25.2197 16.0579C25.2197 16.0579 27.9262 15.6551 27.3248 14.794C26.7233 13.933 25.2949 15.919 25.2197 16.0579Z" fill="url(#paint74_linear_233_79135)"/>
<path d="M19.9311 2.86567C19.9311 2.86567 20.8709 -0.0786441 19.8935 0.0463505C18.9162 0.171345 19.856 2.72679 19.9311 2.86567Z" fill="url(#paint75_linear_233_79135)"/>
</g>
<defs>
<filter id="filter0_n_233_79135" x="0" y="0" width="40" height="90" filterUnits="userSpaceOnUse" color-interpolation-filters="sRGB">
<feFlood flood-opacity="0" result="BackgroundImageFix"/>
<feBlend mode="normal" in="SourceGraphic" in2="BackgroundImageFix" result="shape"/>
<feTurbulence type="fractalNoise" baseFrequency="2 2" stitchTiles="stitch" numOctaves="3" result="noise" seed="6187" />
<feColorMatrix in="noise" type="luminanceToAlpha" result="alphaNoise" />
<feComponentTransfer in="alphaNoise" result="coloredNoise1">
<feFuncA type="discrete" tableValues="1 1 1 1 1 1 1 1 1 1 1 1 1 1 1 1 1 1 1 1 1 1 1 1 1 1 1 1 1 1 1 1 1 1 1 1 1 1 1 1 1 1 1 1 1 1 1 1 1 1 1 0 0 0 0 0 0 0 0 0 0 0 0 0 0 0 0 0 0 0 0 0 0 0 0 0 0 0 0 0 0 0 0 0 0 0 0 0 0 0 0 0 0 0 0 0 0 0 0 0 "/>
</feComponentTransfer>
<feComposite operator="in" in2="shape" in="coloredNoise1" result="noise1Clipped" />
<feFlood flood-color="rgba(0, 0, 0, 0.25)" result="color1Flood" />
<feComposite operator="in" in2="noise1Clipped" in="color1Flood" result="color1" />
<feMerge result="effect1_noise_233_79135">
<feMergeNode in="shape" />
<feMergeNode in="color1" />
</feMerge>
</filter>
<linearGradient id="paint0_linear_233_79135" x1="16.2644" y1="84.9068" x2="19.998" y2="84.8576" gradientUnits="userSpaceOnUse">
<stop stop-color="#FFE79C"/>
<stop offset="0.218239" stop-color="#D7B373"/>
<stop offset="0.514285" stop-color="#FFE79C"/>
<stop offset="0.818791" stop-color="#D7B373"/>
<stop offset="1" stop-color="#FFE79C"/>
</linearGradient>
<linearGradient id="paint1_linear_233_79135" x1="17.3784" y1="86.3823" x2="20.6096" y2="86.3566" gradientUnits="userSpaceOnUse">
<stop stop-color="#FFE79C"/>
<stop offset="0.218239" stop-color="#D7B373"/>
<stop offset="0.514285" stop-color="#FFE79C"/>
<stop offset="0.818791" stop-color="#D7B373"/>
<stop offset="1" stop-color="#FFE79C"/>
</linearGradient>
<linearGradient id="paint2_linear_233_79135" x1="19.9636" y1="84.9068" x2="23.6972" y2="84.8576" gradientUnits="userSpaceOnUse">
<stop stop-color="#FFE79C"/>
<stop offset="0.218239" stop-color="#D7B373"/>
<stop offset="0.514285" stop-color="#FFE79C"/>
<stop offset="0.818791" stop-color="#D7B373"/>
<stop offset="1" stop-color="#FFE79C"/>
</linearGradient>
<linearGradient id="paint3_linear_233_79135" x1="19.3588" y1="86.3823" x2="22.5901" y2="86.3566" gradientUnits="userSpaceOnUse">
<stop stop-color="#FFE79C"/>
<stop offset="0.218239" stop-color="#D7B373"/>
<stop offset="0.514285" stop-color="#FFE79C"/>
<stop offset="0.818791" stop-color="#D7B373"/>
<stop offset="1" stop-color="#FFE79C"/>
</linearGradient>
<linearGradient id="paint4_linear_233_79135" x1="18.6577" y1="89.4525" x2="21.3154" y2="89.4057" gradientUnits="userSpaceOnUse">
<stop stop-color="#FFE79C"/>
<stop offset="0.218239" stop-color="#D7B373"/>
<stop offset="0.514285" stop-color="#FFE79C"/>
<stop offset="0.818791" stop-color="#D7B373"/>
<stop offset="1" stop-color="#FFE79C"/>
</linearGradient>
<linearGradient id="paint5_linear_233_79135" x1="19.0404" y1="82.5766" x2="20.8976" y2="82.5439" gradientUnits="userSpaceOnUse">
<stop stop-color="#FFE79C"/>
<stop offset="0.218239" stop-color="#D7B373"/>
<stop offset="0.514285" stop-color="#FFE79C"/>
<stop offset="0.818791" stop-color="#D7B373"/>
<stop offset="1" stop-color="#FFE79C"/>
</linearGradient>
<linearGradient id="paint6_linear_233_79135" x1="19.0404" y1="79.7287" x2="20.8976" y2="79.696" gradientUnits="userSpaceOnUse">
<stop stop-color="#FFE79C"/>
<stop offset="0.218239" stop-color="#D7B373"/>
<stop offset="0.514285" stop-color="#FFE79C"/>
<stop offset="0.818791" stop-color="#D7B373"/>
<stop offset="1" stop-color="#FFE79C"/>
</linearGradient>
<linearGradient id="paint7_linear_233_79135" x1="18.5032" y1="77.1434" x2="21.4491" y2="77.0915" gradientUnits="userSpaceOnUse">
<stop stop-color="#FFE79C"/>
<stop offset="0.218239" stop-color="#D7B373"/>
<stop offset="0.514285" stop-color="#FFE79C"/>
<stop offset="0.818791" stop-color="#D7B373"/>
<stop offset="1" stop-color="#FFE79C"/>
</linearGradient>
<linearGradient id="paint8_linear_233_79135" x1="18.5032" y1="74.5175" x2="21.4463" y2="74.4138" gradientUnits="userSpaceOnUse">
<stop stop-color="#FFE79C"/>
<stop offset="0.218239" stop-color="#D7B373"/>
<stop offset="0.514285" stop-color="#FFE79C"/>
<stop offset="0.818791" stop-color="#D7B373"/>
<stop offset="1" stop-color="#FFE79C"/>
</linearGradient>
<linearGradient id="paint9_linear_233_79135" x1="16.2664" y1="65.6117" x2="20" y2="65.5624" gradientUnits="userSpaceOnUse">
<stop stop-color="#FFE79C"/>
<stop offset="0.218239" stop-color="#D7B373"/>
<stop offset="0.514285" stop-color="#FFE79C"/>
<stop offset="0.818791" stop-color="#D7B373"/>
<stop offset="1" stop-color="#FFE79C"/>
</linearGradient>
<linearGradient id="paint10_linear_233_79135" x1="17.3803" y1="65.1335" x2="20.6116" y2="65.1079" gradientUnits="userSpaceOnUse">
<stop stop-color="#FFE79C"/>
<stop offset="0.218239" stop-color="#D7B373"/>
<stop offset="0.514285" stop-color="#FFE79C"/>
<stop offset="0.818791" stop-color="#D7B373"/>
<stop offset="1" stop-color="#FFE79C"/>
</linearGradient>
<linearGradient id="paint11_linear_233_79135" x1="19.9646" y1="65.6117" x2="23.6982" y2="65.5624" gradientUnits="userSpaceOnUse">
<stop stop-color="#FFE79C"/>
<stop offset="0.218239" stop-color="#D7B373"/>
<stop offset="0.514285" stop-color="#FFE79C"/>
<stop offset="0.818791" stop-color="#D7B373"/>
<stop offset="1" stop-color="#FFE79C"/>
</linearGradient>
<linearGradient id="paint12_linear_233_79135" x1="19.3608" y1="65.1337" x2="22.5921" y2="65.1081" gradientUnits="userSpaceOnUse">
<stop stop-color="#FFE79C"/>
<stop offset="0.218239" stop-color="#D7B373"/>
<stop offset="0.514285" stop-color="#FFE79C"/>
<stop offset="0.818791" stop-color="#D7B373"/>
<stop offset="1" stop-color="#FFE79C"/>
</linearGradient>
<linearGradient id="paint13_linear_233_79135" x1="18.6577" y1="60.0235" x2="21.3154" y2="59.9767" gradientUnits="userSpaceOnUse">
<stop stop-color="#FFE79C"/>
<stop offset="0.218239" stop-color="#D7B373"/>
<stop offset="0.514285" stop-color="#FFE79C"/>
<stop offset="0.818791" stop-color="#D7B373"/>
<stop offset="1" stop-color="#FFE79C"/>
</linearGradient>
<linearGradient id="paint14_linear_233_79135" x1="19.0404" y1="66.5214" x2="20.8976" y2="66.4887" gradientUnits="userSpaceOnUse">
<stop stop-color="#FFE79C"/>
<stop offset="0.218239" stop-color="#D7B373"/>
<stop offset="0.514285" stop-color="#FFE79C"/>
<stop offset="0.818791" stop-color="#D7B373"/>
<stop offset="1" stop-color="#FFE79C"/>
</linearGradient>
<linearGradient id="paint15_linear_233_79135" x1="19.0404" y1="69.3683" x2="20.8976" y2="69.3356" gradientUnits="userSpaceOnUse">
<stop stop-color="#FFE79C"/>
<stop offset="0.218239" stop-color="#D7B373"/>
<stop offset="0.514285" stop-color="#FFE79C"/>
<stop offset="0.818791" stop-color="#D7B373"/>
<stop offset="1" stop-color="#FFE79C"/>
</linearGradient>
<linearGradient id="paint16_linear_233_79135" x1="18.5032" y1="72.4493" x2="21.4491" y2="72.3974" gradientUnits="userSpaceOnUse">
<stop stop-color="#FFE79C"/>
<stop offset="0.218239" stop-color="#D7B373"/>
<stop offset="0.514285" stop-color="#FFE79C"/>
<stop offset="0.818791" stop-color="#D7B373"/>
<stop offset="1" stop-color="#FFE79C"/>
</linearGradient>
<linearGradient id="paint17_linear_233_79135" x1="18.5032" y1="74.4064" x2="21.4463" y2="74.3028" gradientUnits="userSpaceOnUse">
<stop stop-color="#FFE79C"/>
<stop offset="0.218239" stop-color="#D7B373"/>
<stop offset="0.514285" stop-color="#FFE79C"/>
<stop offset="0.818791" stop-color="#D7B373"/>
<stop offset="1" stop-color="#FFE79C"/>
</linearGradient>
<linearGradient id="paint18_linear_233_79135" x1="17.8152" y1="57.3012" x2="19.163" y2="57.2903" gradientUnits="userSpaceOnUse">
<stop stop-color="#FFE79C"/>
<stop offset="0.218239" stop-color="#D7B373"/>
<stop offset="0.514285" stop-color="#FFE79C"/>
<stop offset="0.818791" stop-color="#D7B373"/>
<stop offset="1" stop-color="#FFE79C"/>
</linearGradient>
<linearGradient id="paint19_linear_233_79135" x1="20.8719" y1="57.3012" x2="22.2197" y2="57.2903" gradientUnits="userSpaceOnUse">
<stop stop-color="#FFE79C"/>
<stop offset="0.218239" stop-color="#D7B373"/>
<stop offset="0.514285" stop-color="#FFE79C"/>
<stop offset="0.818791" stop-color="#D7B373"/>
<stop offset="1" stop-color="#FFE79C"/>
</linearGradient>
<linearGradient id="paint20_linear_233_79135" x1="12.7578" y1="15.7887" x2="19.8472" y2="15.665" gradientUnits="userSpaceOnUse">
<stop stop-color="#FFE79C"/>
<stop offset="0.218239" stop-color="#D7B373"/>
<stop offset="0.514285" stop-color="#FFE79C"/>
<stop offset="0.818791" stop-color="#D7B373"/>
<stop offset="1" stop-color="#FFE79C"/>
</linearGradient>
<linearGradient id="paint21_linear_233_79135" x1="11.9239" y1="14.4259" x2="19.5571" y2="14.3068" gradientUnits="userSpaceOnUse">
<stop stop-color="#FFE79C"/>
<stop offset="0.218239" stop-color="#D7B373"/>
<stop offset="0.514285" stop-color="#FFE79C"/>
<stop offset="0.818791" stop-color="#D7B373"/>
<stop offset="1" stop-color="#FFE79C"/>
</linearGradient>
<linearGradient id="paint22_linear_233_79135" x1="11.864" y1="19.1929" x2="20.6921" y2="18.8516" gradientUnits="userSpaceOnUse">
<stop stop-color="#FFE79C"/>
<stop offset="0.218239" stop-color="#D7B373"/>
<stop offset="0.514285" stop-color="#FFE79C"/>
<stop offset="0.818791" stop-color="#D7B373"/>
<stop offset="1" stop-color="#FFE79C"/>
</linearGradient>
<linearGradient id="paint23_linear_233_79135" x1="16.248" y1="13.4487" x2="20.1418" y2="13.3984" gradientUnits="userSpaceOnUse">
<stop stop-color="#FFE79C"/>
<stop offset="0.218239" stop-color="#D7B373"/>
<stop offset="0.514285" stop-color="#FFE79C"/>
<stop offset="0.818791" stop-color="#D7B373"/>
<stop offset="1" stop-color="#FFE79C"/>
</linearGradient>
<linearGradient id="paint24_linear_233_79135" x1="17.3784" y1="12.7604" x2="20.6096" y2="12.7348" gradientUnits="userSpaceOnUse">
<stop stop-color="#FFE79C"/>
<stop offset="0.218239" stop-color="#D7B373"/>
<stop offset="0.514285" stop-color="#FFE79C"/>
<stop offset="0.818791" stop-color="#D7B373"/>
<stop offset="1" stop-color="#FFE79C"/>
</linearGradient>
<linearGradient id="paint25_linear_233_79135" x1="14.2229" y1="7.16086" x2="21.2535" y2="7.05861" gradientUnits="userSpaceOnUse">
<stop stop-color="#FFE79C"/>
<stop offset="0.218239" stop-color="#D7B373"/>
<stop offset="0.514285" stop-color="#FFE79C"/>
<stop offset="0.818791" stop-color="#D7B373"/>
<stop offset="1" stop-color="#FFE79C"/>
</linearGradient>
<linearGradient id="paint26_linear_233_79135" x1="19.0404" y1="25.8711" x2="20.8979" y2="25.8477" gradientUnits="userSpaceOnUse">
<stop stop-color="#FFE79C"/>
<stop offset="0.218239" stop-color="#D7B373"/>
<stop offset="0.514285" stop-color="#FFE79C"/>
<stop offset="0.818791" stop-color="#D7B373"/>
<stop offset="1" stop-color="#FFE79C"/>
</linearGradient>
<linearGradient id="paint27_linear_233_79135" x1="18.5032" y1="21.804" x2="21.4495" y2="21.767" gradientUnits="userSpaceOnUse">
<stop stop-color="#FFE79C"/>
<stop offset="0.218239" stop-color="#D7B373"/>
<stop offset="0.514285" stop-color="#FFE79C"/>
<stop offset="0.818791" stop-color="#D7B373"/>
<stop offset="1" stop-color="#FFE79C"/>
</linearGradient>
<linearGradient id="paint28_linear_233_79135" x1="19.0404" y1="41.8669" x2="20.8959" y2="41.8016" gradientUnits="userSpaceOnUse">
<stop stop-color="#FFE79C"/>
<stop offset="0.218239" stop-color="#D7B373"/>
<stop offset="0.514285" stop-color="#FFE79C"/>
<stop offset="0.818791" stop-color="#D7B373"/>
<stop offset="1" stop-color="#FFE79C"/>
</linearGradient>
<linearGradient id="paint29_linear_233_79135" x1="19.0404" y1="18.53" x2="20.8969" y2="18.4826" gradientUnits="userSpaceOnUse">
<stop stop-color="#FFE79C"/>
<stop offset="0.218239" stop-color="#D7B373"/>
<stop offset="0.514285" stop-color="#FFE79C"/>
<stop offset="0.818791" stop-color="#D7B373"/>
<stop offset="1" stop-color="#FFE79C"/>
</linearGradient>
<linearGradient id="paint30_linear_233_79135" x1="18.5032" y1="14.8867" x2="21.4481" y2="14.8122" gradientUnits="userSpaceOnUse">
<stop stop-color="#FFE79C"/>
<stop offset="0.218239" stop-color="#D7B373"/>
<stop offset="0.514285" stop-color="#FFE79C"/>
<stop offset="0.818791" stop-color="#D7B373"/>
<stop offset="1" stop-color="#FFE79C"/>
</linearGradient>
<linearGradient id="paint31_linear_233_79135" x1="18.5032" y1="40.5873" x2="21.4463" y2="40.4837" gradientUnits="userSpaceOnUse">
<stop stop-color="#FFE79C"/>
<stop offset="0.218239" stop-color="#D7B373"/>
<stop offset="0.514285" stop-color="#FFE79C"/>
<stop offset="0.818791" stop-color="#D7B373"/>
<stop offset="1" stop-color="#FFE79C"/>
</linearGradient>
<linearGradient id="paint32_linear_233_79135" x1="20.1927" y1="59.7588" x2="-7.5385" y2="31.8589" gradientUnits="userSpaceOnUse">
<stop stop-color="#FFE79C"/>
<stop offset="0.218239" stop-color="#D7B373"/>
<stop offset="0.514285" stop-color="#FFE79C"/>
<stop offset="0.818791" stop-color="#D7B373"/>
<stop offset="1" stop-color="#FFE79C"/>
</linearGradient>
<linearGradient id="paint33_linear_233_79135" x1="20.1819" y1="30.8606" x2="9.31799" y2="8.76552" gradientUnits="userSpaceOnUse">
<stop stop-color="#FFE79C"/>
<stop offset="0.218239" stop-color="#D7B373"/>
<stop offset="0.514285" stop-color="#FFE79C"/>
<stop offset="0.818791" stop-color="#D7B373"/>
<stop offset="1" stop-color="#FFE79C"/>
</linearGradient>
<linearGradient id="paint34_linear_233_79135" x1="19.7312" y1="35.5214" x2="47.4623" y2="63.4214" gradientUnits="userSpaceOnUse">
<stop stop-color="#FFE79C"/>
<stop offset="0.218239" stop-color="#D7B373"/>
<stop offset="0.514285" stop-color="#FFE79C"/>
<stop offset="0.818791" stop-color="#D7B373"/>
<stop offset="1" stop-color="#FFE79C"/>
</linearGradient>
<linearGradient id="paint35_linear_233_79135" x1="19.7478" y1="64.4214" x2="30.6117" y2="86.5165" gradientUnits="userSpaceOnUse">
<stop stop-color="#FFE79C"/>
<stop offset="0.218239" stop-color="#D7B373"/>
<stop offset="0.514285" stop-color="#FFE79C"/>
<stop offset="0.818791" stop-color="#D7B373"/>
<stop offset="1" stop-color="#FFE79C"/>
</linearGradient>
<linearGradient id="paint36_linear_233_79135" x1="12.1391" y1="15.6662" x2="14.9388" y2="15.5852" gradientUnits="userSpaceOnUse">
<stop stop-color="#FFE79C"/>
<stop offset="0.218239" stop-color="#D7B373"/>
<stop offset="0.514285" stop-color="#FFE79C"/>
<stop offset="0.818791" stop-color="#D7B373"/>
<stop offset="1" stop-color="#FFE79C"/>
</linearGradient>
<linearGradient id="paint37_linear_233_79135" x1="15.1325" y1="54.105" x2="18.7338" y2="54.084" gradientUnits="userSpaceOnUse">
<stop stop-color="#FFE79C"/>
<stop offset="0.218239" stop-color="#D7B373"/>
<stop offset="0.514285" stop-color="#FFE79C"/>
<stop offset="0.818791" stop-color="#D7B373"/>
<stop offset="1" stop-color="#FFE79C"/>
</linearGradient>
<linearGradient id="paint38_linear_233_79135" x1="12.6041" y1="53.2348" x2="16.855" y2="53.1986" gradientUnits="userSpaceOnUse">
<stop stop-color="#FFE79C"/>
<stop offset="0.218239" stop-color="#D7B373"/>
<stop offset="0.514285" stop-color="#FFE79C"/>
<stop offset="0.818791" stop-color="#D7B373"/>
<stop offset="1" stop-color="#FFE79C"/>
</linearGradient>
<linearGradient id="paint39_linear_233_79135" x1="6.50488" y1="45.0876" x2="20.3629" y2="44.9613" gradientUnits="userSpaceOnUse">
<stop stop-color="#FFE79C"/>
<stop offset="0.218239" stop-color="#D7B373"/>
<stop offset="0.514285" stop-color="#FFE79C"/>
<stop offset="0.818791" stop-color="#D7B373"/>
<stop offset="1" stop-color="#FFE79C"/>
</linearGradient>
<linearGradient id="paint40_linear_233_79135" x1="0.372481" y1="36.9816" x2="10.0548" y2="36.8531" gradientUnits="userSpaceOnUse">
<stop stop-color="#FFE79C"/>
<stop offset="0.218239" stop-color="#D7B373"/>
<stop offset="0.514285" stop-color="#FFE79C"/>
<stop offset="0.818791" stop-color="#D7B373"/>
<stop offset="1" stop-color="#FFE79C"/>
</linearGradient>
<linearGradient id="paint41_linear_233_79135" x1="10.2099" y1="35.8585" x2="20.0008" y2="35.6834" gradientUnits="userSpaceOnUse">
<stop stop-color="#FFE79C"/>
<stop offset="0.218239" stop-color="#D7B373"/>
<stop offset="0.514285" stop-color="#FFE79C"/>
<stop offset="0.818791" stop-color="#D7B373"/>
<stop offset="1" stop-color="#FFE79C"/>
</linearGradient>
<linearGradient id="paint42_linear_233_79135" x1="1.93123" y1="43.3306" x2="16.7898" y2="42.6044" gradientUnits="userSpaceOnUse">
<stop stop-color="#FFE79C"/>
<stop offset="0.218239" stop-color="#D7B373"/>
<stop offset="0.514285" stop-color="#FFE79C"/>
<stop offset="0.818791" stop-color="#D7B373"/>
<stop offset="1" stop-color="#FFE79C"/>
</linearGradient>
<linearGradient id="paint43_linear_233_79135" x1="6.72218" y1="48.9473" x2="17.8812" y2="48.7477" gradientUnits="userSpaceOnUse">
<stop stop-color="#FFE79C"/>
<stop offset="0.218239" stop-color="#D7B373"/>
<stop offset="0.514285" stop-color="#FFE79C"/>
<stop offset="0.818791" stop-color="#D7B373"/>
<stop offset="1" stop-color="#FFE79C"/>
</linearGradient>
<linearGradient id="paint44_linear_233_79135" x1="-1.39067" y1="42.985" x2="12.1929" y2="42.6382" gradientUnits="userSpaceOnUse">
<stop stop-color="#FFE79C"/>
<stop offset="0.218239" stop-color="#D7B373"/>
<stop offset="0.514285" stop-color="#FFE79C"/>
<stop offset="0.818791" stop-color="#D7B373"/>
<stop offset="1" stop-color="#FFE79C"/>
</linearGradient>
<linearGradient id="paint45_linear_233_79135" x1="4.34597" y1="50.8358" x2="9.58283" y2="50.7752" gradientUnits="userSpaceOnUse">
<stop stop-color="#FFE79C"/>
<stop offset="0.218239" stop-color="#D7B373"/>
<stop offset="0.514285" stop-color="#FFE79C"/>
<stop offset="0.818791" stop-color="#D7B373"/>
<stop offset="1" stop-color="#FFE79C"/>
</linearGradient>
<linearGradient id="paint46_linear_233_79135" x1="3.68088" y1="38.8921" x2="9.55619" y2="38.7778" gradientUnits="userSpaceOnUse">
<stop stop-color="#FFE79C"/>
<stop offset="0.218239" stop-color="#D7B373"/>
<stop offset="0.514285" stop-color="#FFE79C"/>
<stop offset="0.818791" stop-color="#D7B373"/>
<stop offset="1" stop-color="#FFE79C"/>
</linearGradient>
<linearGradient id="paint47_linear_233_79135" x1="2.48137" y1="46.2044" x2="7.33808" y2="45.9642" gradientUnits="userSpaceOnUse">
<stop stop-color="#FFE79C"/>
<stop offset="0.218239" stop-color="#D7B373"/>
<stop offset="0.514285" stop-color="#FFE79C"/>
<stop offset="0.818791" stop-color="#D7B373"/>
<stop offset="1" stop-color="#FFE79C"/>
</linearGradient>
<linearGradient id="paint48_linear_233_79135" x1="7.50986" y1="31.1893" x2="9.24606" y2="31.1808" gradientUnits="userSpaceOnUse">
<stop stop-color="#FFE79C"/>
<stop offset="0.218239" stop-color="#D7B373"/>
<stop offset="0.514285" stop-color="#FFE79C"/>
<stop offset="0.818791" stop-color="#D7B373"/>
<stop offset="1" stop-color="#FFE79C"/>
</linearGradient>
<linearGradient id="paint49_linear_233_79135" x1="5.79902" y1="29.7054" x2="7.78226" y2="29.6846" gradientUnits="userSpaceOnUse">
<stop stop-color="#FFE79C"/>
<stop offset="0.218239" stop-color="#D7B373"/>
<stop offset="0.514285" stop-color="#FFE79C"/>
<stop offset="0.818791" stop-color="#D7B373"/>
<stop offset="1" stop-color="#FFE79C"/>
</linearGradient>
<linearGradient id="paint50_linear_233_79135" x1="9.31061" y1="28.449" x2="10.2835" y2="28.4426" gradientUnits="userSpaceOnUse">
<stop stop-color="#FFE79C"/>
<stop offset="0.218239" stop-color="#D7B373"/>
<stop offset="0.514285" stop-color="#FFE79C"/>
<stop offset="0.818791" stop-color="#D7B373"/>
<stop offset="1" stop-color="#FFE79C"/>
</linearGradient>
<linearGradient id="paint51_linear_233_79135" x1="11.6832" y1="38.7414" x2="17.7124" y2="38.541" gradientUnits="userSpaceOnUse">
<stop stop-color="#FFE79C"/>
<stop offset="0.218239" stop-color="#D7B373"/>
<stop offset="0.514285" stop-color="#FFE79C"/>
<stop offset="0.818791" stop-color="#D7B373"/>
<stop offset="1" stop-color="#FFE79C"/>
</linearGradient>
<linearGradient id="paint52_linear_233_79135" x1="21.3239" y1="54.105" x2="24.9252" y2="54.084" gradientUnits="userSpaceOnUse">
<stop stop-color="#FFE79C"/>
<stop offset="0.218239" stop-color="#D7B373"/>
<stop offset="0.514285" stop-color="#FFE79C"/>
<stop offset="0.818791" stop-color="#D7B373"/>
<stop offset="1" stop-color="#FFE79C"/>
</linearGradient>
<linearGradient id="paint53_linear_233_79135" x1="23.2125" y1="53.2348" x2="27.4634" y2="53.1986" gradientUnits="userSpaceOnUse">
<stop stop-color="#FFE79C"/>
<stop offset="0.218239" stop-color="#D7B373"/>
<stop offset="0.514285" stop-color="#FFE79C"/>
<stop offset="0.818791" stop-color="#D7B373"/>
<stop offset="1" stop-color="#FFE79C"/>
</linearGradient>
<linearGradient id="paint54_linear_233_79135" x1="19.8252" y1="45.0876" x2="33.6832" y2="44.9613" gradientUnits="userSpaceOnUse">
<stop stop-color="#FFE79C"/>
<stop offset="0.218239" stop-color="#D7B373"/>
<stop offset="0.514285" stop-color="#FFE79C"/>
<stop offset="0.818791" stop-color="#D7B373"/>
<stop offset="1" stop-color="#FFE79C"/>
</linearGradient>
<linearGradient id="paint55_linear_233_79135" x1="30.0649" y1="36.9816" x2="39.7472" y2="36.8531" gradientUnits="userSpaceOnUse">
<stop stop-color="#FFE79C"/>
<stop offset="0.218239" stop-color="#D7B373"/>
<stop offset="0.514285" stop-color="#FFE79C"/>
<stop offset="0.818791" stop-color="#D7B373"/>
<stop offset="1" stop-color="#FFE79C"/>
</linearGradient>
<linearGradient id="paint56_linear_233_79135" x1="20.1229" y1="35.8585" x2="29.9139" y2="35.6834" gradientUnits="userSpaceOnUse">
<stop stop-color="#FFE79C"/>
<stop offset="0.218239" stop-color="#D7B373"/>
<stop offset="0.514285" stop-color="#FFE79C"/>
<stop offset="0.818791" stop-color="#D7B373"/>
<stop offset="1" stop-color="#FFE79C"/>
</linearGradient>
<linearGradient id="paint57_linear_233_79135" x1="23.3795" y1="43.3306" x2="38.238" y2="42.6044" gradientUnits="userSpaceOnUse">
<stop stop-color="#FFE79C"/>
<stop offset="0.218239" stop-color="#D7B373"/>
<stop offset="0.514285" stop-color="#FFE79C"/>
<stop offset="0.818791" stop-color="#D7B373"/>
<stop offset="1" stop-color="#FFE79C"/>
</linearGradient>
<linearGradient id="paint58_linear_233_79135" x1="22.27" y1="48.9473" x2="33.4291" y2="48.7477" gradientUnits="userSpaceOnUse">
<stop stop-color="#FFE79C"/>
<stop offset="0.218239" stop-color="#D7B373"/>
<stop offset="0.514285" stop-color="#FFE79C"/>
<stop offset="0.818791" stop-color="#D7B373"/>
<stop offset="1" stop-color="#FFE79C"/>
</linearGradient>
<linearGradient id="paint59_linear_233_79135" x1="27.9746" y1="42.985" x2="41.5581" y2="42.6382" gradientUnits="userSpaceOnUse">
<stop stop-color="#FFE79C"/>
<stop offset="0.218239" stop-color="#D7B373"/>
<stop offset="0.514285" stop-color="#FFE79C"/>
<stop offset="0.818791" stop-color="#D7B373"/>
<stop offset="1" stop-color="#FFE79C"/>
</linearGradient>
<linearGradient id="paint60_linear_233_79135" x1="30.4954" y1="50.8358" x2="35.7322" y2="50.7752" gradientUnits="userSpaceOnUse">
<stop stop-color="#FFE79C"/>
<stop offset="0.218239" stop-color="#D7B373"/>
<stop offset="0.514285" stop-color="#FFE79C"/>
<stop offset="0.818791" stop-color="#D7B373"/>
<stop offset="1" stop-color="#FFE79C"/>
</linearGradient>
<linearGradient id="paint61_linear_233_79135" x1="30.5285" y1="38.8921" x2="36.4038" y2="38.7778" gradientUnits="userSpaceOnUse">
<stop stop-color="#FFE79C"/>
<stop offset="0.218239" stop-color="#D7B373"/>
<stop offset="0.514285" stop-color="#FFE79C"/>
<stop offset="0.818791" stop-color="#D7B373"/>
<stop offset="1" stop-color="#FFE79C"/>
</linearGradient>
<linearGradient id="paint62_linear_233_79135" x1="32.7118" y1="46.2044" x2="37.5686" y2="45.9642" gradientUnits="userSpaceOnUse">
<stop stop-color="#FFE79C"/>
<stop offset="0.218239" stop-color="#D7B373"/>
<stop offset="0.514285" stop-color="#FFE79C"/>
<stop offset="0.818791" stop-color="#D7B373"/>
<stop offset="1" stop-color="#FFE79C"/>
</linearGradient>
<linearGradient id="paint63_linear_233_79135" x1="30.7862" y1="31.1893" x2="32.5224" y2="31.1808" gradientUnits="userSpaceOnUse">
<stop stop-color="#FFE79C"/>
<stop offset="0.218239" stop-color="#D7B373"/>
<stop offset="0.514285" stop-color="#FFE79C"/>
<stop offset="0.818791" stop-color="#D7B373"/>
<stop offset="1" stop-color="#FFE79C"/>
</linearGradient>
<linearGradient id="paint64_linear_233_79135" x1="32.2521" y1="29.7054" x2="34.2354" y2="29.6846" gradientUnits="userSpaceOnUse">
<stop stop-color="#FFE79C"/>
<stop offset="0.218239" stop-color="#D7B373"/>
<stop offset="0.514285" stop-color="#FFE79C"/>
<stop offset="0.818791" stop-color="#D7B373"/>
<stop offset="1" stop-color="#FFE79C"/>
</linearGradient>
<linearGradient id="paint65_linear_233_79135" x1="29.7383" y1="28.4488" x2="30.7112" y2="28.4423" gradientUnits="userSpaceOnUse">
<stop stop-color="#FFE79C"/>
<stop offset="0.218239" stop-color="#D7B373"/>
<stop offset="0.514285" stop-color="#FFE79C"/>
<stop offset="0.818791" stop-color="#D7B373"/>
<stop offset="1" stop-color="#FFE79C"/>
</linearGradient>
<linearGradient id="paint66_linear_233_79135" x1="22.3688" y1="38.7414" x2="28.398" y2="38.541" gradientUnits="userSpaceOnUse">
<stop stop-color="#FFE79C"/>
<stop offset="0.218239" stop-color="#D7B373"/>
<stop offset="0.514285" stop-color="#FFE79C"/>
<stop offset="0.818791" stop-color="#D7B373"/>
<stop offset="1" stop-color="#FFE79C"/>
</linearGradient>
<linearGradient id="paint67_linear_233_79135" x1="19.3832" y1="2.15269" x2="20.5152" y2="2.14575" gradientUnits="userSpaceOnUse">
<stop stop-color="#FFE79C"/>
<stop offset="0.218239" stop-color="#D7B373"/>
<stop offset="0.514285" stop-color="#FFE79C"/>
<stop offset="0.818791" stop-color="#D7B373"/>
<stop offset="1" stop-color="#FFE79C"/>
</linearGradient>
<linearGradient id="paint68_linear_233_79135" x1="20.084" y1="15.8302" x2="27.1734" y2="15.7066" gradientUnits="userSpaceOnUse">
<stop stop-color="#FFE79C"/>
<stop offset="0.218239" stop-color="#D7B373"/>
<stop offset="0.514285" stop-color="#FFE79C"/>
<stop offset="0.818791" stop-color="#D7B373"/>
<stop offset="1" stop-color="#FFE79C"/>
</linearGradient>
<linearGradient id="paint69_linear_233_79135" x1="20.38" y1="14.4677" x2="28.0131" y2="14.3485" gradientUnits="userSpaceOnUse">
<stop stop-color="#FFE79C"/>
<stop offset="0.218239" stop-color="#D7B373"/>
<stop offset="0.514285" stop-color="#FFE79C"/>
<stop offset="0.818791" stop-color="#D7B373"/>
<stop offset="1" stop-color="#FFE79C"/>
</linearGradient>
<linearGradient id="paint70_linear_233_79135" x1="19.2497" y1="19.2339" x2="28.0778" y2="18.8927" gradientUnits="userSpaceOnUse">
<stop stop-color="#FFE79C"/>
<stop offset="0.218239" stop-color="#D7B373"/>
<stop offset="0.514285" stop-color="#FFE79C"/>
<stop offset="0.818791" stop-color="#D7B373"/>
<stop offset="1" stop-color="#FFE79C"/>
</linearGradient>
<linearGradient id="paint71_linear_233_79135" x1="19.7314" y1="13.4914" x2="23.6252" y2="13.4412" gradientUnits="userSpaceOnUse">
<stop stop-color="#FFE79C"/>
<stop offset="0.218239" stop-color="#D7B373"/>
<stop offset="0.514285" stop-color="#FFE79C"/>
<stop offset="0.818791" stop-color="#D7B373"/>
<stop offset="1" stop-color="#FFE79C"/>
</linearGradient>
<linearGradient id="paint72_linear_233_79135" x1="19.269" y1="12.8027" x2="22.5003" y2="12.777" gradientUnits="userSpaceOnUse">
<stop stop-color="#FFE79C"/>
<stop offset="0.218239" stop-color="#D7B373"/>
<stop offset="0.514285" stop-color="#FFE79C"/>
<stop offset="0.818791" stop-color="#D7B373"/>
<stop offset="1" stop-color="#FFE79C"/>
</linearGradient>
<linearGradient id="paint73_linear_233_79135" x1="18.6721" y1="7.20286" x2="25.7027" y2="7.1006" gradientUnits="userSpaceOnUse">
<stop stop-color="#FFE79C"/>
<stop offset="0.218239" stop-color="#D7B373"/>
<stop offset="0.514285" stop-color="#FFE79C"/>
<stop offset="0.818791" stop-color="#D7B373"/>
<stop offset="1" stop-color="#FFE79C"/>
</linearGradient>
<linearGradient id="paint74_linear_233_79135" x1="24.933" y1="15.7065" x2="27.7327" y2="15.6255" gradientUnits="userSpaceOnUse">
<stop stop-color="#FFE79C"/>
<stop offset="0.218239" stop-color="#D7B373"/>
<stop offset="0.514285" stop-color="#FFE79C"/>
<stop offset="0.818791" stop-color="#D7B373"/>
<stop offset="1" stop-color="#FFE79C"/>
</linearGradient>
<linearGradient id="paint75_linear_233_79135" x1="19.3363" y1="2.19517" x2="20.4684" y2="2.18823" gradientUnits="userSpaceOnUse">
<stop stop-color="#FFE79C"/>
<stop offset="0.218239" stop-color="#D7B373"/>
<stop offset="0.514285" stop-color="#FFE79C"/>
<stop offset="0.818791" stop-color="#D7B373"/>
<stop offset="1" stop-color="#FFE79C"/>
</linearGradient>
</defs>
</svg>
