<svg width="52" height="54" viewBox="0 0 52 54" fill="none" xmlns="http://www.w3.org/2000/svg">
<path d="M6.41016 28.0713C7.51456 28.0713 8.40989 28.9624 8.41016 30.0615V33.7568L10.792 32.2754C11.7456 31.6822 12.8481 31.3672 13.9727 31.3672H21.4102C22.4975 31.3673 23.5647 31.662 24.4971 32.2188L26.2773 33.2812H30.333C32.7699 33.2813 34.7979 35.0168 35.2412 37.3135L45.7256 31.1553C47.7701 29.9545 50.4068 30.6452 51.5938 32.6914C51.9923 33.3793 51.8401 34.2519 51.2324 34.7666L37.7021 46.2246C35.3512 48.2151 32.3649 49.3076 29.2783 49.3076H8.69238C8.59438 49.3076 8.49966 49.2928 8.41016 49.2666V51.0391C8.41003 52.1383 7.51465 53.0303 6.41016 53.0303H2C0.895504 53.0303 0.000121628 52.1383 0 51.0391V30.0615C0.000263714 28.9624 0.895593 28.0713 2 28.0713H6.41016ZM2 51.0391H6.41016V30.0615H2V51.0391ZM49.7012 33.4492C49.0153 32.549 47.7455 32.2808 46.7422 32.8701L34.9385 39.8027C34.6376 40.1528 34.1915 40.3759 33.6924 40.376H24.7178C24.1657 40.3759 23.718 39.9303 23.7178 39.3809C23.7178 38.8312 24.1655 38.3858 24.7178 38.3857H33.333V38.2568C33.3326 36.6082 31.9896 35.2715 30.333 35.2715H26.2773C25.9149 35.2715 25.5589 35.1729 25.248 34.9873L23.4678 33.9258C22.8462 33.5546 22.135 33.3575 21.4102 33.3574H13.9727C13.2231 33.3574 12.4882 33.5675 11.8525 33.9629L8.41016 36.1025V47.3564C8.4996 47.3303 8.59445 47.3164 8.69238 47.3164H29.2783C31.8901 47.3164 34.417 46.3923 36.4062 44.708L49.7012 33.4492ZM46.1533 0C47.2578 0 48.1532 0.891033 48.1533 1.99023V22.9678C48.1532 24.067 47.2578 24.958 46.1533 24.958H5.8457C4.74121 24.958 3.84582 24.067 3.8457 22.9678V1.99023C3.84586 0.891032 4.74123 1.06058e-08 5.8457 0H46.1533ZM5.8457 22.9678H46.1533V1.99023H5.8457V22.9678ZM40.1543 3.82812C40.8819 3.82826 41.4714 4.41556 41.4717 5.13965V6.02734C41.4719 6.73451 42.0482 7.30754 42.7588 7.30762C43.4374 7.30762 43.9873 7.85588 43.9873 8.53125V16.4268C43.9873 17.1021 43.4374 17.6504 42.7588 17.6504C42.0482 17.6505 41.472 18.2236 41.4717 18.9307V19.8184C41.4717 20.5426 40.882 21.1307 40.1543 21.1309H13.1172C12.3894 21.1309 11.7989 20.5427 11.7988 19.8184V19.5C11.7986 18.4786 10.9667 17.6505 9.94043 17.6504C9.23044 17.6504 8.65459 17.0777 8.6543 16.3711V8.58789C8.65438 7.88116 9.23031 7.30762 9.94043 7.30762L10.1299 7.29883C11.0674 7.20427 11.7988 6.41597 11.7988 5.45801V5.13965C11.7991 4.41549 12.3895 3.82812 13.1172 3.82812H40.1543ZM13.7812 5.81836C13.6208 7.53311 12.3282 8.91957 10.6543 9.23145V15.7266C12.3282 16.0384 13.6207 17.4249 13.7812 19.1396H39.4717V18.9307C39.472 17.3887 40.5445 16.0965 41.9873 15.751V9.20605C40.5446 8.8604 39.4719 7.56924 39.4717 6.02734V5.81836H13.7812ZM26.6406 7.65625C29.3169 7.65625 31.4869 9.81506 31.4873 12.4785C31.4873 15.1423 29.3171 17.3027 26.6406 17.3027C23.9644 17.3025 21.7949 15.1421 21.7949 12.4785C21.7953 9.81521 23.9646 7.65649 26.6406 7.65625ZM26.6406 9.64648C25.0692 9.64673 23.7953 10.9145 23.7949 12.4785C23.7949 14.0428 25.0689 15.3113 26.6406 15.3115C28.2125 15.3115 29.4873 14.043 29.4873 12.4785C29.4869 10.9144 28.2123 9.64648 26.6406 9.64648Z" fill="url(#paint0_linear_4175_326)"/>
<defs>
<linearGradient id="paint0_linear_4175_326" x1="10.5916" y1="10.0736" x2="50.1719" y2="50.8717" gradientUnits="userSpaceOnUse">
<stop stop-color="#3C2813"/>
<stop offset="1" stop-color="#5C421D"/>
</linearGradient>
</defs>
</svg>
