<svg width="86" height="69" viewBox="0 0 86 69" fill="none" xmlns="http://www.w3.org/2000/svg">
<g opacity="0.7" filter="url(#filter0_n_4156_96576)">
<path d="M41.2891 0.611868C41.2891 0.949449 41.8376 1.22374 42.5128 1.22374C43.188 1.22374 43.7365 0.949449 43.7365 0.611868C43.7365 0.274287 43.188 0 42.5128 0C41.8376 0 41.2891 0.274287 41.2891 0.611868Z" fill="url(#paint0_linear_4156_96576)"/>
<path d="M40.5703 2.74203C40.5703 3.2695 41.4354 3.71257 42.5114 3.71257C43.5874 3.71257 44.4525 3.2695 44.4525 2.74203C44.4525 2.21456 43.5874 1.77148 42.5114 1.77148C41.4354 1.77148 40.5703 2.19346 40.5703 2.74203Z" fill="url(#paint1_linear_4156_96576)"/>
<path d="M37.6152 28.2724C33.7753 29.3062 29.8931 28.2724 25.9898 28.3357C26.4118 28.1036 26.8338 27.8715 27.2768 27.8504C29.3234 27.7238 31.3911 27.6816 33.4377 27.555C35.0201 27.4495 36.6025 27.2807 38.206 27.133C38.206 26.9853 38.206 26.8377 38.206 26.69C38.1005 26.69 38.0161 26.69 37.9106 26.69C35.1045 26.5212 32.3194 26.2469 29.5133 26.2047C25.9687 26.1625 22.7406 27.133 20.3142 29.9181C18.9428 31.5005 17.6136 33.1462 16.2422 34.7919C19.7235 35.0873 21.2848 37.4082 21.8545 40.8895C22.7406 39.5602 23.0571 38.3365 22.4874 37.1339C21.9599 36.0156 21.1793 35.0029 20.4408 33.8214C21.1582 34.18 21.8334 34.5809 22.5507 34.8552C22.8461 34.9818 23.3525 35.024 23.5424 34.8552C24.4285 34.0535 25.3569 33.5893 26.7705 34.2855C25.8421 31.5216 24.0698 30.7409 21.4325 31.3317C23.7744 29.4961 27.7621 29.0108 30.6315 30.1924C34.7036 31.8592 36.5181 35.0662 36.7713 39.3282C36.9823 42.9783 34.8724 45.8688 31.3489 46.7971C29.661 47.2402 27.087 46.3119 26.0953 44.8772C25.5467 44.0965 25.5889 43.147 26.2008 42.5774C26.8338 42.0077 28.1419 41.86 28.7116 42.4086C28.9225 42.6196 29.0913 43.0204 29.0702 43.3158C28.9858 44.202 29.1757 44.4552 30.0408 44.4341C31.2012 44.3919 31.9819 43.358 31.7287 42.2187C31.2856 40.2143 29.3234 39.075 27.3612 39.6657C27.0448 39.7712 26.7283 39.8556 26.2219 40.0033C26.665 38.9695 27.4456 38.864 28.1419 38.6108C28.9647 38.2943 29.8509 38.02 30.5893 37.5348C31.8764 36.7119 32.2139 35.3194 31.6232 33.969C31.0957 32.7453 29.6188 32.0913 28.1419 32.4499C28.1419 32.5343 28.1419 32.6398 28.2052 32.7242C29.5133 35.0451 29.3023 35.6359 27.0237 36.9018C26.1164 37.4082 25.2092 38.1044 24.6395 38.9273C23.1415 41.1638 23.0782 43.5479 24.5762 45.8266C25.9898 48.0209 29.2812 49.3712 31.792 48.7593C38.2904 47.1558 41.6029 40.0244 37.2987 34.3277C37.0667 34.0113 36.8135 33.6948 36.5814 33.3783C36.6869 33.2939 36.7924 33.1884 36.8979 33.104C37.6574 33.948 38.5225 34.7075 39.1132 35.6359C39.7251 36.6064 40.0416 37.7668 40.548 38.9906C42.5734 34.7919 40.2526 32.3655 37.3831 30.0869C39.0077 30.7198 40.4425 30.6987 41.624 29.3906C42.4679 28.4412 42.8477 27.344 42.6156 26.1836C40.9066 26.901 39.3031 27.766 37.573 28.2302L37.6152 28.2724Z" fill="url(#paint2_linear_4156_96576)"/>
<path d="M41.2034 23.1257C40.5283 23.3367 39.8109 23.3789 39.1147 23.4C36.2241 23.5266 33.5868 22.6194 31.0338 21.3956C27.7846 19.8343 24.5776 18.1464 21.244 16.775C15.3997 14.3697 9.68189 14.8972 4.30171 18.2097C2.7615 19.1592 1.32679 20.2985 0.546133 22.0286C0.693824 21.9653 0.799318 21.8598 0.925911 21.7543C4.04853 18.5051 7.8463 16.8805 12.3614 16.6695C18.9231 16.353 24.2822 19.4123 29.6413 22.535C29.5991 22.6194 29.578 22.7038 29.5358 22.7882C28.1855 22.1341 26.8352 21.48 25.506 20.8049C22.8264 19.4545 20.1047 18.1886 17.0876 17.7877C10.4625 16.9227 4.97687 19.0959 0.609426 24.1174C-0.424413 25.2989 -0.129033 25.9741 1.39008 26.2695C3.20457 23.6954 4.61819 22.4295 5.90522 22.324C5.63093 22.6405 5.39885 22.8937 5.18786 23.1679C3.94303 24.7082 3.07798 26.4383 3.05688 28.4427C3.05688 29.2022 3.33117 30.004 3.62655 30.7213C3.75314 31.0167 4.28061 31.1222 4.61819 31.3332C4.80808 30.9956 5.10347 30.6791 5.18786 30.2993C5.41995 29.3288 5.41995 28.295 5.75753 27.3666C7.27664 23.0624 11.7285 20.2774 16.6656 20.3829C19.8515 20.4462 22.6998 21.6488 25.5271 22.8937C29.5358 24.6449 33.629 25.9108 38.0597 25.5521C39.3256 25.4466 40.5916 25.109 41.8364 24.8137C42.4061 24.666 42.6382 24.2862 42.385 23.6321C42.1529 23.0203 41.8575 22.8937 41.2245 23.0835L41.2034 23.1257Z" fill="url(#paint3_linear_4156_96576)"/>
<path d="M27.1951 25.0043C24.0936 23.443 20.8866 22.156 17.4264 21.7551C12.8901 21.2276 8.64929 23.654 6.89809 27.8527C4.87261 32.7687 8.31171 37.0518 12.5104 36.9885C13.3543 36.9885 14.1772 37.0518 15.0211 37.1151C16.0972 37.1784 17.0255 37.5581 17.7428 38.381C18.4813 39.2249 18.3336 40.955 17.4475 41.6091C17.1732 41.799 16.7301 41.8412 16.3925 41.8201C16.2448 41.8201 16.1182 41.4614 16.1393 41.4825C16.6457 41.1238 17.2154 40.9339 17.2787 40.6175C17.3631 40.2588 17.131 39.7102 16.8356 39.4148C16.3292 38.9085 15.5275 38.6975 15 39.2038C14.578 39.6047 14.2194 40.3432 14.2405 40.9339C14.2405 42.3054 15.7807 43.4658 17.2154 43.4025C18.5235 43.3392 19.6628 42.4531 20.127 41.0605C20.6123 39.5836 20.3169 38.2544 19.1565 37.1784C18.0593 36.1445 16.6668 35.8702 15.2321 35.7436C13.3754 35.5748 11.6242 35.0896 9.99961 34.1612C8.56489 33.3384 7.72094 30.912 8.375 29.7727C8.79698 30.5955 9.15566 31.5028 9.68312 32.2834C10.5904 33.5916 12.3205 33.9713 13.7341 33.3173C14.6413 32.8953 15.1477 32.199 15.1266 31.1863C15.1266 30.1735 14.5991 29.4984 13.4809 29.0975C13.5653 29.3718 13.6286 29.4984 13.6286 29.6039C13.6286 30.1524 13.7763 30.912 13.502 31.1863C13.2066 31.4606 12.3838 31.3973 11.9407 31.1863C9.66203 30.1524 9.11346 27.3252 10.7381 25.4263C12.2572 23.6329 14.3038 22.9366 16.5613 22.789C19.7683 22.578 22.7433 23.4852 25.6971 24.5824C26.1824 24.7722 26.7098 24.8777 27.2162 25.0254L27.1951 25.0043Z" fill="url(#paint4_linear_4156_96576)"/>
<path d="M14.9317 33.9066C14.8051 34.0332 14.6785 34.1598 14.5519 34.3075C14.5941 34.3708 14.6152 34.4341 14.6574 34.4763C14.8473 34.4341 15.0372 34.4341 15.1848 34.3708C17.0204 33.6745 19.0037 30.5097 18.8138 28.5475C18.6872 27.3238 18.2864 26.2055 17.0837 25.6148C16.3664 25.2561 15.6279 25.2139 15.0372 25.8257C14.4675 26.4165 14.3831 27.1339 14.7629 27.8723C15.0372 28.3787 15.3747 28.864 15.6279 29.3703C16.5563 31.1637 16.3453 32.493 14.9317 33.9066Z" fill="url(#paint5_linear_4156_96576)"/>
<path d="M32.1279 40.8475C32.6132 41.2905 33.204 41.5015 33.7947 41.0585C34.491 40.5521 34.6809 39.8136 34.5121 39.0119C34.3433 38.2312 33.7736 37.7038 33.0141 37.7881C31.9802 37.8936 30.9464 38.2312 29.7227 38.5266C30.7143 39.4972 31.4105 40.1934 32.149 40.8475H32.1279Z" fill="url(#paint6_linear_4156_96576)"/>
<path d="M19.5789 27.5559C20.6971 26.5853 21.7098 25.6781 22.7648 24.7708C21.752 24.6864 20.6338 24.0113 19.6844 25.0662C18.9881 25.8469 19.3468 26.7119 19.5789 27.5559Z" fill="url(#paint7_linear_4156_96576)"/>
<path d="M47.4067 27.7214C51.2466 28.713 55.1288 27.637 59.0321 27.6581C58.6101 27.426 58.167 27.215 57.7239 27.1939C55.6774 27.0884 53.6097 27.0673 51.5631 26.9618C49.9807 26.8774 48.3772 26.7086 46.7948 26.582C46.7948 26.4343 46.7948 26.2866 46.7737 26.1389C46.8792 26.1389 46.9636 26.1389 47.0691 26.1389C49.8541 25.928 52.6602 25.6326 55.4453 25.5482C58.9899 25.4638 62.218 26.3921 64.6865 29.1561C66.0791 30.7385 67.4294 32.342 68.8219 33.9877C65.3406 34.3253 63.8004 36.6673 63.294 40.1486C62.3868 38.8193 62.0703 37.6167 62.6189 36.393C63.1252 35.2536 63.9059 34.2409 64.6233 33.0594C63.9059 33.4391 63.2307 33.8189 62.5345 34.1354C62.2391 34.262 61.7327 34.3253 61.5428 34.1354C60.6356 33.3337 59.7072 32.8906 58.3147 33.6079C59.2009 30.8229 60.9732 30.0422 63.6316 30.5908C61.2685 28.7763 57.2809 28.3543 54.4114 29.5781C50.3605 31.2871 48.5882 34.5363 48.3772 38.7771C48.2084 42.4272 50.3605 45.2967 53.884 46.1828C55.5719 46.6048 58.1248 45.6343 59.1165 44.1996C59.665 43.4189 59.6017 42.4483 58.9899 41.8998C58.3358 41.3301 57.0277 41.2035 56.4791 41.7521C56.2681 41.9631 56.0993 42.364 56.1415 42.6593C56.2259 43.5455 56.0361 43.8198 55.171 43.7987C54.0106 43.7776 53.2088 42.7437 53.462 41.6044C53.884 39.6 55.8251 38.4396 57.7872 39.0092C58.1037 39.0936 58.4202 39.1991 58.9477 39.3468C58.5046 38.313 57.7029 38.2286 57.0066 37.9754C56.1626 37.6589 55.2976 37.3846 54.538 36.9205C53.2299 36.1187 52.8712 34.7262 53.462 33.3758C53.9895 32.1521 55.4453 31.477 56.9222 31.8145C56.9222 31.8989 56.9222 32.0044 56.8589 32.0888C55.5719 34.4308 55.804 35.0216 58.1037 36.2453C59.011 36.7306 59.9393 37.4268 60.509 38.2497C62.0281 40.465 62.1125 42.8492 60.6567 45.149C59.2642 47.3433 55.9939 48.7569 53.462 48.1661C46.9636 46.647 43.5456 39.5578 47.7864 33.7978C48.0185 33.4814 48.2506 33.1649 48.4827 32.8484C48.3772 32.764 48.2717 32.6585 48.1662 32.5741C47.4278 33.4181 46.5627 34.1987 45.9719 35.1482C45.3812 36.1187 45.0647 37.2791 44.5794 38.524C42.4907 34.3464 44.7904 31.8778 47.6387 29.5781C46.0352 30.2321 44.5794 30.2321 43.3979 28.924C42.5539 27.9956 42.1531 26.8985 42.3641 25.7381C44.0942 26.4343 45.6977 27.2783 47.4278 27.7214H47.4067Z" fill="url(#paint8_linear_4156_96576)"/>
<path d="M43.7574 22.6173C44.4325 22.8071 45.1499 22.8494 45.8672 22.8705C48.7578 22.9759 51.374 22.0265 53.927 20.7817C57.1551 19.1781 60.341 17.448 63.6535 16.0344C69.4767 13.5659 75.1945 14.03 80.6169 17.2793C82.1782 18.2076 83.6129 19.3469 84.4358 21.056C84.2881 20.9927 84.1615 20.8872 84.056 20.7817C80.8912 17.5746 77.0723 15.9922 72.5572 15.8234C65.9954 15.5913 60.6786 18.714 55.3406 21.8999C55.3828 21.9843 55.4039 22.0687 55.4461 22.1531C56.7753 21.4779 58.1256 20.8239 59.4548 20.1276C62.1133 18.7351 64.8139 17.448 67.8521 17.0261C74.4772 16.0766 79.9839 18.1865 84.3936 23.1447C85.4274 24.3052 85.1531 25.0014 83.634 25.3179C81.7773 22.7649 80.3637 21.5201 79.0767 21.4357C79.351 21.7522 79.583 22.0054 79.794 22.2797C81.06 23.7988 81.9461 25.5289 81.9672 27.5333C81.9672 28.2928 81.714 29.0946 81.4397 29.812C81.3131 30.1073 80.7857 30.2339 80.4481 30.4238C80.2582 30.0862 79.9628 29.7698 79.8784 29.4111C79.6463 28.4405 79.6252 27.4067 79.2877 26.4783C77.7053 22.1953 73.2323 19.4524 68.2952 19.6212C65.1093 19.7267 62.2821 20.9716 59.4548 22.2375C55.4672 24.052 51.3951 25.3601 46.9433 25.0436C45.6773 24.9592 44.4114 24.6427 43.1666 24.3474C42.5969 24.2208 42.3648 23.8199 42.5969 23.1658C42.829 22.5329 43.1033 22.4274 43.7574 22.6173Z" fill="url(#paint9_linear_4156_96576)"/>
<path d="M57.8086 24.3269C60.889 22.7234 64.075 21.4152 67.5352 20.9722C72.0714 20.4025 76.3333 22.7867 78.1267 26.9431C80.2155 31.8381 76.8186 36.1633 72.6199 36.1422C71.776 36.1422 70.9532 36.2266 70.1092 36.2899C69.0332 36.3743 68.1048 36.7541 67.3875 37.598C66.6701 38.4631 66.8178 40.1932 67.725 40.8261C67.9993 41.016 68.4424 41.0582 68.78 41.0371C68.9277 41.0371 69.0332 40.6785 69.0332 40.6785C68.5268 40.3198 67.9571 40.1299 67.8727 39.8345C67.7883 39.4758 68.0204 38.9273 68.2947 38.6319C68.8011 38.1044 69.5817 37.9145 70.1303 38.3998C70.5734 38.8007 70.911 39.5391 70.911 40.1088C70.911 41.4802 69.3918 42.6618 67.9782 42.5985C66.6701 42.5563 65.5097 41.6701 65.0455 40.2987C64.5391 38.8218 64.8345 37.4925 65.9527 36.3954C67.0288 35.3405 68.4213 35.0451 69.856 34.9185C71.7127 34.7286 73.4639 34.2222 75.0674 33.2728C76.481 32.4288 77.3039 30.0025 76.6498 28.8631C76.2278 29.686 75.8903 30.6143 75.3628 31.395C74.4766 32.7031 72.7465 33.1251 71.3118 32.471C70.4046 32.0701 69.8982 31.3739 69.8771 30.3611C69.8771 29.3484 70.3835 28.6732 71.5017 28.2513C71.4173 28.5255 71.354 28.6521 71.354 28.7576C71.3751 29.3062 71.2063 30.0657 71.5017 30.34C71.7971 30.5932 72.62 30.5299 73.063 30.3189C75.3206 29.264 75.8481 26.4156 74.2024 24.5379C72.6621 22.7656 70.6156 22.0904 68.3369 21.9849C65.1299 21.8161 62.155 22.7445 59.2222 23.8838C58.737 24.0737 58.2095 24.2003 57.7031 24.348L57.8086 24.3269Z" fill="url(#paint10_linear_4156_96576)"/>
<path d="M70.1507 33.104C70.2773 33.2306 70.4039 33.3572 70.5516 33.4838C70.5094 33.5471 70.4883 33.6104 70.4461 33.6526C70.2562 33.6315 70.0664 33.6104 69.8976 33.5471C68.0409 32.872 66.0365 29.7493 66.2053 27.766C66.3108 26.5423 66.7116 25.4241 67.8932 24.8122C68.6105 24.4324 69.3279 24.3902 69.9398 25.0021C70.5305 25.5929 70.6149 26.3102 70.2351 27.0487C69.982 27.555 69.6444 28.0403 69.3912 28.5678C68.4839 30.3612 68.6949 31.6904 70.1296 33.104H70.1507Z" fill="url(#paint11_linear_4156_96576)"/>
<path d="M53.0404 40.2554C52.5551 40.7196 51.9854 40.9095 51.3947 40.4875C50.6984 39.9811 50.5085 39.2427 50.6562 38.4409C50.8039 37.6602 51.3736 37.1117 52.1331 37.1961C53.1669 37.3016 54.2008 37.618 55.4456 37.8923C54.454 38.8629 53.7577 39.5802 53.0404 40.2554Z" fill="url(#paint12_linear_4156_96576)"/>
<path d="M65.4258 26.8159C64.3075 25.8665 63.2737 24.9803 62.2188 24.0731C63.2315 23.9887 64.3497 23.2924 65.2992 24.3262C66.0165 25.1069 65.6368 25.972 65.4258 26.8159Z" fill="url(#paint13_linear_4156_96576)"/>
<path d="M41.2891 25.4863C41.2891 26.4358 41.8376 27.1953 42.5128 27.1953C43.188 27.1953 43.7365 26.4358 43.7365 25.4863C43.7365 24.5369 43.188 23.7773 42.5128 23.7773C41.8376 23.7773 41.2891 24.5369 41.2891 25.4863Z" fill="url(#paint14_linear_4156_96576)"/>
<path d="M40.5703 37.2178C40.5703 38.7159 41.4354 39.9396 42.5114 39.9396C43.5874 39.9396 44.4525 38.7159 44.4525 37.2178C44.4525 35.7198 43.5874 34.4961 42.5114 34.4961C41.4354 34.4961 40.5703 35.7198 40.5703 37.2178Z" fill="url(#paint15_linear_4156_96576)"/>
<path d="M41.2891 41.2033C41.2891 41.6675 41.8376 42.0473 42.5128 42.0473C43.188 42.0473 43.7365 41.6675 43.7365 41.2033C43.7365 40.7392 43.188 40.3594 42.5128 40.3594C41.8376 40.3594 41.2891 40.7392 41.2891 41.2033Z" fill="url(#paint16_linear_4156_96576)"/>
<path d="M40.5703 47.0105C40.5703 47.7489 41.4354 48.3608 42.5114 48.3608C43.5874 48.3608 44.4525 47.7489 44.4525 47.0105C44.4525 46.272 43.5874 45.6602 42.5114 45.6602C41.4354 45.6602 40.5703 46.272 40.5703 47.0105Z" fill="url(#paint17_linear_4156_96576)"/>
<path d="M46.6673 51.0384C47.047 51.376 47.5112 51.6081 47.8277 52.009C48.3763 52.663 48.1442 53.507 47.3424 53.8235C46.0132 54.3298 44.7262 52.874 44.1565 51.798C43.8189 51.165 43.4181 50.2156 43.2915 49.5404C43.1227 48.6754 43.0172 47.8736 42.9961 47.1773C42.9961 47.0718 43.2071 46.8609 43.2493 46.9452C43.4392 47.4938 43.84 48.5488 44.3042 48.9074L46.6673 51.0384Z" fill="url(#paint18_linear_4156_96576)"/>
<path d="M45.5298 56.777C43.7153 57.1568 42.2173 54.6249 42.1118 53.0847C41.9852 51.1858 42.2806 49.2658 42.6603 47.4091C42.6603 47.3458 42.7658 47.3669 42.7869 47.4091C42.8924 49.0126 43.0823 50.9537 43.863 52.304C44.1584 52.8104 44.7913 53.4223 45.1711 53.8864C45.6353 54.4772 46.1416 54.646 46.3104 55.4055C46.437 55.9541 46.1416 56.6504 45.5298 56.7559V56.777Z" fill="url(#paint19_linear_4156_96576)"/>
<path d="M41.7539 55.513C41.7539 55.513 41.8172 55.4286 41.8383 55.4708C42.6823 57.011 43.906 57.9605 45.6361 58.2769C45.9737 58.3402 46.3112 58.3824 46.6488 58.3824C46.9864 58.3824 47.324 58.298 47.6405 58.4246C47.8936 58.5301 47.8514 58.72 47.9991 58.3824C48.189 57.9605 48.0624 57.4541 47.8093 57.0954C47.6405 56.8633 47.4295 56.6945 47.1763 56.5679C47.0497 56.5046 46.6488 56.3148 46.48 56.3359C46.2901 56.3359 46.1635 56.5046 46.269 56.6312C46.691 56.7156 46.6488 57.2431 46.3745 57.433C45.8893 57.8128 45.1297 57.433 45.2141 56.7578C45.2985 56.2515 45.8893 55.9561 46.3534 55.9983C46.9653 56.0405 47.6405 56.4414 48.0413 56.9266C48.5055 57.5174 48.6321 58.2347 48.4633 58.9099C48.2101 59.9226 47.4506 60.0492 47.4506 60.0492C47.4506 60.0492 50.5943 60.9776 50.953 62.0325C51.1007 62.4967 50.9952 62.9398 50.6576 63.2985C49.8347 64.1424 48.6532 63.4884 47.7882 63.1086C47.4084 62.9398 47.0497 62.7499 46.7332 62.5389C47.0708 63.1508 47.4717 64.0369 47.3029 64.7332C47.0286 65.9147 46.5433 66.2734 46.0792 66.6743C46.0792 66.6743 47.4295 64.4378 43.3152 60.9565C41.3741 59.3108 41.8383 55.4708 41.8383 55.4708L41.7539 55.513Z" fill="url(#paint20_linear_4156_96576)"/>
<path d="M44.4916 47.112C44.4916 47.8505 43.6265 48.4624 42.5505 48.4624C41.4744 48.4624 40.6094 47.8505 40.6094 47.112C40.6094 46.3736 41.4744 45.7617 42.5505 45.7617C43.6265 45.7617 44.4916 46.3736 44.4916 47.112Z" fill="url(#paint21_linear_4156_96576)"/>
<path d="M42.6581 64.7109C42.6581 64.7109 44.2405 69.1839 42.5948 68.994C40.9491 68.8041 42.5315 64.9219 42.6581 64.7109Z" fill="url(#paint22_linear_4156_96576)"/>
<path d="M38.5922 50.9759C38.2125 51.3135 37.7483 51.5456 37.4318 51.9465C36.8832 52.6005 37.1153 53.4445 37.9171 53.761C39.2463 54.2673 40.5333 52.8115 41.103 51.7355C41.4406 51.1025 41.8414 50.1531 41.968 49.4779C42.1368 48.6129 42.2423 47.8111 42.2634 47.1148C42.2634 47.0093 42.0524 46.7984 42.0102 46.8827C41.8203 47.4313 41.4195 48.4863 40.9553 48.8449L38.5922 50.9759Z" fill="url(#paint23_linear_4156_96576)"/>
<path d="M39.7079 56.7145C41.5224 57.0942 43.0204 54.5624 43.1259 53.0222C43.2525 51.1233 42.9571 49.2033 42.5774 47.3466C42.5774 47.2833 42.4719 47.3044 42.4508 47.3466C42.3453 48.9501 42.1554 50.8912 41.3747 52.2415C41.0794 52.7479 40.4464 53.3598 40.0666 53.8239C39.6024 54.4147 39.0961 54.5835 38.9273 55.343C38.8007 55.8916 39.0961 56.5879 39.7079 56.6934V56.7145Z" fill="url(#paint24_linear_4156_96576)"/>
<path d="M43.5064 55.4466C43.5064 55.4466 43.4431 55.3622 43.422 55.4044C42.578 56.9446 41.3543 57.8941 39.6242 58.2105C39.2866 58.2738 38.9491 58.316 38.6115 58.316C38.2739 58.316 37.9363 58.2316 37.6198 58.3582C37.3667 58.4637 37.4089 58.6536 37.2612 58.316C37.0713 57.894 37.1979 57.3877 37.451 57.029C37.6198 56.7969 37.8308 56.6281 38.084 56.5015C38.2106 56.4382 38.6115 56.2483 38.7803 56.2694C38.9702 56.2694 39.0968 56.4382 38.9913 56.5648C38.5693 56.6492 38.6115 57.1767 38.8858 57.3666C39.371 57.7464 40.1306 57.3666 40.0462 56.6914C39.9618 56.1851 39.371 55.8897 38.9069 55.9319C38.295 55.9741 37.6198 56.3749 37.219 56.8602C36.7548 57.451 36.6282 58.1683 36.797 58.8435C37.0502 59.8562 37.8097 59.9828 37.8097 59.9828C37.8097 59.9828 34.666 60.9112 34.3073 61.9661C34.1596 62.4303 34.2651 62.8734 34.6027 63.2321C35.4256 64.076 36.6071 63.4219 37.4721 63.0422C37.8519 62.8734 38.2106 62.6835 38.5271 62.4725C38.1895 63.0844 37.7886 63.9705 37.9574 64.6668C38.2317 65.8483 38.717 66.207 39.1811 66.6079C39.1811 66.6079 37.8308 64.3714 41.9451 60.8901C43.8862 59.2444 43.422 55.4044 43.422 55.4044L43.5064 55.4466Z" fill="url(#paint25_linear_4156_96576)"/>
<path d="M42.5951 64.6484C42.5951 64.6484 41.0127 69.1214 42.6584 68.9315C44.3041 68.7416 42.7217 64.8594 42.5951 64.6484Z" fill="url(#paint26_linear_4156_96576)"/>
<path d="M43.25 61.0196V3.94727H41.8153V61.0196H43.25Z" fill="url(#paint27_linear_4156_96576)"/>
</g>
<defs>
<filter id="filter0_n_4156_96576" x="0" y="0" width="85.0107" height="69" filterUnits="userSpaceOnUse" color-interpolation-filters="sRGB">
<feFlood flood-opacity="0" result="BackgroundImageFix"/>
<feBlend mode="normal" in="SourceGraphic" in2="BackgroundImageFix" result="shape"/>
<feTurbulence type="fractalNoise" baseFrequency="2 2" stitchTiles="stitch" numOctaves="3" result="noise" seed="7317" />
<feColorMatrix in="noise" type="luminanceToAlpha" result="alphaNoise" />
<feComponentTransfer in="alphaNoise" result="coloredNoise1">
<feFuncA type="discrete" tableValues="1 1 1 1 1 1 1 1 1 1 1 1 1 1 1 1 1 1 1 1 1 1 1 1 1 1 1 1 1 1 1 1 1 1 1 1 1 1 1 1 1 1 1 1 1 1 1 1 1 1 1 0 0 0 0 0 0 0 0 0 0 0 0 0 0 0 0 0 0 0 0 0 0 0 0 0 0 0 0 0 0 0 0 0 0 0 0 0 0 0 0 0 0 0 0 0 0 0 0 0 "/>
</feComponentTransfer>
<feComposite operator="in" in2="shape" in="coloredNoise1" result="noise1Clipped" />
<feFlood flood-color="rgba(0, 0, 0, 0.25)" result="color1Flood" />
<feComposite operator="in" in2="noise1Clipped" in="color1Flood" result="color1" />
<feMerge result="effect1_noise_4156_96576">
<feMergeNode in="shape" />
<feMergeNode in="color1" />
</feMerge>
</filter>
<linearGradient id="paint0_linear_4156_96576" x1="40.969" y1="0.933099" x2="44.0924" y2="0.811184" gradientUnits="userSpaceOnUse">
<stop stop-color="#FFE79C"/>
<stop offset="0.218239" stop-color="#D7B373"/>
<stop offset="0.514285" stop-color="#FFE79C"/>
<stop offset="0.818791" stop-color="#D7B373"/>
<stop offset="1" stop-color="#FFE79C"/>
</linearGradient>
<linearGradient id="paint1_linear_4156_96576" x1="40.0626" y1="3.25156" x2="45.017" y2="3.05818" gradientUnits="userSpaceOnUse">
<stop stop-color="#FFE79C"/>
<stop offset="0.218239" stop-color="#D7B373"/>
<stop offset="0.514285" stop-color="#FFE79C"/>
<stop offset="0.818791" stop-color="#D7B373"/>
<stop offset="1" stop-color="#FFE79C"/>
</linearGradient>
<linearGradient id="paint2_linear_4156_96576" x1="12.7846" y1="43.5102" x2="46.5617" y2="42.7431" gradientUnits="userSpaceOnUse">
<stop stop-color="#FFE79C"/>
<stop offset="0.218239" stop-color="#D7B373"/>
<stop offset="0.514285" stop-color="#FFE79C"/>
<stop offset="0.818791" stop-color="#D7B373"/>
<stop offset="1" stop-color="#FFE79C"/>
</linearGradient>
<linearGradient id="paint3_linear_4156_96576" x1="-5.55597" y1="27.5218" x2="48.6032" y2="24.7234" gradientUnits="userSpaceOnUse">
<stop stop-color="#FFE79C"/>
<stop offset="0.218239" stop-color="#D7B373"/>
<stop offset="0.514285" stop-color="#FFE79C"/>
<stop offset="0.818791" stop-color="#D7B373"/>
<stop offset="1" stop-color="#FFE79C"/>
</linearGradient>
<linearGradient id="paint4_linear_4156_96576" x1="3.56569" y1="38.2461" x2="30.2889" y2="37.744" gradientUnits="userSpaceOnUse">
<stop stop-color="#FFE79C"/>
<stop offset="0.218239" stop-color="#D7B373"/>
<stop offset="0.514285" stop-color="#FFE79C"/>
<stop offset="0.818791" stop-color="#D7B373"/>
<stop offset="1" stop-color="#FFE79C"/>
</linearGradient>
<linearGradient id="paint5_linear_4156_96576" x1="13.9696" y1="32.3096" x2="19.459" y2="32.2592" gradientUnits="userSpaceOnUse">
<stop stop-color="#FFE79C"/>
<stop offset="0.218239" stop-color="#D7B373"/>
<stop offset="0.514285" stop-color="#FFE79C"/>
<stop offset="0.818791" stop-color="#D7B373"/>
<stop offset="1" stop-color="#FFE79C"/>
</linearGradient>
<linearGradient id="paint6_linear_4156_96576" x1="29.0888" y1="40.4665" x2="35.2797" y2="40.3003" gradientUnits="userSpaceOnUse">
<stop stop-color="#FFE79C"/>
<stop offset="0.218239" stop-color="#D7B373"/>
<stop offset="0.514285" stop-color="#FFE79C"/>
<stop offset="0.818791" stop-color="#D7B373"/>
<stop offset="1" stop-color="#FFE79C"/>
</linearGradient>
<linearGradient id="paint7_linear_4156_96576" x1="18.8213" y1="26.8255" x2="23.2765" y2="26.7269" gradientUnits="userSpaceOnUse">
<stop stop-color="#FFE79C"/>
<stop offset="0.218239" stop-color="#D7B373"/>
<stop offset="0.514285" stop-color="#FFE79C"/>
<stop offset="0.818791" stop-color="#D7B373"/>
<stop offset="1" stop-color="#FFE79C"/>
</linearGradient>
<linearGradient id="paint8_linear_4156_96576" x1="38.8415" y1="42.8959" x2="72.7115" y2="42.1258" gradientUnits="userSpaceOnUse">
<stop stop-color="#FFE79C"/>
<stop offset="0.218239" stop-color="#D7B373"/>
<stop offset="0.514285" stop-color="#FFE79C"/>
<stop offset="0.818791" stop-color="#D7B373"/>
<stop offset="1" stop-color="#FFE79C"/>
</linearGradient>
<linearGradient id="paint9_linear_4156_96576" x1="36.9498" y1="26.6336" x2="91.1273" y2="23.8176" gradientUnits="userSpaceOnUse">
<stop stop-color="#FFE79C"/>
<stop offset="0.218239" stop-color="#D7B373"/>
<stop offset="0.514285" stop-color="#FFE79C"/>
<stop offset="0.818791" stop-color="#D7B373"/>
<stop offset="1" stop-color="#FFE79C"/>
</linearGradient>
<linearGradient id="paint10_linear_4156_96576" x1="54.9495" y1="37.4442" x2="81.8537" y2="36.935" gradientUnits="userSpaceOnUse">
<stop stop-color="#FFE79C"/>
<stop offset="0.218239" stop-color="#D7B373"/>
<stop offset="0.514285" stop-color="#FFE79C"/>
<stop offset="0.818791" stop-color="#D7B373"/>
<stop offset="1" stop-color="#FFE79C"/>
</linearGradient>
<linearGradient id="paint11_linear_4156_96576" x1="65.6256" y1="31.4868" x2="71.1931" y2="31.4349" gradientUnits="userSpaceOnUse">
<stop stop-color="#FFE79C"/>
<stop offset="0.218239" stop-color="#D7B373"/>
<stop offset="0.514285" stop-color="#FFE79C"/>
<stop offset="0.818791" stop-color="#D7B373"/>
<stop offset="1" stop-color="#FFE79C"/>
</linearGradient>
<linearGradient id="paint12_linear_4156_96576" x1="49.9769" y1="39.8826" x2="56.1539" y2="39.7177" gradientUnits="userSpaceOnUse">
<stop stop-color="#FFE79C"/>
<stop offset="0.218239" stop-color="#D7B373"/>
<stop offset="0.514285" stop-color="#FFE79C"/>
<stop offset="0.818791" stop-color="#D7B373"/>
<stop offset="1" stop-color="#FFE79C"/>
</linearGradient>
<linearGradient id="paint13_linear_4156_96576" x1="61.7613" y1="26.0915" x2="66.23" y2="25.9915" gradientUnits="userSpaceOnUse">
<stop stop-color="#FFE79C"/>
<stop offset="0.218239" stop-color="#D7B373"/>
<stop offset="0.514285" stop-color="#FFE79C"/>
<stop offset="0.818791" stop-color="#D7B373"/>
<stop offset="1" stop-color="#FFE79C"/>
</linearGradient>
<linearGradient id="paint14_linear_4156_96576" x1="40.969" y1="26.3836" x2="44.0966" y2="26.3399" gradientUnits="userSpaceOnUse">
<stop stop-color="#FFE79C"/>
<stop offset="0.218239" stop-color="#D7B373"/>
<stop offset="0.514285" stop-color="#FFE79C"/>
<stop offset="0.818791" stop-color="#D7B373"/>
<stop offset="1" stop-color="#FFE79C"/>
</linearGradient>
<linearGradient id="paint15_linear_4156_96576" x1="40.0626" y1="38.6468" x2="45.0236" y2="38.5777" gradientUnits="userSpaceOnUse">
<stop stop-color="#FFE79C"/>
<stop offset="0.218239" stop-color="#D7B373"/>
<stop offset="0.514285" stop-color="#FFE79C"/>
<stop offset="0.818791" stop-color="#D7B373"/>
<stop offset="1" stop-color="#FFE79C"/>
</linearGradient>
<linearGradient id="paint16_linear_4156_96576" x1="40.969" y1="41.6464" x2="44.0947" y2="41.558" gradientUnits="userSpaceOnUse">
<stop stop-color="#FFE79C"/>
<stop offset="0.218239" stop-color="#D7B373"/>
<stop offset="0.514285" stop-color="#FFE79C"/>
<stop offset="0.818791" stop-color="#D7B373"/>
<stop offset="1" stop-color="#FFE79C"/>
</linearGradient>
<linearGradient id="paint17_linear_4156_96576" x1="40.0626" y1="47.7194" x2="45.0207" y2="47.5803" gradientUnits="userSpaceOnUse">
<stop stop-color="#FFE79C"/>
<stop offset="0.218239" stop-color="#D7B373"/>
<stop offset="0.514285" stop-color="#FFE79C"/>
<stop offset="0.818791" stop-color="#D7B373"/>
<stop offset="1" stop-color="#FFE79C"/>
</linearGradient>
<linearGradient id="paint18_linear_4156_96576" x1="42.3252" y1="52.2644" x2="48.8814" y2="52.1706" gradientUnits="userSpaceOnUse">
<stop stop-color="#FFE79C"/>
<stop offset="0.218239" stop-color="#D7B373"/>
<stop offset="0.514285" stop-color="#FFE79C"/>
<stop offset="0.818791" stop-color="#D7B373"/>
<stop offset="1" stop-color="#FFE79C"/>
</linearGradient>
<linearGradient id="paint19_linear_4156_96576" x1="41.5253" y1="54.5718" x2="46.9662" y2="54.524" gradientUnits="userSpaceOnUse">
<stop stop-color="#FFE79C"/>
<stop offset="0.218239" stop-color="#D7B373"/>
<stop offset="0.514285" stop-color="#FFE79C"/>
<stop offset="0.818791" stop-color="#D7B373"/>
<stop offset="1" stop-color="#FFE79C"/>
</linearGradient>
<linearGradient id="paint20_linear_4156_96576" x1="40.5424" y1="64.0106" x2="52.3802" y2="63.8198" gradientUnits="userSpaceOnUse">
<stop stop-color="#FFE79C"/>
<stop offset="0.218239" stop-color="#D7B373"/>
<stop offset="0.514285" stop-color="#FFE79C"/>
<stop offset="0.818791" stop-color="#D7B373"/>
<stop offset="1" stop-color="#FFE79C"/>
</linearGradient>
<linearGradient id="paint21_linear_4156_96576" x1="40.1017" y1="47.821" x2="45.0597" y2="47.6819" gradientUnits="userSpaceOnUse">
<stop stop-color="#FFE79C"/>
<stop offset="0.218239" stop-color="#D7B373"/>
<stop offset="0.514285" stop-color="#FFE79C"/>
<stop offset="0.818791" stop-color="#D7B373"/>
<stop offset="1" stop-color="#FFE79C"/>
</linearGradient>
<linearGradient id="paint22_linear_4156_96576" x1="41.6565" y1="67.9813" x2="43.5627" y2="67.9683" gradientUnits="userSpaceOnUse">
<stop stop-color="#FFE79C"/>
<stop offset="0.218239" stop-color="#D7B373"/>
<stop offset="0.514285" stop-color="#FFE79C"/>
<stop offset="0.818791" stop-color="#D7B373"/>
<stop offset="1" stop-color="#FFE79C"/>
</linearGradient>
<linearGradient id="paint23_linear_4156_96576" x1="36.4619" y1="52.2019" x2="43.0181" y2="52.1081" gradientUnits="userSpaceOnUse">
<stop stop-color="#FFE79C"/>
<stop offset="0.218239" stop-color="#D7B373"/>
<stop offset="0.514285" stop-color="#FFE79C"/>
<stop offset="0.818791" stop-color="#D7B373"/>
<stop offset="1" stop-color="#FFE79C"/>
</linearGradient>
<linearGradient id="paint24_linear_4156_96576" x1="38.3417" y1="54.5093" x2="43.7826" y2="54.4615" gradientUnits="userSpaceOnUse">
<stop stop-color="#FFE79C"/>
<stop offset="0.218239" stop-color="#D7B373"/>
<stop offset="0.514285" stop-color="#FFE79C"/>
<stop offset="0.818791" stop-color="#D7B373"/>
<stop offset="1" stop-color="#FFE79C"/>
</linearGradient>
<linearGradient id="paint25_linear_4156_96576" x1="33.0307" y1="63.9442" x2="44.8685" y2="63.7534" gradientUnits="userSpaceOnUse">
<stop stop-color="#FFE79C"/>
<stop offset="0.218239" stop-color="#D7B373"/>
<stop offset="0.514285" stop-color="#FFE79C"/>
<stop offset="0.818791" stop-color="#D7B373"/>
<stop offset="1" stop-color="#FFE79C"/>
</linearGradient>
<linearGradient id="paint26_linear_4156_96576" x1="41.7151" y1="67.9188" x2="43.6213" y2="67.9058" gradientUnits="userSpaceOnUse">
<stop stop-color="#FFE79C"/>
<stop offset="0.218239" stop-color="#D7B373"/>
<stop offset="0.514285" stop-color="#FFE79C"/>
<stop offset="0.818791" stop-color="#D7B373"/>
<stop offset="1" stop-color="#FFE79C"/>
</linearGradient>
<linearGradient id="paint27_linear_4156_96576" x1="42.156" y1="-3.51604" x2="77.4907" y2="41.998" gradientUnits="userSpaceOnUse">
<stop stop-color="#FFE79C"/>
<stop offset="0.218239" stop-color="#D7B373"/>
<stop offset="0.514285" stop-color="#FFE79C"/>
<stop offset="0.818791" stop-color="#D7B373"/>
<stop offset="1" stop-color="#FFE79C"/>
</linearGradient>
</defs>
</svg>
