<svg width="67" height="50" viewBox="0 0 67 50" fill="none" xmlns="http://www.w3.org/2000/svg">
<path fill-rule="evenodd" clip-rule="evenodd" d="M61.4006 42.6415C62.505 42.6417 63.4006 43.5325 63.4006 44.6317V47.6171C63.4006 48.7162 62.505 49.608 61.4006 49.6083H55.0022C54.4501 49.608 54.0022 49.1617 54.0022 48.6122C54.0024 48.0629 54.4502 47.6173 55.0022 47.6171H61.4006V44.6317H5.4006V47.6171H49.9719C50.5238 47.6173 50.9717 48.0629 50.9719 48.6122C50.9719 49.1617 50.524 49.608 49.9719 49.6083H5.4006C4.29603 49.6083 3.4006 48.7164 3.4006 47.6171V44.6317C3.4006 43.5324 4.29603 42.6415 5.4006 42.6415H61.4006ZM52.9748 0.020391C54.8202 -0.120909 56.454 0.493801 57.7004 1.19422C58.9068 1.87225 59.8299 2.67746 60.2688 3.04383C60.3033 3.04797 60.3609 3.05628 60.4543 3.06434C60.8449 3.09804 61.5212 3.14712 62.7942 3.36219C64.1705 3.59482 65.2062 4.40604 65.9016 5.20203C66.5066 5.89483 66.6069 6.76089 66.3518 7.50574C66.1051 8.22535 65.537 8.82255 64.8108 9.14344L41.05 19.6425L30.9348 35.9423C30.6791 36.3542 30.2811 36.6606 29.8156 36.8016L26.3772 37.8427C24.9549 38.2735 23.5737 37.0642 23.8225 35.6054L25.4143 26.2704L11.2805 32.5497C10.5301 32.8829 9.65119 32.7259 9.06466 32.1532L0.598844 23.8856C-0.406747 22.9027 -0.102082 21.2206 1.18478 20.6483L2.70529 19.9716C3.25179 19.7289 3.87897 19.7434 4.41427 20.0096L11.4055 23.4872C19.2039 19.5076 28.4418 13.7732 36.2834 8.96375C40.1949 6.56474 43.7652 4.39308 46.6135 2.80164C48.0366 2.00651 49.2968 1.34664 50.3401 0.87293C51.3442 0.41704 52.2702 0.0744188 52.9748 0.020391ZM53.1281 2.00477C52.8146 2.02891 52.1793 2.22575 51.1711 2.68348C50.2016 3.12367 48.9959 3.75261 47.592 4.53699C44.7853 6.10515 41.2509 8.25532 37.3332 10.6581C29.5191 15.4506 20.198 21.2403 12.3108 25.2645C11.7386 25.5563 11.0729 25.5486 10.5119 25.2694L3.52072 21.7899L2.00021 22.4657L10.4651 30.7323L24.5988 24.453C26.0574 23.805 27.6532 25.0361 27.386 26.6034L25.7942 35.9384L29.2326 34.8964L37.8108 21.0731L34.1965 22.6708C33.6921 22.8935 33.1016 22.6676 32.8772 22.1659C32.6529 21.6642 32.8792 21.0763 33.383 20.8524L42.9328 16.6102L42.9123 16.6415L63.9992 7.32508C64.2497 7.21437 64.404 7.02383 64.4592 6.86316C64.5056 6.72746 64.4881 6.61786 64.3918 6.5077C63.8798 5.92164 63.2268 5.45482 62.4592 5.32508C61.2684 5.1239 60.6575 5.08116 60.2815 5.04871C60.1097 5.03389 59.883 5.01427 59.6711 4.95398C59.4049 4.87817 59.2052 4.75377 59.0295 4.60828C58.5617 4.22089 57.7714 3.51969 56.718 2.92762C55.6664 2.33656 54.4351 1.90473 53.1281 2.00477ZM32.886 14.9501C33.3745 14.6938 33.98 14.8799 34.2375 15.3661L34.7033 16.247C34.9608 16.7332 34.7739 17.3354 34.2854 17.5917L33.4006 18.0555C32.9122 18.3118 32.3077 18.1254 32.05 17.6395L31.5832 16.7587C31.3258 16.2725 31.5128 15.6703 32.0012 15.4139L32.886 14.9501ZM37.3098 12.6298C37.7983 12.3734 38.4038 12.5595 38.6613 13.0458L39.1272 13.9266C39.3845 14.4127 39.1974 15.014 38.7092 15.2704L37.8244 15.7352C37.3359 15.9915 36.7314 15.8045 36.4738 15.3182L36.007 14.4384C35.7495 13.9522 35.9366 13.35 36.425 13.0936L37.3098 12.6298ZM31.9104 8.68152C32.4625 8.68167 32.9104 9.12707 32.9104 9.67664C32.9101 10.2261 32.4625 10.6717 31.9104 10.6718L17.7805 10.6708L16.1067 12.0995L23.7404 13.6786C24.2812 13.7904 24.6291 14.3172 24.5168 14.8554C24.4043 15.3933 23.8748 15.7386 23.3342 15.6268L15.7004 14.0477C14.0745 13.7116 13.5438 11.6647 14.8039 10.5888L16.4787 9.16004C16.8411 8.85107 17.3033 8.68055 17.7805 8.68055L31.9104 8.68152ZM41.7356 10.3095C42.2241 10.0531 42.8296 10.2392 43.0871 10.7255L43.5529 11.6054C43.8104 12.0915 43.6233 12.6937 43.135 12.9501L42.2502 13.4149C41.7617 13.6711 41.1572 13.4841 40.8996 12.9979L40.4328 12.118C40.1753 11.6319 40.3625 11.0297 40.8508 10.7733L41.7356 10.3095ZM46.1574 7.98816C46.646 7.73183 47.2514 7.91794 47.509 8.40418L47.9748 9.28504C48.2323 9.77125 48.0454 10.3735 47.5569 10.6298L46.6721 11.0936C46.1837 11.3499 45.5792 11.1635 45.3215 10.6776L44.8547 9.79676C44.5972 9.31059 44.7843 8.70841 45.2727 8.45203L46.1574 7.98816ZM50.5793 5.66785C51.0679 5.41152 51.6733 5.59763 51.9309 6.08387L52.3967 6.96473C52.654 7.45081 52.4669 8.0521 51.9787 8.30848L51.094 8.77332C50.6054 9.02958 50.0009 8.84254 49.7434 8.35633L49.2766 7.47645C49.0191 6.99029 49.2062 6.38813 49.6945 6.13172L50.5793 5.66785Z" fill="url(#paint0_linear_4175_288)"/>
<defs>
<linearGradient id="paint0_linear_4175_288" x1="13.59" y1="9.4236" x2="48.5181" y2="58.8048" gradientUnits="userSpaceOnUse">
<stop stop-color="#3C2813"/>
<stop offset="1" stop-color="#5C421D"/>
</linearGradient>
</defs>
</svg>
