<svg width="147" height="76" viewBox="0 0 147 76" fill="none" xmlns="http://www.w3.org/2000/svg">
<g clip-path="url(#clip0_370_96843)" filter="url(#filter0_n_370_96843)">
<path d="M58.7586 56.257C58.7586 61.8296 56.0926 64.6425 50.7604 64.6425C48.408 64.6425 44.9578 63.4749 40.4621 61.1927C35.4958 58.6453 31.3138 57.4246 27.9681 57.4246C20.7017 57.4246 13.8536 60.3436 7.47592 66.1285C4.39164 68.9413 1.98695 72.2318 0.261838 76C0.157286 75.5223 0.0527344 74.7263 0.0527344 73.7179C0.0527344 70.1089 1.09825 66.5 3.24157 62.9441C5.17578 59.6536 7.7373 56.8939 10.8216 54.6648C14.3241 52.1704 18.297 50.9497 22.7405 50.9497C25.8248 50.9497 28.4909 51.4804 30.791 52.5419C31.9933 53.1257 34.3458 54.6117 37.796 56.9469C40.7757 58.9637 43.0236 60.0251 44.5919 60.0251C48.5126 60.0251 51.5968 58.3799 53.897 55.0894C54.8902 53.6564 55.413 52.2765 55.413 50.9497C55.413 48.5615 54.6811 46.5978 53.2697 44.9525C51.8582 43.3603 49.9763 42.5643 47.6761 42.5643C45.5328 42.5643 42.0303 43.6257 37.1687 45.8548C32.307 48.0307 28.7522 49.0922 26.6612 49.0922C25.0929 49.0922 23.211 48.2961 20.9631 46.7039C16.3628 43.3603 14.0627 40.2291 14.0627 37.3631C14.0627 35.771 14.9514 34.338 16.6765 32.9581C18.2448 31.7374 19.8653 31.0475 21.5382 30.8883L21.6427 30.4106L19.4471 27.2793C18.2448 25.5279 17.6175 23.6704 17.6175 21.6536C17.6175 14.7542 23.1587 11.2514 34.2935 11.2514C34.6071 11.1983 34.8685 10.933 34.9731 10.4553V5.46648H11.9717V0H57.6086V5.41341H41.8212V13.0028C41.8212 14.4358 42.2394 15.2849 43.0236 15.6564C43.4941 15.6564 44.1736 15.1788 44.9055 14.2235L46.6306 12.1536C47.1011 11.676 47.8852 11.4106 49.0353 11.2514C50.9172 11.2514 52.6946 12.3128 54.3675 14.4888C55.1516 15.4972 55.6221 16.4525 55.8835 17.4609L51.2309 22.8743C51.1786 21.4944 50.9172 20.2207 50.3945 19.1061C49.7149 17.567 48.8262 16.824 47.7284 16.824C47.3102 16.824 46.8397 17.0363 46.2647 17.4078C45.6897 17.7793 45.4283 18.2039 45.4283 18.5754C45.4283 19.0531 45.6374 19.5838 46.0033 20.2207C46.4738 20.9637 46.6829 21.4413 46.7874 21.6006C46.9965 22.2905 47.1011 23.1927 47.1011 24.2011C47.1011 28.2346 45.4805 30.9944 42.2394 32.4274C40.0961 33.3827 36.6982 33.8603 32.0456 33.8603C26.1384 33.8603 22.0609 35.1872 19.9176 37.8939C19.0812 38.9553 18.663 39.8045 18.663 40.4413C18.663 41.3436 19.1335 42.1397 19.9699 42.8296C20.8586 43.5196 21.695 43.838 22.6359 43.838C24.3088 43.838 27.5499 42.6704 32.3593 40.2821C38.0051 37.4693 42.5531 36.0363 46.0033 35.9832C49.1921 35.9302 51.8582 37.3631 54.0015 40.2821C55.7266 42.6173 57.0335 45.5363 57.7654 49.0922C58.445 52.2235 58.8109 54.6117 58.8109 56.2039M41.4553 20.0615C41.4553 16.3994 39.5211 14.595 35.7049 14.595C32.6207 14.595 29.6932 15.7095 26.9749 17.8855C23.9951 20.2207 22.5314 22.9274 22.5314 25.9525C22.5314 27.5978 23.1587 29.0307 24.4133 30.1983C25.668 31.3659 27.1317 31.9497 28.7522 31.9497C30.4251 31.9497 32.3593 31.3659 34.4503 30.0922C36.3323 28.9777 37.9005 27.7039 39.1552 26.2179C40.6712 24.4134 41.403 22.3436 41.403 20.0615" fill="url(#paint0_linear_370_96843)"/>
<path d="M101.886 5.41341H72.2981V12.6844C72.2981 12.6844 72.5594 12.7374 72.664 12.8436C72.7685 12.9497 72.8731 13.0559 72.9777 13.0559C72.7163 13.0559 72.6117 13.0559 72.5594 13.0559C72.5594 12.8966 74.755 12.419 79.1462 11.6229C80.7668 11.3045 82.3873 11.1983 84.0079 11.1983C90.6469 11.1983 94.9336 13.1089 96.8155 16.8771C98.0701 19.4246 98.7497 24.5196 98.7497 32.162V49.5168C98.1224 49.2514 95.77 48.2961 91.6925 46.5978C91.6925 45.6425 91.4833 45.0056 91.1174 44.7402C89.5491 45.6955 88.2422 46.3855 87.249 46.8631C84.0602 48.4022 80.3486 49.1453 76.1142 49.1453C70.2593 49.1453 65.7636 47.2877 62.627 43.5726C61.111 41.7682 60.3269 39.7514 60.3269 37.5223C60.3269 35.0279 61.5292 32.5335 63.9862 30.0922C68.691 25.3156 74.5459 22.9274 81.5509 22.9274C85.7853 22.9274 89.1832 23.9358 91.7447 25.8994V21.7598C90.4378 20.0615 89.1832 18.9469 87.9286 18.3631C86.7262 17.7793 85.0011 17.514 82.9101 17.6201C78.153 17.7263 73.7618 18.5754 69.7888 20.2737C68.0114 21.0168 66.2863 21.7067 64.6135 22.2905V18.9469C64.9794 18.6285 65.5545 18.0978 66.2863 17.4609C66.3909 17.3017 66.4954 17.1955 66.4954 17.1955V5.41341H57.3994V0H101.886V5.41341ZM91.6925 33.9665C91.6925 32.6397 90.1242 31.4721 87.0399 30.4106C84.4784 29.5615 82.335 29.0838 80.6099 29.0838C74.3368 29.0838 69.3706 31.3659 65.6067 35.9302C64.0907 37.7877 63.3589 39.2737 63.3589 40.4413C63.9862 42.6173 66.3909 43.7318 70.6775 43.7318C76.1665 43.7318 81.2373 42.352 85.7853 39.5391C89.7582 37.0978 91.7447 35.2402 91.7447 33.9665" fill="url(#paint1_linear_370_96843)"/>
<path d="M121.542 66.3408C121.542 69.3129 119.608 71.8603 115.739 73.9832C113.91 74.9916 111.976 75.4693 109.885 75.4693C107.48 75.4693 105.023 74.6201 102.514 72.9218C100.004 71.2235 98.3316 69.2598 97.3906 67.0307L104.291 61.6173C104.866 69.2598 106.957 73.081 110.616 73.081C112.707 73.081 113.753 71.8073 113.753 69.3129V10.986H121.594V66.2877L121.542 66.3408ZM127.606 5.41341H100.893V0H127.606V5.41341Z" fill="url(#paint2_linear_370_96843)"/>
<path d="M147 26.8547L142.086 29.986L137.068 27.0139L137.016 20.9106L141.877 17.7793L146.896 20.7514L147 26.8547Z" fill="url(#paint3_linear_370_96843)"/>
<path d="M147 45.8547L142.086 48.986L137.12 46.014L137.016 39.9637L141.93 36.8324L146.896 39.8045L147 45.8547Z" fill="url(#paint4_linear_370_96843)"/>
</g>
<defs>
<filter id="filter0_n_370_96843" x="0" y="0" width="147" height="76" filterUnits="userSpaceOnUse" color-interpolation-filters="sRGB">
<feFlood flood-opacity="0" result="BackgroundImageFix"/>
<feBlend mode="normal" in="SourceGraphic" in2="BackgroundImageFix" result="shape"/>
<feTurbulence type="fractalNoise" baseFrequency="2 2" stitchTiles="stitch" numOctaves="3" result="noise" seed="9418" />
<feColorMatrix in="noise" type="luminanceToAlpha" result="alphaNoise" />
<feComponentTransfer in="alphaNoise" result="coloredNoise1">
<feFuncA type="discrete" tableValues="1 1 1 1 1 1 1 1 1 1 1 1 1 1 1 1 1 1 1 1 1 1 1 1 1 1 1 1 1 1 1 1 1 1 1 1 1 1 1 1 1 1 1 1 1 1 1 1 1 1 1 0 0 0 0 0 0 0 0 0 0 0 0 0 0 0 0 0 0 0 0 0 0 0 0 0 0 0 0 0 0 0 0 0 0 0 0 0 0 0 0 0 0 0 0 0 0 0 0 0 "/>
</feComponentTransfer>
<feComposite operator="in" in2="shape" in="coloredNoise1" result="noise1Clipped" />
<feFlood flood-color="rgba(0, 0, 0, 0.25)" result="color1Flood" />
<feComposite operator="in" in2="noise1Clipped" in="color1Flood" result="color1" />
<feMerge result="effect1_noise_370_96843">
<feMergeNode in="shape" />
<feMergeNode in="color1" />
</feMerge>
</filter>
<linearGradient id="paint0_linear_370_96843" x1="0.0527344" y1="0" x2="207.481" y2="-10.6446" gradientUnits="userSpaceOnUse">
<stop stop-color="#856220"/>
<stop offset="0.275" stop-color="#F9D271"/>
<stop offset="0.5" stop-color="#BF923D"/>
<stop offset="0.75" stop-color="#4E341B"/>
<stop offset="1" stop-color="#BD8251"/>
</linearGradient>
<linearGradient id="paint1_linear_370_96843" x1="-6.14899" y1="-16.6615" x2="205.725" y2="-40.9531" gradientUnits="userSpaceOnUse">
<stop stop-color="#856220"/>
<stop offset="0.275" stop-color="#F4E683"/>
<stop offset="0.5" stop-color="#BF923D"/>
<stop offset="0.75" stop-color="#4E341B"/>
<stop offset="1" stop-color="#F1EA82"/>
</linearGradient>
<linearGradient id="paint2_linear_370_96843" x1="13.7635" y1="-33.6154" x2="172.201" y2="-63.6672" gradientUnits="userSpaceOnUse">
<stop stop-color="#856220"/>
<stop offset="0.275" stop-color="#F4E683"/>
<stop offset="0.5" stop-color="#BF923D"/>
<stop offset="0.75" stop-color="#4E341B"/>
<stop offset="1" stop-color="#F1EA82"/>
</linearGradient>
<linearGradient id="paint3_linear_370_96843" x1="137.016" y1="17.7793" x2="172.253" y2="15.8662" gradientUnits="userSpaceOnUse">
<stop stop-color="#856220"/>
<stop offset="0.275" stop-color="#F9D271"/>
<stop offset="0.5" stop-color="#BF923D"/>
<stop offset="0.75" stop-color="#4E341B"/>
<stop offset="1" stop-color="#BD8251"/>
</linearGradient>
<linearGradient id="paint4_linear_370_96843" x1="137.016" y1="36.8324" x2="172.252" y2="34.911" gradientUnits="userSpaceOnUse">
<stop stop-color="#856220"/>
<stop offset="0.275" stop-color="#F9D271"/>
<stop offset="0.5" stop-color="#BF923D"/>
<stop offset="0.75" stop-color="#4E341B"/>
<stop offset="1" stop-color="#BD8251"/>
</linearGradient>
<clipPath id="clip0_370_96843">
<rect width="147" height="76" fill="white"/>
</clipPath>
</defs>
</svg>
