<svg width="59" height="52" viewBox="0 0 59 52" fill="none" xmlns="http://www.w3.org/2000/svg">
<path fill-rule="evenodd" clip-rule="evenodd" d="M46.6033 0C47.6175 7.69855e-05 48.4392 0.819052 48.4392 1.8291V4.57227C48.4392 5.58232 47.6175 6.40129 46.6033 6.40137H45.9148V44.9199H51.7C51.6955 44.8835 51.6921 44.8462 51.6921 44.8086V29.4346C51.2624 29.4489 50.8153 29.5129 50.4031 29.6641C49.7548 29.9019 49.1696 30.357 48.8484 31.2871C48.6836 31.7646 48.1619 32.0194 47.6824 31.8555C47.2028 31.6913 46.9472 31.17 47.1121 30.6924C47.6327 29.1845 48.6631 28.3528 49.7683 27.9473C50.1759 27.7978 50.5898 27.707 50.988 27.6562C50.8286 27.4777 50.6492 27.302 50.45 27.1445C49.7897 26.623 49.0349 26.3646 48.2253 26.5879C47.7369 26.7224 47.231 26.4375 47.0955 25.9512C46.9602 25.4645 47.2474 24.96 47.7361 24.8252C49.2825 24.3988 50.6318 24.9529 51.5916 25.7109C51.8108 25.8842 52.0162 26.0731 52.2048 26.2695C52.2746 25.361 52.0604 24.4183 51.1287 23.5186C50.7647 23.167 50.7561 22.5871 51.1091 22.2246C51.4622 21.8622 52.0439 21.8537 52.408 22.2051C53.6511 23.4056 54.0317 24.7025 54.0515 25.8643C54.1353 25.8161 54.2208 25.7696 54.3074 25.7256C55.4884 25.125 57.0133 24.8852 58.5261 25.7197C58.9696 25.9645 59.131 26.5212 58.8855 26.9629C58.6397 27.4044 58.08 27.5638 57.6365 27.3193C56.7928 26.854 55.9331 26.9529 55.1433 27.3545C54.811 27.5235 54.509 27.7392 54.2498 27.9688C54.6176 28.054 55.005 28.1611 55.3826 28.3174C56.3232 28.7067 57.1467 29.3813 57.6687 30.6416C57.8619 31.1084 57.6374 31.6434 57.1687 31.8359C56.7 32.0281 56.1628 31.8055 55.9695 31.3389C55.6498 30.5674 55.2098 30.2261 54.6775 30.0059C54.3858 29.8852 54.055 29.7972 53.6638 29.7119C53.6208 29.7025 53.5754 29.6933 53.5291 29.6836V44.8086C53.5291 44.8462 53.5257 44.8835 53.5212 44.9199H55.0974C56.1116 44.92 56.9332 45.7391 56.9333 46.749V49.4922C56.9333 50.5022 56.1116 51.3212 55.0974 51.3213H49.2214C48.7146 51.3209 48.3035 50.912 48.3035 50.4072C48.3035 49.9024 48.7146 49.4925 49.2214 49.4922H55.0974V46.749H3.67358V49.4922H44.6023C45.1094 49.4922 45.5203 49.9022 45.5203 50.4072C45.5202 50.9122 45.1094 51.3213 44.6023 51.3213H3.67358C2.65928 51.3213 1.83667 50.5023 1.83667 49.4922V46.749C1.83678 45.739 2.65935 44.9199 3.67358 44.9199H5.47925C5.47482 44.8835 5.47144 44.8462 5.47144 44.8086V29.6836C5.42502 29.6933 5.37967 29.7025 5.33667 29.7119C4.9453 29.7973 4.61385 29.8851 4.32202 30.0059C3.78982 30.2262 3.34967 30.5674 3.03003 31.3389C2.83667 31.8056 2.29952 32.0282 1.83081 31.8359C1.36227 31.6433 1.13864 31.1083 1.33179 30.6416C1.85385 29.3814 2.6773 28.7067 3.61792 28.3174C3.99533 28.1612 4.38211 28.054 4.74976 27.9688C4.49059 27.7393 4.1893 27.5234 3.85718 27.3545C3.06724 26.9527 2.2069 26.8538 1.36304 27.3193C0.919603 27.5638 0.360833 27.4043 0.114991 26.9629C-0.130521 26.5212 0.0300434 25.9645 0.47339 25.7197C1.98629 24.885 3.51207 25.1249 4.69312 25.7256C4.77951 25.7695 4.86431 25.8162 4.948 25.8643C4.96784 24.7025 5.34938 23.4056 6.59253 22.2051C6.9565 21.854 7.53741 21.8626 7.89038 22.2246C8.24339 22.5871 8.23481 23.167 7.87085 23.5186C6.93936 24.4182 6.72495 25.3611 6.79468 26.2695C6.98335 26.073 7.18864 25.8842 7.40796 25.7109C8.36782 24.9527 9.71764 24.3986 11.2644 24.8252C11.753 24.9601 12.0393 25.4646 11.9041 25.9512C11.7685 26.4374 11.2626 26.7224 10.7742 26.5879C9.9647 26.3647 9.20981 26.6229 8.54956 27.1445C8.35023 27.302 8.17092 27.4776 8.01148 27.6562C8.40998 27.707 8.82434 27.7977 9.23218 27.9473C10.3373 28.3528 11.3667 29.1846 11.8875 30.6924C12.0523 31.17 11.7977 31.6912 11.3181 31.8555C10.8385 32.0196 10.316 31.7647 10.1511 31.2871C9.82998 30.3572 9.24559 29.902 8.59741 29.6641C8.18507 29.5128 7.73729 29.4489 7.30737 29.4346V44.8086C7.30737 44.8462 7.30399 44.8835 7.29956 44.9199H12.8562V6.40137H11.7087C10.6944 6.40137 9.87183 5.58236 9.87183 4.57227V1.8291C9.87183 0.819004 10.6944 7.36442e-09 11.7087 0H46.6033ZM14.6931 44.9199H21.8093V30.1777C21.8093 29.1676 22.6319 28.3486 23.6462 28.3486H35.1248C36.1389 28.3488 36.9607 29.1678 36.9607 30.1777V44.9199H44.0779V6.40137H14.6931V44.9199ZM23.6462 44.9199H28.4666V41.1514C28.4666 40.6463 28.8783 40.2363 29.3855 40.2363C29.8925 40.2365 30.3035 40.6465 30.3035 41.1514V44.9199H35.1248V30.1777H30.3035V38.4082C30.3032 38.9129 29.8923 39.322 29.3855 39.3223C28.8785 39.3223 28.4668 38.9131 28.4666 38.4082V30.1777H23.6462V44.9199ZM26.1707 18.2891C26.6778 18.2891 27.0896 18.6991 27.0896 19.2041V23.7764C27.0895 24.2497 26.7282 24.6395 26.2654 24.6865L26.1707 24.6904H21.5798L21.4851 24.6865C21.0533 24.6426 20.7098 24.3001 20.6658 23.8701L20.6619 23.7764V19.2041C20.6619 18.6991 21.0727 18.2891 21.5798 18.2891H26.1707ZM37.1902 18.2891C37.6973 18.2891 38.1091 18.6991 38.1091 19.2041V23.7764C38.1091 24.2496 37.7477 24.6395 37.2849 24.6865L37.1902 24.6904H32.5994L32.5046 24.6865C32.0728 24.6426 31.7293 24.3002 31.6853 23.8701L31.6804 23.7764V19.2041C31.6804 18.6991 32.0922 18.2891 32.5994 18.2891H37.1902ZM22.4978 22.8613H25.2527V20.1182H22.4978V22.8613ZM33.5173 22.8613H36.2722V20.1182H33.5173V22.8613ZM26.1707 10.0596C26.6778 10.0596 27.0896 10.4686 27.0896 10.9736V15.5459C27.0896 16.0193 26.7283 16.4091 26.2654 16.4561L26.1707 16.4609H21.5798L21.4851 16.4561C21.0533 16.4121 20.7097 16.0697 20.6658 15.6396L20.6619 15.5459V10.9736C20.6619 10.4686 21.0727 10.0596 21.5798 10.0596H26.1707ZM37.1902 10.0596C37.6973 10.0596 38.1091 10.4686 38.1091 10.9736V15.5459C38.1091 16.0192 37.7477 16.409 37.2849 16.4561L37.1902 16.4609H32.5994L32.5046 16.4561C32.0728 16.4121 31.7293 16.0697 31.6853 15.6396L31.6804 15.5459V10.9736C31.6804 10.4686 32.0922 10.0596 32.5994 10.0596H37.1902ZM22.4978 14.6318H25.2527V11.8877H22.4978V14.6318ZM33.5173 14.6318H36.2722V11.8877H33.5173V14.6318ZM11.7087 4.57227H46.6033V1.8291H11.7087V4.57227Z" fill="url(#paint0_linear_4175_447)"/>
<defs>
<linearGradient id="paint0_linear_4175_447" x1="17.3955" y1="8.85658" x2="49.3532" y2="55.6186" gradientUnits="userSpaceOnUse">
<stop stop-color="#3C2813"/>
<stop offset="1" stop-color="#5C421D"/>
</linearGradient>
</defs>
</svg>
