<svg width="48" height="48" viewBox="0 0 48 48" fill="none" xmlns="http://www.w3.org/2000/svg">
<mask id="mask0_4449_147" style="mask-type:alpha" maskUnits="userSpaceOnUse" x="0" y="0" width="48" height="48">
<rect width="48" height="48" fill="#D9D9D9"/>
</mask>
<g mask="url(#mask0_4449_147)">
<path d="M39.7073 44.277L33.2803 37.85C32.5199 38.39 31.6991 38.8596 30.8178 39.259C29.9364 39.658 29.028 39.978 28.0923 40.219V37.85C28.7306 37.655 29.3504 37.4351 29.9518 37.1905C30.5531 36.9455 31.1255 36.6216 31.6688 36.219L23.3228 27.8425V37.5765L14.7458 29H7.32278V19H14.4308L3.73828 8.30796L5.36928 6.65796L41.3383 42.6155L39.7073 44.277ZM37.7153 33.4655L36.1038 31.854C36.8858 30.695 37.4703 29.4481 37.8573 28.1135C38.2446 26.7788 38.4383 25.3883 38.4383 23.942C38.4383 20.6873 37.4959 17.7641 35.6113 15.1725C33.7266 12.5805 31.2203 10.873 28.0923 10.05V7.68096C31.8279 8.67829 34.8644 10.677 37.2018 13.677C39.5388 16.677 40.7073 20.1013 40.7073 23.95C40.7073 25.6626 40.4516 27.323 39.9403 28.931C39.4286 30.5386 38.687 32.0501 37.7153 33.4655ZM31.5923 27.3425L28.0923 23.8425V16.5925C29.441 17.3258 30.4831 18.3585 31.2188 19.6905C31.9548 21.0225 32.3228 22.459 32.3228 24C32.3228 24.5896 32.2619 25.1646 32.1403 25.725C32.0183 26.2853 31.8356 26.8245 31.5923 27.3425ZM23.3228 19.073L19.0073 14.7385L23.3228 10.4235V19.073ZM21.0538 32.046V25.623L16.6998 21.2695H9.59228V26.7305H15.7383L21.0538 32.046Z" fill="#E6D6B2"/>
</g>
</svg>
