<svg width="81" height="66" viewBox="0 0 81 66" fill="none" xmlns="http://www.w3.org/2000/svg">
<path d="M39.1602 0.578658C39.1602 0.897916 39.6804 1.15732 40.3208 1.15732C40.9611 1.15732 41.4814 0.897916 41.4814 0.578658C41.4814 0.259399 40.9611 0 40.3208 0C39.6804 0 39.1602 0.259399 39.1602 0.578658Z" fill="url(#paint0_linear_370_126946)"/>
<path d="M38.4746 2.59377C38.4746 3.09261 39.2951 3.51164 40.3156 3.51164C41.3362 3.51164 42.1566 3.09261 42.1566 2.59377C42.1566 2.09493 41.3362 1.6759 40.3156 1.6759C39.2951 1.6759 38.4746 2.07497 38.4746 2.59377Z" fill="url(#paint1_linear_370_126946)"/>
<path d="M35.6774 26.7382C32.0354 27.716 28.3534 26.7382 24.6513 26.7981C25.0515 26.5786 25.4518 26.3591 25.872 26.3392C27.8131 26.2194 29.7741 26.1795 31.7152 26.0598C33.216 25.96 34.7169 25.8004 36.2377 25.6607C36.2377 25.5211 36.2377 25.3814 36.2377 25.2417C36.1376 25.2417 36.0576 25.2417 35.9575 25.2417C33.2961 25.0821 30.6546 24.8227 27.9932 24.7828C24.6313 24.7429 21.5696 25.6607 19.2684 28.2946C17.9677 29.7911 16.707 31.3475 15.4062 32.9039C18.7081 33.1832 20.1889 35.3781 20.7292 38.6705C21.5696 37.4134 21.8698 36.2561 21.3295 35.1188C20.8292 34.0612 20.0888 33.1034 19.3884 31.986C20.0688 32.3252 20.7092 32.7044 21.3895 32.9638C21.6697 33.0835 22.15 33.1234 22.33 32.9638C23.1705 32.2055 24.051 31.7665 25.3917 32.425C24.5113 29.8111 22.8303 29.0728 20.329 29.6315C22.5502 27.8955 26.3323 27.4366 29.0538 28.554C32.9159 30.1303 34.6368 33.1633 34.8769 37.1939C35.077 40.6459 33.076 43.3796 29.7341 44.2575C28.1332 44.6766 25.6919 43.7986 24.7514 42.4418C24.2311 41.7035 24.2711 40.8055 24.8514 40.2668C25.4518 39.7281 26.6924 39.5884 27.2327 40.1072C27.4329 40.3067 27.5929 40.6858 27.5729 40.9652C27.4929 41.8032 27.673 42.0427 28.4934 42.0227C29.594 41.9828 30.3344 41.0051 30.0943 39.9276C29.6741 38.032 27.8131 36.9545 25.952 37.5132C25.6519 37.613 25.3517 37.6928 24.8714 37.8325C25.2917 36.8547 26.0321 36.755 26.6925 36.5155C27.4729 36.2162 28.3133 35.9568 29.0137 35.4979C30.2344 34.7197 30.5546 33.4027 29.9943 32.1257C29.494 30.9684 28.0932 30.3498 26.6925 30.689C26.6925 30.7689 26.6925 30.8686 26.7525 30.9484C27.9932 33.1433 27.7931 33.702 25.6319 34.8993C24.7714 35.3781 23.9109 36.0366 23.3706 36.8148C21.9498 38.9299 21.8898 41.1847 23.3106 43.3397C24.6513 45.4148 27.773 46.6919 30.1543 46.1132C36.3177 44.5967 39.4595 37.8524 35.3772 32.4649C35.1571 32.1656 34.917 31.8663 34.6968 31.567C34.7969 31.4872 34.8969 31.3874 34.997 31.3076C35.7174 32.1058 36.5379 32.8241 37.0982 33.702C37.6785 34.6199 37.9786 35.7174 38.4589 36.8747C40.38 32.9039 38.1788 30.6092 35.4573 28.4542C36.9981 29.0528 38.3589 29.0329 39.4795 27.7958C40.2799 26.8979 40.6401 25.8603 40.42 24.7628C38.7991 25.4412 37.2783 26.2593 35.6374 26.6983L35.6774 26.7382Z" fill="url(#paint2_linear_370_126946)"/>
<path d="M39.0791 21.8697C38.4388 22.0693 37.7584 22.1092 37.0981 22.1291C34.3566 22.2489 31.8552 21.3908 29.4338 20.2335C26.3522 18.757 23.3105 17.1607 20.1488 15.8637C14.6057 13.589 9.18273 14.0878 4.07993 17.2205C2.61913 18.1184 1.25838 19.196 0.517976 20.8322C0.658053 20.7723 0.758109 20.6725 0.878175 20.5727C3.8398 17.4999 7.44177 15.9635 11.7241 15.7639C17.9475 15.4646 23.0303 18.3579 28.1131 21.311C28.0731 21.3909 28.0531 21.4707 28.0131 21.5505C26.7324 20.9319 25.4517 20.3134 24.191 19.6748C21.6496 18.3978 19.0682 17.2006 16.2066 16.8215C9.92314 16.0034 4.72028 18.0586 0.578007 22.8076C-0.402532 23.925 -0.12238 24.5635 1.31841 24.8428C3.03936 22.4085 4.3801 21.2113 5.60077 21.1115C5.34063 21.4108 5.1205 21.6503 4.92039 21.9097C3.73975 23.3663 2.91929 25.0025 2.89928 26.8981C2.89928 27.6164 3.15942 28.3746 3.43958 29.053C3.55964 29.3324 4.05992 29.4322 4.3801 29.6317C4.5602 29.3124 4.84035 29.0131 4.92039 28.654C5.14052 27.7361 5.14052 26.7584 5.46069 25.8804C6.90148 21.8099 11.1238 19.176 15.8064 19.2758C18.828 19.3356 21.5295 20.473 24.211 21.6502C28.0131 23.3064 31.8952 24.5036 36.0975 24.1644C37.2982 24.0646 38.4988 23.7454 39.6795 23.466C40.2198 23.3264 40.4399 22.9672 40.1998 22.3486C39.9796 21.77 39.6995 21.6503 39.0992 21.8298L39.0791 21.8697Z" fill="url(#paint3_linear_370_126946)"/>
<path d="M25.7878 23.6455C22.8462 22.1689 19.8045 20.9518 16.5227 20.5726C12.2203 20.0738 8.19813 22.3685 6.53722 26.3393C4.61616 30.9885 7.87795 35.039 11.8601 34.9792C12.6606 34.9792 13.441 35.039 14.2415 35.0989C15.262 35.1588 16.1425 35.5179 16.8229 36.2961C17.5232 37.0943 17.3832 38.7305 16.5427 39.349C16.2826 39.5286 15.8623 39.5685 15.5422 39.5486C15.4021 39.5486 15.282 39.2094 15.302 39.2293C15.7823 38.8901 16.3226 38.7105 16.3826 38.4112C16.4627 38.072 16.2426 37.5532 15.9624 37.2738C15.4821 36.795 14.7217 36.5954 14.2214 37.0743C13.8212 37.4534 13.481 38.1518 13.501 38.7105C13.501 40.0075 14.9618 41.1049 16.3226 41.0451C17.5633 40.9852 18.6439 40.1472 19.0841 38.8302C19.5444 37.4335 19.2642 36.1764 18.1636 35.1588C17.123 34.181 15.8023 33.9216 14.4416 33.8019C12.6806 33.6423 11.0197 33.1833 9.47883 32.3054C8.11809 31.5272 7.31765 29.2325 7.93799 28.155C8.33821 28.9332 8.67839 29.7912 9.17867 30.5295C10.0391 31.7666 11.68 32.1258 13.0208 31.5072C13.8813 31.1082 14.3615 30.4497 14.3415 29.4919C14.3415 28.5341 13.8412 27.8956 12.7807 27.5165C12.8607 27.7759 12.9207 27.8956 12.9207 27.9954C12.9207 28.5142 13.0608 29.2325 12.8007 29.4919C12.5205 29.7513 11.7401 29.6915 11.3198 29.4919C9.15865 28.5142 8.63837 25.8404 10.1792 24.0446C11.62 22.3485 13.5611 21.69 15.7023 21.5504C18.7439 21.3508 21.5655 22.2088 24.367 23.2464C24.8273 23.426 25.3275 23.5258 25.8078 23.6655L25.7878 23.6455Z" fill="url(#paint4_linear_370_126946)"/>
<path d="M14.1688 32.0664C14.0488 32.1861 13.9287 32.3058 13.8086 32.4455C13.8487 32.5054 13.8687 32.5652 13.9087 32.6051C14.0888 32.5652 14.2689 32.5652 14.409 32.5054C16.1499 31.8469 18.031 28.8538 17.8509 26.9982C17.7308 25.8408 17.3506 24.7833 16.21 24.2246C15.5296 23.8854 14.8292 23.8455 14.2689 24.4241C13.7286 24.9828 13.6485 25.6613 14.0087 26.3596C14.2689 26.8385 14.5891 27.2975 14.8292 27.7763C15.7097 29.4724 15.5096 30.7295 14.1688 32.0664Z" fill="url(#paint5_linear_370_126946)"/>
<path d="M30.4766 38.6311C30.9368 39.0502 31.4971 39.2497 32.0574 38.8307C32.7178 38.3518 32.8979 37.6534 32.7378 36.8952C32.5777 36.1569 32.0374 35.658 31.317 35.7379C30.3365 35.8376 29.3559 36.1569 28.1953 36.4362C29.1358 37.3541 29.7962 38.0126 30.4966 38.6311H30.4766Z" fill="url(#paint6_linear_370_126946)"/>
<path d="M18.5692 26.0598C19.6298 25.142 20.5903 24.284 21.5908 23.426C20.6303 23.3461 19.5697 22.7076 18.6692 23.7053C18.0089 24.4436 18.3491 25.2617 18.5692 26.0598Z" fill="url(#paint7_linear_370_126946)"/>
<path d="M44.968 26.2186C48.61 27.1564 52.2921 26.1388 55.9941 26.1587C55.5939 25.9393 55.1736 25.7397 54.7534 25.7198C52.8123 25.62 50.8513 25.6 48.9102 25.5003C47.4094 25.4205 45.8885 25.2608 44.3877 25.1411C44.3877 25.0014 44.3877 24.8618 44.3677 24.7221C44.4678 24.7221 44.5478 24.7221 44.6479 24.7221C47.2893 24.5225 49.9508 24.2432 52.5922 24.1634C55.9541 24.0836 59.0158 24.9615 61.357 27.5755C62.6778 29.072 63.9585 30.5885 65.2792 32.1448C61.9774 32.4641 60.5166 34.679 60.0363 37.9713C59.1758 36.7142 58.8757 35.5769 59.396 34.4196C59.8762 33.3421 60.6166 32.3843 61.297 31.2669C60.6166 31.626 59.9763 31.9852 59.3159 32.2845C59.0358 32.4042 58.5555 32.4641 58.3754 32.2845C57.5149 31.5263 56.6344 31.1073 55.3137 31.7857C56.1542 29.1518 57.8351 28.4135 60.3565 28.9323C58.1153 27.2163 54.3332 26.8172 51.6117 27.9745C47.7696 29.5908 46.0887 32.6636 45.8885 36.6743C45.7285 40.1263 47.7696 42.84 51.1114 43.6781C52.7123 44.0771 55.1336 43.1593 56.0741 41.8024C56.5944 41.0641 56.5344 40.1463 55.9541 39.6275C55.3337 39.0887 54.0931 38.969 53.5728 39.4878C53.3727 39.6873 53.2126 40.0664 53.2526 40.3458C53.3326 41.1838 53.1525 41.4432 52.3321 41.4233C51.2315 41.4033 50.4711 40.4256 50.7112 39.3481C51.1114 37.4525 52.9524 36.3551 54.8134 36.8938C55.1136 36.9736 55.4138 37.0734 55.9141 37.2131C55.4938 36.2353 54.7334 36.1555 54.073 35.9161C53.2726 35.6168 52.4521 35.3574 51.7318 34.9184C50.4911 34.1602 50.1509 32.8432 50.7112 31.5662C51.2115 30.4089 52.5922 29.7704 53.993 30.0896C53.993 30.1694 53.993 30.2692 53.933 30.349C52.7123 32.5639 52.9324 33.1226 55.1136 34.2799C55.9741 34.7388 56.8546 35.3973 57.3949 36.1755C58.8357 38.2706 58.9157 40.5254 57.5349 42.7003C56.2142 44.7755 53.1125 46.1124 50.7112 45.5537C44.5478 44.117 41.306 37.4126 45.3282 31.9653C45.5484 31.666 45.7685 31.3666 45.9886 31.0673C45.8886 30.9875 45.7885 30.8878 45.6884 30.808C44.9881 31.6061 44.1676 32.3444 43.6073 33.2423C43.047 34.1602 42.7468 35.2576 42.2866 36.4349C40.3055 32.4841 42.4867 30.1495 45.1882 27.9745C43.6673 28.5931 42.2866 28.5931 41.166 27.356C40.3655 26.478 39.9853 25.4404 40.1854 24.343C41.8263 25.0014 43.3472 25.7996 44.9881 26.2186H44.968Z" fill="url(#paint8_linear_370_126946)"/>
<path d="M41.5054 21.3907C42.1458 21.5703 42.8262 21.6102 43.5065 21.6302C46.248 21.7299 48.7294 20.832 51.1507 19.6547C54.2124 18.1383 57.2341 16.5021 60.3758 15.1652C65.8988 12.8306 71.3218 13.2696 76.4646 16.3424C77.9455 17.2204 79.3062 18.2979 80.0866 19.9141C79.9466 19.8543 79.8265 19.7545 79.7264 19.6547C76.7248 16.6218 73.1028 15.1253 68.8204 14.9656C62.597 14.7461 57.5543 17.6993 52.4915 20.7123C52.5315 20.7921 52.5515 20.8719 52.5915 20.9517C53.8522 20.3132 55.1329 19.6947 56.3936 19.0362C58.915 17.7192 61.4764 16.5021 64.358 16.103C70.6414 15.2051 75.8643 17.2004 80.0466 21.8896C81.0271 22.987 80.767 23.6455 79.3262 23.9448C77.5652 21.5304 76.2245 20.3531 75.0038 20.2733C75.264 20.5726 75.4841 20.8121 75.6842 21.0714C76.8849 22.5081 77.7253 24.1443 77.7453 26.0399C77.7453 26.7583 77.5052 27.5165 77.2451 28.1949C77.125 28.4743 76.6247 28.594 76.3046 28.7736C76.1245 28.4543 75.8443 28.155 75.7643 27.8158C75.5441 26.8979 75.5241 25.9202 75.204 25.0422C73.7031 20.9916 69.4608 18.3977 64.7782 18.5573C61.7566 18.6571 59.0751 19.8343 56.3936 21.0315C52.6115 22.7476 48.7494 23.9847 44.5271 23.6854C43.3264 23.6056 42.1258 23.3063 40.9451 23.0269C40.4048 22.9072 40.1847 22.5281 40.4048 21.9095C40.625 21.3109 40.8851 21.2111 41.5054 21.3907Z" fill="url(#paint9_linear_370_126946)"/>
<path d="M54.8344 23.0063C57.756 21.4899 60.7777 20.2527 64.0595 19.8337C68.3619 19.295 72.4041 21.5497 74.105 25.4806C76.0861 30.1099 72.8643 34.2003 68.8821 34.1804C68.0817 34.1804 67.3013 34.2602 66.5008 34.3201C65.4803 34.3999 64.5998 34.759 63.9194 35.5572C63.2391 36.3753 63.3791 38.0115 64.2396 38.6101C64.4997 38.7897 64.92 38.8296 65.2401 38.8096C65.3802 38.8096 65.4803 38.4704 65.4803 38.4704C65 38.1312 64.4597 37.9516 64.3797 37.6723C64.2996 37.3331 64.5198 36.8143 64.7799 36.5349C65.2602 36.0361 66.0006 35.8565 66.5208 36.3154C66.9411 36.6946 67.2613 37.3929 67.2613 37.9317C67.2613 39.2287 65.8205 40.3461 64.4797 40.2862C63.239 40.2463 62.1384 39.4082 61.6982 38.1113C61.2179 36.7145 61.4981 35.4574 62.5587 34.4198C63.5792 33.4222 64.9 33.1428 66.2607 33.0231C68.0217 32.8435 69.6826 32.3646 71.2034 31.4667C72.5442 30.6686 73.3246 28.3739 72.7042 27.2964C72.304 28.0746 71.9839 28.9525 71.4836 29.6908C70.6431 30.9279 69.0022 31.327 67.6415 30.7085C66.781 30.3293 66.3007 29.6709 66.2807 28.7131C66.2807 27.7553 66.761 27.1168 67.8216 26.7177C67.7415 26.9771 67.6815 27.0968 67.6815 27.1966C67.7015 27.7154 67.5414 28.4337 67.8216 28.6931C68.1017 28.9326 68.8822 28.8727 69.3024 28.6732C71.4436 27.6755 71.9438 24.9818 70.383 23.2059C68.9222 21.5298 66.9811 20.8913 64.8199 20.7915C61.7782 20.6319 58.9567 21.5098 56.1752 22.5873C55.7149 22.7669 55.2146 22.8866 54.7344 23.0263L54.8344 23.0063Z" fill="url(#paint10_linear_370_126946)"/>
<path d="M66.5367 31.3074C66.6567 31.4272 66.7768 31.5469 66.9169 31.6666C66.8769 31.7265 66.8568 31.7863 66.8168 31.8262C66.6367 31.8063 66.4566 31.7863 66.2965 31.7265C64.5356 31.0879 62.6345 28.1348 62.7946 26.2592C62.8947 25.1018 63.2749 24.0443 64.3955 23.4656C65.0759 23.1065 65.7562 23.0666 66.3366 23.6452C66.8969 24.2039 66.9769 24.8823 66.6167 25.5807C66.3766 26.0596 66.0564 26.5185 65.8163 27.0174C64.9558 28.7135 65.1559 29.9705 66.5166 31.3074H66.5367Z" fill="url(#paint11_linear_370_126946)"/>
<path d="M50.3096 38.0714C49.8493 38.5104 49.309 38.69 48.7487 38.2909C48.0883 37.812 47.9082 37.1137 48.0483 36.3554C48.1884 35.6171 48.7287 35.0983 49.4491 35.1781C50.4296 35.2779 51.4102 35.5772 52.5908 35.8366C51.6503 36.7545 50.9899 37.4329 50.3096 38.0714Z" fill="url(#paint12_linear_370_126946)"/>
<path d="M62.0593 25.3615C60.9987 24.4636 60.0181 23.6256 59.0176 22.7676C59.9781 22.6877 61.0387 22.0293 61.9392 23.007C62.6196 23.7453 62.2594 24.5634 62.0593 25.3615Z" fill="url(#paint13_linear_370_126946)"/>
<path d="M39.1602 24.1031C39.1602 25.001 39.6804 25.7193 40.3208 25.7193C40.9611 25.7193 41.4814 25.001 41.4814 24.1031C41.4814 23.2051 40.9611 22.4868 40.3208 22.4868C39.6804 22.4868 39.1602 23.2051 39.1602 24.1031Z" fill="url(#paint14_linear_370_126946)"/>
<path d="M38.4746 35.1974C38.4746 36.6141 39.2951 37.7715 40.3156 37.7715C41.3362 37.7715 42.1566 36.6141 42.1566 35.1974C42.1566 33.7807 41.3362 32.6234 40.3156 32.6234C39.2951 32.6234 38.4746 33.7807 38.4746 35.1974Z" fill="url(#paint15_linear_370_126946)"/>
<path d="M39.1602 38.9693C39.1602 39.4083 39.6804 39.7674 40.3208 39.7674C40.9611 39.7674 41.4814 39.4083 41.4814 38.9693C41.4814 38.5303 40.9611 38.1711 40.3208 38.1711C39.6804 38.1711 39.1602 38.5303 39.1602 38.9693Z" fill="url(#paint16_linear_370_126946)"/>
<path d="M38.4746 44.4561C38.4746 45.1545 39.2951 45.7331 40.3156 45.7331C41.3362 45.7331 42.1566 45.1545 42.1566 44.4561C42.1566 43.7577 41.3362 43.1791 40.3156 43.1791C39.2951 43.1791 38.4746 43.7577 38.4746 44.4561Z" fill="url(#paint17_linear_370_126946)"/>
<path d="M44.2612 48.2669C44.6214 48.5861 45.0616 48.8056 45.3618 49.1847C45.8821 49.8033 45.662 50.6014 44.9016 50.9007C43.6409 51.3796 42.4202 50.0028 41.8799 48.9852C41.5597 48.3866 41.1795 47.4887 41.0594 46.8502C40.8994 46.0321 40.7993 45.2738 40.7793 44.6153C40.7793 44.5156 40.9794 44.316 41.0194 44.3959C41.1995 44.9146 41.5797 45.9123 42.02 46.2515L44.2612 48.2669Z" fill="url(#paint18_linear_370_126946)"/>
<path d="M43.1821 53.6937C41.4612 54.0529 40.0404 51.6584 39.9403 50.2018C39.8202 48.406 40.1004 46.5902 40.4606 44.8343C40.4606 44.7744 40.5607 44.7944 40.5807 44.8343C40.6807 46.3508 40.8608 48.1865 41.6012 49.4635C41.8814 49.9424 42.4817 50.5211 42.8419 50.9601C43.2822 51.5188 43.7624 51.6784 43.9225 52.3967C44.0426 52.9155 43.7624 53.574 43.1821 53.6738V53.6937Z" fill="url(#paint19_linear_370_126946)"/>
<path d="M39.5996 52.4977C39.5996 52.4977 39.6596 52.4179 39.6797 52.4578C40.4801 53.9144 41.6407 54.8124 43.2816 55.1117C43.6018 55.1715 43.922 55.2114 44.2422 55.2114C44.5623 55.2114 44.8825 55.1316 45.1827 55.2513C45.4228 55.3511 45.3828 55.5307 45.5229 55.2114C45.703 54.8124 45.5829 54.3335 45.3428 53.9943C45.1827 53.7748 44.9826 53.6151 44.7424 53.4954C44.6224 53.4356 44.2422 53.256 44.0821 53.2759C43.902 53.2759 43.7819 53.4356 43.882 53.5553C44.2822 53.6351 44.2422 54.1339 43.982 54.3135C43.5218 54.6727 42.8014 54.3135 42.8814 53.675C42.9615 53.1961 43.5218 52.9168 43.962 52.9567C44.5423 52.9966 45.1827 53.3757 45.5629 53.8346C46.0031 54.3933 46.1232 55.0718 45.9631 55.7103C45.723 56.668 45.0026 56.7878 45.0026 56.7878C45.0026 56.7878 47.9842 57.6657 48.3244 58.6634C48.4645 59.1024 48.3644 59.5214 48.0443 59.8606C47.2638 60.6588 46.1432 60.0402 45.3228 59.6811C44.9626 59.5214 44.6224 59.3418 44.3222 59.1423C44.6424 59.721 45.0226 60.559 44.8625 61.2175C44.6024 62.3349 44.1421 62.6741 43.7019 63.0532C43.7019 63.0532 44.9826 60.9381 41.0804 57.6458C39.2394 56.0894 39.6797 52.4578 39.6797 52.4578L39.5996 52.4977Z" fill="url(#paint20_linear_370_126946)"/>
<path d="M42.2035 44.5555C42.2035 45.2539 41.3831 45.8325 40.3625 45.8325C39.3419 45.8325 38.5215 45.2539 38.5215 44.5555C38.5215 43.8571 39.3419 43.2784 40.3625 43.2784C41.3831 43.2784 42.2035 43.8571 42.2035 44.5555Z" fill="url(#paint21_linear_370_126946)"/>
<path d="M40.4603 61.1978C40.4603 61.1978 41.9611 65.4279 40.4002 65.2484C38.8394 65.0688 40.3402 61.3973 40.4603 61.1978Z" fill="url(#paint22_linear_370_126946)"/>
<path d="M36.601 48.2081C36.2408 48.5274 35.8005 48.7469 35.5004 49.126C34.9801 49.7446 35.2002 50.5427 35.9606 50.842C37.2213 51.3209 38.442 49.9441 38.9823 48.9265C39.3025 48.3279 39.6827 47.43 39.8027 46.7914C39.9628 45.9733 40.0629 45.2151 40.0829 44.5566C40.0829 44.4569 39.8828 44.2573 39.8428 44.3371C39.6627 44.8559 39.2825 45.8536 38.8422 46.1928L36.601 48.2081Z" fill="url(#paint23_linear_370_126946)"/>
<path d="M37.6642 53.635C39.3852 53.9941 40.806 51.5997 40.906 50.1431C41.0261 48.3473 40.7459 46.5315 40.3857 44.7756C40.3857 44.7157 40.2857 44.7357 40.2657 44.7756C40.1656 46.2921 39.9855 48.1278 39.2451 49.4048C38.965 49.8837 38.3646 50.4624 38.0044 50.9013C37.5642 51.46 37.0839 51.6197 36.9238 52.338C36.8038 52.8568 37.0839 53.5153 37.6642 53.615V53.635Z" fill="url(#paint24_linear_370_126946)"/>
<path d="M41.2573 52.4373C41.2573 52.4373 41.1973 52.3575 41.1772 52.3974C40.3768 53.854 39.2162 54.7519 37.5753 55.0512C37.2551 55.1111 36.9349 55.151 36.6147 55.151C36.2946 55.151 35.9744 55.0712 35.6742 55.1909C35.4341 55.2907 35.4741 55.4703 35.334 55.151C35.1539 54.7519 35.274 54.273 35.5141 53.9338C35.6742 53.7143 35.8743 53.5547 36.1145 53.435C36.2345 53.3751 36.6147 53.1955 36.7748 53.2155C36.9549 53.2155 37.075 53.3751 36.9749 53.4948C36.5747 53.5747 36.6147 54.0735 36.8749 54.2531C37.3351 54.6123 38.0555 54.2531 37.9755 53.6146C37.8954 53.1357 37.3351 52.8563 36.8949 52.8962C36.3146 52.9362 35.6742 53.3153 35.294 53.7742C34.8538 54.3329 34.7337 55.0113 34.8938 55.6498C35.1339 56.6076 35.8543 56.7273 35.8543 56.7273C35.8543 56.7273 32.8727 57.6053 32.5325 58.603C32.3924 59.042 32.4925 59.461 32.8126 59.8002C33.5931 60.5984 34.7137 59.9798 35.5341 59.6206C35.8943 59.461 36.2345 59.2814 36.5347 59.0819C36.2145 59.6605 35.8343 60.4986 35.9944 61.1571C36.2545 62.2745 36.7148 62.6137 37.155 62.9928C37.155 62.9928 35.8743 60.8777 39.7765 57.5854C41.6175 56.029 41.1772 52.3974 41.1772 52.3974L41.2573 52.4373Z" fill="url(#paint25_linear_370_126946)"/>
<path d="M40.3976 61.1373C40.3976 61.1373 38.8968 65.3675 40.4577 65.1879C42.0185 65.0083 40.5177 61.3369 40.3976 61.1373Z" fill="url(#paint26_linear_370_126946)"/>
<path d="M41.0215 57.7063V3.73169H39.6607V57.7063H41.0215Z" fill="url(#paint27_linear_370_126946)"/>
<defs>
<linearGradient id="paint0_linear_370_126946" x1="40.3208" y1="0" x2="40.3208" y2="1.15732" gradientUnits="userSpaceOnUse">
<stop stop-color="#6F5123"/>
<stop offset="1" stop-color="#33210F"/>
</linearGradient>
<linearGradient id="paint1_linear_370_126946" x1="40.3156" y1="1.6759" x2="40.3156" y2="3.51164" gradientUnits="userSpaceOnUse">
<stop stop-color="#6F5123"/>
<stop offset="1" stop-color="#33210F"/>
</linearGradient>
<linearGradient id="paint2_linear_370_126946" x1="27.9449" y1="24.7628" x2="27.9449" y2="46.2529" gradientUnits="userSpaceOnUse">
<stop stop-color="#6F5123"/>
<stop offset="1" stop-color="#33210F"/>
</linearGradient>
<linearGradient id="paint3_linear_370_126946" x1="20.1482" y1="14.4547" x2="20.1482" y2="29.6317" gradientUnits="userSpaceOnUse">
<stop stop-color="#6F5123"/>
<stop offset="1" stop-color="#33210F"/>
</linearGradient>
<linearGradient id="paint4_linear_370_126946" x1="15.8893" y1="20.505" x2="15.8893" y2="41.0474" gradientUnits="userSpaceOnUse">
<stop stop-color="#6F5123"/>
<stop offset="1" stop-color="#33210F"/>
</linearGradient>
<linearGradient id="paint5_linear_370_126946" x1="15.826" y1="23.9775" x2="15.826" y2="32.6051" gradientUnits="userSpaceOnUse">
<stop stop-color="#6F5123"/>
<stop offset="1" stop-color="#33210F"/>
</linearGradient>
<linearGradient id="paint6_linear_370_126946" x1="30.494" y1="35.7295" x2="30.494" y2="39.0624" gradientUnits="userSpaceOnUse">
<stop stop-color="#6F5123"/>
<stop offset="1" stop-color="#33210F"/>
</linearGradient>
<linearGradient id="paint7_linear_370_126946" x1="19.937" y1="23.1514" x2="19.937" y2="26.0598" gradientUnits="userSpaceOnUse">
<stop stop-color="#6F5123"/>
<stop offset="1" stop-color="#33210F"/>
</linearGradient>
<linearGradient id="paint8_linear_370_126946" x1="52.706" y1="24.1584" x2="52.706" y2="45.6812" gradientUnits="userSpaceOnUse">
<stop stop-color="#6F5123"/>
<stop offset="1" stop-color="#33210F"/>
</linearGradient>
<linearGradient id="paint9_linear_370_126946" x1="60.4759" y1="13.6808" x2="60.4759" y2="28.7736" gradientUnits="userSpaceOnUse">
<stop stop-color="#6F5123"/>
<stop offset="1" stop-color="#33210F"/>
</linearGradient>
<linearGradient id="paint10_linear_370_126946" x1="64.7201" y1="19.7548" x2="64.7201" y2="40.2885" gradientUnits="userSpaceOnUse">
<stop stop-color="#6F5123"/>
<stop offset="1" stop-color="#33210F"/>
</linearGradient>
<linearGradient id="paint11_linear_370_126946" x1="64.851" y1="23.2018" x2="64.851" y2="31.8262" gradientUnits="userSpaceOnUse">
<stop stop-color="#6F5123"/>
<stop offset="1" stop-color="#33210F"/>
</linearGradient>
<linearGradient id="paint12_linear_370_126946" x1="50.2974" y1="35.17" x2="50.2974" y2="38.5128" gradientUnits="userSpaceOnUse">
<stop stop-color="#6F5123"/>
<stop offset="1" stop-color="#33210F"/>
</linearGradient>
<linearGradient id="paint13_linear_370_126946" x1="60.6764" y1="22.4768" x2="60.6764" y2="25.3615" gradientUnits="userSpaceOnUse">
<stop stop-color="#6F5123"/>
<stop offset="1" stop-color="#33210F"/>
</linearGradient>
<linearGradient id="paint14_linear_370_126946" x1="40.3208" y1="22.4868" x2="40.3208" y2="25.7193" gradientUnits="userSpaceOnUse">
<stop stop-color="#6F5123"/>
<stop offset="1" stop-color="#33210F"/>
</linearGradient>
<linearGradient id="paint15_linear_370_126946" x1="40.3156" y1="32.6234" x2="40.3156" y2="37.7715" gradientUnits="userSpaceOnUse">
<stop stop-color="#6F5123"/>
<stop offset="1" stop-color="#33210F"/>
</linearGradient>
<linearGradient id="paint16_linear_370_126946" x1="40.3208" y1="38.1711" x2="40.3208" y2="39.7674" gradientUnits="userSpaceOnUse">
<stop stop-color="#6F5123"/>
<stop offset="1" stop-color="#33210F"/>
</linearGradient>
<linearGradient id="paint17_linear_370_126946" x1="40.3156" y1="43.1791" x2="40.3156" y2="45.7331" gradientUnits="userSpaceOnUse">
<stop stop-color="#6F5123"/>
<stop offset="1" stop-color="#33210F"/>
</linearGradient>
<linearGradient id="paint18_linear_370_126946" x1="43.2123" y1="44.3774" x2="43.2123" y2="50.9988" gradientUnits="userSpaceOnUse">
<stop stop-color="#6F5123"/>
<stop offset="1" stop-color="#33210F"/>
</linearGradient>
<linearGradient id="paint19_linear_370_126946" x1="41.931" y1="44.7965" x2="41.931" y2="53.7299" gradientUnits="userSpaceOnUse">
<stop stop-color="#6F5123"/>
<stop offset="1" stop-color="#33210F"/>
</linearGradient>
<linearGradient id="paint20_linear_370_126946" x1="43.9929" y1="52.4467" x2="43.9929" y2="63.0532" gradientUnits="userSpaceOnUse">
<stop stop-color="#6F5123"/>
<stop offset="1" stop-color="#33210F"/>
</linearGradient>
<linearGradient id="paint21_linear_370_126946" x1="40.3625" y1="43.2784" x2="40.3625" y2="45.8325" gradientUnits="userSpaceOnUse">
<stop stop-color="#6F5123"/>
<stop offset="1" stop-color="#33210F"/>
</linearGradient>
<linearGradient id="paint22_linear_370_126946" x1="40.4026" y1="61.1978" x2="40.4026" y2="65.2539" gradientUnits="userSpaceOnUse">
<stop stop-color="#6F5123"/>
<stop offset="1" stop-color="#33210F"/>
</linearGradient>
<linearGradient id="paint23_linear_370_126946" x1="37.6498" y1="44.3187" x2="37.6498" y2="50.9401" gradientUnits="userSpaceOnUse">
<stop stop-color="#6F5123"/>
<stop offset="1" stop-color="#33210F"/>
</linearGradient>
<linearGradient id="paint24_linear_370_126946" x1="38.9154" y1="44.7378" x2="38.9154" y2="53.6712" gradientUnits="userSpaceOnUse">
<stop stop-color="#6F5123"/>
<stop offset="1" stop-color="#33210F"/>
</linearGradient>
<linearGradient id="paint25_linear_370_126946" x1="36.864" y1="52.3862" x2="36.864" y2="62.9928" gradientUnits="userSpaceOnUse">
<stop stop-color="#6F5123"/>
<stop offset="1" stop-color="#33210F"/>
</linearGradient>
<linearGradient id="paint26_linear_370_126946" x1="40.4553" y1="61.1373" x2="40.4553" y2="65.1935" gradientUnits="userSpaceOnUse">
<stop stop-color="#6F5123"/>
<stop offset="1" stop-color="#33210F"/>
</linearGradient>
<linearGradient id="paint27_linear_370_126946" x1="41.0215" y1="30.719" x2="39.6607" y2="30.719" gradientUnits="userSpaceOnUse">
<stop stop-color="#6F5123"/>
<stop offset="1" stop-color="#33210F"/>
</linearGradient>
</defs>
</svg>
