<svg width="29" height="28" viewBox="0 0 29 28" fill="none" xmlns="http://www.w3.org/2000/svg">
<path d="M7.76758 1.99634C8.57308 -0.0442542 10.721 -0.635208 12.3857 0.760986C13.4058 1.56639 13.9965 2.74762 14.8555 3.71411L20.2793 9.72876C20.6499 10.2083 21.3136 10.6595 22.0635 11.0608C22.6761 9.67417 23.7548 8.75708 24.9678 8.75708C26.8471 8.75736 28.4043 10.959 28.4043 13.6975C28.4042 16.4359 26.8471 18.6377 24.9678 18.6379C23.8821 18.6379 22.9041 17.9026 22.2715 16.7542C21.3772 17.1992 20.556 17.7184 20.127 18.2737L14.7031 24.2874C13.8439 25.254 13.2537 26.436 12.2334 27.2415C10.5687 28.6376 8.42075 28.0466 7.61523 26.0061C6.32644 22.623 10.0318 19.3476 12.7705 17.8977C14.3814 17.0386 16.7973 16.0178 18.5156 15.6956C19.618 15.4805 20.6804 15.3056 21.6885 15.178C21.6461 14.9847 21.6126 14.7861 21.5869 14.5833C18.0718 14.9032 14.2784 15.5239 11.4814 17.1409C10.1927 17.8927 8.63541 19.5034 7.4541 20.47C5.95051 21.6514 5.52108 22.9408 3.58789 23.3704C2.19988 23.6906 0.440584 22.9492 0.15625 21.4104C0.153391 21.3949 0.139741 21.3831 0.124023 21.3831C0.108659 21.3831 0.0948589 21.3717 0.0917969 21.3567C-0.545488 18.2219 2.22787 15.4612 5.29785 13.9329C2.28797 12.3901 -0.386992 9.6702 0.240234 6.58618C0.241767 6.57864 0.246301 6.57229 0.251953 6.56763L0.292969 6.552C0.298665 6.54716 0.303256 6.54022 0.304688 6.53247C0.58926 4.99392 2.34842 4.2532 3.73633 4.57349C5.66944 5.00307 6.09909 6.29154 7.60254 7.4729C8.7838 8.43939 10.3412 10.0501 11.6299 10.802C14.3752 12.3891 18.0802 13.0168 21.54 13.342C21.5493 13.1546 21.5663 12.9702 21.5898 12.7893C20.657 12.6652 19.6791 12.5042 18.668 12.3069C16.9497 11.9846 14.5337 10.9638 12.9229 10.1047C10.1842 8.65487 6.47897 5.37937 7.76758 1.99634Z" fill="#9C1D26"/>
</svg>
