<svg width="124" height="152" viewBox="0 0 124 152" fill="none" xmlns="http://www.w3.org/2000/svg">
<g opacity="0.1">
<path d="M87.3534 34.6539C76.2272 26.9042 62.3194 35.4697 61.9104 50.0718C61.7467 56.2715 63.7102 61.6556 66.4917 66.7133C75.409 83.11 95.9434 87.2704 110.015 77.155C110.997 76.5024 111.978 75.9314 113.042 75.2787C112.96 76.5024 112.551 77.155 112.06 77.726C103.388 86.6178 87.3534 88.7388 77.1271 82.1311C64.9373 74.2998 59.3742 61.9003 57.329 46.8087C55.2019 30.7383 64.6101 17.6861 75.1637 13.4442C85.4718 9.2838 96.1071 8.6312 106.497 12.9547C109.524 14.2599 112.469 15.8099 115.333 17.523C119.423 19.8887 123.268 13.8521 119.259 11.3232C119.259 11.3232 119.178 11.3232 119.096 11.3232C106.824 3.73663 93.98 1.77881 80.3995 5.77603C58.2289 12.3837 45.7119 40.2011 54.4656 63.3687C62.1558 83.4363 84.5718 97.0595 104.452 85.5573C107.888 83.5179 111.16 81.0706 114.514 78.8681H114.596C114.187 82.1311 113.451 85.3942 111.896 88.2493C105.597 99.7515 103.388 101.628 91.1166 111.498C87.8442 114.109 82.6084 115.904 80.2359 119.575C76.6362 124.959 79.0905 135.319 83.7537 138.011H83.8355C86.2898 130.016 91.0349 123.898 96.1889 118.106C102.816 110.764 108.215 106.033 112.306 96.4069C112.633 95.7543 114.105 92.3281 114.514 91.7571C113.942 94.857 113.86 95.9991 113.451 98.12C111.897 107.012 107.151 119.411 108.542 128.711C109.36 134.177 110.424 136.542 113.533 138.99C116.723 141.6 121.632 139.316 122.45 137.032C118.523 137.032 115.169 132.627 114.351 130.343C112.387 124.551 114.351 114.354 115.578 106.522C117.132 96.978 118.769 87.4336 119.914 77.8076C120.405 73.4841 119.996 69.079 119.996 63.695C119.996 63.695 119.996 63.6134 119.914 63.695C118.769 65.0818 118.114 65.8159 117.541 66.6317C112.715 72.913 106.824 77.0734 99.3795 78.2971C85.2263 80.4996 75.1636 72.9946 72.7911 58.2294C71.8094 52.3559 74.7546 45.0141 79.2542 41.9958C83.5083 39.2222 90.6258 43.7904 89.3986 48.9297C89.3986 48.9297 94.2254 39.5485 87.2716 34.6539H87.3534Z" fill="url(#paint0_linear_370_126915)"/>
<path d="M58.3096 75.6825C57.6551 74.622 54.1373 74.2957 50.6195 68.4222C48.1652 64.3434 46.5289 59.8567 44.5655 55.5332C41.9475 49.5782 37.6934 46.152 31.7212 45.4994C29.7578 45.2546 27.8762 44.8468 26.8126 44.6836C24.7674 47.6203 23.4584 50.8834 21.2495 52.4333C16.4227 55.7779 11.1868 52.2702 9.55064 45.2546C7.09633 34.8129 11.9231 25.9211 22.3949 22.4949C25.2582 21.516 26.24 21.0266 26.4854 16.6215C26.5672 14.5821 28.4488 11.4822 30.2487 10.8296C32.9484 9.85067 36.3026 9.7691 41.1294 13.7663C42.3566 14.7452 43.5837 16.9478 44.5655 19.1503C46.938 24.5343 47.0198 30.7341 48.3288 36.4444C48.4924 37.4233 49.5559 41.339 49.1469 41.5021C48.7378 40.6864 46.2835 35.3024 45.8745 34.4866C43.1747 29.021 39.2478 25.8396 33.3575 25.9211C26.5672 26.0027 20.3496 27.4711 16.0137 33.9972C13.8048 37.2602 12.9867 40.8495 14.3775 44.7652C15.3592 47.5388 17.8135 49.0071 20.1042 48.1914C22.7221 47.294 24.3583 44.1941 23.7039 41.2574C22.6403 36.1181 26.24 31.3867 31.6395 30.9788C37.9389 30.571 43.7474 34.3235 46.2017 42.1548C48.9833 51.2913 48.8196 54.8806 51.9284 64.0171C52.092 64.5066 57.1643 74.4588 58.3914 75.6825H58.3096Z" fill="url(#paint1_linear_370_126915)"/>
<path d="M97.7448 60.5962C100.363 64.5118 104.208 65.9802 110.344 64.8382C118.443 63.3698 124.17 47.8704 123.106 41.6706C119.506 21.4397 98.0721 10.998 77.0468 18.5846C75.7379 19.074 74.4289 19.7266 73.2017 20.2977V20.3793C87.2731 21.5213 97.4994 27.4764 100.117 44.1994C100.117 44.1994 100.117 44.1994 100.199 44.1994C103.962 41.8337 103.717 37.1839 98.972 25.0291C98.972 25.0291 98.972 24.9475 99.0538 24.9475C103.881 27.3948 107.644 34.3287 107.48 40.4469C107.398 46.6467 102.653 52.2754 97.254 52.1939C97.254 52.1939 94.6361 55.8648 97.6631 60.5146L97.7448 60.5962Z" fill="url(#paint2_linear_370_126915)"/>
<path d="M48.5752 81.9676C37.1218 76.3389 32.9494 75.5232 24.4411 77.7257C23.7867 77.8889 23.1322 78.3783 22.4777 78.7046C28.2862 80.9887 30.986 86.4543 34.6674 90.6963C38.1853 94.7751 42.1122 98.1197 46.939 99.6696C54.4655 102.198 59.2924 103.422 68.3733 103.912C72.8729 104.156 83.181 101.872 87.2715 98.9354C87.2715 98.9354 87.2715 98.7723 87.2715 98.8539C77.6179 101.954 64.8555 101.954 54.711 94.204C54.711 94.204 54.711 94.0409 54.711 94.1225C67.228 99.0986 79.6631 99.6696 92.0165 95.2645C94.8799 94.1225 98.5614 92.1646 98.5614 91.7568C92.3438 93.9593 89.644 93.5514 88.6623 93.633C88.6623 93.633 73.4456 93.8777 60.4377 87.7595C51.2749 83.436 48.5752 82.0492 48.5752 82.0492V81.9676Z" fill="url(#paint3_linear_370_126915)"/>
<path d="M73.3608 134.092H73.4426C74.1789 137.926 71.561 142.576 68.4522 143.31C60.2711 145.268 51.1901 140.047 51.2719 130.747C51.2719 119.571 58.2258 113.372 68.2885 109.048C73.0335 107.009 77.6149 106.519 82.769 104.072C93.8134 98.7696 93.977 98.4433 99.5401 93.9566C100.276 93.3856 104.367 90.612 105.103 90.1225C106.085 89.4699 107.967 87.8384 108.294 87.7568C107.721 90.041 98.313 98.0354 97.0858 99.0143C90.8682 103.909 86.9413 106.846 80.6419 111.577C77.2059 114.106 73.5244 116.39 70.4156 119.245C68.4522 121.04 64.6889 124.058 63.4617 126.669C61.7437 130.258 62.5618 134.01 64.7707 135.56C65.8342 136.295 70.252 138.171 73.279 134.01L73.3608 134.092Z" fill="url(#paint4_linear_370_126915)"/>
<path d="M25.8295 101.463C14.8669 98.1179 3.9861 91.3471 0.713684 79.3555C-1.82243 70.0558 2.59537 59.6957 10.8582 59.0431C18.303 58.472 20.3482 63.4482 21.4118 67.527C19.6937 65.4876 17.8939 63.7745 15.8487 64.1823C13.967 64.5087 9.63104 66.7928 9.87647 72.5031C10.1219 78.6213 12.0854 82.2106 13.967 84.7395C18.4666 90.6945 36.2194 101.218 45.873 103.339C49.2273 104.073 63.0532 106.112 69.4344 106.683C69.4344 106.683 46.5275 107.744 25.9113 101.463H25.8295Z" fill="url(#paint5_linear_370_126915)"/>
<path d="M52.6632 115.246C49.8816 117.693 48.3272 118.59 45.7093 121.282C41.7006 125.28 37.61 129.114 37.2828 134.906C37.1192 137.924 38.3464 141.84 41.4552 143.145C44.3185 144.368 47.6728 143.145 48.8999 140.534H48.9817C51.2724 144.532 49.3908 149.508 45.3002 150.813C41.8642 151.873 37.201 150.405 34.7467 146.979C29.1018 138.984 31.3925 125.687 43.0913 118.509C46.4456 116.388 53.2359 112.717 58.5536 110.596C56.7537 111.575 53.9721 114.022 52.5814 115.246H52.6632Z" fill="url(#paint6_linear_370_126915)"/>
<path d="M57.7317 77.7234C53.723 75.684 42.5968 76.9892 37.6882 68.3422C36.2974 65.8949 35.3975 61.653 34.3339 58.6347C33.1886 55.6979 31.716 53.6585 27.871 53.3322C27.871 53.3322 27.871 53.3322 27.871 53.2506C29.9162 51.1297 33.8431 50.2323 36.8701 50.9665C38.9972 51.5375 40.6334 54.719 40.6334 57.7373C40.6334 63.6108 41.3696 69.4027 49.2234 73.1552C49.4688 73.2367 57.8135 77.0708 57.8953 77.805L57.7317 77.7234Z" fill="url(#paint7_linear_370_126915)"/>
<path d="M19.4449 113.378C27.2987 104.894 35.7252 107.096 44.3153 111.338C44.3153 111.338 44.3153 111.338 44.3153 111.42C40.1429 117.049 25.3353 118.191 19.4449 113.459C19.4449 113.459 19.4449 113.459 19.4449 113.378Z" fill="url(#paint8_linear_370_126915)"/>
<path d="M55.6106 1.93933C55.6106 1.93933 55.6106 1.85776 55.6924 1.93933C58.883 5.7734 59.8648 10.1785 58.1467 14.9099C55.8561 20.9465 53.3199 26.9016 50.4565 33.6724C50.4565 33.6724 50.3748 33.6724 50.293 33.6724C49.7203 27.5542 50.6202 22.3333 51.6019 17.1125C52.5018 11.9732 56.756 7.89438 55.6106 2.02091V1.93933Z" fill="url(#paint9_linear_370_126915)"/>
<path d="M44.3164 4.46838C44.3164 4.46838 44.2347 4.46838 44.1528 4.46838C43.3347 4.46838 38.2625 4.71311 39.2442 7.32354C39.5715 8.22088 40.4714 8.79192 41.4531 9.11823C48.3252 11.1576 45.1346 17.1942 47.6707 21.4362C47.6707 21.4362 52.9065 5.52887 44.3164 4.54996V4.46838Z" fill="url(#paint10_linear_370_126915)"/>
<path d="M61.9081 1.61539C60.681 5.20473 61.9081 9.28353 61.9081 13.1176C61.9081 13.1176 61.9081 13.1992 61.99 13.1176C63.0535 11.3229 64.5261 9.6914 65.426 7.81515C66.6531 5.20472 66.8167 2.51273 64.7715 0.2286C64.7715 0.2286 62.8081 -0.831887 61.99 1.61539H61.9081Z" fill="url(#paint11_linear_370_126915)"/>
<path d="M111.075 69.4873C111.075 69.4873 96.1855 79.1132 86.3683 71.2819C86.3683 71.2819 78.5963 65.4901 80.5597 58.0667C80.5597 58.0667 89.5589 75.7686 111.075 69.4873Z" fill="url(#paint12_linear_370_126915)"/>
</g>
<defs>
<linearGradient id="paint0_linear_370_126915" x1="87.0515" y1="3.75122" x2="88.6797" y2="140.172" gradientUnits="userSpaceOnUse">
<stop stop-color="#EAC502"/>
<stop offset="0.192308" stop-color="#E6BA10"/>
<stop offset="0.394231" stop-color="#E9B42E"/>
<stop offset="0.644231" stop-color="#AE8446"/>
<stop offset="0.759615" stop-color="#B48830"/>
<stop offset="0.975962" stop-color="#A17439"/>
</linearGradient>
<linearGradient id="paint1_linear_370_126915" x1="33.6568" y1="10.2673" x2="34.1927" y2="75.6966" gradientUnits="userSpaceOnUse">
<stop stop-color="#EAC502"/>
<stop offset="0.192308" stop-color="#E6BA10"/>
<stop offset="0.394231" stop-color="#E9B42E"/>
<stop offset="0.644231" stop-color="#AE8446"/>
<stop offset="0.759615" stop-color="#B48830"/>
<stop offset="0.975962" stop-color="#A17439"/>
</linearGradient>
<linearGradient id="paint2_linear_370_126915" x1="98.2175" y1="16.1073" x2="98.5161" y2="65.2267" gradientUnits="userSpaceOnUse">
<stop stop-color="#EAC502"/>
<stop offset="0.192308" stop-color="#E6BA10"/>
<stop offset="0.394231" stop-color="#E9B42E"/>
<stop offset="0.644231" stop-color="#AE8446"/>
<stop offset="0.759615" stop-color="#B48830"/>
<stop offset="0.975962" stop-color="#A17439"/>
</linearGradient>
<linearGradient id="paint3_linear_370_126915" x1="60.5195" y1="76.5957" x2="60.5804" y2="103.937" gradientUnits="userSpaceOnUse">
<stop stop-color="#EAC502"/>
<stop offset="0.192308" stop-color="#E6BA10"/>
<stop offset="0.394231" stop-color="#E9B42E"/>
<stop offset="0.644231" stop-color="#AE8446"/>
<stop offset="0.759615" stop-color="#B48830"/>
<stop offset="0.975962" stop-color="#A17439"/>
</linearGradient>
<linearGradient id="paint4_linear_370_126915" x1="79.7826" y1="87.7568" x2="80.1229" y2="143.733" gradientUnits="userSpaceOnUse">
<stop stop-color="#EAC502"/>
<stop offset="0.192308" stop-color="#E6BA10"/>
<stop offset="0.394231" stop-color="#E9B42E"/>
<stop offset="0.644231" stop-color="#AE8446"/>
<stop offset="0.759615" stop-color="#B48830"/>
<stop offset="0.975962" stop-color="#A17439"/>
</linearGradient>
<linearGradient id="paint5_linear_370_126915" x1="34.7171" y1="58.998" x2="34.9206" y2="106.764" gradientUnits="userSpaceOnUse">
<stop stop-color="#EAC502"/>
<stop offset="0.192308" stop-color="#E6BA10"/>
<stop offset="0.394231" stop-color="#E9B42E"/>
<stop offset="0.644231" stop-color="#AE8446"/>
<stop offset="0.759615" stop-color="#B48830"/>
<stop offset="0.975962" stop-color="#A17439"/>
</linearGradient>
<linearGradient id="paint6_linear_370_126915" x1="45.1759" y1="110.596" x2="45.5568" y2="151.16" gradientUnits="userSpaceOnUse">
<stop stop-color="#EAC502"/>
<stop offset="0.192308" stop-color="#E6BA10"/>
<stop offset="0.394231" stop-color="#E9B42E"/>
<stop offset="0.644231" stop-color="#AE8446"/>
<stop offset="0.759615" stop-color="#B48830"/>
<stop offset="0.975962" stop-color="#A17439"/>
</linearGradient>
<linearGradient id="paint7_linear_370_126915" x1="42.8832" y1="50.7139" x2="43.0346" y2="77.8118" gradientUnits="userSpaceOnUse">
<stop stop-color="#EAC502"/>
<stop offset="0.192308" stop-color="#E6BA10"/>
<stop offset="0.394231" stop-color="#E9B42E"/>
<stop offset="0.644231" stop-color="#AE8446"/>
<stop offset="0.759615" stop-color="#B48830"/>
<stop offset="0.975962" stop-color="#A17439"/>
</linearGradient>
<linearGradient id="paint8_linear_370_126915" x1="31.8801" y1="107.586" x2="31.8995" y2="116.418" gradientUnits="userSpaceOnUse">
<stop stop-color="#EAC502"/>
<stop offset="0.192308" stop-color="#E6BA10"/>
<stop offset="0.394231" stop-color="#E9B42E"/>
<stop offset="0.644231" stop-color="#AE8446"/>
<stop offset="0.759615" stop-color="#B48830"/>
<stop offset="0.975962" stop-color="#A17439"/>
</linearGradient>
<linearGradient id="paint9_linear_370_126915" x1="54.5486" y1="1.90308" x2="55.2534" y2="33.6657" gradientUnits="userSpaceOnUse">
<stop stop-color="#EAC502"/>
<stop offset="0.192308" stop-color="#E6BA10"/>
<stop offset="0.394231" stop-color="#E9B42E"/>
<stop offset="0.644231" stop-color="#AE8446"/>
<stop offset="0.759615" stop-color="#B48830"/>
<stop offset="0.975962" stop-color="#A17439"/>
</linearGradient>
<linearGradient id="paint10_linear_370_126915" x1="44.1847" y1="4.46838" x2="44.3608" y2="21.4392" gradientUnits="userSpaceOnUse">
<stop stop-color="#EAC502"/>
<stop offset="0.192308" stop-color="#E6BA10"/>
<stop offset="0.394231" stop-color="#E9B42E"/>
<stop offset="0.644231" stop-color="#AE8446"/>
<stop offset="0.759615" stop-color="#B48830"/>
<stop offset="0.975962" stop-color="#A17439"/>
</linearGradient>
<linearGradient id="paint11_linear_370_126915" x1="63.8478" y1="3.06262e-09" x2="64.0634" y2="13.154" gradientUnits="userSpaceOnUse">
<stop stop-color="#EAC502"/>
<stop offset="0.192308" stop-color="#E6BA10"/>
<stop offset="0.394231" stop-color="#E9B42E"/>
<stop offset="0.644231" stop-color="#AE8446"/>
<stop offset="0.759615" stop-color="#B48830"/>
<stop offset="0.975962" stop-color="#A17439"/>
</linearGradient>
<linearGradient id="paint12_linear_370_126915" x1="95.6584" y1="58.0667" x2="95.7117" y2="74.3557" gradientUnits="userSpaceOnUse">
<stop stop-color="#EAC502"/>
<stop offset="0.192308" stop-color="#E6BA10"/>
<stop offset="0.394231" stop-color="#E9B42E"/>
<stop offset="0.644231" stop-color="#AE8446"/>
<stop offset="0.759615" stop-color="#B48830"/>
<stop offset="0.975962" stop-color="#A17439"/>
</linearGradient>
</defs>
</svg>
