<svg width="134" height="52" viewBox="0 0 134 52" fill="none" xmlns="http://www.w3.org/2000/svg">
<path d="M59.7002 0C59.501 0 59.3097 0.0819183 59.1682 0.227321C59.0288 0.372724 58.9491 0.569329 58.9511 0.774143V33.2259C58.9491 33.4307 59.0288 33.6273 59.1682 33.7727C59.3097 33.9181 59.5009 34 59.7002 34C59.8994 34 60.0906 33.9201 60.2321 33.7747C60.3736 33.6293 60.4532 33.4327 60.4532 33.2259V0.774143C60.4532 0.5673 60.3736 0.370696 60.2321 0.225277C60.0907 0.0798586 59.8994 0 59.7002 0ZM78.3015 0C78.1022 0 77.909 0.0798691 77.7675 0.225277C77.6261 0.370686 77.5484 0.567284 77.5484 0.774143V33.2259C77.5484 33.4327 77.6261 33.6293 77.7675 33.7747C77.909 33.9201 78.1022 34 78.3015 34C78.5007 34 78.6919 33.9181 78.8314 33.7727C78.9709 33.6273 79.0505 33.4307 79.0485 33.2259V0.774143C79.0505 0.56935 78.9709 0.372745 78.8314 0.227321C78.6919 0.0819183 78.5007 0 78.3015 0ZM64.3483 4.85365C63.9379 4.8557 63.6033 5.19976 63.6013 5.62162V28.3784C63.6033 28.8003 63.938 29.1443 64.3483 29.1464C64.7627 29.1443 65.0954 28.8023 65.0974 28.3784V5.62162C65.0954 5.19769 64.7627 4.8557 64.3483 4.85365ZM73.6517 4.85365C73.4525 4.85365 73.2613 4.93352 73.1198 5.07893C72.9784 5.22229 72.8987 5.41889 72.8987 5.62166V28.3784C72.8987 28.5812 72.9784 28.7778 73.1198 28.9212C73.2612 29.0666 73.4525 29.1465 73.6517 29.1465C74.0621 29.1444 74.3968 28.8003 74.3988 28.3785V5.62171C74.3968 5.19983 74.0621 4.8557 73.6517 4.85365ZM50.3988 7.38696C49.9864 7.38901 49.6517 7.73102 49.6517 8.15492V25.8451C49.6517 26.269 49.9864 26.611 50.3988 26.6131C50.596 26.6131 50.7873 26.5332 50.9287 26.3898C51.0702 26.2444 51.1498 26.0499 51.1498 25.845V8.15488C51.1498 7.95009 51.0702 7.75553 50.9287 7.61011C50.7873 7.46675 50.596 7.38696 50.3988 7.38696ZM87.5968 7.38696C87.1844 7.38901 86.8497 7.73102 86.8497 8.15492V25.8451C86.8497 26.269 87.1844 26.611 87.5968 26.6131C87.796 26.6131 87.9873 26.5332 88.1287 26.3898C88.2702 26.2444 88.3498 26.0499 88.3498 25.845V8.15488C88.3498 7.95009 88.2702 7.75553 88.1287 7.61011C87.9873 7.46675 87.796 7.38696 87.5968 7.38696ZM55.0485 11.2985C54.6361 11.3006 54.3034 11.6426 54.3014 12.0665V21.9355C54.3034 22.3594 54.6361 22.7014 55.0485 22.7035C55.2477 22.7035 55.4389 22.6236 55.5804 22.4802C55.7218 22.3348 55.8015 22.1403 55.8015 21.9355V12.0665C55.8015 11.8617 55.7218 11.6651 55.5804 11.5217C55.4389 11.3783 55.2477 11.2965 55.0485 11.2985ZM82.9532 11.2985C82.754 11.2965 82.5627 11.3784 82.4212 11.5218C82.2798 11.6651 82.2001 11.8617 82.2001 12.0665V21.9355C82.2001 22.1403 82.2798 22.3349 82.4212 22.4803C82.5627 22.6237 82.7539 22.7035 82.9532 22.7035C83.3636 22.7015 83.6982 22.3595 83.7002 21.9356V12.0666C83.6982 11.6427 83.3635 11.3006 82.9532 11.2985ZM69.0001 12.2938C68.8008 12.2918 68.6096 12.3737 68.4681 12.5171C68.3267 12.6604 68.247 12.857 68.247 13.0618V20.9381C68.247 21.1428 68.3267 21.3394 68.4681 21.4828C68.6096 21.6262 68.8008 21.7081 69.0001 21.7061C69.4124 21.704 69.7451 21.362 69.7471 20.9381V13.0619C69.7451 12.6379 69.4124 12.2959 69.0001 12.2938ZM45.7471 13.7049C45.3347 13.7069 45 14.0489 45 14.4749V19.5293V19.5272C45.002 19.9512 45.3347 20.2931 45.7471 20.2952C45.9463 20.2972 46.1375 20.2153 46.279 20.072C46.4184 19.9286 46.4981 19.732 46.5001 19.5272V14.4749C46.5001 14.2701 46.4204 14.0735 46.279 13.9281C46.1375 13.7847 45.9463 13.7028 45.7471 13.7049ZM92.2469 13.7049C91.8346 13.7069 91.5019 14.0489 91.4999 14.4749V19.5293V19.5272C91.5019 19.9512 91.8346 20.2931 92.2469 20.2952C92.4462 20.2972 92.6374 20.2153 92.7789 20.072C92.9203 19.9286 93 19.732 93 19.5272V14.4728V14.4749C93 14.2701 92.9203 14.0735 92.7789 13.9281C92.6374 13.7847 92.4462 13.7028 92.2469 13.7049Z" fill="url(#paint0_linear_662_248116)"/>
<path opacity="0.8" d="M1.553 50.9091V41.8182H3.65527V42.5142H2.34846V50.2131H3.65527V50.9091H1.553ZM10.73 45H9.84934C9.79726 44.7467 9.70611 44.5241 9.57591 44.3324C9.44806 44.1406 9.29181 43.9796 9.10716 43.8494C8.92486 43.7169 8.72245 43.6174 8.49991 43.5511C8.27737 43.4848 8.04537 43.4517 7.80389 43.4517C7.36355 43.4517 6.96464 43.563 6.60716 43.7855C6.25204 44.008 5.96913 44.3359 5.75843 44.7692C5.5501 45.2024 5.44593 45.7339 5.44593 46.3636C5.44593 46.9934 5.5501 47.5249 5.75843 47.9581C5.96913 48.3913 6.25204 48.7192 6.60716 48.9418C6.96464 49.1643 7.36355 49.2756 7.80389 49.2756C8.04537 49.2756 8.27737 49.2424 8.49991 49.1761C8.72245 49.1098 8.92486 49.0116 9.10716 48.8814C9.29181 48.7488 9.44806 48.5866 9.57591 48.3949C9.70611 48.2008 9.79726 47.9782 9.84934 47.7273H10.73C10.6637 48.099 10.543 48.4316 10.3678 48.7251C10.1926 49.0187 9.97482 49.2685 9.7144 49.4744C9.45398 49.678 9.16161 49.8331 8.83727 49.9396C8.5153 50.0462 8.17084 50.0994 7.80389 50.0994C7.18362 50.0994 6.63201 49.9479 6.14906 49.6449C5.6661 49.3419 5.28613 48.911 5.00914 48.3523C4.73216 47.7936 4.59366 47.1307 4.59366 46.3636C4.59366 45.5966 4.73216 44.9337 5.00914 44.375C5.28613 43.8163 5.6661 43.3854 6.14906 43.0824C6.63201 42.7794 7.18362 42.6278 7.80389 42.6278C8.17084 42.6278 8.5153 42.6811 8.83727 42.7876C9.16161 42.8942 9.45398 43.0504 9.7144 43.2564C9.97482 43.46 10.1926 43.7086 10.3678 44.0021C10.543 44.2933 10.6637 44.6259 10.73 45ZM12.1531 50V42.7273H13.0338V49.2188H16.4145V50H12.1531ZM18.6588 42.7273V50H17.7781V42.7273H18.6588ZM26.2769 45H25.3962C25.3441 44.7467 25.253 44.5241 25.1228 44.3324C24.9949 44.1406 24.8387 43.9796 24.654 43.8494C24.4717 43.7169 24.2693 43.6174 24.0468 43.5511C23.8242 43.4848 23.5922 43.4517 23.3508 43.4517C22.9104 43.4517 22.5115 43.563 22.154 43.7855C21.7989 44.008 21.516 44.3359 21.3053 44.7692C21.097 45.2024 20.9928 45.7339 20.9928 46.3636C20.9928 46.9934 21.097 47.5249 21.3053 47.9581C21.516 48.3913 21.7989 48.7192 22.154 48.9418C22.5115 49.1643 22.9104 49.2756 23.3508 49.2756C23.5922 49.2756 23.8242 49.2424 24.0468 49.1761C24.2693 49.1098 24.4717 49.0116 24.654 48.8814C24.8387 48.7488 24.9949 48.5866 25.1228 48.3949C25.253 48.2008 25.3441 47.9782 25.3962 47.7273H26.2769C26.2106 48.099 26.0899 48.4316 25.9147 48.7251C25.7395 49.0187 25.5217 49.2685 25.2613 49.4744C25.0009 49.678 24.7085 49.8331 24.3841 49.9396C24.0622 50.0462 23.7177 50.0994 23.3508 50.0994C22.7305 50.0994 22.1789 49.9479 21.6959 49.6449C21.213 49.3419 20.833 48.911 20.556 48.3523C20.279 47.7936 20.1405 47.1307 20.1405 46.3636C20.1405 45.5966 20.279 44.9337 20.556 44.375C20.833 43.8163 21.213 43.3854 21.6959 43.0824C22.1789 42.7794 22.7305 42.6278 23.3508 42.6278C23.7177 42.6278 24.0622 42.6811 24.3841 42.7876C24.7085 42.8942 25.0009 43.0504 25.2613 43.2564C25.5217 43.46 25.7395 43.7086 25.9147 44.0021C26.0899 44.2933 26.2106 44.6259 26.2769 45ZM27.7 50V42.7273H28.5807V46.3352H28.6659L31.933 42.7273H33.0835L30.0296 46.0085L33.0835 50H32.0182L29.4898 46.6193L28.5807 47.642V50H27.7ZM36.6382 43.5085V42.7273H42.0928V43.5085H39.8058V50H38.9252V43.5085H36.6382ZM49.2856 46.3636C49.2856 47.1307 49.1471 47.7936 48.8701 48.3523C48.5931 48.911 48.2132 49.3419 47.7302 49.6449C47.2472 49.9479 46.6956 50.0994 46.0754 50.0994C45.4551 50.0994 44.9035 49.9479 44.4205 49.6449C43.9376 49.3419 43.5576 48.911 43.2806 48.3523C43.0036 47.7936 42.8651 47.1307 42.8651 46.3636C42.8651 45.5966 43.0036 44.9337 43.2806 44.375C43.5576 43.8163 43.9376 43.3854 44.4205 43.0824C44.9035 42.7794 45.4551 42.6278 46.0754 42.6278C46.6956 42.6278 47.2472 42.7794 47.7302 43.0824C48.2132 43.3854 48.5931 43.8163 48.8701 44.375C49.1471 44.9337 49.2856 45.5966 49.2856 46.3636ZM48.4333 46.3636C48.4333 45.7339 48.328 45.2024 48.1173 44.7692C47.9089 44.3359 47.626 44.008 47.2686 43.7855C46.9134 43.563 46.5157 43.4517 46.0754 43.4517C45.635 43.4517 45.2361 43.563 44.8786 43.7855C44.5235 44.008 44.2406 44.3359 44.0299 44.7692C43.8216 45.2024 43.7174 45.7339 43.7174 46.3636C43.7174 46.9934 43.8216 47.5249 44.0299 47.9581C44.2406 48.3913 44.5235 48.7192 44.8786 48.9418C45.2361 49.1643 45.635 49.2756 46.0754 49.2756C46.5157 49.2756 46.9134 49.1643 47.2686 48.9418C47.626 48.7192 47.9089 48.3913 48.1173 47.9581C48.328 47.5249 48.4333 46.9934 48.4333 46.3636ZM53.5789 50V42.7273H57.9681V43.5085H54.4596V45.9659H57.7409V46.7472H54.4596V49.2188H58.0249V50H53.5789ZM65.3225 42.7273V50H64.4703L60.5072 44.2898H60.4362V50H59.5555V42.7273H60.4078L64.385 48.4517H64.4561V42.7273H65.3225ZM67.3831 50H66.4598L69.1302 42.7273H70.0393L72.7098 50H71.7865L69.6132 43.8778H69.5564L67.3831 50ZM67.724 47.1591H71.4456V47.9403H67.724V47.1591ZM73.8426 50V42.7273H76.3852C76.8918 42.7273 77.3097 42.8149 77.6388 42.9901C77.9678 43.1629 78.2129 43.3961 78.3738 43.6896C78.5348 43.9808 78.6153 44.304 78.6153 44.6591C78.6153 44.9716 78.5597 45.2296 78.4484 45.4332C78.3395 45.6368 78.1951 45.7978 78.0152 45.9162C77.8376 46.0346 77.6447 46.1222 77.4363 46.179V46.25C77.6589 46.2642 77.8826 46.3423 78.1075 46.4844C78.3324 46.6264 78.5206 46.83 78.6721 47.0952C78.8237 47.3603 78.8994 47.6847 78.8994 48.0682C78.8994 48.4328 78.8166 48.7607 78.6508 49.0518C78.4851 49.343 78.2235 49.5739 77.866 49.7443C77.5086 49.9148 77.0434 50 76.4704 50H73.8426ZM74.7233 49.2188H76.4704C77.0457 49.2188 77.4541 49.1075 77.6956 48.8849C77.9394 48.66 78.0613 48.3878 78.0613 48.0682C78.0613 47.822 77.9986 47.5947 77.8731 47.3864C77.7477 47.1757 77.5689 47.0076 77.3369 46.8821C77.1049 46.7543 76.8303 46.6903 76.5131 46.6903H74.7233V49.2188ZM74.7233 45.9233H76.3568C76.622 45.9233 76.8611 45.8712 77.0741 45.767C77.2896 45.6629 77.46 45.5161 77.5855 45.3267C77.7133 45.1373 77.7773 44.9148 77.7773 44.6591C77.7773 44.3395 77.666 44.0684 77.4434 43.8459C77.2209 43.621 76.8682 43.5085 76.3852 43.5085H74.7233V45.9233ZM80.3465 50V42.7273H81.2272V49.2188H84.6079V50H80.3465ZM85.9715 50V42.7273H90.3607V43.5085H86.8522V45.9659H90.1334V46.7472H86.8522V49.2188H90.4175V50H85.9715ZM98.7378 44.5455C98.6952 44.1856 98.5224 43.9062 98.2194 43.7074C97.9163 43.5085 97.5447 43.4091 97.1043 43.4091C96.7823 43.4091 96.5006 43.4612 96.2591 43.5653C96.02 43.6695 95.833 43.8127 95.6981 43.995C95.5655 44.1773 95.4992 44.3845 95.4992 44.6165C95.4992 44.8106 95.5454 44.9775 95.6377 45.1172C95.7324 45.2545 95.8531 45.3693 95.9999 45.4616C96.1467 45.5516 96.3006 45.6262 96.4616 45.6854C96.6225 45.7422 96.7705 45.7884 96.9055 45.8239L97.6441 46.0227C97.8335 46.0724 98.0442 46.1411 98.2762 46.2287C98.5106 46.3163 98.7343 46.4358 98.9474 46.5874C99.1628 46.7365 99.3403 46.9283 99.48 47.1626C99.6197 47.397 99.6895 47.6847 99.6895 48.0256C99.6895 48.4186 99.5866 48.7737 99.3806 49.0909C99.177 49.4081 98.8787 49.6603 98.4857 49.8473C98.0951 50.0343 97.6204 50.1278 97.0617 50.1278C96.5409 50.1278 96.0899 50.0438 95.7087 49.8757C95.3299 49.7076 95.0316 49.4732 94.8138 49.1726C94.5984 48.8719 94.4765 48.5227 94.4481 48.125H95.3572C95.3808 48.3996 95.4732 48.6269 95.6341 48.8068C95.7975 48.9844 96.0035 49.117 96.252 49.2045C96.503 49.2898 96.7729 49.3324 97.0617 49.3324C97.3979 49.3324 97.6997 49.2779 97.9672 49.169C98.2348 49.0578 98.4466 48.9039 98.6029 48.7074C98.7591 48.5085 98.8373 48.2765 98.8373 48.0114C98.8373 47.7699 98.7698 47.5734 98.6349 47.4219C98.4999 47.2704 98.3224 47.1473 98.1022 47.0526C97.882 46.9579 97.6441 46.875 97.3884 46.804L96.4935 46.5483C95.9253 46.3849 95.4755 46.1518 95.1441 45.8487C94.8126 45.5457 94.6469 45.1491 94.6469 44.6591C94.6469 44.2519 94.757 43.8968 94.9772 43.5938C95.1997 43.2884 95.498 43.0516 95.8721 42.8835C96.2485 42.7131 96.6687 42.6278 97.1327 42.6278C97.6015 42.6278 98.0181 42.7119 98.3827 42.88C98.7473 43.0457 99.0361 43.273 99.2492 43.5618C99.4646 43.8506 99.5783 44.1785 99.5901 44.5455H98.7378ZM107.274 46.3636C107.274 47.1307 107.135 47.7936 106.858 48.3523C106.581 48.911 106.201 49.3419 105.718 49.6449C105.236 49.9479 104.684 50.0994 104.064 50.0994C103.443 50.0994 102.892 49.9479 102.409 49.6449C101.926 49.3419 101.546 48.911 101.269 48.3523C100.992 47.7936 100.853 47.1307 100.853 46.3636C100.853 45.5966 100.992 44.9337 101.269 44.375C101.546 43.8163 101.926 43.3854 102.409 43.0824C102.892 42.7794 103.443 42.6278 104.064 42.6278C104.684 42.6278 105.236 42.7794 105.718 43.0824C106.201 43.3854 106.581 43.8163 106.858 44.375C107.135 44.9337 107.274 45.5966 107.274 46.3636ZM106.422 46.3636C106.422 45.7339 106.316 45.2024 106.106 44.7692C105.897 44.3359 105.614 44.008 105.257 43.7855C104.902 43.563 104.504 43.4517 104.064 43.4517C103.623 43.4517 103.224 43.563 102.867 43.7855C102.512 44.008 102.229 44.3359 102.018 44.7692C101.81 45.2024 101.706 45.7339 101.706 46.3636C101.706 46.9934 101.81 47.5249 102.018 47.9581C102.229 48.3913 102.512 48.7192 102.867 48.9418C103.224 49.1643 103.623 49.2756 104.064 49.2756C104.504 49.2756 104.902 49.1643 105.257 48.9418C105.614 48.7192 105.897 48.3913 106.106 47.9581C106.316 47.5249 106.422 46.9934 106.422 46.3636ZM113.527 42.7273H114.408V47.5426C114.408 48.0398 114.291 48.4837 114.057 48.8743C113.825 49.2625 113.497 49.5691 113.073 49.794C112.649 50.0166 112.152 50.1278 111.581 50.1278C111.011 50.1278 110.514 50.0166 110.09 49.794C109.666 49.5691 109.337 49.2625 109.103 48.8743C108.871 48.4837 108.755 48.0398 108.755 47.5426V42.7273H109.635V47.4716C109.635 47.8267 109.714 48.1428 109.87 48.4197C110.026 48.6944 110.249 48.911 110.537 49.0696C110.829 49.2259 111.177 49.304 111.581 49.304C111.986 49.304 112.334 49.2259 112.625 49.0696C112.917 48.911 113.139 48.6944 113.293 48.4197C113.449 48.1428 113.527 47.8267 113.527 47.4716V42.7273ZM121.934 42.7273V50H121.082L117.119 44.2898H117.047V50H116.167V42.7273H117.019L120.996 48.4517H121.067V42.7273H121.934ZM125.94 50H123.696V42.7273H126.04C126.745 42.7273 127.349 42.8729 127.851 43.1641C128.353 43.4529 128.738 43.8684 129.005 44.4105C129.273 44.9503 129.406 45.5966 129.406 46.3494C129.406 47.107 129.271 47.7592 129.002 48.3061C128.732 48.8506 128.339 49.2696 127.823 49.5632C127.306 49.8544 126.679 50 125.94 50ZM124.577 49.2188H125.884C126.485 49.2188 126.983 49.1027 127.379 48.8707C127.774 48.6387 128.069 48.3085 128.263 47.88C128.457 47.4515 128.554 46.9413 128.554 46.3494C128.554 45.7623 128.458 45.2569 128.266 44.8331C128.075 44.407 127.788 44.0803 127.407 43.853C127.026 43.6233 126.551 43.5085 125.983 43.5085H124.577V49.2188ZM132.446 41.8182V50.9091H130.344V50.2131H131.651V42.5142H130.344V41.8182H132.446Z" fill="url(#paint1_linear_662_248116)"/>
<defs>
<linearGradient id="paint0_linear_662_248116" x1="18.9636" y1="-7.35135" x2="128.426" y2="-16.3725" gradientUnits="userSpaceOnUse">
<stop offset="0.0287087" stop-color="#856220"/>
<stop offset="0.394995" stop-color="#F9D271"/>
<stop offset="0.715077" stop-color="#BF923D"/>
</linearGradient>
<linearGradient id="paint1_linear_662_248116" x1="-60.5808" y1="26.6364" x2="296.84" y2="-219.347" gradientUnits="userSpaceOnUse">
<stop stop-color="#856220"/>
<stop offset="0.275" stop-color="#F9D271"/>
<stop offset="0.5" stop-color="#BF923D"/>
<stop offset="0.75" stop-color="#4E341B"/>
<stop offset="1" stop-color="#BD8251"/>
</linearGradient>
</defs>
</svg>
