<svg width="26" height="26" viewBox="0 0 26 26" fill="none" xmlns="http://www.w3.org/2000/svg">
<circle cx="13" cy="13" r="13" fill="#E6D6B2"/>
<mask id="mask0_648_148598" style="mask-type:alpha" maskUnits="userSpaceOnUse" x="4" y="4" width="18" height="18">
<rect x="4.33301" y="4.33398" width="17.3333" height="17.3333" fill="#D9D9D9"/>
</mask>
<g mask="url(#mask0_648_148598)">
<path d="M14.4444 19.3025V17.8219C15.5278 17.5089 16.4005 16.9071 17.0625 16.0164C17.7245 15.1256 18.0556 14.1145 18.0556 12.983C18.0556 11.8515 17.7245 10.8404 17.0625 9.94969C16.4005 9.05894 15.5278 8.45709 14.4444 8.14413V6.66357C15.937 7.00061 17.1528 7.75594 18.0917 8.92955C19.0306 10.1032 19.5 11.4543 19.5 12.983C19.5 14.5117 19.0306 15.8629 18.0917 17.0365C17.1528 18.2101 15.937 18.9654 14.4444 19.3025ZM6.5 15.1677V10.8344H9.38889L13 7.2233V18.7789L9.38889 15.1677H6.5ZM14.4444 15.89V10.0761C15.0102 10.3409 15.4525 10.7381 15.7715 11.2677C16.0905 11.7974 16.25 12.3751 16.25 13.0011C16.25 13.615 16.0905 14.1837 15.7715 14.7073C15.4525 15.2309 15.0102 15.6251 14.4444 15.89ZM11.5556 10.7261L10.0028 12.2789H7.94444V13.7233H10.0028L11.5556 15.2761V10.7261Z" fill="#402B14"/>
</g>
</svg>
