<svg width="41" height="228" viewBox="0 0 41 228" fill="none" xmlns="http://www.w3.org/2000/svg">
<path d="M19 83L19 227C19 227.552 19.4477 228 20 228C20.5523 228 21 227.552 21 227L21 83C21 82.4477 20.5523 82 20 82C19.4477 82 19 82.4477 19 83Z" fill="#E6D6B2"/>
<g opacity="0.8">
<path d="M17.321 78.4164C18.12 78.7207 19.1345 77.6554 19.477 77.0086C19.6799 76.6282 19.756 76.2604 19.7433 75.8419C19.7433 75.4234 19.7813 74.9922 19.8067 74.5737C19.8067 74.5103 19.7179 74.5103 19.7052 74.561C19.5911 74.8907 19.4262 75.2458 19.1472 75.4741C18.8936 75.677 18.6273 75.8673 18.3863 76.0829C18.158 76.2858 17.9678 76.5394 17.7268 76.755C17.4986 76.9579 17.2196 77.0974 17.0293 77.3384C16.6996 77.7315 16.8391 78.2388 17.321 78.429V78.4164Z" fill="#E6D6B2"/>
<path d="M18.4104 80.2051C19.5011 80.4334 20.4015 78.9116 20.4649 77.9858C20.541 76.8444 20.3634 75.6903 20.1352 74.5743C20.1352 74.5363 20.0718 74.5489 20.0591 74.5743C19.9957 75.5381 20.0083 76.7049 19.4123 77.5165C19.1967 77.7956 19.0065 78.0999 18.7782 78.3789C18.4992 78.734 18.0426 78.9243 17.9412 79.3935C17.8651 79.7232 18.0426 80.1417 18.4104 80.2051Z" fill="#E6D6B2"/>
<path d="M23.0775 78.4164C22.2785 78.7207 21.2639 77.6554 20.9215 77.0086C20.7186 76.6282 20.6425 76.2604 20.6552 75.8419C20.6552 75.4234 20.6172 74.9922 20.5918 74.5737C20.5918 74.5103 20.6679 74.5103 20.6933 74.561C20.8074 74.8907 20.9723 75.2458 21.2513 75.4741C21.5049 75.677 21.7712 75.8673 22.0122 76.0829C22.2405 76.2858 22.4307 76.5394 22.6717 76.755C22.8999 76.9579 23.1789 77.0974 23.3692 77.3384C23.6989 77.7315 23.5594 78.2388 23.0775 78.429V78.4164Z" fill="#E6D6B2"/>
<path d="M22.0021 80.2051C20.9241 80.4334 20.011 78.9116 19.9476 77.9858C19.8715 76.8444 20.049 75.6903 20.2773 74.5743C20.2773 74.5363 20.3407 74.5489 20.3534 74.5743C20.4168 75.5381 20.4041 76.7049 21.0002 77.5165C21.2158 77.7956 21.406 78.0999 21.6343 78.3789C21.9133 78.734 22.3698 78.9243 22.4713 79.3935C22.5474 79.7232 22.3698 80.1417 22.0021 80.2051Z" fill="#E6D6B2"/>
<path d="M19.1582 81.1307C19.1582 80.5474 19.6274 80.0781 20.2108 80.0781C20.7942 80.0781 21.2634 80.5474 21.2634 81.1307C21.2634 81.7141 20.7942 82.1834 20.2108 82.1834C19.6274 82.1834 19.1582 81.7141 19.1582 81.1307Z" fill="#E6D6B2"/>
<path d="M20.2004 75.7543C20.6066 75.7543 20.936 75.425 20.936 75.0188C20.936 74.6125 20.6066 74.2832 20.2004 74.2832C19.7942 74.2832 19.4648 74.6125 19.4648 75.0188C19.4648 75.425 19.7942 75.7543 20.2004 75.7543Z" fill="#E6D6B2"/>
<path d="M19.4648 72.4177C19.4648 72.0119 19.7946 71.6821 20.2004 71.6821C20.6062 71.6821 20.936 72.0119 20.936 72.4177C20.936 72.8235 20.6062 73.1532 20.2004 73.1532C19.7946 73.1532 19.4648 72.8235 19.4648 72.4177Z" fill="#E6D6B2"/>
<path d="M19.0332 69.8308C19.0332 69.184 19.5532 68.6641 20.2 68.6641C20.8467 68.6641 21.3667 69.184 21.3667 69.8308C21.3667 70.4776 20.8467 70.9976 20.2 70.9976C19.5532 70.9976 19.0332 70.4776 19.0332 69.8308Z" fill="#E6D6B2"/>
<path d="M19.0332 67.7391C19.0332 67.4221 19.5532 67.1558 20.2 67.1558C20.8467 67.1558 21.3667 67.4094 21.3667 67.7391C21.3667 68.0689 20.8467 68.3225 20.2 68.3225C19.5532 68.3225 19.0332 68.0689 19.0332 67.7391Z" fill="#E6D6B2"/>
<path d="M17.321 56.9583C18.12 56.6539 19.1345 57.7192 19.477 58.366C19.6799 58.7465 19.756 59.1142 19.7433 59.5327C19.7433 59.9512 19.7813 60.3824 19.8067 60.8009C19.8067 60.8644 19.7179 60.8644 19.7052 60.8136C19.5911 60.4839 19.4262 60.1288 19.1472 59.9005C18.8936 59.6976 18.6273 59.5074 18.3863 59.2918C18.158 59.0889 17.9678 58.8352 17.7268 58.6196C17.4986 58.4167 17.2196 58.2772 17.0293 58.0363C16.6996 57.6431 16.8391 57.1358 17.321 56.9456V56.9583Z" fill="#E6D6B2"/>
<path d="M18.4104 55.17C19.5011 54.9417 20.4015 56.4636 20.4649 57.3894C20.541 58.5308 20.3634 59.6848 20.1352 60.8008C20.1352 60.8389 20.0718 60.8262 20.0591 60.8008C19.9957 59.837 20.0083 58.6703 19.4123 57.8586C19.1967 57.5796 19.0065 57.2752 18.7782 56.9962C18.4992 56.6411 18.0426 56.4509 17.9412 55.9817C17.8651 55.6519 18.0426 55.2334 18.4104 55.17Z" fill="#E6D6B2"/>
<path d="M23.0794 56.9583C22.2805 56.6539 21.2659 57.7192 20.9235 58.366C20.7206 58.7465 20.6445 59.1142 20.6572 59.5327C20.6572 59.9512 20.6191 60.3824 20.5938 60.8009C20.5938 60.8644 20.6698 60.8644 20.6952 60.8136C20.8093 60.4839 20.9742 60.1288 21.2532 59.9005C21.5069 59.6976 21.7732 59.5074 22.0141 59.2918C22.2424 59.0889 22.4326 58.8352 22.6736 58.6196C22.9019 58.4167 23.1809 58.2772 23.3711 58.0363C23.7009 57.6431 23.5614 57.1358 23.0794 56.9456V56.9583Z" fill="#E6D6B2"/>
<path d="M22.0021 55.17C20.9241 54.9417 20.011 56.4636 19.9476 57.3894C19.8715 58.5308 20.049 59.6848 20.2773 60.8008C20.2773 60.8389 20.3407 60.8262 20.3534 60.8008C20.4168 59.837 20.4041 58.6703 21.0002 57.8586C21.2158 57.5796 21.406 57.2752 21.6343 56.9962C21.9133 56.6411 22.3698 56.4509 22.4713 55.9817C22.5474 55.6519 22.3698 55.2334 22.0021 55.17Z" fill="#E6D6B2"/>
<path d="M19.1582 54.2577C19.1582 54.8411 19.6274 55.3103 20.2108 55.3103C20.7942 55.3103 21.2634 54.8411 21.2634 54.2577C21.2634 53.6743 20.7942 53.2051 20.2108 53.2051C19.6274 53.2051 19.1582 53.6743 19.1582 54.2577Z" fill="#E6D6B2"/>
<path d="M20.2004 61.0932C20.6066 61.0932 20.936 60.7639 20.936 60.3576C20.936 59.9514 20.6066 59.6221 20.2004 59.6221C19.7942 59.6221 19.4648 59.9514 19.4648 60.3576C19.4648 60.7639 19.7942 61.0932 20.2004 61.0932Z" fill="#E6D6B2"/>
<path d="M20.2004 63.6928C20.6066 63.6928 20.936 63.3635 20.936 62.9572C20.936 62.551 20.6066 62.2217 20.2004 62.2217C19.7942 62.2217 19.4648 62.551 19.4648 62.9572C19.4648 63.3635 19.7942 63.6928 20.2004 63.6928Z" fill="#E6D6B2"/>
<path d="M19.0332 65.5442C19.0332 66.191 19.5532 66.7109 20.2 66.7109C20.8467 66.7109 21.3667 66.191 21.3667 65.5442C21.3667 64.8974 20.8467 64.3774 20.2 64.3774C19.5532 64.3774 19.0332 64.8974 19.0332 65.5442Z" fill="#E6D6B2"/>
<path d="M19.0332 67.6376C19.0332 67.9546 19.5532 68.221 20.2 68.221C20.8467 68.221 21.3667 67.9673 21.3667 67.6376C21.3667 67.3078 20.8467 67.0542 20.2 67.0542C19.5532 67.0542 19.0332 67.3078 19.0332 67.6376Z" fill="#E6D6B2"/>
<path d="M19.2356 50.541C19.2356 50.541 19.3117 53.3057 18.4367 52.8238C17.5616 52.3419 19.1088 50.6298 19.2356 50.541Z" fill="#E6D6B2"/>
<path d="M21.2653 50.541C21.2653 50.541 21.1893 53.3057 22.0643 52.8238C22.9394 52.3419 21.3922 50.6298 21.2653 50.541Z" fill="#E6D6B2"/>
<path d="M14.76 12.4953C14.722 12.0514 14.8742 11.709 14.6586 11.2778C14.4303 10.8085 14.0372 10.5168 13.6567 10.1744C13.6313 10.1491 13.6567 10.0857 13.6947 10.0983C14.3796 10.3266 14.7854 10.9354 15.3688 11.3285C15.6478 11.506 15.9648 11.5568 16.2312 11.7851C16.5482 12.0641 16.7131 12.4572 16.916 12.825C17.2457 13.4464 17.5755 14.0298 17.8291 14.6766C18.0954 15.3741 18.6154 15.4629 19.2622 15.6911C18.7422 15.894 18.1969 15.615 17.6896 15.5389C17.6896 15.5389 14.9756 15.1078 14.7727 12.5079L14.76 12.4953Z" fill="#E6D6B2"/>
<path d="M15.7603 11.7596C15.57 11.4299 15.4052 11.1762 15.2657 10.8211C15.1262 10.466 15.0247 10.1743 14.9486 9.61632C14.8852 9.18513 14.7838 8.84271 14.3906 8.60175C14.2131 8.48761 13.9848 8.4242 13.7692 8.43688C13.4521 8.43688 13.2492 8.57639 13.1604 8.89344C13.1097 9.08367 13.4014 9.19781 13.4141 8.98221C13.3126 8.61443 13.8833 8.46225 13.9848 8.83003C14.2004 9.59095 13.0336 9.81923 12.8814 9.0583C12.6659 8.04374 14.0862 7.82814 14.6823 8.05642C15.1389 8.23397 15.5574 8.5637 16.0393 9.15976C16.4578 9.67973 16.5973 10.428 16.8002 11.0367C17.0158 11.7089 17.1046 12.381 17.4343 13.0151C17.8148 13.738 18.3474 14.2072 18.9054 14.7652C18.9054 14.7652 18.9054 14.8033 18.8927 14.7906C18.2713 14.5496 17.7514 14.0297 17.2821 13.5731C16.7368 13.0405 16.1534 12.3937 15.773 11.7342L15.7603 11.7596Z" fill="#E6D6B2"/>
<path d="M18.3346 15.6788L19.8819 16.148C20.034 16.148 19.7424 16.4143 19.6536 16.4904C19.2604 16.7948 18.6897 17.1118 18.2078 17.2133C17.4976 17.3528 16.5718 17.1118 16.0772 16.5665C15.8743 16.3382 15.7855 16.1226 15.6714 15.869C15.5953 15.6788 15.367 15.6154 15.1895 15.5646C14.7329 15.4251 14.2003 15.5012 13.7945 15.7422C13.3886 15.9705 13.0843 16.4143 13.135 16.8963C13.1604 17.1372 13.3506 17.5938 13.693 17.4669C13.8579 17.4035 13.8579 17.3021 13.8325 17.1245C13.7564 16.4143 14.8978 16.2875 15.0627 16.9723C15.329 18.0757 14.0354 18.7605 13.3125 17.8855C12.7926 17.264 12.7672 16.3382 13.4013 15.7802C13.7184 15.5012 14.1496 15.3617 14.5554 15.3237C14.8598 15.2983 15.1768 15.3237 15.4812 15.3364C15.8743 15.3617 16.2294 15.1715 16.5972 15.1081C17.1806 15.0193 17.8781 15.3744 18.3473 15.6915" fill="#E6D6B2"/>
<path d="M17.7268 10.8082C17.4986 10.6052 17.2196 10.4657 17.0293 10.2248C16.6996 9.83164 16.8391 9.32436 17.321 9.13413C18.12 8.82976 18.8936 9.70482 19.236 10.3516C19.4389 10.7321 19.6799 11.3028 19.756 11.7086C19.8574 12.2286 19.9208 12.7105 19.9335 13.129C19.9335 13.1924 19.8067 13.3192 19.7813 13.2685C19.6672 12.9387 19.4262 12.3046 19.1472 12.089L17.7268 10.8082Z" fill="#E6D6B2"/>
<path d="M18.4104 7.34578C19.5011 7.11751 20.4015 8.63935 20.4649 9.56515C20.541 10.7065 20.3634 11.8606 20.1352 12.9766C20.1352 13.0147 20.0718 13.002 20.0591 12.9766C19.9957 12.0128 19.8815 10.846 19.4123 10.0344C19.2347 9.73001 18.8543 9.36223 18.626 9.08323C18.347 8.72813 18.0426 8.62667 17.9412 8.17012C17.8651 7.84038 18.0426 7.42188 18.4104 7.35847V7.34578Z" fill="#E6D6B2"/>
<path d="M20.6935 8.10725C20.6935 8.10725 20.6555 8.15798 20.6428 8.13262C20.1355 7.20683 19.4 6.63613 18.36 6.4459C18.1571 6.40786 17.9542 6.38249 17.7513 6.38249C17.5484 6.38249 17.3455 6.43322 17.1552 6.35713C17.0031 6.29372 17.0284 6.17958 16.9397 6.38249C16.8255 6.63613 16.9016 6.9405 17.0538 7.1561C17.1552 7.2956 17.2821 7.39706 17.4343 7.47315C17.5103 7.5112 17.7513 7.62533 17.8528 7.61265C17.9669 7.61265 18.043 7.5112 17.9796 7.4351C17.7259 7.38438 17.7513 7.06732 17.9162 6.95319C18.2079 6.72491 18.6644 6.95319 18.6137 7.35901C18.563 7.66338 18.2079 7.84093 17.9289 7.81557C17.5611 7.7902 17.1553 7.54924 16.9143 7.25755C16.6353 6.90246 16.5592 6.47127 16.6606 6.06544C16.8128 5.4567 17.2694 5.38061 17.2694 5.38061C17.2694 5.38061 15.3798 4.8226 15.1642 4.18849C15.0754 3.90949 15.1388 3.64316 15.3417 3.42757C15.8363 2.92029 16.5465 3.31343 17.0665 3.54171C17.2947 3.64316 17.5103 3.7573 17.7006 3.88412C17.4977 3.51634 17.2567 2.9837 17.3582 2.56519C17.523 1.85499 17.8147 1.6394 18.0937 1.39844C18.0937 1.39844 17.2821 2.74274 19.7551 4.83528C20.9218 5.82448 20.6428 8.13262 20.6428 8.13262L20.6935 8.10725Z" fill="#E6D6B2"/>
<path d="M19.4648 23.0849C19.4648 22.5142 19.7946 22.0576 20.2004 22.0576C20.6062 22.0576 20.936 22.5142 20.936 23.0849C20.936 23.6556 20.6062 24.1121 20.2004 24.1121C19.7946 24.1121 19.4648 23.6556 19.4648 23.0849Z" fill="#E6D6B2"/>
<path d="M19.0332 19.0515C19.0332 18.1511 19.5532 17.4155 20.2 17.4155C20.8467 17.4155 21.3667 18.1511 21.3667 19.0515C21.3667 19.9519 20.8467 20.6875 20.2 20.6875C19.5532 20.6875 19.0332 19.9519 19.0332 19.0515Z" fill="#E6D6B2"/>
<path d="M19.4648 38.0377C19.4648 37.8348 19.7946 37.6699 20.2004 37.6699C20.6062 37.6699 20.936 37.8348 20.936 38.0377C20.936 38.2406 20.6062 38.4055 20.2004 38.4055C19.7946 38.4055 19.4648 38.2406 19.4648 38.0377Z" fill="#E6D6B2"/>
<path d="M19.4648 16.6543C19.4648 16.3753 19.7946 16.147 20.2004 16.147C20.6062 16.147 20.936 16.3753 20.936 16.6543C20.936 16.9333 20.6062 17.1615 20.2004 17.1615C19.7946 17.1615 19.4648 16.9333 19.4648 16.6543Z" fill="#E6D6B2"/>
<path d="M19.0332 13.1676C19.0332 12.7237 19.5532 12.356 20.2 12.356C20.8467 12.356 21.3667 12.7237 21.3667 13.1676C21.3667 13.6115 20.8467 13.9793 20.2 13.9793C19.5532 13.9793 19.0332 13.6115 19.0332 13.1676Z" fill="#E6D6B2"/>
<path d="M19.0332 36.7557C19.0332 36.4387 19.5532 36.1724 20.2 36.1724C20.8467 36.1724 21.3667 36.426 21.3667 36.7557C21.3667 37.0855 20.8467 37.3391 20.2 37.3391C19.5532 37.3391 19.0332 37.0855 19.0332 36.7557Z" fill="#E6D6B2"/>
<path d="M19.7793 9.76202L19.7793 49.3872H20.6417L20.6417 9.76202H19.7793Z" fill="#E6D6B2"/>
<path d="M19.7695 6.01529L19.7695 25.6172H20.6319L20.6319 6.01529H19.7695Z" fill="#E6D6B2"/>
<path d="M20.6289 77.2434L20.6289 37.6182H19.7665L19.7665 77.2434H20.6289Z" fill="#E6D6B2"/>
<path d="M20.6445 80.9916L20.6445 61.3896H19.7822L19.7822 80.9916H20.6445Z" fill="#E6D6B2"/>
<path d="M14.795 14.6264C14.795 14.6264 12.0557 14.2586 12.6644 13.4723C13.2732 12.686 14.7189 14.4996 14.795 14.6264Z" fill="#E6D6B2"/>
<path d="M16.2284 47.2186C16.3679 47.5737 16.4567 47.8654 16.6469 48.1951C16.8372 48.5249 17.002 48.7785 17.3825 49.197C17.6869 49.5141 17.8771 49.8057 17.8264 50.275C17.801 50.4906 17.7122 50.7062 17.5601 50.8584C17.3698 51.112 17.1162 51.1754 16.8245 51.0359C16.6469 50.9598 16.7357 50.6554 16.9133 50.7823C17.1289 51.0993 17.6108 50.7442 17.3952 50.4272C16.9386 49.7804 16.0255 50.5413 16.5201 51.1374C17.1796 51.949 18.2322 50.9725 18.4224 50.3764C18.5746 49.9072 18.5873 49.3746 18.4224 48.6263C18.2829 47.9795 17.7883 47.3961 17.4332 46.8508C17.0401 46.2674 16.5835 45.7602 16.2918 45.1134C15.9621 44.3651 15.9494 43.6549 15.8607 42.8686C15.8607 42.856 15.8353 42.8433 15.8226 42.8686C15.6197 43.5028 15.6958 44.2383 15.7465 44.8851C15.8099 45.646 15.9494 46.5084 16.2158 47.2186H16.2284Z" fill="#E6D6B2"/>
<path d="M16.102 44.936L15.7469 43.3507C15.7723 43.1985 15.4679 43.4649 15.3918 43.5536C15.0621 43.9341 14.6943 44.4668 14.5675 44.9487C14.3773 45.6462 14.5548 46.5847 15.0621 47.1173C15.2777 47.3329 15.4806 47.4344 15.7216 47.5612C15.8991 47.65 15.9498 47.8782 15.9879 48.0685C16.0893 48.5377 15.9752 49.0577 15.7089 49.4508C15.4426 49.8313 14.986 50.1103 14.5041 50.0215C14.2631 49.9835 13.8192 49.7552 13.9841 49.4254C14.0602 49.2606 14.1617 49.2733 14.3392 49.3113C15.0367 49.4381 15.2523 48.3094 14.5802 48.1065C13.5022 47.7641 12.7159 48.9943 13.5402 49.7932C14.1236 50.3639 15.0494 50.4527 15.6455 49.8566C15.9498 49.565 16.1274 49.1464 16.1781 48.7406C16.2288 48.4362 16.2288 48.1192 16.2288 47.8148C16.2288 47.4217 16.4571 47.0793 16.5332 46.7115C16.66 46.1408 16.3683 45.4179 16.0767 44.9233" fill="#E6D6B2"/>
<path d="M13.5537 29.8072C11.829 28.6024 9.67303 29.934 9.60962 32.2041C9.58426 33.1679 9.88862 34.0049 10.3198 34.7912C11.7022 37.3403 14.8854 37.9871 17.0667 36.4145C17.2189 36.3131 17.371 36.2243 17.5359 36.1228C17.5232 36.3131 17.4598 36.4145 17.3837 36.5033C16.0394 37.8856 13.5537 38.2154 11.9685 37.1881C10.0789 35.9707 9.21647 34.043 8.89942 31.6968C8.56969 29.1984 10.0281 27.1693 11.6641 26.5098C13.2621 25.863 14.9107 25.7616 16.5213 26.4337C16.9906 26.6366 17.4471 26.8776 17.891 27.1439C18.5251 27.5117 19.1212 26.5732 18.4998 26.1801C18.4998 26.1801 18.4871 26.1801 18.4744 26.1801C16.5721 25.0007 14.581 24.6963 12.4758 25.3177C9.03893 26.345 7.09857 30.6695 8.45555 34.2713C9.64767 37.391 13.1226 39.509 16.2043 37.7208C16.7369 37.4037 17.2442 37.0233 17.7642 36.6809H17.7769C17.7135 37.1881 17.5993 37.6954 17.3584 38.1393C16.3818 39.9275 16.0394 40.2191 14.1371 41.7537C13.6298 42.1595 12.8182 42.4385 12.4504 43.0092C11.8924 43.8462 12.2729 45.4568 12.9957 45.8753H13.0084C13.3889 44.6325 14.1244 43.6814 14.9234 42.7809C15.9506 41.6395 16.7877 40.904 17.4218 39.4075C17.4725 39.306 17.7008 38.7734 17.7642 38.6846C17.6754 39.1665 17.6627 39.3441 17.5993 39.6738C17.3584 41.0562 16.6228 42.9838 16.8384 44.4296C16.9652 45.2793 17.1301 45.6471 17.612 46.0275C18.1066 46.4334 18.8675 46.0783 18.9944 45.7232C18.3856 45.7232 17.8656 45.0383 17.7388 44.6832C17.4345 43.7828 17.7388 42.1976 17.9291 40.9801C18.17 39.4963 18.4237 38.0125 18.6012 36.516C18.6773 35.8438 18.6139 35.159 18.6139 34.322C18.6139 34.322 18.6139 34.3093 18.6012 34.322C18.4237 34.5376 18.3222 34.6517 18.2334 34.7785C17.4852 35.7551 16.5721 36.4018 15.418 36.5921C13.224 36.9345 11.6641 35.7677 11.2963 33.4723C11.1442 32.5592 11.6007 31.4178 12.2982 30.9486C12.9577 30.5174 14.061 31.2276 13.8708 32.0265C13.8708 32.0265 14.619 30.5681 13.5411 29.8072H13.5537Z" fill="#E6D6B2"/>
<path d="M9.03681 36.1853C8.93535 36.0204 8.39002 35.9697 7.84469 35.0566C7.46423 34.4225 7.21059 33.725 6.90622 33.0528C6.50039 32.127 5.84093 31.5944 4.91513 31.4929C4.61076 31.4549 4.31907 31.3915 4.15421 31.3661C3.83716 31.8226 3.63424 32.3299 3.29183 32.5709C2.54358 33.0909 1.73194 32.5455 1.47829 31.4549C1.09783 29.8316 1.84607 28.4492 3.46938 27.9166C3.91325 27.7644 4.06544 27.6883 4.10348 27.0035C4.11616 26.6864 4.40785 26.2045 4.68686 26.103C5.10536 25.9508 5.62533 25.9382 6.37357 26.5596C6.5638 26.7118 6.75403 27.0542 6.90622 27.3966C7.274 28.2336 7.28668 29.1975 7.48959 30.0852C7.51496 30.2374 7.67983 30.8461 7.61642 30.8715C7.55301 30.7447 7.17254 29.9077 7.10913 29.7808C6.69062 28.9311 6.08189 28.4365 5.16878 28.4492C4.11616 28.4619 3.15232 28.6902 2.48017 29.7047C2.13776 30.212 2.01094 30.77 2.22654 31.3788C2.37872 31.81 2.75918 32.0382 3.11428 31.9114C3.5201 31.7719 3.77375 31.29 3.67229 30.8334C3.50742 30.0345 4.06543 29.2989 4.90245 29.2355C5.87897 29.1721 6.7794 29.7555 7.15986 30.9729C7.59105 32.3933 7.56568 32.9514 8.0476 34.3717C8.07297 34.4478 8.85926 35.9951 9.04949 36.1853H9.03681Z" fill="#E6D6B2"/>
<path d="M15.1523 33.8397C15.5581 34.4485 16.1542 34.6768 17.1053 34.4992C18.3608 34.2709 19.2486 31.8613 19.0837 30.8975C18.5257 27.7523 15.203 26.129 11.9437 27.3085C11.7408 27.3846 11.5379 27.486 11.3477 27.5748V27.5875C13.529 27.765 15.1142 28.6908 15.5201 31.2906C15.5201 31.2906 15.5201 31.2906 15.5327 31.2906C16.1161 30.9229 16.0781 30.2 15.3425 28.3103C15.3425 28.3103 15.3425 28.2977 15.3552 28.2977C16.1034 28.6781 16.6868 29.7561 16.6614 30.7073C16.6488 31.6711 15.9132 32.5462 15.0762 32.5335C15.0762 32.5335 14.6704 33.1042 15.1396 33.8271L15.1523 33.8397Z" fill="#E6D6B2"/>
<path d="M7.54167 37.1623C5.76618 36.2872 5.1194 36.1604 3.80046 36.5028C3.699 36.5282 3.59755 36.6043 3.49609 36.655C4.39652 37.0101 4.81503 37.8598 5.38572 38.5193C5.93105 39.1534 6.53979 39.6733 7.28803 39.9143C8.45478 40.3074 9.20303 40.4977 10.6107 40.5738C11.3083 40.6118 12.9062 40.2567 13.5403 39.8002C13.5403 39.8002 13.5403 39.7748 13.5403 39.7875C12.0438 40.2694 10.0654 40.2694 8.49283 39.0646C8.49283 39.0646 8.49283 39.0392 8.49283 39.0519C10.4332 39.8255 12.3609 39.9143 14.2759 39.2295C14.7197 39.0519 15.2904 38.7475 15.2904 38.6841C14.3266 39.0266 13.9081 38.9631 13.7559 38.9758C13.7559 38.9758 11.397 39.0139 9.38057 38.0627C7.96018 37.3906 7.54167 37.175 7.54167 37.175V37.1623Z" fill="#E6D6B2"/>
<path d="M11.3832 45.2659H11.3959C11.51 45.862 11.1042 46.5849 10.6223 46.699C9.3541 47.0034 7.94639 46.1917 7.95907 44.7459C7.95907 43.0085 9.03705 42.0447 10.5969 41.3725C11.3325 41.0555 12.0427 40.9794 12.8417 40.5989C14.5537 39.7746 14.5791 39.7239 15.4415 39.0263C15.5556 38.9376 16.1897 38.5064 16.3039 38.4303C16.4561 38.3288 16.7477 38.0752 16.7985 38.0625C16.7097 38.4176 15.2513 39.6604 15.061 39.8126C14.0972 40.5735 13.4885 41.0301 12.5119 41.7657C11.9793 42.1588 11.4086 42.5139 10.9267 42.9578C10.6223 43.2368 10.0389 43.706 9.8487 44.1118C9.58238 44.6699 9.7092 45.2532 10.0516 45.4942C10.2165 45.6083 10.9013 45.9 11.3705 45.2532L11.3832 45.2659Z" fill="#E6D6B2"/>
<path d="M4.00405 40.193C2.30465 39.673 0.617936 38.6204 0.110653 36.7561C-0.282491 35.3104 0.402343 33.6998 1.68323 33.5983C2.8373 33.5095 3.15435 34.2831 3.31922 34.9172C3.05289 34.6002 2.77389 34.3339 2.45683 34.3973C2.16515 34.448 1.493 34.8031 1.53104 35.6908C1.56909 36.642 1.87346 37.2 2.16515 37.5932C2.86266 38.5189 5.61467 40.1549 7.11116 40.4847C7.63112 40.5988 9.77439 40.9159 10.7636 41.0046C10.7636 41.0046 7.21262 41.1695 4.01673 40.193H4.00405Z" fill="#E6D6B2"/>
<path d="M8.17584 42.3362C7.74465 42.7166 7.50368 42.8561 7.09786 43.2746C6.47644 43.8961 5.84233 44.4921 5.79161 45.3925C5.76624 45.8618 5.95648 46.4705 6.43839 46.6734C6.88227 46.8637 7.40223 46.6734 7.59246 46.2676H7.60514C7.96024 46.889 7.66855 47.6626 7.03445 47.8655C6.5018 48.0304 5.77893 47.8021 5.39846 47.2695C4.5234 46.0266 4.8785 43.9595 6.69203 42.8434C7.212 42.5137 8.26461 41.943 9.08895 41.6133C8.80994 41.7655 8.37875 42.1459 8.16315 42.3362H8.17584Z" fill="#E6D6B2"/>
<path d="M8.96294 36.5022C8.34152 36.1852 6.61675 36.3881 5.85583 35.0438C5.64023 34.6633 5.50073 34.0039 5.33586 33.5346C5.15832 33.0781 4.93004 32.761 4.33398 32.7103C4.33398 32.7103 4.33398 32.7103 4.33398 32.6976C4.65104 32.3679 5.25977 32.2284 5.72901 32.3425C6.05874 32.4313 6.31238 32.9259 6.31238 33.3951C6.31238 34.3082 6.42652 35.2086 7.644 35.792C7.68205 35.8047 8.97562 36.4008 8.9883 36.5149L8.96294 36.5022Z" fill="#E6D6B2"/>
<path d="M3.01562 42.0455C4.2331 40.7265 5.53936 41.069 6.87098 41.7284C6.87098 41.7284 6.87098 41.7284 6.87098 41.7411C6.22419 42.6162 3.92873 42.7937 3.01562 42.0582C3.01562 42.0582 3.01562 42.0582 3.01562 42.0455Z" fill="#E6D6B2"/>
<path d="M8.63333 24.7205C8.63333 24.7205 8.63333 24.7078 8.64601 24.7205C9.14061 25.3165 9.2928 26.0014 9.02648 26.7369C8.67138 27.6754 8.27823 28.6012 7.83436 29.6538C7.83436 29.6538 7.82168 29.6538 7.809 29.6538C7.72022 28.7026 7.85973 27.891 8.01191 27.0793C8.15141 26.2804 8.81088 25.6463 8.63333 24.7332V24.7205Z" fill="#E6D6B2"/>
<path d="M6.88192 25.1143C6.88192 25.1143 6.86924 25.1143 6.85656 25.1143C6.72974 25.1143 5.94345 25.1523 6.09564 25.5581C6.14636 25.6976 6.28587 25.7864 6.43805 25.8371C7.50335 26.1542 7.00874 27.0927 7.40189 27.7521C7.40189 27.7521 8.21354 25.2791 6.88192 25.1269V25.1143Z" fill="#E6D6B2"/>
<path d="M9.60994 24.6701C9.41971 25.2281 9.60994 25.8622 9.60994 26.4583C9.60994 26.4583 9.60994 26.4709 9.62262 26.4583C9.78748 26.1792 10.0158 25.9256 10.1553 25.6339C10.3455 25.2281 10.3709 24.8096 10.0538 24.4545C10.0538 24.4545 9.74944 24.2896 9.62262 24.6701H9.60994Z" fill="#E6D6B2"/>
<path d="M17.2309 35.2218C17.2309 35.2218 14.9227 36.7183 13.4009 35.5008C13.4009 35.5008 12.1961 34.6004 12.5005 33.4463C12.5005 33.4463 13.8955 36.1983 17.2309 35.2218Z" fill="#E6D6B2"/>
<path d="M24.268 47.2186C24.1285 47.5737 24.0397 47.8654 23.8495 48.1951C23.6593 48.5249 23.4944 48.7785 23.1139 49.197C22.8096 49.5141 22.6193 49.8057 22.6701 50.275C22.6954 50.4906 22.7842 50.7062 22.9364 50.8584C23.1266 51.112 23.3803 51.1754 23.672 51.0359C23.8495 50.9598 23.7607 50.6554 23.5832 50.7823C23.3676 51.0993 22.8857 50.7442 23.1013 50.4272C23.5578 49.7804 24.4709 50.5413 23.9763 51.1374C23.3169 51.949 22.2643 50.9725 22.074 50.3764C21.9218 49.9072 21.9092 49.3746 22.074 48.6263C22.2135 47.9795 22.7081 47.3961 23.0632 46.8508C23.4564 46.2674 23.9129 45.7602 24.2046 45.1134C24.5343 44.3651 24.547 43.6549 24.6358 42.8686C24.6358 42.856 24.6612 42.8433 24.6738 42.8686C24.8768 43.5028 24.8007 44.2383 24.7499 44.8851C24.6865 45.646 24.547 46.5084 24.2807 47.2186H24.268Z" fill="#E6D6B2"/>
<path d="M24.3953 44.936L24.7504 43.3507C24.725 43.1985 25.0294 43.4649 25.1055 43.5536C25.4352 43.9341 25.803 44.4668 25.9298 44.9487C26.12 45.6462 25.9425 46.5847 25.4352 47.1173C25.2196 47.3329 25.0167 47.4344 24.7757 47.5612C24.5982 47.65 24.5474 47.8782 24.5094 48.0685C24.4079 48.5377 24.5221 49.0577 24.7884 49.4508C25.0547 49.8313 25.5113 50.1103 25.9932 50.0215C26.2342 49.9835 26.678 49.7552 26.5132 49.4254C26.4371 49.2606 26.3356 49.2733 26.1581 49.3113C25.4605 49.4381 25.245 48.3094 25.9171 48.1065C26.9951 47.7641 27.7814 48.9943 26.957 49.7932C26.3737 50.3639 25.4479 50.4527 24.8518 49.8566C24.5474 49.565 24.3699 49.1464 24.3192 48.7406C24.2684 48.4362 24.2684 48.1192 24.2684 47.8148C24.2684 47.4217 24.0402 47.0793 23.9641 46.7115C23.8372 46.1408 24.1289 45.4179 24.4206 44.9233" fill="#E6D6B2"/>
<path d="M26.9426 29.8072C28.6673 28.6024 30.8233 29.934 30.8867 32.2041C30.9121 33.1679 30.6077 34.0049 30.1765 34.7912C28.7941 37.3403 25.6109 37.9871 23.4296 36.4145C23.2774 36.3131 23.1253 36.2243 22.9604 36.1228C22.9731 36.3131 23.0365 36.4145 23.1126 36.5033C24.4569 37.8856 26.9426 38.2154 28.5278 37.1881C30.4174 35.9707 31.2798 34.043 31.5969 31.6968C31.9266 29.1984 30.4682 27.1693 28.8322 26.5098C27.2342 25.863 25.5856 25.7616 23.975 26.4337C23.5057 26.6366 23.0492 26.8776 22.6053 27.1439C21.9712 27.5117 21.3751 26.5732 21.9966 26.1801C21.9966 26.1801 22.0092 26.1801 22.0219 26.1801C23.9242 25.0007 25.9153 24.6963 28.0205 25.3177C31.4574 26.345 33.3977 30.6695 32.0408 34.2713C30.8486 37.391 27.3738 39.509 24.292 37.7208C23.7594 37.4037 23.2521 37.0233 22.7321 36.6809H22.7194C22.7828 37.1881 22.897 37.6954 23.1379 38.1393C24.1145 39.9275 24.4569 40.2191 26.3592 41.7537C26.8665 42.1595 27.6781 42.4385 28.0459 43.0092C28.6039 43.8462 28.2235 45.4568 27.5006 45.8753H27.4879C27.1074 44.6325 26.3719 43.6814 25.5729 42.7809C24.5456 41.6395 23.7086 40.904 23.0745 39.4075C23.0238 39.306 22.7955 38.7734 22.7321 38.6846C22.8209 39.1665 22.8336 39.3441 22.897 39.6738C23.1379 41.0562 23.8735 42.9838 23.6579 44.4296C23.5311 45.2793 23.3662 45.6471 22.8843 46.0275C22.3897 46.4334 21.6288 46.0783 21.502 45.7232C22.1107 45.7232 22.6307 45.0383 22.7575 44.6832C23.0618 43.7828 22.7575 42.1976 22.5673 40.9801C22.3263 39.4963 22.0726 38.0125 21.8951 36.516C21.819 35.8438 21.8824 35.159 21.8824 34.322C21.8824 34.322 21.8824 34.3093 21.8951 34.322C22.0726 34.5376 22.1741 34.6517 22.2629 34.7785C23.0111 35.7551 23.9242 36.4018 25.0783 36.5921C27.2723 36.9345 28.8322 35.7677 29.2 33.4723C29.3522 32.5592 28.8956 31.4178 28.1981 30.9486C27.5386 30.5174 26.4353 31.2276 26.6255 32.0265C26.6255 32.0265 25.8773 30.5681 26.9552 29.8072H26.9426Z" fill="#E6D6B2"/>
<path d="M31.4443 36.1853C31.5458 36.0204 32.0911 35.9697 32.6364 35.0566C33.0169 34.4225 33.2705 33.725 33.5749 33.0528C33.9807 32.127 34.6402 31.5944 35.566 31.4929C35.8704 31.4549 36.1621 31.3915 36.3269 31.3661C36.644 31.8226 36.8469 32.3299 37.1893 32.5709C37.9375 33.0909 38.7492 32.5455 39.0028 31.4549C39.3833 29.8316 38.6351 28.4492 37.0118 27.9166C36.5679 27.7644 36.4157 27.6883 36.3777 27.0035C36.365 26.6864 36.0733 26.2045 35.7943 26.103C35.3758 25.9508 34.8558 25.9382 34.1076 26.5596C33.9173 26.7118 33.7271 27.0542 33.5749 27.3966C33.2071 28.2336 33.1944 29.1975 32.9915 30.0852C32.9662 30.2374 32.8013 30.8461 32.8647 30.8715C32.9281 30.7447 33.3086 29.9077 33.372 29.7808C33.7905 28.9311 34.3992 28.4365 35.3124 28.4492C36.365 28.4619 37.3288 28.6902 38.001 29.7047C38.3434 30.212 38.4702 30.77 38.2546 31.3788C38.1024 31.81 37.7219 32.0382 37.3669 31.9114C36.961 31.7719 36.7074 31.29 36.8088 30.8334C36.9737 30.0345 36.4157 29.2989 35.5787 29.2355C34.6022 29.1721 33.7017 29.7555 33.3213 30.9729C32.8901 32.3933 32.9154 32.9514 32.4335 34.3717C32.4082 34.4478 31.6219 35.9951 31.4316 36.1853H31.4443Z" fill="#E6D6B2"/>
<path d="M25.332 33.8397C24.9262 34.4485 24.3301 34.6768 23.379 34.4992C22.1235 34.2709 21.2357 31.8613 21.4006 30.8975C21.9586 27.7523 25.2813 26.129 28.5406 27.3085C28.7435 27.3846 28.9464 27.486 29.1366 27.5748V27.5875C26.9553 27.765 25.3701 28.6908 24.9642 31.2906C24.9642 31.2906 24.9642 31.2906 24.9516 31.2906C24.3682 30.9229 24.4062 30.2 25.1418 28.3103C25.1418 28.3103 25.1418 28.2977 25.1291 28.2977C24.3809 28.6781 23.7975 29.7561 23.8228 30.7073C23.8355 31.6711 24.5711 32.5462 25.4081 32.5335C25.4081 32.5335 25.8139 33.1042 25.3447 33.8271L25.332 33.8397Z" fill="#E6D6B2"/>
<path d="M32.9538 37.1623C34.7293 36.2872 35.3761 36.1604 36.695 36.5028C36.7965 36.5282 36.898 36.6043 36.9994 36.655C36.099 37.0101 35.6805 37.8598 35.1098 38.5193C34.5645 39.1534 33.9557 39.6733 33.2075 39.9143C32.0407 40.3074 31.2925 40.4977 29.8848 40.5738C29.1873 40.6118 27.5893 40.2567 26.9552 39.8002C26.9552 39.8002 26.9552 39.7748 26.9552 39.7875C28.4517 40.2694 30.4301 40.2694 32.0027 39.0646C32.0027 39.0646 32.0027 39.0392 32.0027 39.0519C30.0623 39.8255 28.1346 39.9143 26.2196 39.2295C25.7758 39.0519 25.2051 38.7475 25.2051 38.6841C26.1689 39.0266 26.5874 38.9631 26.7396 38.9758C26.7396 38.9758 29.0985 39.0139 31.1149 38.0627C32.5353 37.3906 32.9538 37.175 32.9538 37.175V37.1623Z" fill="#E6D6B2"/>
<path d="M29.1125 45.2659H29.0998C28.9857 45.862 29.3915 46.5849 29.8734 46.699C31.1416 47.0034 32.5494 46.1917 32.5367 44.7459C32.5367 43.0085 31.4587 42.0447 29.8988 41.3725C29.1632 41.0555 28.453 40.9794 27.6541 40.5989C25.942 39.7746 25.9166 39.7239 25.0542 39.0263C24.9401 38.9376 24.306 38.5064 24.1919 38.4303C24.0397 38.3288 23.748 38.0752 23.6973 38.0625C23.786 38.4176 25.2445 39.6604 25.4347 39.8126C26.3985 40.5735 27.0073 41.0301 27.9838 41.7657C28.5164 42.1588 29.0871 42.5139 29.5691 42.9578C29.8734 43.2368 30.4568 43.706 30.647 44.1118C30.9134 44.6699 30.7865 45.2532 30.4441 45.4942C30.2793 45.6083 29.5944 45.9 29.1252 45.2532L29.1125 45.2659Z" fill="#E6D6B2"/>
<path d="M36.4802 40.193C38.1796 39.673 39.8664 38.6204 40.3736 36.7561C40.7668 35.3104 40.082 33.6998 38.8011 33.5983C37.647 33.5095 37.3299 34.2831 37.1651 34.9172C37.4314 34.6002 37.7104 34.3339 38.0275 34.3973C38.3191 34.448 38.9913 34.8031 38.9532 35.6908C38.9152 36.642 38.6108 37.2 38.3191 37.5932C37.6216 38.5189 34.8696 40.1549 33.3731 40.4847C32.8532 40.5988 30.7099 40.9159 29.7207 41.0046C29.7207 41.0046 33.2717 41.1695 36.4676 40.193H36.4802Z" fill="#E6D6B2"/>
<path d="M32.3194 42.3362C32.7506 42.7166 32.9915 42.8561 33.3973 43.2746C34.0188 43.8961 34.6529 44.4921 34.7036 45.3925C34.729 45.8618 34.5387 46.4705 34.0568 46.6734C33.6129 46.8637 33.093 46.6734 32.9027 46.2676H32.8901C32.535 46.889 32.8266 47.6626 33.4607 47.8655C33.9934 48.0304 34.7163 47.8021 35.0967 47.2695C35.9718 46.0266 35.6167 43.9595 33.8032 42.8434C33.2832 42.5137 32.2306 41.943 31.4062 41.6133C31.6853 41.7655 32.1165 42.1459 32.332 42.3362H32.3194Z" fill="#E6D6B2"/>
<path d="M31.5332 36.5022C32.1546 36.1852 33.8794 36.3881 34.6403 35.0438C34.8559 34.6633 34.9954 34.0039 35.1603 33.5346C35.3378 33.0781 35.5661 32.761 36.1621 32.7103C36.1621 32.7103 36.1621 32.7103 36.1621 32.6976C35.8451 32.3679 35.2363 32.2284 34.7671 32.3425C34.4374 32.4313 34.1837 32.9259 34.1837 33.3951C34.1837 34.3082 34.0696 35.2086 32.8521 35.792C32.8141 35.8047 31.5205 36.4008 31.5078 36.5149L31.5332 36.5022Z" fill="#E6D6B2"/>
<path d="M37.4686 42.0455C36.2512 40.7265 34.9449 41.069 33.6133 41.7284C33.6133 41.7284 33.6133 41.7284 33.6133 41.7411C34.2601 42.6162 36.5555 42.7937 37.4686 42.0582C37.4686 42.0582 37.4686 42.0582 37.4686 42.0455Z" fill="#E6D6B2"/>
<path d="M31.8627 24.7205C31.8627 24.7205 31.8627 24.7078 31.85 24.7205C31.3554 25.3165 31.2032 26.0014 31.4695 26.7369C31.8246 27.6754 32.2178 28.6012 32.6616 29.6538C32.6616 29.6538 32.6743 29.6538 32.687 29.6538C32.7758 28.7026 32.6363 27.891 32.4841 27.0793C32.3446 26.2804 31.6851 25.6463 31.8627 24.7332V24.7205Z" fill="#E6D6B2"/>
<path d="M33.6145 25.1143C33.6145 25.1143 33.6272 25.1143 33.6399 25.1143C33.7667 25.1143 34.553 25.1523 34.4008 25.5581C34.3501 25.6976 34.2106 25.7864 34.0584 25.8371C32.9931 26.1542 33.4877 27.0927 33.0946 27.7521C33.0946 27.7521 32.2829 25.2791 33.6145 25.1269V25.1143Z" fill="#E6D6B2"/>
<path d="M30.8871 24.6701C31.0773 25.2281 30.8871 25.8622 30.8871 26.4583C30.8871 26.4583 30.8871 26.4709 30.8744 26.4583C30.7095 26.1792 30.4813 25.9256 30.3418 25.6339C30.1515 25.2281 30.1262 24.8096 30.4432 24.4545C30.4432 24.4545 30.7476 24.2896 30.8744 24.6701H30.8871Z" fill="#E6D6B2"/>
<path d="M23.2656 35.2218C23.2656 35.2218 25.5738 36.7183 27.0956 35.5008C27.0956 35.5008 28.3004 34.6004 27.996 33.4463C27.996 33.4463 26.601 36.1983 23.2656 35.2218Z" fill="#E6D6B2"/>
<path d="M20.148 2.57799C20.148 2.57799 19.1969 -0.110605 20.1861 0.00353394C21.1753 0.117673 20.2241 2.45117 20.148 2.57799Z" fill="#E6D6B2"/>
<path d="M25.5646 12.5328C25.6027 12.089 25.4505 11.7466 25.6661 11.3154C25.8944 10.8461 26.2875 10.5544 26.668 10.212C26.6933 10.1867 26.668 10.1233 26.6299 10.1359C25.9451 10.3642 25.5393 10.973 24.9559 11.3661C24.6769 11.5436 24.3598 11.5944 24.0935 11.8227C23.7765 12.1017 23.6116 12.4948 23.4087 12.8626C23.0789 13.484 22.7492 14.0674 22.4956 14.7142C22.2292 15.4117 21.7093 15.5005 21.0625 15.7287C21.5825 15.9316 22.1278 15.6526 22.6351 15.5765C22.6351 15.5765 25.349 15.1454 25.552 12.5455L25.5646 12.5328Z" fill="#E6D6B2"/>
<path d="M24.5631 11.7972C24.7534 11.4675 24.9182 11.2138 25.0577 10.8587C25.1972 10.5036 25.2987 10.2119 25.3748 9.65391C25.4382 9.22272 25.5396 8.88031 25.9328 8.63935C26.1103 8.52521 26.3386 8.4618 26.5542 8.47448C26.8713 8.47448 27.0742 8.61398 27.1629 8.93104C27.2137 9.12127 26.922 9.23541 26.9093 9.01981C27.0108 8.65203 26.4401 8.49984 26.3386 8.86762C26.123 9.62855 27.2898 9.85683 27.442 9.0959C27.6575 8.08134 26.2372 7.86574 25.6411 8.09402C25.1845 8.27157 24.766 8.6013 24.2841 9.19736C23.8656 9.71732 23.7261 10.4656 23.5232 11.0743C23.3076 11.7465 23.2188 12.4186 22.8891 13.0527C22.5086 13.7756 21.976 14.2448 21.418 14.8028C21.418 14.8028 21.418 14.8409 21.4307 14.8282C22.0521 14.5872 22.572 14.0673 23.0413 13.6107C23.5866 13.0781 24.17 12.4313 24.5504 11.7718L24.5631 11.7972Z" fill="#E6D6B2"/>
<path d="M21.9889 15.7164L20.4417 16.1856C20.2895 16.1856 20.5812 16.4519 20.6699 16.528C21.0631 16.8324 21.6338 17.1494 22.1157 17.2509C22.8259 17.3904 23.7517 17.1494 24.2463 16.6041C24.4492 16.3758 24.538 16.1602 24.6521 15.9066C24.7282 15.7164 24.9565 15.653 25.134 15.6022C25.5906 15.4627 26.1232 15.5388 26.529 15.7798C26.9349 16.0081 27.2392 16.4519 27.1885 16.9339C27.1632 17.1748 26.9729 17.6314 26.6305 17.5045C26.4656 17.4411 26.4656 17.3397 26.491 17.1621C26.5671 16.4519 25.4257 16.3251 25.2608 17.0099C24.9945 18.1133 26.2881 18.7981 27.011 17.9231C27.5309 17.3016 27.5563 16.3758 26.9222 15.8178C26.6051 15.5388 26.174 15.3993 25.7681 15.3613C25.4638 15.3359 25.1467 15.3613 24.8423 15.374C24.4492 15.3993 24.0941 15.2091 23.7263 15.1457C23.1429 15.0569 22.4454 15.412 21.9762 15.7291" fill="#E6D6B2"/>
<path d="M22.5817 10.8467C22.81 10.6438 23.089 10.5043 23.2792 10.2634C23.6089 9.87022 23.4694 9.36293 22.9875 9.1727C22.1885 8.86833 21.4149 9.74339 21.0725 10.3902C20.8696 10.7706 20.6286 11.3413 20.5525 11.7472C20.4511 12.2671 20.3877 12.749 20.375 13.1676C20.375 13.231 20.5018 13.3578 20.5272 13.3071C20.6413 12.9773 20.8823 12.3432 21.1613 12.1276L22.5817 10.8467Z" fill="#E6D6B2"/>
<path d="M21.9103 7.38436C20.8196 7.15608 19.9192 8.67793 19.8558 9.60372C19.7797 10.7451 19.9572 11.8992 20.1855 13.0152C20.1855 13.0532 20.2489 13.0406 20.2616 13.0152C20.325 12.0514 20.4391 10.8846 20.9084 10.073C21.0859 9.76859 21.4664 9.40081 21.6947 9.1218C21.9737 8.7667 22.278 8.66525 22.3795 8.20869C22.4556 7.87896 22.278 7.46045 21.9103 7.39704V7.38436Z" fill="#E6D6B2"/>
<path d="M19.627 8.14583C19.627 8.14583 19.665 8.19656 19.6777 8.17119C20.185 7.2454 20.9205 6.67471 21.9604 6.48448C22.1634 6.44643 22.3663 6.42107 22.5692 6.42107C22.7721 6.42107 22.975 6.47179 23.1652 6.3957C23.3174 6.33229 23.2921 6.21815 23.3808 6.42107C23.495 6.67471 23.4189 6.97908 23.2667 7.19467C23.1652 7.33418 23.0384 7.43563 22.8862 7.51172C22.8102 7.54977 22.5692 7.66391 22.4677 7.65123C22.3536 7.65123 22.2775 7.54977 22.3409 7.47368C22.5946 7.42295 22.5692 7.1059 22.4043 6.99176C22.1126 6.76348 21.6561 6.99176 21.7068 7.39759C21.7575 7.70195 22.1126 7.8795 22.3916 7.85414C22.7594 7.82878 23.1652 7.58782 23.4062 7.29613C23.6852 6.94103 23.7613 6.50984 23.6599 6.10401C23.5077 5.49527 23.0511 5.41918 23.0511 5.41918C23.0511 5.41918 24.9407 4.86117 25.1563 4.22707C25.2451 3.94806 25.1817 3.68174 24.9788 3.46614C24.4842 2.95886 23.774 3.352 23.254 3.58028C23.0257 3.68174 22.8102 3.79588 22.6199 3.9227C22.8228 3.55492 23.0638 3.02227 22.9623 2.60376C22.7975 1.89357 22.5058 1.67797 22.2268 1.43701C22.2268 1.43701 23.0384 2.78131 20.5654 4.87385C19.3987 5.86305 19.6777 8.17119 19.6777 8.17119L19.627 8.14583Z" fill="#E6D6B2"/>
<path d="M25.5254 14.6635C25.5254 14.6635 28.2647 14.2957 27.656 13.5094C27.0472 12.7232 25.6015 14.5367 25.5254 14.6635Z" fill="#E6D6B2"/>
<path d="M20.1723 2.61657C20.1723 2.61657 21.1234 -0.0720305 20.1342 0.0421082C19.145 0.156247 20.0962 2.48975 20.1723 2.61657Z" fill="#E6D6B2"/>
</g>
</svg>
