<svg width="34" height="111" viewBox="0 0 34 111" fill="none" xmlns="http://www.w3.org/2000/svg">
<path d="M15.957 56.5854L15.957 154.16C15.957 154.624 16.333 155 16.7968 155C17.2606 155 17.6366 154.624 17.6366 154.16L17.6366 56.5854C17.6366 56.1216 17.2606 55.7456 16.7968 55.7456C16.333 55.7456 15.957 56.1216 15.957 56.5854Z" fill="#E6D6B2"/>
<g opacity="0.8">
<path d="M14.5443 53.3094C15.2153 53.5163 16.0672 52.7921 16.3548 52.3524C16.5252 52.0938 16.5891 51.8437 16.5784 51.5592C16.5784 51.2747 16.6104 50.9816 16.6317 50.6971C16.6317 50.654 16.5571 50.654 16.5465 50.6885C16.4506 50.9126 16.3122 51.154 16.0779 51.3092C15.8649 51.4471 15.6412 51.5765 15.4389 51.723C15.2472 51.861 15.0875 52.0334 14.8851 52.18C14.6934 52.3179 14.4591 52.4128 14.2994 52.5766C14.0225 52.8438 14.1396 53.1887 14.5443 53.318V53.3094Z" fill="#E6D6B2"/>
<path d="M15.4633 54.5255C16.3792 54.6806 17.1353 53.6461 17.1886 53.0167C17.2525 52.2407 17.1034 51.4562 16.9117 50.6975C16.9117 50.6716 16.8584 50.6802 16.8478 50.6975C16.7945 51.3527 16.8052 52.1459 16.3046 52.6977C16.1236 52.8874 15.9638 53.0943 15.7721 53.284C15.5378 53.5254 15.1544 53.6547 15.0693 53.9737C15.0054 54.1978 15.1544 54.4824 15.4633 54.5255Z" fill="#E6D6B2"/>
<path d="M19.3804 53.3094C18.7094 53.5163 17.8574 52.7921 17.5699 52.3524C17.3995 52.0938 17.3356 51.8437 17.3462 51.5592C17.3462 51.2747 17.3143 50.9816 17.293 50.6971C17.293 50.654 17.3569 50.654 17.3782 50.6885C17.474 50.9126 17.6125 51.154 17.8468 51.3092C18.0598 51.4471 18.2834 51.5765 18.4858 51.723C18.6775 51.861 18.8372 52.0334 19.0396 52.18C19.2313 52.3179 19.4656 52.4128 19.6253 52.5766C19.9022 52.8438 19.7851 53.1887 19.3804 53.318V53.3094Z" fill="#E6D6B2"/>
<path d="M18.4786 54.5255C17.5733 54.6806 16.8065 53.6461 16.7533 53.0167C16.6894 52.2407 16.8385 51.4562 17.0302 50.6975C17.0302 50.6716 17.0834 50.6802 17.0941 50.6975C17.1473 51.3527 17.1367 52.1459 17.6372 52.6977C17.8183 52.8874 17.978 53.0943 18.1697 53.284C18.404 53.5254 18.7874 53.6547 18.8726 53.9737C18.9365 54.1978 18.7874 54.4824 18.4786 54.5255Z" fill="#E6D6B2"/>
<path d="M16.0918 55.1546C16.0918 54.758 16.4858 54.439 16.9757 54.439C17.4656 54.439 17.8597 54.758 17.8597 55.1546C17.8597 55.5512 17.4656 55.8702 16.9757 55.8702C16.4858 55.8702 16.0918 55.5512 16.0918 55.1546Z" fill="#E6D6B2"/>
<path d="M16.9654 51.4996C17.3065 51.4996 17.5831 51.2757 17.5831 50.9996C17.5831 50.7234 17.3065 50.4995 16.9654 50.4995C16.6242 50.4995 16.3477 50.7234 16.3477 50.9996C16.3477 51.2757 16.6242 51.4996 16.9654 51.4996Z" fill="#E6D6B2"/>
<path d="M16.3477 49.2315C16.3477 48.9556 16.6246 48.7314 16.9654 48.7314C17.3062 48.7314 17.5831 48.9556 17.5831 49.2315C17.5831 49.5074 17.3062 49.7315 16.9654 49.7315C16.6246 49.7315 16.3477 49.5074 16.3477 49.2315Z" fill="#E6D6B2"/>
<path d="M15.9805 47.4729C15.9805 47.0332 16.4171 46.6797 16.9603 46.6797C17.5034 46.6797 17.9401 47.0332 17.9401 47.4729C17.9401 47.9126 17.5034 48.2661 16.9603 48.2661C16.4171 48.2661 15.9805 47.9126 15.9805 47.4729Z" fill="#E6D6B2"/>
<path d="M15.9805 46.0509C15.9805 45.8353 16.4171 45.6543 16.9603 45.6543C17.5034 45.6543 17.9401 45.8267 17.9401 46.0509C17.9401 46.2751 17.5034 46.4475 16.9603 46.4475C16.4171 46.4475 15.9805 46.2751 15.9805 46.0509Z" fill="#E6D6B2"/>
<path d="M14.5482 38.7219C15.2192 38.515 16.0712 39.2392 16.3587 39.6789C16.5291 39.9376 16.593 40.1876 16.5824 40.4721C16.5824 40.7566 16.6143 41.0497 16.6356 41.3343C16.6356 41.3774 16.5611 41.3774 16.5504 41.3429C16.4546 41.1187 16.3161 40.8773 16.0818 40.7221C15.8688 40.5842 15.6452 40.4549 15.4428 40.3083C15.2511 40.1703 15.0914 39.9979 14.889 39.8513C14.6973 39.7134 14.463 39.6186 14.3033 39.4547C14.0264 39.1875 14.1435 38.8426 14.5482 38.7133V38.7219Z" fill="#E6D6B2"/>
<path d="M15.4633 37.5059C16.3792 37.3507 17.1353 38.3853 17.1886 39.0147C17.2525 39.7906 17.1034 40.5752 16.9117 41.3339C16.9117 41.3597 16.8584 41.3511 16.8478 41.3339C16.7945 40.6786 16.8052 39.8854 16.3046 39.3337C16.1236 39.144 15.9638 38.9371 15.7721 38.7474C15.5378 38.506 15.1544 38.3767 15.0693 38.0577C15.0054 37.8335 15.1544 37.549 15.4633 37.5059Z" fill="#E6D6B2"/>
<path d="M19.3804 38.7219C18.7094 38.515 17.8574 39.2392 17.5699 39.6789C17.3995 39.9376 17.3356 40.1876 17.3462 40.4721C17.3462 40.7566 17.3143 41.0497 17.293 41.3343C17.293 41.3774 17.3569 41.3774 17.3782 41.3429C17.474 41.1187 17.6125 40.8773 17.8468 40.7221C18.0598 40.5842 18.2834 40.4549 18.4858 40.3083C18.6775 40.1703 18.8372 39.9979 19.0396 39.8513C19.2313 39.7134 19.4656 39.6186 19.6253 39.4547C19.9022 39.1875 19.7851 38.8426 19.3804 38.7133V38.7219Z" fill="#E6D6B2"/>
<path d="M18.4786 37.5059C17.5733 37.3507 16.8065 38.3853 16.7533 39.0147C16.6894 39.7906 16.8385 40.5752 17.0302 41.3339C17.0302 41.3597 17.0834 41.3511 17.0941 41.3339C17.1473 40.6786 17.1367 39.8854 17.6372 39.3337C17.8183 39.144 17.978 38.9371 18.1697 38.7474C18.404 38.506 18.7874 38.3767 18.8726 38.0577C18.9365 37.8335 18.7874 37.549 18.4786 37.5059Z" fill="#E6D6B2"/>
<path d="M16.0918 36.8855C16.0918 37.2821 16.4858 37.6011 16.9757 37.6011C17.4656 37.6011 17.8597 37.2821 17.8597 36.8855C17.8597 36.4889 17.4656 36.1699 16.9757 36.1699C16.4858 36.1699 16.0918 36.4889 16.0918 36.8855Z" fill="#E6D6B2"/>
<path d="M16.9654 41.5323C17.3065 41.5323 17.5831 41.3085 17.5831 41.0323C17.5831 40.7561 17.3065 40.5322 16.9654 40.5322C16.6242 40.5322 16.3477 40.7561 16.3477 41.0323C16.3477 41.3085 16.6242 41.5323 16.9654 41.5323Z" fill="#E6D6B2"/>
<path d="M16.9654 43.2999C17.3065 43.2999 17.5831 43.076 17.5831 42.7999C17.5831 42.5237 17.3065 42.2998 16.9654 42.2998C16.6242 42.2998 16.3477 42.5237 16.3477 42.7999C16.3477 43.076 16.6242 43.2999 16.9654 43.2999Z" fill="#E6D6B2"/>
<path d="M15.9805 44.5588C15.9805 44.9985 16.4171 45.352 16.9603 45.352C17.5034 45.352 17.9401 44.9985 17.9401 44.5588C17.9401 44.1191 17.5034 43.7656 16.9603 43.7656C16.4171 43.7656 15.9805 44.1191 15.9805 44.5588Z" fill="#E6D6B2"/>
<path d="M15.9805 45.9816C15.9805 46.1971 16.4171 46.3781 16.9603 46.3781C17.5034 46.3781 17.9401 46.2057 17.9401 45.9816C17.9401 45.7574 17.5034 45.585 16.9603 45.585C16.4171 45.585 15.9805 45.7574 15.9805 45.9816Z" fill="#E6D6B2"/>
<path d="M16.1567 34.3594C16.1567 34.3594 16.2206 36.2389 15.4857 35.9113C14.7509 35.5836 16.0502 34.4197 16.1567 34.3594Z" fill="#E6D6B2"/>
<path d="M17.8588 34.3594C17.8588 34.3594 17.7949 36.2389 18.5298 35.9113C19.2646 35.5836 17.9653 34.4197 17.8588 34.3594Z" fill="#E6D6B2"/>
<path d="M12.3941 8.49486C12.3622 8.19311 12.49 7.96033 12.3089 7.66719C12.1172 7.34819 11.7871 7.1499 11.4676 6.91712C11.4463 6.89987 11.4676 6.85676 11.4995 6.86539C12.0746 7.02057 12.4154 7.43441 12.9053 7.70168C13.1396 7.82238 13.4059 7.85687 13.6295 8.01206C13.8958 8.20173 14.0342 8.469 14.2046 8.71903C14.4815 9.14148 14.7584 9.53808 14.9714 9.97778C15.195 10.452 15.6317 10.5123 16.1748 10.6675C15.7382 10.8054 15.2802 10.6158 14.8542 10.564C14.8542 10.564 12.5752 10.2709 12.4048 8.50349L12.3941 8.49486Z" fill="#E6D6B2"/>
<path d="M13.2329 7.99468C13.0732 7.77052 12.9348 7.59809 12.8176 7.35669C12.7005 7.11528 12.6153 6.91698 12.5514 6.53763C12.4981 6.2445 12.4129 6.01172 12.0828 5.84791C11.9337 5.77031 11.742 5.72721 11.5609 5.73583C11.2947 5.73583 11.1243 5.83067 11.0497 6.0462C11.0071 6.17553 11.2521 6.25312 11.2627 6.10656C11.1775 5.85653 11.6568 5.75307 11.742 6.0031C11.923 6.52039 10.9432 6.67558 10.8154 6.15829C10.6344 5.46856 11.8272 5.32199 12.3277 5.47718C12.7111 5.59788 13.0626 5.82204 13.4672 6.22726C13.8187 6.58074 13.9358 7.08942 14.1062 7.50325C14.2873 7.9602 14.3618 8.41714 14.6387 8.84822C14.9582 9.33965 15.4055 9.65865 15.8741 10.038C15.8741 10.038 15.8741 10.0639 15.8635 10.0552C15.3416 9.89143 14.905 9.53795 14.5109 9.22757C14.053 8.86546 13.5631 8.42576 13.2436 7.97744L13.2329 7.99468Z" fill="#E6D6B2"/>
<path d="M15.3934 10.6591L16.6927 10.9781C16.8205 10.9781 16.5756 11.1592 16.501 11.2109C16.1709 11.4178 15.6916 11.6333 15.2869 11.7023C14.6905 11.7971 13.9131 11.6333 13.4977 11.2626C13.3273 11.1074 13.2528 10.9609 13.1569 10.7884C13.093 10.6591 12.9013 10.616 12.7522 10.5815C12.3688 10.4867 11.9215 10.5384 11.5807 10.7022C11.2399 10.8574 10.9843 11.1592 11.0269 11.4868C11.0482 11.6506 11.208 11.961 11.4955 11.8747C11.634 11.8316 11.634 11.7627 11.6127 11.642C11.5488 11.1592 12.5073 11.0729 12.6457 11.5385C12.8694 12.2886 11.7831 12.7541 11.176 12.1593C10.7394 11.7368 10.7181 11.1074 11.2506 10.7281C11.5168 10.5384 11.8789 10.4436 12.2197 10.4177C12.4753 10.4005 12.7416 10.4177 12.9972 10.4263C13.3273 10.4436 13.6255 10.3142 13.9344 10.2711C14.4243 10.2108 15.01 10.4522 15.4041 10.6677" fill="#E6D6B2"/>
<path d="M14.8851 7.34743C14.6934 7.20948 14.4591 7.11465 14.2994 6.95084C14.0225 6.68357 14.1396 6.3387 14.5443 6.20938C15.2153 6.00246 15.8649 6.59735 16.1524 7.03705C16.3228 7.2957 16.5252 7.68367 16.5891 7.95956C16.6743 8.31305 16.7275 8.64067 16.7382 8.92518C16.7382 8.96829 16.6317 9.0545 16.6104 9.02002C16.5145 8.79585 16.3122 8.36477 16.0779 8.21821L14.8851 7.34743Z" fill="#E6D6B2"/>
<path d="M15.4633 4.99417C16.3792 4.83898 17.1353 5.87357 17.1886 6.50295C17.2525 7.27889 17.1034 8.06345 16.9117 8.82215C16.9117 8.84802 16.8584 8.8394 16.8478 8.82215C16.7945 8.16691 16.6987 7.37373 16.3046 6.82195C16.1555 6.61503 15.836 6.365 15.6443 6.17533C15.4101 5.93392 15.1544 5.86495 15.0693 5.55457C15.0054 5.33041 15.1544 5.0459 15.4633 5.00279V4.99417Z" fill="#E6D6B2"/>
<path d="M17.3814 5.5115C17.3814 5.5115 17.3494 5.54599 17.3387 5.52874C16.9128 4.89937 16.2951 4.5114 15.4218 4.38207C15.2514 4.35621 15.081 4.33897 14.9106 4.33897C14.7402 4.33897 14.5698 4.37345 14.41 4.32172C14.2822 4.27862 14.3035 4.20102 14.229 4.33897C14.1331 4.5114 14.197 4.71832 14.3248 4.86488C14.41 4.95972 14.5165 5.02869 14.6443 5.08042C14.7082 5.10629 14.9106 5.18388 14.9958 5.17526C15.0916 5.17526 15.1555 5.10629 15.1023 5.05456C14.8893 5.02007 14.9106 4.80453 15.049 4.72694C15.294 4.57175 15.6774 4.72694 15.6348 5.00283C15.5922 5.20975 15.294 5.33045 15.0597 5.31321C14.7508 5.29596 14.41 5.13215 14.2077 4.93386C13.9734 4.69245 13.9095 4.39932 13.9947 4.12343C14.1225 3.70959 14.5059 3.65786 14.5059 3.65786C14.5059 3.65786 12.919 3.27851 12.738 2.84743C12.6634 2.65776 12.7167 2.4767 12.8871 2.33014C13.3024 1.98527 13.8988 2.25254 14.3355 2.40773C14.5272 2.4767 14.7082 2.5543 14.868 2.64051C14.6976 2.39049 14.4952 2.02838 14.5804 1.74387C14.7189 1.26106 14.9638 1.11449 15.1981 0.950684C15.1981 0.950684 14.5165 1.86457 16.5933 3.28713C17.5731 3.95962 17.3387 5.52874 17.3387 5.52874L17.3814 5.5115Z" fill="#E6D6B2"/>
<path d="M16.3477 15.6935C16.3477 15.3055 16.6246 14.9951 16.9654 14.9951C17.3062 14.9951 17.5831 15.3055 17.5831 15.6935C17.5831 16.0814 17.3062 16.3918 16.9654 16.3918C16.6246 16.3918 16.3477 16.0814 16.3477 15.6935Z" fill="#E6D6B2"/>
<path d="M15.9805 12.952C15.9805 12.3399 16.4171 11.8398 16.9603 11.8398C17.5034 11.8398 17.9401 12.3399 17.9401 12.952C17.9401 13.5642 17.5034 14.0642 16.9603 14.0642C16.4171 14.0642 15.9805 13.5642 15.9805 12.952Z" fill="#E6D6B2"/>
<path d="M16.3477 25.8589C16.3477 25.721 16.6246 25.6089 16.9654 25.6089C17.3062 25.6089 17.5831 25.721 17.5831 25.8589C17.5831 25.9969 17.3062 26.1089 16.9654 26.1089C16.6246 26.1089 16.3477 25.9969 16.3477 25.8589Z" fill="#E6D6B2"/>
<path d="M16.3477 11.3219C16.3477 11.1322 16.6246 10.9771 16.9654 10.9771C17.3062 10.9771 17.5831 11.1322 17.5831 11.3219C17.5831 11.5116 17.3062 11.6668 16.9654 11.6668C16.6246 11.6668 16.3477 11.5116 16.3477 11.3219Z" fill="#E6D6B2"/>
<path d="M15.9805 8.95168C15.9805 8.64993 16.4171 8.3999 16.9603 8.3999C17.5034 8.3999 17.9401 8.64993 17.9401 8.95168C17.9401 9.25344 17.5034 9.50347 16.9603 9.50347C16.4171 9.50347 15.9805 9.25344 15.9805 8.95168Z" fill="#E6D6B2"/>
<path d="M15.9805 24.9874C15.9805 24.7719 16.4171 24.5908 16.9603 24.5908C17.5034 24.5908 17.9401 24.7633 17.9401 24.9874C17.9401 25.2116 17.5034 25.384 16.9603 25.384C16.4171 25.384 15.9805 25.2116 15.9805 24.9874Z" fill="#E6D6B2"/>
<path d="M16.6094 6.63653L16.6094 33.5747H17.3336L17.3336 6.63653H16.6094Z" fill="#E6D6B2"/>
<path d="M16.6035 4.08918V17.415H17.3277V4.08918H16.6035Z" fill="#E6D6B2"/>
<path d="M17.3281 52.5119L17.3281 25.5737H16.6039L16.6039 52.5119H17.3281Z" fill="#E6D6B2"/>
<path d="M17.3379 55.0602V41.7344H16.6137V55.0602H17.3379Z" fill="#E6D6B2"/>
<path d="M12.4258 9.94335C12.4258 9.94335 10.1254 9.69332 10.6366 9.15879C11.1478 8.62425 12.3619 9.85713 12.4258 9.94335Z" fill="#E6D6B2"/>
<path d="M13.6284 32.1005C13.7456 32.3419 13.8201 32.5402 13.9799 32.7643C14.1396 32.9885 14.2781 33.1609 14.5976 33.4454C14.8531 33.661 15.0129 33.8593 14.9703 34.1783C14.949 34.3248 14.8744 34.4714 14.7466 34.5749C14.5869 34.7473 14.3739 34.7904 14.1289 34.6956C13.9798 34.6438 14.0544 34.4369 14.2035 34.5231C14.3846 34.7387 14.7893 34.4973 14.6082 34.2817C14.2248 33.842 13.458 34.3593 13.8734 34.7645C14.4272 35.3163 15.3111 34.6524 15.4708 34.2472C15.5986 33.9282 15.6093 33.5661 15.4708 33.0575C15.3537 32.6178 14.9384 32.2212 14.6402 31.8504C14.31 31.4538 13.9266 31.109 13.6817 30.6693C13.4048 30.1606 13.3941 29.6778 13.3196 29.1433C13.3196 29.1346 13.2983 29.126 13.2876 29.1433C13.1172 29.5743 13.1811 30.0744 13.2237 30.5141C13.277 31.0314 13.3941 31.6177 13.6178 32.1005H13.6284Z" fill="#E6D6B2"/>
<path d="M13.5252 30.5485L13.2271 29.4708C13.2484 29.3673 12.9928 29.5484 12.9289 29.6087C12.652 29.8673 12.3431 30.2295 12.2366 30.5571C12.0769 31.0313 12.226 31.6693 12.652 32.0314C12.833 32.1779 13.0034 32.2469 13.2058 32.3331C13.3549 32.3935 13.3975 32.5487 13.4294 32.678C13.5146 32.997 13.4188 33.3505 13.1951 33.6177C12.9715 33.8764 12.5881 34.0661 12.1834 34.0057C11.981 33.9798 11.6083 33.8247 11.7467 33.6005C11.8106 33.4884 11.8958 33.497 12.0449 33.5229C12.6307 33.6091 12.8117 32.8418 12.2473 32.7039C11.342 32.4711 10.6817 33.3074 11.374 33.8505C11.8639 34.2385 12.6413 34.2988 13.1419 33.8936C13.3975 33.6953 13.5466 33.4108 13.5892 33.1349C13.6318 32.928 13.6318 32.7125 13.6318 32.5056C13.6318 32.2383 13.8235 32.0055 13.8874 31.7555C13.9939 31.3675 13.7489 30.8761 13.504 30.5398" fill="#E6D6B2"/>
<path d="M11.3838 20.2636C9.93538 19.4445 8.12488 20.3498 8.07163 21.8931C8.05033 22.5483 8.30593 23.1173 8.66803 23.6519C9.82887 25.3848 12.502 25.8245 14.3338 24.7554C14.4616 24.6865 14.5894 24.6261 14.7279 24.5571C14.7172 24.6865 14.664 24.7554 14.6001 24.8158C13.4712 25.7555 11.3838 25.9797 10.0525 25.2814C8.46568 24.4537 7.74148 23.1432 7.47523 21.5482C7.19833 19.8498 8.42307 18.4703 9.79692 18.022C11.1388 17.5823 12.5233 17.5133 13.8759 17.9703C14.2699 18.1082 14.6533 18.272 15.0261 18.4531C15.5586 18.7031 16.0591 18.0651 15.5373 17.7978C15.5373 17.7978 15.5266 17.7978 15.516 17.7978C13.9185 16.996 12.2464 16.7891 10.4785 17.2116C7.59238 17.9099 5.96294 20.8499 7.10248 23.2984C8.10358 25.4193 11.0217 26.8591 13.6096 25.6435C14.0569 25.4279 14.4829 25.1693 14.9196 24.9365H14.9302C14.877 25.2814 14.7811 25.6262 14.5788 25.928C13.7587 27.1436 13.4712 27.3419 11.8737 28.3851C11.4477 28.661 10.7661 28.8507 10.4572 29.2387C9.98862 29.8077 10.3081 30.9026 10.9152 31.1871H10.9258C11.2453 30.3422 11.863 29.6956 12.534 29.0835C13.3966 28.3075 14.0995 27.8075 14.632 26.7901C14.6746 26.7212 14.8663 26.3591 14.9196 26.2987C14.845 26.6263 14.8344 26.747 14.7811 26.9712C14.5788 27.9109 13.9611 29.2214 14.1421 30.2043C14.2486 30.7819 14.3871 31.032 14.7918 31.2906C15.2071 31.5665 15.8461 31.3251 15.9526 31.0837C15.4414 31.0837 15.0048 30.6181 14.8983 30.3767C14.6427 29.7646 14.8983 28.6869 15.058 27.8592C15.2604 26.8505 15.4734 25.8418 15.6225 24.8244C15.6864 24.3675 15.6331 23.9019 15.6331 23.3329C15.6331 23.3329 15.6331 23.3243 15.6225 23.3329C15.4734 23.4794 15.3882 23.557 15.3136 23.6433C14.6853 24.3071 13.9185 24.7468 12.9493 24.8761C11.1069 25.1089 9.79693 24.3157 9.48808 22.7552C9.36028 22.1345 9.74367 21.3585 10.3294 21.0395C10.8832 20.7464 11.8098 21.2292 11.65 21.7724C11.65 21.7724 12.2784 20.7809 11.3731 20.2636H11.3838Z" fill="#E6D6B2"/>
<path d="M7.58741 24.5996C7.50221 24.4875 7.04425 24.453 6.58631 23.8323C6.26681 23.4012 6.05381 22.927 5.79821 22.4701C5.45741 21.8407 4.90361 21.4786 4.12617 21.4096C3.87057 21.3838 3.62561 21.3407 3.48717 21.3234C3.22092 21.6338 3.05052 21.9787 2.76297 22.1425C2.13462 22.496 1.45302 22.1252 1.24003 21.3838C0.920526 20.2802 1.54887 19.3405 2.91207 18.9783C3.28482 18.8749 3.41262 18.8232 3.44457 18.3576C3.45522 18.1421 3.70017 17.8144 3.93447 17.7455C4.28591 17.642 4.72256 17.6334 5.35091 18.0558C5.51066 18.1593 5.67041 18.3921 5.79821 18.6249C6.10706 19.1939 6.11771 19.8491 6.28811 20.4526C6.30941 20.5561 6.44786 20.9699 6.39461 20.9872C6.34136 20.901 6.02186 20.3319 5.96861 20.2457C5.61716 19.6681 5.10596 19.3318 4.33917 19.3405C3.45522 19.3491 2.64582 19.5043 2.08137 20.194C1.79382 20.5389 1.68732 20.9182 1.86837 21.332C1.99617 21.6252 2.31567 21.7804 2.61387 21.6941C2.95467 21.5993 3.16767 21.2717 3.08247 20.9613C2.94402 20.4181 3.41262 19.9181 4.11551 19.875C4.93556 19.8319 5.69171 20.2285 6.01121 21.0561C6.37331 22.0218 6.35201 22.4011 6.75671 23.3667C6.77801 23.4185 7.4383 24.4703 7.59805 24.5996H7.58741Z" fill="#E6D6B2"/>
<path d="M12.7243 23.0052C13.0651 23.419 13.5656 23.5742 14.3644 23.4535C15.4187 23.2983 16.1642 21.6602 16.0258 21.0049C15.5572 18.8668 12.7669 17.7632 10.0298 18.565C9.85945 18.6168 9.68905 18.6857 9.5293 18.7461V18.7547C11.3611 18.8754 12.6923 19.5048 13.0331 21.2722C13.0331 21.2722 13.0331 21.2722 13.0438 21.2722C13.5337 21.0222 13.5017 20.5308 12.884 19.2461C12.884 19.2461 12.884 19.2375 12.8947 19.2375C13.523 19.4962 14.0129 20.229 13.9916 20.8756C13.981 21.5309 13.3633 22.1258 12.6604 22.1171C12.6604 22.1171 12.3196 22.5051 12.7136 22.9965L12.7243 23.0052Z" fill="#E6D6B2"/>
<path d="M6.33679 25.264C4.8458 24.6691 4.30265 24.5829 3.19505 24.8157C3.10985 24.833 3.02465 24.8847 2.93945 24.9192C3.6956 25.1606 4.04705 25.7382 4.5263 26.1865C4.98424 26.6176 5.49544 26.9711 6.12379 27.1349C7.10359 27.4022 7.73194 27.5315 8.91409 27.5832C9.49983 27.6091 10.8417 27.3677 11.3742 27.0573C11.3742 27.0573 11.3742 27.0401 11.3742 27.0487C10.1175 27.3763 8.45614 27.3763 7.13554 26.5573C7.13554 26.5573 7.13554 26.54 7.13554 26.5487C8.76498 27.0746 10.3838 27.1349 11.9919 26.6694C12.3647 26.5487 12.8439 26.3417 12.8439 26.2986C12.0345 26.5314 11.6831 26.4883 11.5553 26.4969C11.5553 26.4969 9.57438 26.5228 7.88104 25.8762C6.68824 25.4192 6.33679 25.2727 6.33679 25.2727V25.264Z" fill="#E6D6B2"/>
<path d="M9.56307 30.773H9.57371C9.66956 31.1782 9.32876 31.6697 8.92406 31.7473C7.85907 31.9542 6.67692 31.4024 6.68757 30.4195C6.68757 29.2384 7.59282 28.5832 8.90277 28.1262C9.52046 27.9107 10.1169 27.8589 10.7878 27.6003C12.2256 27.0399 12.2469 27.0054 12.9711 26.5312C13.0669 26.4709 13.5994 26.1777 13.6953 26.126C13.8231 26.057 14.068 25.8846 14.1106 25.876C14.0361 26.1174 12.8113 26.9623 12.6516 27.0658C11.8422 27.583 11.331 27.8934 10.5109 28.3935C10.0636 28.6607 9.58437 28.9022 9.17967 29.2039C8.92407 29.3936 8.43417 29.7126 8.27442 29.9885C8.05077 30.3678 8.15727 30.7644 8.44482 30.9282C8.58327 31.0058 9.15837 31.2041 9.55242 30.7644L9.56307 30.773Z" fill="#E6D6B2"/>
<path d="M3.36246 27.3239C1.93537 26.9704 0.518922 26.2548 0.0929229 24.9875C-0.237226 24.0046 0.337874 22.9097 1.41352 22.8407C2.38267 22.7803 2.64891 23.3063 2.78736 23.7373C2.56371 23.5218 2.32941 23.3407 2.06317 23.3839C1.81822 23.4183 1.25377 23.6597 1.28572 24.2633C1.31767 24.9099 1.57327 25.2892 1.81822 25.5565C2.40396 26.1859 4.71501 27.2981 5.97171 27.5222C6.40835 27.5998 8.2082 27.8154 9.03889 27.8757C9.03889 27.8757 6.05691 27.9878 3.37312 27.3239H3.36246Z" fill="#E6D6B2"/>
<path d="M6.86655 28.7815C6.50445 29.0401 6.3021 29.135 5.9613 29.4195C5.43946 29.8419 4.90696 30.2471 4.86436 30.8593C4.84306 31.1783 5.00281 31.5921 5.40751 31.73C5.78026 31.8594 6.21691 31.73 6.37666 31.4542H6.3873C6.6855 31.8766 6.44055 32.4025 5.90806 32.5405C5.46076 32.6526 4.85371 32.4974 4.53421 32.1353C3.79936 31.2903 4.09756 29.885 5.62051 29.1263C6.05715 28.9022 6.9411 28.5142 7.63335 28.29C7.39905 28.3935 7.03695 28.6521 6.8559 28.7815H6.86655Z" fill="#E6D6B2"/>
<path d="M7.52981 24.815C7.00797 24.5995 5.55957 24.7374 4.92057 23.8235C4.73952 23.5649 4.62237 23.1166 4.48392 22.7976C4.33482 22.4872 4.14313 22.2717 3.64258 22.2372C3.64258 22.2372 3.64258 22.2372 3.64258 22.2286C3.90883 22.0044 4.42002 21.9096 4.81407 21.9872C5.09097 22.0475 5.30397 22.3837 5.30397 22.7027C5.30397 23.3235 5.39982 23.9356 6.42222 24.3322C6.45417 24.3408 7.54046 24.7461 7.55111 24.8237L7.52981 24.815Z" fill="#E6D6B2"/>
<path d="M2.5332 28.5838C3.5556 27.6872 4.65255 27.92 5.77079 28.3683C5.77079 28.3683 5.77079 28.3683 5.77079 28.3769C5.22765 28.9718 3.3 29.0925 2.5332 28.5925C2.5332 28.5925 2.5332 28.5925 2.5332 28.5838Z" fill="#E6D6B2"/>
<path d="M7.24875 16.8056C7.24875 16.8056 7.24875 16.797 7.2594 16.8056C7.67475 17.2108 7.80255 17.6764 7.5789 18.1764C7.2807 18.8144 6.95055 19.4438 6.5778 20.1594C6.5778 20.1594 6.56715 20.1594 6.5565 20.1594C6.48195 19.5128 6.5991 18.961 6.7269 18.4092C6.84405 17.866 7.39785 17.435 7.24875 16.8142V16.8056Z" fill="#E6D6B2"/>
<path d="M5.77625 17.0732C5.77625 17.0732 5.7656 17.0732 5.75495 17.0732C5.64845 17.0732 4.98815 17.0991 5.11595 17.375C5.15855 17.4698 5.2757 17.5302 5.4035 17.5647C6.2981 17.7802 5.88275 18.4182 6.2129 18.8665C6.2129 18.8665 6.8945 17.1853 5.77625 17.0819V17.0732Z" fill="#E6D6B2"/>
<path d="M8.071 16.7713C7.91125 17.1507 8.071 17.5817 8.071 17.987C8.071 17.987 8.071 17.9956 8.08165 17.987C8.2201 17.7973 8.4118 17.6248 8.52895 17.4266C8.6887 17.1507 8.71 16.8662 8.44375 16.6247C8.44375 16.6247 8.18815 16.5127 8.08165 16.7713H8.071Z" fill="#E6D6B2"/>
<path d="M14.4709 23.9443C14.4709 23.9443 12.5326 24.9617 11.2546 24.134C11.2546 24.134 10.2428 23.5219 10.4984 22.7373C10.4984 22.7373 11.6699 24.6082 14.4709 23.9443Z" fill="#E6D6B2"/>
<path d="M20.3798 32.1005C20.2627 32.3419 20.1881 32.5402 20.0284 32.7643C19.8686 32.9885 19.7302 33.1609 19.4107 33.4454C19.1551 33.661 18.9953 33.8593 19.0379 34.1783C19.0592 34.3248 19.1338 34.4714 19.2616 34.5749C19.4213 34.7473 19.6343 34.7904 19.8793 34.6956C20.0284 34.6438 19.9538 34.4369 19.8047 34.5231C19.6237 34.7387 19.219 34.4973 19.4 34.2817C19.7834 33.842 20.5502 34.3593 20.1349 34.7645C19.5811 35.3163 18.6971 34.6524 18.5374 34.2472C18.4096 33.9282 18.3989 33.5661 18.5374 33.0575C18.6545 32.6178 19.0699 32.2212 19.3681 31.8504C19.6982 31.4538 20.0816 31.109 20.3266 30.6693C20.6035 30.1606 20.6141 29.6778 20.6887 29.1433C20.6887 29.1346 20.71 29.126 20.7206 29.1433C20.891 29.5743 20.8271 30.0744 20.7845 30.5141C20.7313 31.0314 20.6141 31.6177 20.3905 32.1005H20.3798Z" fill="#E6D6B2"/>
<path d="M20.4892 30.5485L20.7874 29.4708C20.7661 29.3673 21.0218 29.5484 21.0857 29.6087C21.3626 29.8673 21.6714 30.2295 21.7779 30.5571C21.9376 31.0313 21.7885 31.6693 21.3625 32.0314C21.1815 32.1779 21.0111 32.2469 20.8088 32.3331C20.6597 32.3935 20.6171 32.5487 20.5851 32.678C20.4999 32.997 20.5958 33.3505 20.8194 33.6177C21.0431 33.8764 21.4264 34.0661 21.8311 34.0057C22.0335 33.9798 22.4062 33.8247 22.2678 33.6005C22.2039 33.4884 22.1187 33.497 21.9696 33.5229C21.3838 33.6091 21.2028 32.8418 21.7673 32.7039C22.6725 32.4711 23.3328 33.3074 22.6405 33.8505C22.1506 34.2385 21.3732 34.2988 20.8726 33.8936C20.617 33.6953 20.468 33.4108 20.4254 33.1349C20.3828 32.928 20.3828 32.7125 20.3828 32.5056C20.3828 32.2383 20.1911 32.0055 20.1272 31.7555C20.0207 31.3675 20.2656 30.8761 20.5106 30.5398" fill="#E6D6B2"/>
<path d="M22.6274 20.2636C24.0758 19.4445 25.8863 20.3498 25.9396 21.8931C25.9609 22.5483 25.7053 23.1173 25.3432 23.6519C24.1823 25.3848 21.5092 25.8245 19.6774 24.7554C19.5496 24.6865 19.4218 24.6261 19.2833 24.5571C19.294 24.6865 19.3472 24.7554 19.4111 24.8158C20.54 25.7555 22.6274 25.9797 23.9587 25.2814C25.5455 24.4537 26.2697 23.1432 26.536 21.5482C26.8129 19.8498 25.5881 18.4703 24.2143 18.022C22.8724 17.5823 21.4879 17.5133 20.1353 17.9703C19.7413 18.1082 19.3579 18.272 18.9851 18.4531C18.4526 18.7031 17.9521 18.0651 18.4739 17.7978C18.4739 17.7978 18.4846 17.7978 18.4952 17.7978C20.0927 16.996 21.7648 16.7891 23.5327 17.2116C26.4188 17.9099 28.0483 20.8499 26.9087 23.2984C25.9076 25.4193 22.9895 26.8591 20.4016 25.6435C19.9543 25.4279 19.5283 25.1693 19.0916 24.9365H19.081C19.1342 25.2814 19.2301 25.6262 19.4324 25.928C20.2525 27.1436 20.54 27.3419 22.1375 28.3851C22.5635 28.661 23.2451 28.8507 23.554 29.2387C24.0226 29.8077 23.7031 30.9026 23.096 31.1871H23.0854C22.7659 30.3422 22.1482 29.6956 21.4772 29.0835C20.6146 28.3075 19.9117 27.8075 19.3792 26.7901C19.3366 26.7212 19.1449 26.3591 19.0916 26.2987C19.1662 26.6263 19.1768 26.747 19.2301 26.9712C19.4324 27.9109 20.0501 29.2214 19.8691 30.2043C19.7626 30.7819 19.6241 31.032 19.2194 31.2906C18.8041 31.5665 18.1651 31.3251 18.0586 31.0837C18.5698 31.0837 19.0064 30.6181 19.1129 30.3767C19.3685 29.7646 19.1129 28.6869 18.9532 27.8592C18.7508 26.8505 18.5378 25.8418 18.3887 24.8244C18.3248 24.3675 18.3781 23.9019 18.3781 23.3329C18.3781 23.3329 18.3781 23.3243 18.3887 23.3329C18.5378 23.4794 18.623 23.557 18.6976 23.6433C19.3259 24.3071 20.0927 24.7468 21.0619 24.8761C22.9043 25.1089 24.2143 24.3157 24.5231 22.7552C24.6509 22.1345 24.2675 21.3585 23.6818 21.0395C23.128 20.7464 22.2014 21.2292 22.3612 21.7724C22.3612 21.7724 21.7328 20.7809 22.6381 20.2636H22.6274Z" fill="#E6D6B2"/>
<path d="M26.4071 24.5996C26.4923 24.4875 26.9503 24.453 27.4082 23.8323C27.7277 23.4012 27.9407 22.927 28.1963 22.4701C28.5371 21.8407 29.0909 21.4786 29.8684 21.4096C30.124 21.3838 30.3689 21.3407 30.5074 21.3234C30.7736 21.6338 30.944 21.9787 31.2316 22.1425C31.8599 22.496 32.5415 22.1252 32.7545 21.3838C33.074 20.2802 32.4457 19.3405 31.0825 18.9783C30.7097 18.8749 30.5819 18.8232 30.55 18.3576C30.5393 18.1421 30.2944 17.8144 30.0601 17.7455C29.7086 17.642 29.272 17.6334 28.6436 18.0558C28.4839 18.1593 28.3241 18.3921 28.1963 18.6249C27.8875 19.1939 27.8768 19.8491 27.7064 20.4526C27.6851 20.5561 27.5467 20.9699 27.5999 20.9872C27.6532 20.901 27.9727 20.3319 28.0259 20.2457C28.3774 19.6681 28.8886 19.3318 29.6554 19.3405C30.5393 19.3491 31.3487 19.5043 31.9132 20.194C32.2007 20.5389 32.3072 20.9182 32.1262 21.332C31.9984 21.6252 31.6789 21.7804 31.3807 21.6941C31.0399 21.5993 30.8269 21.2717 30.9121 20.9613C31.0505 20.4181 30.5819 19.9181 29.879 19.875C29.059 19.8319 28.3028 20.2285 27.9833 21.0561C27.6212 22.0218 27.6425 22.4011 27.2378 23.3667C27.2165 23.4185 26.5562 24.4703 26.3965 24.5996H26.4071Z" fill="#E6D6B2"/>
<path d="M21.2751 23.0052C20.9343 23.419 20.4337 23.5742 19.635 23.4535C18.5806 23.2983 17.8351 21.6602 17.9736 21.0049C18.4422 18.8668 21.2325 17.7632 23.9695 18.565C24.1399 18.6168 24.3103 18.6857 24.4701 18.7461V18.7547C22.6383 18.8754 21.307 19.5048 20.9662 21.2722C20.9662 21.2722 20.9662 21.2722 20.9556 21.2722C20.4657 21.0222 20.4976 20.5308 21.1153 19.2461C21.1153 19.2461 21.1153 19.2375 21.1047 19.2375C20.4763 19.4962 19.9864 20.229 20.0077 20.8756C20.0184 21.5309 20.6361 22.1258 21.339 22.1171C21.339 22.1171 21.6798 22.5051 21.2857 22.9965L21.2751 23.0052Z" fill="#E6D6B2"/>
<path d="M27.6731 25.264C29.1641 24.6691 29.7073 24.5829 30.8149 24.8157C30.9001 24.833 30.9853 24.8847 31.0705 24.9192C30.3143 25.1606 29.9629 25.7382 29.4836 26.1865C29.0257 26.6176 28.5145 26.9711 27.8862 27.1349C26.9064 27.4022 26.278 27.5315 25.0959 27.5832C24.5101 27.6091 23.1682 27.3677 22.6357 27.0573C22.6357 27.0573 22.6357 27.0401 22.6357 27.0487C23.8924 27.3763 25.5538 27.3763 26.8744 26.5573C26.8744 26.5573 26.8744 26.54 26.8744 26.5487C25.245 27.0746 23.6262 27.1349 22.018 26.6694C21.6453 26.5487 21.166 26.3417 21.166 26.2986C21.9754 26.5314 22.3269 26.4883 22.4547 26.4969C22.4547 26.4969 24.4356 26.5228 26.1289 25.8762C27.3217 25.4192 27.6731 25.2727 27.6731 25.2727V25.264Z" fill="#E6D6B2"/>
<path d="M24.4499 30.773H24.4392C24.3434 31.1782 24.6842 31.6697 25.0889 31.7473C26.1539 31.9542 27.336 31.4024 27.3254 30.4195C27.3254 29.2384 26.4201 28.5832 25.1102 28.1262C24.4925 27.9107 23.8961 27.8589 23.2251 27.6003C21.7874 27.0399 21.7661 27.0054 21.0419 26.5312C20.946 26.4709 20.4135 26.1777 20.3177 26.126C20.1899 26.057 19.9449 25.8846 19.9023 25.876C19.9769 26.1174 21.2016 26.9623 21.3614 27.0658C22.1708 27.583 22.682 27.8934 23.502 28.3935C23.9493 28.6607 24.4286 28.9022 24.8333 29.2039C25.0889 29.3936 25.5788 29.7126 25.7385 29.9885C25.9622 30.3678 25.8557 30.7644 25.5681 30.9282C25.4297 31.0058 24.8546 31.2041 24.4605 30.7644L24.4499 30.773Z" fill="#E6D6B2"/>
<path d="M30.6354 27.3239C32.0625 26.9704 33.479 26.2548 33.905 24.9875C34.2351 24.0046 33.66 22.9097 32.5844 22.8407C31.6152 22.7803 31.349 23.3063 31.2105 23.7373C31.4342 23.5218 31.6685 23.3407 31.9347 23.3839C32.1797 23.4183 32.7441 23.6597 32.7122 24.2633C32.6802 24.9099 32.4246 25.2892 32.1797 25.5565C31.5939 26.1859 29.2829 27.2981 28.0262 27.5222C27.5895 27.5998 25.7897 27.8154 24.959 27.8757C24.959 27.8757 27.941 27.9878 30.6248 27.3239H30.6354Z" fill="#E6D6B2"/>
<path d="M27.1438 28.7815C27.5059 29.0401 27.7082 29.135 28.049 29.4195C28.5709 29.8419 29.1034 30.2471 29.146 30.8593C29.1673 31.1783 29.0075 31.5921 28.6028 31.73C28.2301 31.8594 27.7934 31.73 27.6336 31.4542H27.623C27.3248 31.8766 27.5698 32.4025 28.1023 32.5405C28.5495 32.6526 29.1566 32.4974 29.4761 32.1353C30.2109 31.2903 29.9127 29.885 28.3898 29.1263C27.9532 28.9022 27.0692 28.5142 26.377 28.29C26.6113 28.3935 26.9734 28.6521 27.1544 28.7815H27.1438Z" fill="#E6D6B2"/>
<path d="M26.4803 24.815C27.0021 24.5995 28.4505 24.7374 29.0895 23.8235C29.2706 23.5649 29.3877 23.1166 29.5262 22.7976C29.6753 22.4872 29.867 22.2717 30.3675 22.2372C30.3675 22.2372 30.3675 22.2372 30.3675 22.2286C30.1013 22.0044 29.5901 21.9096 29.196 21.9872C28.9191 22.0475 28.7061 22.3837 28.7061 22.7027C28.7061 23.3235 28.6103 23.9356 27.5879 24.3322C27.5559 24.3408 26.4696 24.7461 26.459 24.8237L26.4803 24.815Z" fill="#E6D6B2"/>
<path d="M31.4642 28.5838C30.4418 27.6872 29.3448 27.92 28.2266 28.3683C28.2266 28.3683 28.2266 28.3683 28.2266 28.3769C28.7697 28.9718 30.6974 29.0925 31.4642 28.5925C31.4642 28.5925 31.4642 28.5925 31.4642 28.5838Z" fill="#E6D6B2"/>
<path d="M26.7535 16.8056C26.7535 16.8056 26.7535 16.797 26.7428 16.8056C26.3275 17.2108 26.1997 17.6764 26.4233 18.1764C26.7215 18.8144 27.0517 19.4438 27.4244 20.1594C27.4244 20.1594 27.4351 20.1594 27.4457 20.1594C27.5203 19.5128 27.4031 18.961 27.2753 18.4092C27.1582 17.866 26.6044 17.435 26.7535 16.8142V16.8056Z" fill="#E6D6B2"/>
<path d="M28.2322 17.0732C28.2322 17.0732 28.2428 17.0732 28.2535 17.0732C28.36 17.0732 29.0203 17.0991 28.8925 17.375C28.8499 17.4698 28.7327 17.5302 28.6049 17.5647C27.7103 17.7802 28.1257 18.4182 27.7955 18.8665C27.7955 18.8665 27.1139 17.1853 28.2322 17.0819V17.0732Z" fill="#E6D6B2"/>
<path d="M25.9412 16.7713C26.101 17.1507 25.9412 17.5817 25.9412 17.987C25.9412 17.987 25.9412 17.9956 25.9306 17.987C25.7921 17.7973 25.6004 17.6248 25.4833 17.4266C25.3235 17.1507 25.3022 16.8662 25.5685 16.6247C25.5685 16.6247 25.8241 16.5127 25.9306 16.7713H25.9412Z" fill="#E6D6B2"/>
<path d="M19.5352 23.9443C19.5352 23.9443 21.4735 24.9617 22.7515 24.134C22.7515 24.134 23.7632 23.5219 23.5076 22.7373C23.5076 22.7373 22.3361 24.6082 19.5352 23.9443Z" fill="#E6D6B2"/>
<path d="M16.9199 1.75258C16.9199 1.75258 16.1212 -0.0751918 16.9519 0.00240246C17.7826 0.0799967 16.9838 1.66637 16.9199 1.75258Z" fill="#E6D6B2"/>
<path d="M21.4702 8.52026C21.5021 8.2185 21.3743 7.98572 21.5554 7.69258C21.7471 7.37358 22.0772 7.17529 22.3967 6.94251C22.418 6.92526 22.3967 6.88215 22.3648 6.89078C21.7897 7.04596 21.4489 7.4598 20.959 7.72707C20.7247 7.84777 20.4584 7.88226 20.2348 8.03745C19.9685 8.22712 19.8301 8.49439 19.6597 8.74442C19.3828 9.16687 19.1059 9.56347 18.8929 10.0032C18.6692 10.4774 18.2326 10.5377 17.6895 10.6929C18.1261 10.8308 18.584 10.6412 19.01 10.5894C19.01 10.5894 21.2891 10.2963 21.4595 8.52888L21.4702 8.52026Z" fill="#E6D6B2"/>
<path d="M20.6295 8.02007C20.7892 7.79591 20.9277 7.62348 21.0448 7.38208C21.162 7.14067 21.2472 6.94238 21.3111 6.56303C21.3643 6.26989 21.4495 6.03711 21.7797 5.8733C21.9288 5.7957 22.1205 5.7526 22.3015 5.76122C22.5678 5.76122 22.7382 5.85606 22.8127 6.0716C22.8553 6.20092 22.6104 6.27851 22.5997 6.13195C22.6849 5.88192 22.2057 5.77846 22.1205 6.02849C21.9394 6.54578 22.9192 6.70097 23.047 6.18368C23.2281 5.49395 22.0353 5.34738 21.5347 5.50257C21.1513 5.62327 20.7999 5.84743 20.3952 6.25265C20.0437 6.60613 19.9266 7.11481 19.7562 7.52864C19.5751 7.98559 19.5006 8.44253 19.2237 8.87361C18.9042 9.36504 18.4569 9.68404 17.9883 10.0634C17.9883 10.0634 17.9883 10.0893 17.9989 10.0806C18.5208 9.91682 18.9574 9.56334 19.3515 9.25296C19.8094 8.89085 20.2993 8.45115 20.6188 8.00283L20.6295 8.02007Z" fill="#E6D6B2"/>
<path d="M18.4645 10.6845L17.1652 11.0035C17.0374 11.0035 17.2824 11.1845 17.3569 11.2363C17.6871 11.4432 18.1663 11.6587 18.571 11.7277C19.1674 11.8225 19.9448 11.6587 20.3602 11.288C20.5306 11.1328 20.6051 10.9862 20.701 10.8138C20.7649 10.6845 20.9566 10.6414 21.1057 10.6069C21.4891 10.5121 21.9364 10.5638 22.2772 10.7276C22.618 10.8828 22.8736 11.1845 22.831 11.5122C22.8097 11.676 22.6499 11.9864 22.3624 11.9001C22.2239 11.857 22.2239 11.7881 22.2452 11.6674C22.3091 11.1845 21.3506 11.0983 21.2122 11.5639C20.9885 12.314 22.0748 12.7795 22.6819 12.1846C23.1185 11.7622 23.1398 11.1328 22.6073 10.7535C22.3411 10.5638 21.979 10.469 21.6382 10.4431C21.3826 10.4258 21.1163 10.4431 20.8607 10.4517C20.5306 10.469 20.2324 10.3396 19.9235 10.2965C19.4336 10.2362 18.8479 10.4776 18.4538 10.6931" fill="#E6D6B2"/>
<path d="M18.9644 7.3738C19.1561 7.23585 19.3904 7.14101 19.5502 6.9772C19.8271 6.70993 19.7099 6.36507 19.3052 6.23575C18.6343 6.02883 17.9846 6.62372 17.6971 7.06342C17.5267 7.32207 17.3243 7.71004 17.2604 7.98593C17.1752 8.33941 17.122 8.66703 17.1113 8.95155C17.1113 8.99465 17.2178 9.08087 17.2391 9.04638C17.335 8.82222 17.5373 8.39114 17.7716 8.24458L18.9644 7.3738Z" fill="#E6D6B2"/>
<path d="M18.3966 5.02005C17.4807 4.86486 16.7245 5.89945 16.6713 6.52883C16.6074 7.30477 16.7565 8.08933 16.9482 8.84803C16.9482 8.8739 17.0014 8.86528 17.0121 8.84803C17.0653 8.19279 17.1612 7.39961 17.5552 6.84783C17.7043 6.64091 18.0238 6.39088 18.2155 6.20121C18.4498 5.9598 18.7054 5.89083 18.7906 5.58045C18.8545 5.35629 18.7054 5.07178 18.3966 5.02867V5.02005Z" fill="#E6D6B2"/>
<path d="M16.4824 5.53738C16.4824 5.53738 16.5144 5.57187 16.525 5.55462C16.951 4.92525 17.5687 4.53728 18.442 4.40795C18.6124 4.38209 18.7828 4.36485 18.9532 4.36485C19.1236 4.36485 19.294 4.39933 19.4538 4.3476C19.5816 4.30449 19.5603 4.2269 19.6348 4.36485C19.7307 4.53728 19.6668 4.74419 19.539 4.89076C19.4538 4.9856 19.3473 5.05457 19.2195 5.1063C19.1556 5.13217 18.9532 5.20976 18.868 5.20114C18.7722 5.20114 18.7083 5.13217 18.7615 5.08044C18.9745 5.04595 18.9532 4.83041 18.8148 4.75282C18.5698 4.59763 18.1864 4.75282 18.229 5.02871C18.2716 5.23562 18.5698 5.35633 18.8041 5.33908C19.113 5.32184 19.4538 5.15803 19.6561 4.95973C19.8904 4.71833 19.9543 4.4252 19.8691 4.14931C19.7413 3.73547 19.3579 3.68374 19.3579 3.68374C19.3579 3.68374 20.9448 3.30439 21.1258 2.87331C21.2004 2.68364 21.1471 2.50258 20.9767 2.35602C20.5614 2.01115 19.965 2.27842 19.5283 2.43361C19.3366 2.50258 19.1556 2.58018 18.9958 2.66639C19.1662 2.41637 19.3686 2.05426 19.2834 1.76975C19.1449 1.28694 18.9 1.14037 18.6657 0.976562C18.6657 0.976562 19.3473 1.89045 17.2705 3.31301C16.2907 3.9855 16.525 5.55462 16.525 5.55462L16.4824 5.53738Z" fill="#E6D6B2"/>
<path d="M21.4395 9.96825C21.4395 9.96825 23.7398 9.71823 23.2286 9.18369C22.7174 8.64915 21.5034 9.88204 21.4395 9.96825Z" fill="#E6D6B2"/>
<path d="M16.9442 1.77895C16.9442 1.77895 17.743 -0.0488246 16.9123 0.0287696C16.0816 0.106364 16.8803 1.69274 16.9442 1.77895Z" fill="#E6D6B2"/>
</g>
</svg>
