<svg width="22" height="22" viewBox="0 0 22 22" fill="none" xmlns="http://www.w3.org/2000/svg">
<path d="M10.6236 21.7211C9.15398 21.7211 7.77292 21.4361 6.48038 20.8659C5.18785 20.2957 4.06352 19.5219 3.1074 18.5444C2.15127 17.567 1.39434 16.4176 0.836607 15.0962C0.278869 13.7748 0 12.3629 0 10.8606C0 9.35819 0.278869 7.94632 0.836607 6.62495C1.39434 5.30358 2.15127 4.15417 3.1074 3.17672C4.06352 2.19927 5.18785 1.42545 6.48038 0.85527C7.77292 0.28509 9.15398 0 10.6236 0C11.7745 0 12.8634 0.171959 13.8903 0.515877C14.9173 0.859795 15.8645 1.33947 16.7321 1.9549L15.1917 3.55684C14.5189 3.12241 13.8018 2.78302 13.0404 2.53866C12.2791 2.2943 11.4735 2.17211 10.6236 2.17211C8.26868 2.17211 6.26348 3.01833 4.60798 4.71077C2.95247 6.40321 2.12472 8.45314 2.12472 10.8606C2.12472 13.268 2.95247 15.3179 4.60798 17.0104C6.26348 18.7028 8.26868 19.549 10.6236 19.549C12.9785 19.549 14.9837 18.7028 16.6392 17.0104C18.2947 15.3179 19.1224 13.268 19.1224 10.8606C19.1224 10.5348 19.1047 10.2089 19.0693 9.88312C19.0339 9.5573 18.9808 9.24054 18.91 8.93282L20.6363 7.16798C20.8311 7.74721 20.9816 8.34454 21.0878 8.95997C21.194 9.5754 21.2472 10.2089 21.2472 10.8606C21.2472 12.3629 20.9683 13.7748 20.4105 15.0962C19.8528 16.4176 19.0959 17.567 18.1398 18.5444C17.1836 19.5219 16.0593 20.2957 14.7668 20.8659C13.4742 21.4361 12.0932 21.7211 10.6236 21.7211ZM9.13628 15.8564L4.62126 11.2407L6.10856 9.72021L9.13628 12.8155L19.7599 1.92775L21.2472 3.44823L9.13628 15.8564Z" fill="#3E2909"/>
</svg>
